<?xml version="1.0" encoding="utf-8"?>
<!-- Generator: Adobe Illustrator 16.0.0, SVG Export Plug-In . SVG Version: 6.00 Build 0)  -->
<!DOCTYPE svg PUBLIC "-//W3C//DTD SVG 1.1//EN" "http://www.w3.org/Graphics/SVG/1.1/DTD/svg11.dtd">
<svg version="1.1" id="图层_1" xmlns="http://www.w3.org/2000/svg" xmlns:xlink="http://www.w3.org/1999/xlink" x="0px" y="0px"
	 width="100px" height="100px" viewBox="0 0 100 100" enable-background="new 0 0 100 100" xml:space="preserve">
<g>
	<ellipse fill="#B49C4F" cx="49.74" cy="50.096" rx="49.74" ry="49.952"/>
	<path opacity="0.15" enable-background="new    " d="M98.982,57.094L74.227,32.23L63.594,49.282L39.977,25.563L25.609,58.688
		l19.752,19.838l-0.804,1.289l18.366,18.444C81.814,93.055,96.207,76.949,98.982,57.094z"/>
	<g>
		<g>
			<path fill="#F5E4AA" d="M34.157,21.041c0,0,10.508,5.613,13.223,17.558c3.205,14.103-5.296,22.646-10.682,23.699h-5.084
				c-5.383-1.053-13.885-9.596-10.68-23.699C23.648,26.654,34.157,21.041,34.157,21.041z"/>
			<path fill="#EFD371" d="M34.157,33.072c-0.353,2.22-0.537,4.438-0.661,6.659c-0.135,2.218-0.171,4.438-0.186,6.658
				c0.017,2.218,0.052,4.438,0.188,6.658c0.125,2.221,0.308,4.438,0.658,6.658c0.35-2.221,0.534-4.438,0.659-6.658
				c0.135-2.22,0.171-4.44,0.188-6.658c-0.016-2.22-0.05-4.44-0.185-6.658C34.694,37.511,34.51,35.292,34.157,33.072z
				 M28.458,38.072c-0.008,2.036,0.173,4.07,0.602,6.05c0.418,1.98,1.044,3.914,1.96,5.712c-0.244-2.002-0.494-3.953-0.657-5.907
				c-0.151-1.951-0.251-3.893-0.21-5.833c0.009-1.938,0.16-3.872,0.409-5.801c0.26-1.931,0.651-3.846,1.146-5.801
				c-1.141,1.667-1.924,3.574-2.443,5.54C28.733,33.999,28.499,36.038,28.458,38.072z M26.203,49.55
				c-0.534-1.688-0.851-3.44-1.022-5.224c-0.163-1.789-0.144-3.607-0.057-5.487c-0.773,1.715-1.183,3.603-1.265,5.514
				c-0.098,1.914,0.173,3.851,0.725,5.697c0.581,1.839,1.439,3.586,2.571,5.121c1.118,1.541,2.471,2.896,4.02,3.955
				c-1.054-1.558-2.056-3.076-2.907-4.662C27.425,52.878,26.706,51.248,26.203,49.55z M38.163,38.094
				c0.041,1.94-0.06,3.882-0.212,5.833c-0.162,1.954-0.412,3.905-0.657,5.907c0.916-1.798,1.542-3.731,1.961-5.712
				c0.428-1.98,0.609-4.014,0.601-6.05c-0.041-2.034-0.276-4.073-0.807-6.041c-0.519-1.965-1.303-3.873-2.442-5.54
				c0.495,1.956,0.886,3.871,1.146,5.801C38.001,34.222,38.152,36.155,38.163,38.094z M44.456,44.354
				c-0.082-1.911-0.49-3.799-1.266-5.514c0.087,1.879,0.106,3.698-0.056,5.487c-0.171,1.783-0.488,3.535-1.022,5.224
				c-0.503,1.698-1.223,3.328-2.064,4.915c-0.852,1.586-1.854,3.104-2.909,4.662c1.551-1.06,2.902-2.414,4.021-3.955
				c1.13-1.534,1.99-3.282,2.571-5.121C44.283,48.205,44.553,46.267,44.456,44.354z"/>
		</g>
		<g>
			<path fill="#F5E4AA" d="M53.902,27.221c0,0,8.861-2.722,16.904,2.355c9.494,5.992,9.5,15.396,7.111,18.952l-2.801,2.813
				c-3.542,2.397-12.901,2.394-18.871-7.142C51.193,36.12,53.902,27.221,53.902,27.221z"/>
			<path fill="#EFD371" d="M60.498,33.844c1.021,1.417,2.139,2.741,3.285,4.03c1.143,1.297,2.34,2.539,3.549,3.768
				c1.227,1.212,2.464,2.416,3.755,3.563c1.283,1.153,2.603,2.272,4.011,3.301c-1.021-1.415-2.138-2.74-3.285-4.03
				c-1.143-1.296-2.34-2.538-3.549-3.77c-1.224-1.213-2.461-2.416-3.752-3.563C63.229,35.99,61.908,34.87,60.498,33.844z
				 M60.104,39.747c1.108,1.125,2.324,2.145,3.646,2.998c1.314,0.859,2.721,1.578,4.208,2.062c-1.229-0.968-2.437-1.905-3.599-2.889
				c-1.153-0.991-2.272-2.005-3.313-3.095c-1.06-1.074-2.032-2.221-2.955-3.42c-0.916-1.208-1.749-2.478-2.55-3.828
				c0.285,1.548,0.898,3.032,1.691,4.401C58.021,37.353,59.009,38.604,60.104,39.747z M65.152,47.314
				c-1.221-0.635-2.355-1.424-3.426-2.313c-1.072-0.895-2.059-1.905-3.041-2.988c0.516,1.374,1.322,2.638,2.328,3.734
				c0.993,1.108,2.204,2.025,3.521,2.736c1.327,0.692,2.758,1.179,4.223,1.399c1.462,0.23,2.948,0.228,4.382-0.045
				c-1.432-0.275-2.82-0.559-4.158-0.959C67.648,48.469,66.359,47.969,65.152,47.314z M65.456,34.393
				c1.087,1.046,2.096,2.171,3.082,3.329c0.981,1.165,1.914,2.378,2.877,3.616c-0.479-1.497-1.198-2.908-2.052-4.229
				c-0.852-1.328-1.866-2.549-2.987-3.663c-1.138-1.097-2.384-2.091-3.755-2.881c-1.363-0.795-2.84-1.412-4.383-1.698
				c1.346,0.802,2.609,1.641,3.813,2.559C63.245,32.352,64.389,33.332,65.456,34.393z M72.354,34.361
				c-1.092-1.007-2.354-1.82-3.722-2.337c1.08,0.987,2.086,1.978,2.979,3.051c0.884,1.078,1.668,2.217,2.301,3.442
				c0.652,1.213,1.152,2.508,1.559,3.847c0.397,1.344,0.682,2.735,0.954,4.175c0.272-1.439,0.275-2.933,0.048-4.399
				c-0.225-1.471-0.705-2.909-1.396-4.242C74.368,36.576,73.455,35.361,72.354,34.361z"/>
		</g>
		<g>
			<path fill="#F5E4AA" d="M67.174,57.102c0,0,2.711,8.899-2.345,16.979c-5.966,9.533-15.332,9.535-18.872,7.142l-2.799-2.811
				c-2.387-3.559-2.384-12.962,7.112-18.954C58.313,54.382,67.174,57.102,67.174,57.102z"/>
			<path fill="#EFD371" d="M60.58,63.725c-1.41,1.026-2.729,2.147-4.014,3.301c-1.291,1.146-2.527,2.352-3.754,3.563
				c-1.207,1.231-2.403,2.474-3.546,3.771c-1.149,1.293-2.263,2.611-3.287,4.031c1.409-1.029,2.728-2.149,4.013-3.304
				c1.292-1.147,2.527-2.351,3.753-3.563c1.209-1.229,2.405-2.474,3.547-3.768C58.443,66.464,59.559,65.143,60.58,63.725z
				 M54.701,63.325c-1.121,1.116-2.135,2.335-2.986,3.665c-0.854,1.318-1.57,2.729-2.051,4.227c0.963-1.234,1.895-2.449,2.876-3.613
				c0.985-1.16,1.995-2.285,3.08-3.328c1.069-1.062,2.214-2.043,3.407-2.969c1.201-0.918,2.467-1.755,3.81-2.559
				c-1.54,0.284-3.017,0.9-4.382,1.697C57.085,61.234,55.838,62.229,54.701,63.325z M47.168,68.398
				c0.63-1.226,1.416-2.365,2.3-3.443c0.892-1.071,1.899-2.064,2.976-3.049c-1.364,0.516-2.626,1.328-3.718,2.335
				c-1.1,1-2.015,2.216-2.723,3.536c-0.687,1.334-1.172,2.771-1.393,4.242c-0.229,1.467-0.227,2.959,0.046,4.397
				c0.274-1.438,0.556-2.829,0.956-4.174C46.017,70.906,46.514,69.609,47.168,68.398z M60.032,68.703
				c-1.041,1.093-2.162,2.105-3.315,3.096c-1.16,0.984-2.365,1.921-3.6,2.889c1.488-0.482,2.895-1.203,4.211-2.061
				c1.32-0.854,2.537-1.872,3.648-2.997c1.092-1.146,2.08-2.397,2.865-3.772c0.792-1.367,0.059-1.778-0.857-0.57
				C62.064,66.482,61.09,67.632,60.032,68.703z M60.064,75.629c1.004-1.097,1.813-2.363,2.326-3.736
				c-0.982,1.086-1.97,2.099-3.039,2.989c-1.07,0.89-2.207,1.679-3.428,2.312c-1.209,0.658-2.494,1.158-3.831,1.565
				c-1.339,0.402-2.723,0.685-4.157,0.961c1.435,0.271,2.919,0.274,4.38,0.044c1.467-0.222,2.896-0.707,4.225-1.396
				C57.859,77.652,59.068,76.736,60.064,75.629z"/>
		</g>
	</g>
</g>
</svg>
