<?xml version="1.0" encoding="utf-8"?>
<!-- Generator: Adobe Illustrator 16.0.0, SVG Export Plug-In . SVG Version: 6.00 Build 0)  -->
<!DOCTYPE svg PUBLIC "-//W3C//DTD SVG 1.1//EN" "http://www.w3.org/Graphics/SVG/1.1/DTD/svg11.dtd">
<svg version="1.1" id="图层_1" xmlns="http://www.w3.org/2000/svg" xmlns:xlink="http://www.w3.org/1999/xlink" x="0px" y="0px"
	 width="100px" height="100px" viewBox="0 0 100 100" enable-background="new 0 0 100 100" xml:space="preserve">
<ellipse fill="#B0994F" cx="50" cy="50" rx="49.74" ry="49.952"/>
<radialGradient id="SVGID_1_" cx="50" cy="49.9995" r="34.2874" gradientUnits="userSpaceOnUse">
	<stop  offset="0" style="stop-color:#ABCD03"/>
	<stop  offset="1" style="stop-color:#ABCD03;stop-opacity:0"/>
</radialGradient>
<circle fill-rule="evenodd" clip-rule="evenodd" fill="url(#SVGID_1_)" cx="50" cy="50" r="34.287"/>
<g>
	<g>
		
			<radialGradient id="SVGID_2_" cx="-172.6348" cy="1636.5313" r="19.4236" gradientTransform="matrix(0.4523 0 0 0.129 135.8344 -131.7465)" gradientUnits="userSpaceOnUse">
			<stop  offset="0" style="stop-color:#040000"/>
			<stop  offset="0.1737" style="stop-color:#3B3633"/>
			<stop  offset="0.3569" style="stop-color:#7B746F"/>
			<stop  offset="0.5131" style="stop-color:#B2ADAA"/>
			<stop  offset="0.6339" style="stop-color:#D7D6D4"/>
			<stop  offset="0.7048" style="stop-color:#E5E5E4"/>
			<stop  offset="1" style="stop-color:#FFFFFF"/>
		</radialGradient>
		<path fill-rule="evenodd" clip-rule="evenodd" fill="url(#SVGID_2_)" d="M66.54,79.363c0,1.385-3.936,2.508-8.787,2.508
			c-4.854,0-8.789-1.123-8.789-2.508c0-1.381,3.936-2.502,8.789-2.502C62.604,76.861,66.54,77.982,66.54,79.363z"/>
		
			<radialGradient id="SVGID_3_" cx="-217.0903" cy="1644.7598" r="19.4146" gradientTransform="matrix(0.4523 0 0 0.129 135.8344 -131.7465)" gradientUnits="userSpaceOnUse">
			<stop  offset="0" style="stop-color:#040000"/>
			<stop  offset="0.1737" style="stop-color:#3B3633"/>
			<stop  offset="0.3569" style="stop-color:#7B746F"/>
			<stop  offset="0.5131" style="stop-color:#B2ADAA"/>
			<stop  offset="0.6339" style="stop-color:#D7D6D4"/>
			<stop  offset="0.7048" style="stop-color:#E5E5E4"/>
			<stop  offset="1" style="stop-color:#FFFFFF"/>
		</radialGradient>
		<ellipse fill-rule="evenodd" clip-rule="evenodd" fill="url(#SVGID_3_)" cx="37.645" cy="80.424" rx="8.783" ry="2.508"/>
		<g>
			
				<radialGradient id="SVGID_4_" cx="-135.3755" cy="294.6211" r="9.0867" gradientTransform="matrix(0.4523 0 0 0.4523 135.8344 -91.2916)" gradientUnits="userSpaceOnUse">
				<stop  offset="0" style="stop-color:#FFFFFF"/>
				<stop  offset="0.1077" style="stop-color:#FBFBFB"/>
				<stop  offset="0.2107" style="stop-color:#F0F0F0"/>
				<stop  offset="0.3114" style="stop-color:#DCDCDC"/>
				<stop  offset="0.3758" style="stop-color:#CCCCCC"/>
				<stop  offset="1" style="stop-color:#050505"/>
			</radialGradient>
			<path fill-rule="evenodd" clip-rule="evenodd" fill="url(#SVGID_4_)" d="M74.96,46.157c2.111,0,3.834-1.715,3.834-3.827
				c0-2.098-1.723-3.824-3.834-3.824c-2.105,0-3.828,1.727-3.828,3.824C71.132,44.442,72.854,46.157,74.96,46.157z"/>
			<linearGradient id="SVGID_5_" gradientUnits="userSpaceOnUse" x1="74.1035" y1="41.9976" x2="71.819" y2="40.4746">
				<stop  offset="0" style="stop-color:#FFFFFF"/>
				<stop  offset="1" style="stop-color:#040000"/>
			</linearGradient>
			<path opacity="0.49" fill-rule="evenodd" clip-rule="evenodd" fill="url(#SVGID_5_)" d="M73.911,41.958
				c0.629-0.838,0.666-1.884,0.066-2.338c-0.594-0.444-1.598-0.121-2.227,0.719c-0.629,0.839-0.666,1.896-0.066,2.339
				C72.272,43.122,73.28,42.799,73.911,41.958z"/>
			
				<radialGradient id="SVGID_6_" cx="-210.5791" cy="307.8418" r="10.2364" gradientTransform="matrix(0.4523 0 0 0.4523 135.8344 -91.2916)" gradientUnits="userSpaceOnUse">
				<stop  offset="0" style="stop-color:#FFFFFF"/>
				<stop  offset="0.1077" style="stop-color:#FBFBFB"/>
				<stop  offset="0.2107" style="stop-color:#F0F0F0"/>
				<stop  offset="0.3114" style="stop-color:#DCDCDC"/>
				<stop  offset="0.3758" style="stop-color:#CCCCCC"/>
				<stop  offset="1" style="stop-color:#050505"/>
			</radialGradient>
			<path fill-rule="evenodd" clip-rule="evenodd" fill="url(#SVGID_6_)" d="M41,52.67c2.375,0,4.307-1.941,4.307-4.315
				c0-2.376-1.932-4.309-4.307-4.309c-2.376,0-4.319,1.932-4.319,4.309C36.68,50.729,38.624,52.67,41,52.67z"/>
			
				<radialGradient id="SVGID_7_" cx="-173.771" cy="326.5283" r="12.2057" gradientTransform="matrix(0.4523 0 0 0.4523 135.8344 -91.2916)" gradientUnits="userSpaceOnUse">
				<stop  offset="0" style="stop-color:#FFFFFF"/>
				<stop  offset="0.1077" style="stop-color:#FBFBFB"/>
				<stop  offset="0.2107" style="stop-color:#F0F0F0"/>
				<stop  offset="0.3114" style="stop-color:#DCDCDC"/>
				<stop  offset="0.3758" style="stop-color:#CCCCCC"/>
				<stop  offset="1" style="stop-color:#050505"/>
			</radialGradient>
			<path fill-rule="evenodd" clip-rule="evenodd" fill="url(#SVGID_7_)" d="M57.722,62.029c2.832,0,5.143-2.305,5.143-5.137
				c0-2.829-2.311-5.145-5.143-5.145s-5.146,2.315-5.146,5.145C52.575,59.725,54.89,62.029,57.722,62.029z"/>
			
				<radialGradient id="SVGID_8_" cx="-186.647" cy="270.2207" r="7.924" gradientTransform="matrix(0.4523 0 0 0.4523 135.8344 -91.2916)" gradientUnits="userSpaceOnUse">
				<stop  offset="0" style="stop-color:#FFFFFF"/>
				<stop  offset="0.1077" style="stop-color:#FBFBFB"/>
				<stop  offset="0.2107" style="stop-color:#F0F0F0"/>
				<stop  offset="0.3114" style="stop-color:#DCDCDC"/>
				<stop  offset="0.3758" style="stop-color:#CCCCCC"/>
				<stop  offset="1" style="stop-color:#050505"/>
			</radialGradient>
			<path fill-rule="evenodd" clip-rule="evenodd" fill="url(#SVGID_8_)" d="M47.85,32.657c0.575,1.895,2.571,2.969,4.47,2.394
				c1.887-0.577,2.955-2.58,2.387-4.47c-0.577-1.889-2.574-2.962-4.469-2.391C48.34,28.764,47.274,30.766,47.85,32.657z"/>
			<linearGradient id="SVGID_9_" gradientUnits="userSpaceOnUse" x1="47.9307" y1="40.2856" x2="49.9477" y2="40.7144">
				<stop  offset="0" style="stop-color:#000000"/>
				<stop  offset="0.57" style="stop-color:#CBCCCE"/>
				<stop  offset="0.76" style="stop-color:#FFFFFF"/>
				<stop  offset="1" style="stop-color:#171717"/>
			</linearGradient>
			<path fill-rule="evenodd" clip-rule="evenodd" fill="url(#SVGID_9_)" d="M46.853,46.71c0.626,0.138,1.256,0.289,1.88,0.431
				c0.929-4.053,1.853-8.097,2.782-12.145c0.091-0.416-0.427-0.751-0.919-0.828c-0.456-0.079-0.888,0.07-0.958,0.389
				C48.708,38.606,47.777,42.655,46.853,46.71z"/>
			
				<radialGradient id="SVGID_10_" cx="-169.1094" cy="258.5215" r="7.9236" gradientTransform="matrix(0.4523 0 0 0.4523 135.8344 -91.2916)" gradientUnits="userSpaceOnUse">
				<stop  offset="0" style="stop-color:#FFFFFF"/>
				<stop  offset="0.1077" style="stop-color:#FBFBFB"/>
				<stop  offset="0.2107" style="stop-color:#F0F0F0"/>
				<stop  offset="0.3114" style="stop-color:#DCDCDC"/>
				<stop  offset="0.3758" style="stop-color:#CCCCCC"/>
				<stop  offset="1" style="stop-color:#050505"/>
			</radialGradient>
			<path fill-rule="evenodd" clip-rule="evenodd" fill="url(#SVGID_10_)" d="M63.132,27.071c-0.389,1.944-2.279,3.198-4.225,2.807
				c-1.93-0.395-3.189-2.29-2.793-4.223c0.396-1.942,2.279-3.195,4.223-2.807C62.269,23.244,63.526,25.135,63.132,27.071z"/>
			<linearGradient id="SVGID_11_" gradientUnits="userSpaceOnUse" x1="67.7598" y1="37.1021" x2="66.6854" y2="38.963">
				<stop  offset="0" style="stop-color:#000000"/>
				<stop  offset="0.57" style="stop-color:#CBCCCE"/>
				<stop  offset="0.76" style="stop-color:#FFFFFF"/>
				<stop  offset="1" style="stop-color:#171717"/>
			</linearGradient>
			<path fill-rule="evenodd" clip-rule="evenodd" fill="url(#SVGID_11_)" d="M62.028,33.964c-0.324,0.558-0.643,1.117-0.959,1.673
				c3.604,2.063,7.209,4.126,10.809,6.183c0.369,0.211,0.84-0.187,1.061-0.627c0.211-0.422,0.191-0.876-0.09-1.044
				C69.239,38.091,65.638,36.028,62.028,33.964z"/>
			
				<radialGradient id="SVGID_12_" cx="-244.7744" cy="285.29" r="7.9163" gradientTransform="matrix(0.4523 0 0 0.4523 135.8344 -91.2916)" gradientUnits="userSpaceOnUse">
				<stop  offset="0" style="stop-color:#FFFFFF"/>
				<stop  offset="0.1077" style="stop-color:#FBFBFB"/>
				<stop  offset="0.2107" style="stop-color:#F0F0F0"/>
				<stop  offset="0.3114" style="stop-color:#DCDCDC"/>
				<stop  offset="0.3758" style="stop-color:#CCCCCC"/>
				<stop  offset="1" style="stop-color:#050505"/>
			</radialGradient>
			<path fill-rule="evenodd" clip-rule="evenodd" fill="url(#SVGID_12_)" d="M25.435,41.809c1.973,0,3.58-1.606,3.58-3.582
				c0-1.977-1.607-3.579-3.58-3.579c-1.975,0-3.581,1.602-3.581,3.579C21.854,40.203,23.459,41.809,25.435,41.809z"/>
			
				<radialGradient id="SVGID_13_" cx="-221.9097" cy="272.2178" r="14.4257" gradientTransform="matrix(0.4523 0 0 0.4523 135.8344 -91.2916)" gradientUnits="userSpaceOnUse">
				<stop  offset="0" style="stop-color:#FFFFFF"/>
				<stop  offset="0.0511" style="stop-color:#FEFFFD"/>
				<stop  offset="0.1001" style="stop-color:#FBFCF5"/>
				<stop  offset="0.1481" style="stop-color:#F5F9E6"/>
				<stop  offset="0.1957" style="stop-color:#EDF3D1"/>
				<stop  offset="0.2428" style="stop-color:#E2ECB4"/>
				<stop  offset="0.2897" style="stop-color:#D4E38D"/>
				<stop  offset="0.3364" style="stop-color:#C3D95C"/>
				<stop  offset="0.3818" style="stop-color:#AECF15"/>
				<stop  offset="0.3871" style="stop-color:#ABCD03"/>
				<stop  offset="1" style="stop-color:#006428"/>
			</radialGradient>
			<path fill-rule="evenodd" clip-rule="evenodd" fill="url(#SVGID_13_)" d="M36.501,39.392c3.594,0,6.527-2.927,6.527-6.526
				c0-3.592-2.934-6.52-6.527-6.52c-3.592,0-6.525,2.927-6.525,6.52C29.976,36.465,32.909,39.392,36.501,39.392z"/>
			
				<radialGradient id="SVGID_14_" cx="-173.1274" cy="367.4746" r="9.266" gradientTransform="matrix(0.4523 0 0 0.4523 135.8344 -91.2916)" gradientUnits="userSpaceOnUse">
				<stop  offset="0" style="stop-color:#FFFFFF"/>
				<stop  offset="0.1077" style="stop-color:#FBFBFB"/>
				<stop  offset="0.2107" style="stop-color:#F0F0F0"/>
				<stop  offset="0.3114" style="stop-color:#DCDCDC"/>
				<stop  offset="0.3758" style="stop-color:#CCCCCC"/>
				<stop  offset="1" style="stop-color:#050505"/>
			</radialGradient>
			<path fill-rule="evenodd" clip-rule="evenodd" fill="url(#SVGID_14_)" d="M57.942,79.592c2.309,0,4.193-1.885,4.193-4.188
				c0-2.309-1.885-4.193-4.193-4.193s-4.19,1.885-4.19,4.193C53.752,77.707,55.634,79.592,57.942,79.592z"/>
			<linearGradient id="SVGID_15_" gradientUnits="userSpaceOnUse" x1="57.3945" y1="42.5347" x2="55.9021" y2="40.0509">
				<stop  offset="0" style="stop-color:#000000"/>
				<stop  offset="0.57" style="stop-color:#CBCCCE"/>
				<stop  offset="0.76" style="stop-color:#FFFFFF"/>
				<stop  offset="1" style="stop-color:#171717"/>
			</linearGradient>
			<polygon fill-rule="evenodd" clip-rule="evenodd" fill="url(#SVGID_15_)" points="53.487,41.288 58.345,38.373 59.468,40.736 
				54.614,43.65 			"/>
			<linearGradient id="SVGID_16_" gradientUnits="userSpaceOnUse" x1="50.397" y1="52.7344" x2="48.021" y2="52.9841">
				<stop  offset="0" style="stop-color:#000000"/>
				<stop  offset="0.57" style="stop-color:#CBCCCE"/>
				<stop  offset="0.76" style="stop-color:#FFFFFF"/>
				<stop  offset="1" style="stop-color:#171717"/>
			</linearGradient>
			<polygon fill-rule="evenodd" clip-rule="evenodd" fill="url(#SVGID_16_)" points="48.172,54.436 47.879,51.558 50.213,51.285 
				50.507,54.164 			"/>
			<linearGradient id="SVGID_17_" gradientUnits="userSpaceOnUse" x1="43.5537" y1="65.5957" x2="41.7838" y2="62.267">
				<stop  offset="0" style="stop-color:#000000"/>
				<stop  offset="0.57" style="stop-color:#CBCCCE"/>
				<stop  offset="0.76" style="stop-color:#FFFFFF"/>
				<stop  offset="1" style="stop-color:#171717"/>
			</linearGradient>
			<polygon fill-rule="evenodd" clip-rule="evenodd" fill="url(#SVGID_17_)" points="39.596,63.191 43.962,60.986 45.764,64.092 
				40.988,66.432 			"/>
			<linearGradient id="SVGID_18_" gradientUnits="userSpaceOnUse" x1="55.2031" y1="66.7139" x2="57.3591" y2="64.0515">
				<stop  offset="0" style="stop-color:#000000"/>
				<stop  offset="0.57" style="stop-color:#CBCCCE"/>
				<stop  offset="0.76" style="stop-color:#FFFFFF"/>
				<stop  offset="1" style="stop-color:#171717"/>
			</linearGradient>
			<polygon fill-rule="evenodd" clip-rule="evenodd" fill="url(#SVGID_18_)" points="55.03,62.018 59.907,65.826 57.794,68.41 
				52.923,64.607 			"/>
			
				<radialGradient id="SVGID_19_" cx="-191.6631" cy="331.8525" r="16.6109" gradientTransform="matrix(0.4523 0 0 0.4523 135.8344 -91.2916)" gradientUnits="userSpaceOnUse">
				<stop  offset="0" style="stop-color:#FFFFFF"/>
				<stop  offset="0.0511" style="stop-color:#FEFFFD"/>
				<stop  offset="0.1001" style="stop-color:#FBFCF5"/>
				<stop  offset="0.1481" style="stop-color:#F5F9E6"/>
				<stop  offset="0.1957" style="stop-color:#EDF3D1"/>
				<stop  offset="0.2428" style="stop-color:#E2ECB4"/>
				<stop  offset="0.2897" style="stop-color:#D4E38D"/>
				<stop  offset="0.3364" style="stop-color:#C3D95C"/>
				<stop  offset="0.3818" style="stop-color:#AECF15"/>
				<stop  offset="0.3871" style="stop-color:#ABCD03"/>
				<stop  offset="1" style="stop-color:#006428"/>
			</radialGradient>
			<path fill-rule="evenodd" clip-rule="evenodd" fill="url(#SVGID_19_)" d="M50.064,66.736c3.592,0,6.519-2.932,6.519-6.52
				c0-3.6-2.927-6.523-6.519-6.523c-3.595,0-6.521,2.924-6.521,6.523C43.543,63.805,46.47,66.736,50.064,66.736z"/>
			
				<radialGradient id="SVGID_20_" cx="-160.5493" cy="354.1367" r="14.4241" gradientTransform="matrix(0.4523 0 0 0.4523 135.8344 -91.2916)" gradientUnits="userSpaceOnUse">
				<stop  offset="0" style="stop-color:#FFFFFF"/>
				<stop  offset="0.0511" style="stop-color:#FEFFFD"/>
				<stop  offset="0.1001" style="stop-color:#FBFCF5"/>
				<stop  offset="0.1481" style="stop-color:#F5F9E6"/>
				<stop  offset="0.1957" style="stop-color:#EDF3D1"/>
				<stop  offset="0.2428" style="stop-color:#E2ECB4"/>
				<stop  offset="0.2897" style="stop-color:#D4E38D"/>
				<stop  offset="0.3364" style="stop-color:#C3D95C"/>
				<stop  offset="0.3818" style="stop-color:#AECF15"/>
				<stop  offset="0.3871" style="stop-color:#ABCD03"/>
				<stop  offset="1" style="stop-color:#006428"/>
			</radialGradient>
			<path fill-rule="evenodd" clip-rule="evenodd" fill="url(#SVGID_20_)" d="M64.151,76.34c3.598,0,6.525-2.928,6.525-6.525
				c0-3.588-2.928-6.52-6.525-6.52c-3.592,0-6.525,2.932-6.525,6.52C57.626,73.412,60.56,76.34,64.151,76.34z"/>
			
				<radialGradient id="SVGID_21_" cx="-219.1611" cy="368.7842" r="9.2616" gradientTransform="matrix(0.4523 0 0 0.4523 135.8344 -91.2916)" gradientUnits="userSpaceOnUse">
				<stop  offset="0" style="stop-color:#FFFFFF"/>
				<stop  offset="0.1077" style="stop-color:#FBFBFB"/>
				<stop  offset="0.2107" style="stop-color:#F0F0F0"/>
				<stop  offset="0.3114" style="stop-color:#DCDCDC"/>
				<stop  offset="0.3758" style="stop-color:#CCCCCC"/>
				<stop  offset="1" style="stop-color:#050505"/>
			</radialGradient>
			<path fill-rule="evenodd" clip-rule="evenodd" fill="url(#SVGID_21_)" d="M37.126,79.904c2.302,0,4.187-1.885,4.187-4.188
				c0-2.305-1.885-4.188-4.187-4.188c-2.316,0-4.193,1.883-4.193,4.188C32.933,78.02,34.81,79.904,37.126,79.904z"/>
			
				<radialGradient id="SVGID_22_" cx="-222.2534" cy="350.3145" r="14.4246" gradientTransform="matrix(0.4523 0 0 0.4523 135.8344 -91.2916)" gradientUnits="userSpaceOnUse">
				<stop  offset="0" style="stop-color:#FFFFFF"/>
				<stop  offset="0.0511" style="stop-color:#FEFFFD"/>
				<stop  offset="0.1001" style="stop-color:#FBFCF5"/>
				<stop  offset="0.1481" style="stop-color:#F5F9E6"/>
				<stop  offset="0.1957" style="stop-color:#EDF3D1"/>
				<stop  offset="0.2428" style="stop-color:#E2ECB4"/>
				<stop  offset="0.2897" style="stop-color:#D4E38D"/>
				<stop  offset="0.3364" style="stop-color:#C3D95C"/>
				<stop  offset="0.3818" style="stop-color:#AECF15"/>
				<stop  offset="0.3871" style="stop-color:#ABCD03"/>
				<stop  offset="1" style="stop-color:#006428"/>
			</radialGradient>
			<path fill-rule="evenodd" clip-rule="evenodd" fill="url(#SVGID_22_)" d="M36.136,74.096c3.593,0,6.526-2.928,6.526-6.525
				c0-3.588-2.933-6.525-6.526-6.525c-3.594,0-6.521,2.938-6.521,6.525C29.615,71.168,32.542,74.096,36.136,74.096z"/>
			
				<radialGradient id="SVGID_23_" cx="-162.5947" cy="280.1787" r="14.4276" gradientTransform="matrix(0.4523 0 0 0.4523 135.8344 -91.2916)" gradientUnits="userSpaceOnUse">
				<stop  offset="0" style="stop-color:#FFFFFF"/>
				<stop  offset="0.0511" style="stop-color:#FEFFFD"/>
				<stop  offset="0.1001" style="stop-color:#FBFCF5"/>
				<stop  offset="0.1481" style="stop-color:#F5F9E6"/>
				<stop  offset="0.1957" style="stop-color:#EDF3D1"/>
				<stop  offset="0.2428" style="stop-color:#E2ECB4"/>
				<stop  offset="0.2897" style="stop-color:#D4E38D"/>
				<stop  offset="0.3364" style="stop-color:#C3D95C"/>
				<stop  offset="0.3818" style="stop-color:#AECF15"/>
				<stop  offset="0.3871" style="stop-color:#ABCD03"/>
				<stop  offset="1" style="stop-color:#006428"/>
			</radialGradient>
			<path fill-rule="evenodd" clip-rule="evenodd" fill="url(#SVGID_23_)" d="M63.433,42.891c3.592,0,6.527-2.937,6.527-6.522
				c0-3.599-2.936-6.527-6.527-6.527c-3.6,0-6.525,2.928-6.525,6.527C56.907,39.954,59.833,42.891,63.433,42.891z"/>
			<linearGradient id="SVGID_24_" gradientUnits="userSpaceOnUse" x1="70.001" y1="65.3682" x2="70.8771" y2="67.0876">
				<stop  offset="0" style="stop-color:#000000"/>
				<stop  offset="0.57" style="stop-color:#CBCCCE"/>
				<stop  offset="0.76" style="stop-color:#FFFFFF"/>
				<stop  offset="1" style="stop-color:#171717"/>
			</linearGradient>
			<path fill-rule="evenodd" clip-rule="evenodd" fill="url(#SVGID_24_)" d="M72.718,66.113l-3.15,1.625
				c-0.377,0.199-0.828-0.217-1.037-0.672c-0.18-0.432-0.143-0.889,0.137-1.033l3.084-1.594
				C71.913,65.082,72.247,65.664,72.718,66.113z"/>
			
				<radialGradient id="SVGID_25_" cx="-134.7583" cy="341.5967" r="7.9221" gradientTransform="matrix(0.4523 0 0 0.4523 135.8344 -91.2916)" gradientUnits="userSpaceOnUse">
				<stop  offset="0" style="stop-color:#FFFFFF"/>
				<stop  offset="0.1077" style="stop-color:#FBFBFB"/>
				<stop  offset="0.2107" style="stop-color:#F0F0F0"/>
				<stop  offset="0.3114" style="stop-color:#DCDCDC"/>
				<stop  offset="0.3758" style="stop-color:#CCCCCC"/>
				<stop  offset="1" style="stop-color:#050505"/>
			</radialGradient>
			<path fill-rule="evenodd" clip-rule="evenodd" fill="url(#SVGID_25_)" d="M75.14,67.139c-1.979-0.049-3.543-1.691-3.494-3.664
				c0.045-1.979,1.695-3.545,3.67-3.498c1.971,0.051,3.543,1.691,3.496,3.672C78.763,65.627,77.12,67.193,75.14,67.139z"/>
			
				<radialGradient id="SVGID_26_" cx="-195.2529" cy="299.7871" r="15.8744" gradientTransform="matrix(0.4523 0 0 0.4523 135.8344 -91.2916)" gradientUnits="userSpaceOnUse">
				<stop  offset="0" style="stop-color:#FFFFFF"/>
				<stop  offset="0.0511" style="stop-color:#FEFFFD"/>
				<stop  offset="0.1001" style="stop-color:#FBFCF5"/>
				<stop  offset="0.1481" style="stop-color:#F5F9E6"/>
				<stop  offset="0.1957" style="stop-color:#EDF3D1"/>
				<stop  offset="0.2428" style="stop-color:#E2ECB4"/>
				<stop  offset="0.2897" style="stop-color:#D4E38D"/>
				<stop  offset="0.3364" style="stop-color:#C3D95C"/>
				<stop  offset="0.3818" style="stop-color:#AECF15"/>
				<stop  offset="0.3871" style="stop-color:#ABCD03"/>
				<stop  offset="1" style="stop-color:#006428"/>
			</radialGradient>
			<path fill-rule="evenodd" clip-rule="evenodd" fill="url(#SVGID_26_)" d="M48.294,52.312c3.958,0,7.186-3.227,7.186-7.172
				c0-3.961-3.228-7.188-7.186-7.188c-3.948,0-7.175,3.226-7.175,7.188C41.119,49.085,44.346,52.312,48.294,52.312z"/>
			<linearGradient id="SVGID_27_" gradientUnits="userSpaceOnUse" x1="61.6338" y1="29.3809" x2="59.7544" y2="29.9915">
				<stop  offset="0" style="stop-color:#000000"/>
				<stop  offset="0.57" style="stop-color:#CBCCCE"/>
				<stop  offset="0.76" style="stop-color:#FFFFFF"/>
				<stop  offset="1" style="stop-color:#171717"/>
			</linearGradient>
			<path fill-rule="evenodd" clip-rule="evenodd" fill="url(#SVGID_27_)" d="M60.056,30.797c0.545-0.336,1.145-0.588,1.781-0.75
				c-0.096-0.312-0.199-0.611-0.301-0.918c-0.102-0.306-0.551-0.413-1.002-0.293c-0.479,0.13-0.965,0.503-0.826,0.913
				C59.819,30.095,59.94,30.442,60.056,30.797z"/>
			<linearGradient id="SVGID_28_" gradientUnits="userSpaceOnUse" x1="28.5874" y1="35.3325" x2="29.6219" y2="37.1987">
				<stop  offset="0" style="stop-color:#000000"/>
				<stop  offset="0.57" style="stop-color:#CBCCCE"/>
				<stop  offset="0.76" style="stop-color:#FFFFFF"/>
				<stop  offset="1" style="stop-color:#171717"/>
			</linearGradient>
			<path fill-rule="evenodd" clip-rule="evenodd" fill="url(#SVGID_28_)" d="M30.22,34.598c-0.863,0.493-1.733,0.991-2.59,1.485
				c-0.282,0.154-0.294,0.623-0.09,1.036c0.229,0.45,0.684,0.845,1.057,0.629c0.803-0.456,1.613-0.918,2.411-1.379
				C30.659,35.828,30.395,35.235,30.22,34.598z"/>
			<linearGradient id="SVGID_29_" gradientUnits="userSpaceOnUse" x1="61.834" y1="38.3882" x2="64.1857" y2="35.0292">
				<stop  offset="0" style="stop-color:#FFFFFF"/>
				<stop  offset="1" style="stop-color:#040000"/>
			</linearGradient>
			<path opacity="0.49" fill-rule="evenodd" clip-rule="evenodd" fill="url(#SVGID_29_)" d="M64.302,38.684
				c2.111,0,3.834-1.715,3.834-3.826c0-2.1-1.723-3.827-3.834-3.827c-2.105,0-3.826,1.727-3.826,3.827
				C60.476,36.969,62.196,38.684,64.302,38.684z"/>
			<linearGradient id="SVGID_30_" gradientUnits="userSpaceOnUse" x1="33.7148" y1="66.2588" x2="30.4103" y2="64.7107">
				<stop  offset="0" style="stop-color:#FFFFFF"/>
				<stop  offset="1" style="stop-color:#040000"/>
			</linearGradient>
			<path opacity="0.49" fill-rule="evenodd" clip-rule="evenodd" fill="url(#SVGID_30_)" d="M30.57,68.363
				c0.911,0.467,2.319-0.451,3.131-2.039c0.814-1.584,0.73-3.264-0.176-3.732c-0.912-0.469-2.315,0.451-3.13,2.041
				C29.579,66.221,29.664,67.896,30.57,68.363z"/>
			
				<radialGradient id="SVGID_31_" cx="-158.4453" cy="276.9482" r="9.0919" gradientTransform="matrix(0.4523 0 0 0.4523 135.8344 -91.2916)" gradientUnits="userSpaceOnUse">
				<stop  offset="0" style="stop-color:#FFFFFF"/>
				<stop  offset="0.1077" style="stop-color:#FBFBFB"/>
				<stop  offset="0.2107" style="stop-color:#F0F0F0"/>
				<stop  offset="0.3114" style="stop-color:#DCDCDC"/>
				<stop  offset="0.3758" style="stop-color:#CCCCCC"/>
				<stop  offset="1" style="stop-color:#050505"/>
			</radialGradient>
			<path fill-rule="evenodd" clip-rule="evenodd" fill="url(#SVGID_31_)" d="M64.534,38.168c2.1,0,3.826-1.729,3.826-3.827
				c0-2.111-1.727-3.832-3.826-3.832c-2.111,0-3.838,1.721-3.838,3.832C60.696,36.439,62.423,38.168,64.534,38.168z"/>
			<linearGradient id="SVGID_32_" gradientUnits="userSpaceOnUse" x1="30.0132" y1="63.1963" x2="29.0553" y2="64.9979">
				<stop  offset="0" style="stop-color:#000000"/>
				<stop  offset="0.57" style="stop-color:#CBCCCE"/>
				<stop  offset="0.76" style="stop-color:#FFFFFF"/>
				<stop  offset="1" style="stop-color:#171717"/>
			</linearGradient>
			<path fill-rule="evenodd" clip-rule="evenodd" fill="url(#SVGID_32_)" d="M27.282,63.924l3.149,1.625
				c0.378,0.197,0.829-0.215,1.032-0.678c0.186-0.426,0.149-0.883-0.132-1.029l-3.083-1.6
				C28.079,62.893,27.743,63.467,27.282,63.924z"/>
			
				<radialGradient id="SVGID_33_" cx="-246.0103" cy="336.7578" r="7.9215" gradientTransform="matrix(0.4523 0 0 0.4523 135.8344 -91.2916)" gradientUnits="userSpaceOnUse">
				<stop  offset="0" style="stop-color:#FFFFFF"/>
				<stop  offset="0.1077" style="stop-color:#FBFBFB"/>
				<stop  offset="0.2107" style="stop-color:#F0F0F0"/>
				<stop  offset="0.3114" style="stop-color:#DCDCDC"/>
				<stop  offset="0.3758" style="stop-color:#CCCCCC"/>
				<stop  offset="1" style="stop-color:#050505"/>
			</radialGradient>
			<path fill-rule="evenodd" clip-rule="evenodd" fill="url(#SVGID_33_)" d="M24.853,64.949c1.979-0.047,3.551-1.691,3.502-3.664
				c-0.054-1.979-1.698-3.545-3.67-3.496c-1.979,0.051-3.544,1.697-3.497,3.67C21.236,63.434,22.88,65.002,24.853,64.949z"/>
			<linearGradient id="SVGID_34_" gradientUnits="userSpaceOnUse" x1="41.4077" y1="40.8989" x2="43.8704" y2="38.4362">
				<stop  offset="0" style="stop-color:#000000"/>
				<stop  offset="0.57" style="stop-color:#CBCCCE"/>
				<stop  offset="0.76" style="stop-color:#FFFFFF"/>
				<stop  offset="1" style="stop-color:#171717"/>
			</linearGradient>
			<path fill-rule="evenodd" clip-rule="evenodd" fill="url(#SVGID_34_)" d="M45.365,39.979c-1.128-1.191-2.254-2.385-3.382-3.584
				c-0.655,1.007-1.572,1.816-2.655,2.343c1.144,1.216,2.296,2.43,3.435,3.641c0.3,0.312,1.38,0.02,2.028-0.625
				C45.397,41.149,45.582,40.214,45.365,39.979z"/>
			
				<linearGradient id="SVGID_35_" gradientUnits="userSpaceOnUse" x1="132.6611" y1="-174.2588" x2="129.161" y2="-176.5922" gradientTransform="matrix(0.379 0.9254 -0.9254 0.379 -174.3853 -26.0411)">
				<stop  offset="0" style="stop-color:#FFFFFF"/>
				<stop  offset="1" style="stop-color:#040000"/>
			</linearGradient>
			<path opacity="0.49" fill-rule="evenodd" clip-rule="evenodd" fill="url(#SVGID_35_)" d="M37.095,30.383
				c1.558,0.408,3.064-0.155,3.352-1.259c0.288-1.103-0.744-2.335-2.309-2.742c-1.553-0.401-3.063,0.162-3.353,1.26
				C34.498,28.739,35.536,29.974,37.095,30.383z"/>
			
				<linearGradient id="SVGID_36_" gradientUnits="userSpaceOnUse" x1="50.5693" y1="17.0864" x2="52.5033" y2="17.6046" gradientTransform="matrix(0.997 0.078 -0.078 0.997 -11.2869 4.565)">
				<stop  offset="0" style="stop-color:#000000"/>
				<stop  offset="0.57" style="stop-color:#CBCCCE"/>
				<stop  offset="0.76" style="stop-color:#FFFFFF"/>
				<stop  offset="1" style="stop-color:#171717"/>
			</linearGradient>
			<path fill-rule="evenodd" clip-rule="evenodd" fill="url(#SVGID_36_)" d="M40.293,24.229l-1.218,3.329
				c-0.145,0.401-0.763,0.401-1.218,0.197c-0.426-0.18-0.708-0.54-0.601-0.846l1.188-3.263
				C39.003,24.013,39.643,24.206,40.293,24.229z"/>
			
				<radialGradient id="SVGID_37_" cx="-180.7324" cy="255.1221" r="7.9199" gradientTransform="matrix(0.451 0.0353 -0.0353 0.451 131.041 -88.6105)" gradientUnits="userSpaceOnUse">
				<stop  offset="0" style="stop-color:#FFFFFF"/>
				<stop  offset="0.1077" style="stop-color:#FBFBFB"/>
				<stop  offset="0.2107" style="stop-color:#F0F0F0"/>
				<stop  offset="0.3114" style="stop-color:#DCDCDC"/>
				<stop  offset="0.3758" style="stop-color:#CCCCCC"/>
				<stop  offset="1" style="stop-color:#050505"/>
			</radialGradient>
			<path fill-rule="evenodd" clip-rule="evenodd" fill="url(#SVGID_37_)" d="M42.769,23.347c-1.487,1.302-3.749,1.151-5.057-0.335
				c-1.301-1.493-1.151-3.749,0.335-5.057c1.486-1.306,3.755-1.151,5.058,0.335C44.406,19.778,44.263,22.04,42.769,23.347z"/>
			
				<radialGradient id="SVGID_38_" cx="93.1152" cy="769.8027" r="6.1604" gradientTransform="matrix(0.3236 0.316 -0.1117 0.1143 98.6931 -78.1573)" gradientUnits="userSpaceOnUse">
				<stop  offset="0" style="stop-color:#FFFFFF"/>
				<stop  offset="1" style="stop-color:#040000"/>
			</radialGradient>
			<path fill-rule="evenodd" clip-rule="evenodd" fill="url(#SVGID_38_)" d="M44.965,41.329c-0.408,0.415-1.686-0.173-2.863-1.324
				c-1.177-1.147-1.8-2.411-1.391-2.826c0.408-0.415,1.686,0.18,2.862,1.327C44.742,39.648,45.365,40.915,44.965,41.329z"/>
			
				<radialGradient id="SVGID_39_" cx="270.8066" cy="-1453.9502" r="6.1553" gradientTransform="matrix(-0.1965 0.1129 -0.0619 -0.1078 19.5607 -146.6713)" gradientUnits="userSpaceOnUse">
				<stop  offset="0" style="stop-color:#FFFFFF"/>
				<stop  offset="1" style="stop-color:#040000"/>
			</radialGradient>
			<path fill-rule="evenodd" clip-rule="evenodd" fill="url(#SVGID_39_)" d="M55.058,41.384c-0.227-0.399,0.17-1.045,0.883-1.453
				c0.713-0.414,1.477-0.425,1.697-0.036c0.229,0.39-0.168,1.037-0.889,1.452C56.042,41.753,55.28,41.767,55.058,41.384z"/>
		</g>
	</g>
</g>
</svg>
