<?xml version="1.0" encoding="utf-8"?>
<!-- Generator: Adobe Illustrator 16.0.0, SVG Export Plug-In . SVG Version: 6.00 Build 0)  -->
<!DOCTYPE svg PUBLIC "-//W3C//DTD SVG 1.1//EN" "http://www.w3.org/Graphics/SVG/1.1/DTD/svg11.dtd">
<svg version="1.1" id="图层_1" xmlns="http://www.w3.org/2000/svg" xmlns:xlink="http://www.w3.org/1999/xlink" x="0px" y="0px"
	 width="100px" height="100px" viewBox="0 0 100 100" enable-background="new 0 0 100 100" xml:space="preserve">
<ellipse fill="#B49C4F" cx="50" cy="50" rx="49.74" ry="49.952"/>
<g>
	
		<image overflow="visible" opacity="0.26" width="47" height="53" xlink:href="4B3467D9.png"  transform="matrix(1 0 0 1 29.5 17.5)">
	</image>
	<g>
		<radialGradient id="SVGID_1_" cx="51.1221" cy="40.6025" r="15.6126" gradientUnits="userSpaceOnUse">
			<stop  offset="0.0324" style="stop-color:#AACC03"/>
			<stop  offset="1" style="stop-color:#006428"/>
		</radialGradient>
		<path fill-rule="evenodd" clip-rule="evenodd" fill="url(#SVGID_1_)" d="M49.05,26.684c-0.207,0-0.412,0-0.62-0.206l-1.86,1.445
			c-0.208,1.034-0.622,3.102,0.618,3.724c-2.067-0.206-3.308-0.828-5.581-0.828c-0.829,1.447-3.724,1.034-3.516,3.308
			c1.033,0.828,1.859-0.619,2.687-1.24c1.861-0.828,4.136,0,5.791,0.414c-1.655,0.208-3.102,0.62-4.757,0.208
			c-0.206,1.24-2.896,0.619-2.274,2.686c0.412,0.828,1.446-0.618,2.068-1.034c6.614-1.034-2.068,2.483-0.829,4.757
			c2.068,0.206,2.273-2.067,3.723-2.689c0.619-0.206,2.068-1.652,3.102-0.412c-1.45,0.62-1.655,3.102-3.724,3.102
			c-1.033,2.688-3.721,4.963-5.375,7.031c-0.622,1.239-1.24,2.893-1.034,3.927c-1.033,2.482,0,4.344,1.654,5.996
			c2.482,0.414,5.79,0.414,7.445-2.068c0.826-2.068,0.412-4.961,1.034-6.615c1.035,1.446,0.826,4.135,2.479,5.375
			c4.342,0.83,2.896-4.755,4.758-7.03l0.826-0.827c-0.209,4.136-0.413,9.925,3.927,11.787c1.45,0.412,2.895-0.207,4.135-1.033
			c1.656-1.656,1.45-3.518,1.45-5.584c-3.102-4.343-4.551-9.512-9.305-13.44c2.686-1.859,4.548,1.242,6.41,1.654
			c0.619-0.827-0.623-1.033-0.623-1.861c-1.445,0-2.479-1.86-4.135-1.652c1.655-1.034,3.724,0.412,5.377,0.826
			c-0.826-2.688-4.549-2.275-6.822-3.102c0-0.208,0.412-0.62,0.827-0.414c2.068-3.102,4.753,1.033,6.615,0.414
			c0.205-2.067-2.688-1.86-3.722-2.688c-1.242,0.621-3.101,0.621-4.135,1.034c0.207-0.828,0.414-1.861,1.034-2.481
			c0.207-1.86-1.243-2.275-2.482-2.688l1.862-2.273l-1.24-0.622c-1.655,0.828-2.689,2.273-2.689,3.93
			c0.622,0.411-0.206,1.445-0.621,1.861c-0.414-0.622-1.033-1.45-1.033-2.068h0.619c0.829-1.034-0.619-1.45-0.619-2.275
			c-0.619-0.826-1.654-1.86-2.482-0.826C48.638,25.03,49.255,26.064,49.05,26.684L49.05,26.684z"/>
	</g>
</g>
<path fill="#EFD371" d="M50.22,11.497c-16.075,0-29.106,13.031-29.106,29.106c0,16.074,13.031,29.106,29.106,29.106
	c16.074,0,29.106-13.032,29.106-29.106C79.326,24.528,66.294,11.497,50.22,11.497z M25.412,40.603
	c0-13.702,11.107-24.809,24.809-24.809c6.119,0,11.715,2.219,16.041,5.891L31.75,57.161C27.811,52.77,25.412,46.967,25.412,40.603z
	 M50.22,65.412c-5.833,0-11.19-2.019-15.425-5.387l34.416-35.38c3.628,4.314,5.818,9.879,5.818,15.957
	C75.029,54.304,63.921,65.412,50.22,65.412z"/>
<polygon fill="#EFD371" points="51.648,94.057 22.821,78.457 51.768,63.573 81.188,79.172 "/>
<g>
	<path fill="#005C3A" d="M37.313,78.314c1.401-1.894,2.488-4.029,3.261-6.414l0.997,0.354c-0.451,1.256-0.947,2.416-1.488,3.479
		v9.621H39.1V77.48c-0.445,0.715-0.914,1.375-1.405,1.979C37.585,79.098,37.458,78.715,37.313,78.314z M42.198,73.048
		c2.611,0,5.317-0.19,8.12-0.573l0.382,1.023c-1.255,0.119-2.472,0.216-3.65,0.293c0.022,1.273,0.066,2.438,0.13,3.486h3.698v0.982
		h-3.624c0.269,3.161,0.99,5.049,2.163,5.663c0.254,0.108,0.418,0.015,0.491-0.287c0.082-0.464,0.158-1.146,0.232-2.047
		c0.355,0.164,0.683,0.287,0.982,0.369c-0.09,0.854-0.19,1.56-0.3,2.114c-0.156,0.71-0.511,1.063-1.064,1.063
		c-0.674,0-1.315-0.399-1.924-1.2c-0.869-1.196-1.403-3.088-1.604-5.677h-2.995v4.83c0.982-0.563,1.829-1.051,2.538-1.46
		c0.055,0.419,0.123,0.77,0.205,1.051c-1.165,0.666-2.083,1.211-2.756,1.639c-0.264,0.173-0.523,0.378-0.778,0.613l-0.709-0.9
		c0.309-0.264,0.464-0.654,0.464-1.174L42.198,73.048L42.198,73.048z M45.998,73.854c-0.946,0.055-1.867,0.096-2.763,0.123v3.303
		h2.934C46.119,76.391,46.062,75.249,45.998,73.854z M44.94,83.801l0.71-0.56c0.51,0.481,1.01,0.995,1.501,1.542l-0.792,0.642
		C45.932,84.889,45.459,84.348,44.94,83.801z"/>
	<path fill="#005C3A" d="M51.641,80.361h1.672l0.267-2.319h9.389c-0.026,0.828-0.049,1.601-0.067,2.319h1.843v0.818h-1.87
		c-0.02,0.536-0.034,1.041-0.048,1.516h1.235v0.818H62.77c-0.188,1.184-0.912,1.773-2.177,1.773c-0.729,0-1.37-0.014-1.924-0.041
		c-0.047-0.419-0.114-0.773-0.205-1.064c0.655,0.072,1.288,0.119,1.896,0.137c0.684,0.031,1.117-0.235,1.305-0.805h-8.727
		l0.278-2.334h-1.575V80.361L51.641,80.361z M51.75,76.391h5.936v-0.928h-4.584v-0.818h4.584v-0.928h-5.308v-0.818h5.308v-0.888
		h1.037v0.888h5.269v0.818h-5.269v0.928h4.56v0.818h-4.56v0.928h5.896v0.819H51.75V76.391z M54.083,82.695h3.731
		c-0.194-0.409-0.416-0.787-0.66-1.133l0.798-0.383h-3.698L54.083,82.695z M57.346,79.216l0.791-0.354h-3.615l-0.172,1.502h7.506
		c0.014-0.479,0.025-0.979,0.033-1.502h-3.699c0.226,0.332,0.451,0.691,0.684,1.078l-0.859,0.41
		C57.814,79.93,57.591,79.553,57.346,79.216z M61.827,81.182h-3.82c0.25,0.371,0.476,0.736,0.677,1.092l-0.82,0.422h3.904
		C61.793,82.218,61.813,81.713,61.827,81.182z"/>
</g>
</svg>
