<?xml version="1.0" encoding="utf-8"?>
<!-- Generator: Adobe Illustrator 16.0.0, SVG Export Plug-In . SVG Version: 6.00 Build 0)  -->
<!DOCTYPE svg PUBLIC "-//W3C//DTD SVG 1.1//EN" "http://www.w3.org/Graphics/SVG/1.1/DTD/svg11.dtd">
<svg version="1.1" id="图层_2" xmlns="http://www.w3.org/2000/svg" xmlns:xlink="http://www.w3.org/1999/xlink" x="0px" y="0px"
	 width="24.979px" height="24.979px" viewBox="0 0 24.979 24.979" enable-background="new 0 0 24.979 24.979" xml:space="preserve">
<g>
	<path fill="#FFFFFF" d="M3.691,15.964C1.65,15.964,0,14.407,0,12.489l0,0c0-1.92,1.65-3.475,3.691-3.475h17.596
		c2.039,0,3.691,1.556,3.691,3.476l0,0c0,1.918-1.652,3.474-3.691,3.474H3.691z"/>
	<path fill="#FFFFFF" d="M15.964,21.287c0,2.041-1.557,3.691-3.475,3.691l0,0c-1.92,0-3.475-1.65-3.475-3.691V3.691
		C9.015,1.652,10.57,0,12.49,0l0,0c1.918,0,3.474,1.652,3.474,3.691V21.287z"/>
</g>
</svg>
