<?xml version="1.0" encoding="utf-8"?>
<!-- Generator: Adobe Illustrator 16.0.0, SVG Export Plug-In . SVG Version: 6.00 Build 0)  -->
<!DOCTYPE svg PUBLIC "-//W3C//DTD SVG 1.1//EN" "http://www.w3.org/Graphics/SVG/1.1/DTD/svg11.dtd">
<svg version="1.1" id="图层_1" xmlns="http://www.w3.org/2000/svg" xmlns:xlink="http://www.w3.org/1999/xlink" x="0px" y="0px"
	 width="100px" height="100px" viewBox="0 0 100 100" enable-background="new 0 0 100 100" xml:space="preserve">
<g id="图层_2">
	<g id="图层_3">
		<ellipse opacity="0.3" fill="#FFFFFF" enable-background="new    " cx="50.217" cy="50.532" rx="41.545" ry="41.196"/>
	</g>
	<g id="图层_4">
		<ellipse fill="#FFFFFF" cx="49.687" cy="50.533" rx="37.899" ry="37.582"/>
	</g>
	<path fill="#005B3A" d="M34.989,32.345L34.989,32.345c0.996-0.996,2.627-0.996,3.621,0l13.226,13.218
		c0.997,0.996,0.997,2.625,0,3.623l0,0c-0.994,0.997-2.625,0.997-3.626,0L34.99,35.968C33.993,34.972,33.993,33.342,34.989,32.345
		L34.989,32.345z M52.016,25.922v8.636h-4.322l8.638,8.637l8.641-8.637h-4.32v-8.636H52.016L52.016,25.922z M69.807,45.394H53.65
		c0.854,1.569,0.619,3.579-0.702,4.903c-1.608,1.609-4.237,1.609-5.849,0l-4.905-4.903H30.628c-1.622,0-2.945,1.326-2.945,2.947l0,0
		c0,1.622,1.324,2.947,2.945,2.947h0.709l6.805,19.955h6.004h12.54h6.004l6.806-19.955h0.313c1.621,0,2.946-1.326,2.946-2.947l0,0
		C72.754,46.72,71.428,45.394,69.807,45.394L69.807,45.394z M38.397,53.154h23.805c0.835,0,1.516,0.68,1.516,1.514l0,0
		c0,0.834-0.681,1.516-1.516,1.516H38.397c-0.833,0-1.515-0.682-1.515-1.516l0,0C36.883,53.834,37.564,53.154,38.397,53.154
		L38.397,53.154z M41.727,65.162h17.3c0.832,0,1.513,0.684,1.513,1.518l0,0c0,0.831-0.681,1.514-1.513,1.514h-17.3
		c-0.834,0-1.516-0.683-1.516-1.514l0,0C40.21,65.846,40.893,65.162,41.727,65.162L41.727,65.162z M40.061,59.255h20.781
		c0.834,0,1.516,0.683,1.516,1.517l0,0c0,0.834-0.682,1.516-1.516,1.516H40.061c-0.831,0-1.513-0.682-1.513-1.516l0,0
		C38.548,59.938,39.23,59.255,40.061,59.255z"/>
</g>
<g id="图层_5" display="none">
	<path display="inline" fill="#0BD38A" d="M35.446,32.777L35.446,32.777c0.989-0.988,2.608-0.988,3.595,0l13.126,13.122
		c0.987,0.989,0.987,2.607,0,3.596l0,0c-0.987,0.99-2.606,0.99-3.597,0.001L35.446,36.375
		C34.458,35.385,34.458,33.767,35.446,32.777L35.446,32.777z M60.921,43.548v-8.574h4.285l-8.571-8.573l-8.576,8.573h4.289v8.574
		H60.921L60.921,43.548z M70.006,45.73H53.969c0.848,1.558,0.614,3.554-0.697,4.868c-1.597,1.6-4.207,1.6-5.803,0l-4.87-4.868
		H31.117c-1.61,0-2.924,1.317-2.924,2.926l0,0c0,1.608,1.314,2.925,2.924,2.925h0.704l6.756,19.81h5.959H56.98h5.961l6.756-19.81
		h0.309c1.61,0,2.926-1.317,2.926-2.925l0,0C72.932,47.047,71.616,45.73,70.006,45.73L70.006,45.73z M38.83,53.434h23.627
		c0.829,0,1.506,0.676,1.506,1.504l0,0c0,0.828-0.677,1.504-1.506,1.504H38.83c-0.828,0-1.504-0.676-1.504-1.504l0,0
		C37.326,54.107,38.002,53.434,38.83,53.434L38.83,53.434z M42.134,65.354h17.171c0.825,0,1.502,0.68,1.502,1.508l0,0
		c0,0.826-0.677,1.502-1.502,1.502H42.134c-0.827,0-1.505-0.676-1.505-1.502l0,0C40.629,66.033,41.307,65.354,42.134,65.354
		L42.134,65.354z M40.481,59.492h20.626c0.826,0,1.502,0.677,1.502,1.505l0,0c0,0.826-0.676,1.501-1.502,1.501H40.481
		c-0.825,0-1.502-0.675-1.502-1.501l0,0C38.979,60.169,39.656,59.492,40.481,59.492z"/>
</g>
</svg>
