<?xml version="1.0" encoding="utf-8"?>
<!-- Generator: Adobe Illustrator 16.0.0, SVG Export Plug-In . SVG Version: 6.00 Build 0)  -->
<!DOCTYPE svg PUBLIC "-//W3C//DTD SVG 1.1//EN" "http://www.w3.org/Graphics/SVG/1.1/DTD/svg11.dtd">
<svg version="1.1" xmlns="http://www.w3.org/2000/svg" xmlns:xlink="http://www.w3.org/1999/xlink" x="0px" y="0px" width="23.68px"
	 height="20.063px" viewBox="0 0 23.68 20.063" enable-background="new 0 0 23.68 20.063" xml:space="preserve">
<g id="圖層_1">
	<g>
		<path fill="#FFFFFF" d="M1.051,19.984h17.841c0,0,1.232,0.224,1.596-1.009S23.4,9.247,23.4,9.247s0.252-0.522-0.672-0.522
			c-0.924,0-3.641,0-3.641,0s-0.718-0.01-0.886,0.378l-1.134,1.764L3.666,10.825c0,0-1.186,0.011-1.397,1.365l-1.323,7.3
			C0.945,19.49,0.778,19.932,1.051,19.984z"/>
		<path fill="#FFFFFF" d="M0,6.47v10.194l0.113,0.112c0,0,0.741-5.657,1.764-6.624l0.056-4.411H0.895
			C0.895,5.742,0.168,5.798,0,6.47z"/>
		<path fill="#FFFFFF" d="M3.095,9.663h0.546V0.687c0,0,0-0.168,0.42-0.196c0.42-0.028,11.721,0,11.721,0s0.532,0,0.588,0.336
			c0.056,0.336,0,8.836,0,8.836h0.392V0.742c0,0,0.042-0.742-1.554-0.742C13.612,0,3.557,0,3.557,0S3.109,0.112,3.095,0.575
			C3.081,1.037,3.095,9.663,3.095,9.663z"/>
		<rect x="5.108" y="2.212" fill="#FFFFFF" width="9.635" height="0.617"/>
		<rect x="5.108" y="4.216" fill="#FFFFFF" width="9.635" height="0.616"/>
		<rect x="5.108" y="8.417" fill="#FFFFFF" width="9.635" height="0.616"/>
		<rect x="5.108" y="6.19" fill="#FFFFFF" width="9.635" height="0.616"/>
		<path fill="#FFFFFF" d="M17.876,5.798V8.01c0,0,0.798-0.469,1.043-0.511c0.245-0.042,1.099-0.042,1.099-0.042V6.373
			c0,0-0.301-0.616-0.693-0.645c-0.392-0.028-1.449,0-1.449,0v0.147"/>
	</g>
</g>
<g id="图层_2" display="none">
</g>
</svg>
