<?xml version="1.0" encoding="utf-8"?>
<!-- Generator: Adobe Illustrator 16.0.0, SVG Export Plug-In . SVG Version: 6.00 Build 0)  -->
<!DOCTYPE svg PUBLIC "-//W3C//DTD SVG 1.1//EN" "http://www.w3.org/Graphics/SVG/1.1/DTD/svg11.dtd">
<svg version="1.1" xmlns="http://www.w3.org/2000/svg" xmlns:xlink="http://www.w3.org/1999/xlink" x="0px" y="0px"
	 width="43.665px" height="20px" viewBox="0 0 43.665 20" enable-background="new 0 0 43.665 20" xml:space="preserve">
<g id="Layer_1">
	<path fill-rule="evenodd" clip-rule="evenodd" fill="#FFFFFF" d="M28.937,0v11.705h-2.141v1.875h3.69V4.298V3.117
		c5.638,0.086,4.78,0.073,8.403,0.128l0.337,0.525l3.194,4.959l0.187,0.291v0.34v4.684h1.058v3.143h-1.058h-1.168h-1.046H40.13
		c-0.159,0.637-0.489,1.205-0.939,1.655c-0.646,0.646-1.537,1.044-2.523,1.044c-0.985,0-1.877-0.399-2.523-1.044
		c-0.449-0.45-0.779-1.019-0.938-1.655h-1.375h-0.175h-1.169H15.457c-0.146,0.682-0.488,1.293-0.964,1.768
		C13.848,19.601,12.955,20,11.97,20c-0.986,0-1.877-0.399-2.522-1.045c-0.477-0.475-0.818-1.086-0.965-1.768H7.936
		c-0.148,0.682-0.489,1.293-0.965,1.768C6.325,19.601,5.433,20,4.447,20c-0.984,0-1.877-0.399-2.523-1.045
		c-0.475-0.476-0.818-1.086-0.964-1.768H0.816V13.58h0.62v-1.875H0V0h2.794v9.532h0.868h0.55h4.95V8.824h-4.95V7.28h4.95V6.571
		h-4.95V4.983h4.95V4.274h-4.95V2.856h4.95V2.147h-4.95V0h7.29v9.532h0.868h0.55h4.951V8.824h-4.951V7.28h4.951V6.571h-4.951V4.983
		h4.951V4.274h-4.951V2.856h4.951V2.147h-4.951V0h7.443v9.532h0.868h0.551h4.95V8.824h-4.95V7.28h4.95V6.571h-4.95V4.983h4.95V4.274
		h-4.95V2.856h4.95V2.147h-4.95V0H28.937L28.937,0z M34.452,5.505L32.823,5.48v4.304h1.629V5.505L34.452,5.505z M35.158,9.784h5.113
		V9.699l-2.668-4.146l-2.444-0.037V9.784L35.158,9.784z M3.026,15.011c-0.364,0.363-0.589,0.866-0.589,1.421
		c0,0.556,0.225,1.058,0.589,1.422c0.364,0.363,0.866,0.589,1.421,0.589c0.557,0,1.059-0.226,1.422-0.589
		c0.364-0.364,0.588-0.867,0.588-1.422c0-0.555-0.224-1.058-0.588-1.421c-0.364-0.364-0.867-0.588-1.422-0.588
		C3.892,14.422,3.391,14.647,3.026,15.011L3.026,15.011z M10.548,15.011c-0.363,0.363-0.589,0.866-0.589,1.421
		c0,0.556,0.226,1.058,0.589,1.422c0.363,0.363,0.867,0.589,1.421,0.589c0.555,0,1.058-0.226,1.422-0.589
		c0.363-0.364,0.589-0.867,0.589-1.422c0-0.555-0.226-1.058-0.589-1.421c-0.364-0.364-0.867-0.588-1.422-0.588
		C11.415,14.422,10.912,14.647,10.548,15.011L10.548,15.011z M34.659,16.319c0,0.555,0.224,1.058,0.588,1.422
		c0.364,0.363,0.866,0.588,1.421,0.588c0.556,0,1.059-0.226,1.421-0.588c0.364-0.364,0.59-0.867,0.59-1.422s-0.226-1.059-0.59-1.421
		c-0.362-0.363-0.866-0.59-1.421-0.59c-0.555,0-1.057,0.227-1.421,0.59C34.882,15.26,34.659,15.764,34.659,16.319z"/>
</g>
<g id="图层_2" display="none">
	<polygon display="inline" fill="#FFFFFF" points="29.22,9.24 22.825,15.072 23.594,15.914 30.762,9.378 24.227,2.21 23.453,2.916 	
		"/>
</g>
</svg>
