<?xml version="1.0" encoding="utf-8"?>
<!-- Generator: Adobe Illustrator 16.0.0, SVG Export Plug-In . SVG Version: 6.00 Build 0)  -->
<!DOCTYPE svg PUBLIC "-//W3C//DTD SVG 1.1//EN" "http://www.w3.org/Graphics/SVG/1.1/DTD/svg11.dtd">
<svg version="1.1" xmlns="http://www.w3.org/2000/svg" xmlns:xlink="http://www.w3.org/1999/xlink" x="0px" y="0px" width="19.5px"
	 height="16.5px" viewBox="0 0 19.5 16.5" enable-background="new 0 0 19.5 16.5" xml:space="preserve">
<g id="Layer_1" display="none">
	<path display="inline" fill-rule="evenodd" clip-rule="evenodd" fill="#FFFFFF" d="M19.753-5.889v17.557h-3.211v2.813h5.536V0.558
		v-1.771c8.457,0.13,7.17,0.109,12.604,0.193l0.505,0.787l4.791,7.438l0.28,0.437v0.51v7.026h1.587v4.714h-1.587h-1.751h-1.569
		h-0.396c-0.239,0.955-0.733,1.808-1.409,2.482c-0.969,0.968-2.306,1.567-3.785,1.567c-1.477,0-2.815-0.599-3.784-1.567
		c-0.674-0.675-1.169-1.527-1.408-2.482h-2.063h-0.263h-1.753H-0.466c-0.218,1.023-0.732,1.939-1.446,2.652
		c-0.968,0.969-2.307,1.567-3.785,1.567c-1.479,0-2.815-0.599-3.784-1.567c-0.715-0.712-1.228-1.629-1.448-2.652h-0.819
		c-0.222,1.023-0.734,1.939-1.448,2.652c-0.968,0.969-2.306,1.567-3.785,1.567c-1.476,0-2.815-0.599-3.784-1.567
		c-0.713-0.714-1.227-1.629-1.447-2.652h-0.215V14.48h0.93v-2.813h-2.155V-5.889h4.191V8.409h1.302h0.825h7.426V7.347h-7.426V5.031
		h7.426V3.967h-7.426V1.586h7.426V0.522h-7.426v-2.127h7.426v-1.064h-7.426v-3.22h10.935V8.409h1.302h0.825h7.427V7.347h-7.427
		V5.031h7.427V3.967h-7.427V1.586h7.427V0.522h-7.427v-2.127h7.427v-1.064h-7.427v-3.22H6.893V8.409h1.302h0.827h7.425V7.347H9.021
		V5.031h7.425V3.967H9.021V1.586h7.425V0.522H9.021v-2.127h7.425v-1.064H9.021v-3.22H19.753L19.753-5.889z M28.026,2.369
		l-2.443-0.037v6.456h2.443V2.369L28.026,2.369z M29.086,8.787h7.669V8.659l-4.003-6.218l-3.666-0.056V8.787L29.086,8.787z
		 M-19.112,16.627c-0.546,0.544-0.883,1.299-0.883,2.131c0,0.833,0.336,1.587,0.883,2.134c0.546,0.545,1.299,0.883,2.131,0.883
		c0.835,0,1.588-0.338,2.134-0.883c0.546-0.546,0.883-1.3,0.883-2.134c0-0.833-0.336-1.587-0.883-2.131
		c-0.545-0.546-1.3-0.883-2.134-0.883C-17.813,15.744-18.566,16.081-19.112,16.627L-19.112,16.627z M-7.829,16.627
		c-0.545,0.544-0.884,1.299-0.884,2.131c0,0.833,0.339,1.587,0.884,2.134c0.545,0.545,1.3,0.883,2.132,0.883
		c0.833,0,1.587-0.338,2.133-0.883c0.544-0.546,0.883-1.3,0.883-2.134c0-0.833-0.338-1.587-0.883-2.131
		c-0.546-0.546-1.3-0.883-2.133-0.883C-6.529,15.744-7.284,16.081-7.829,16.627L-7.829,16.627z M28.336,18.59
		c0,0.833,0.335,1.586,0.882,2.133c0.546,0.544,1.299,0.883,2.131,0.883c0.833,0,1.588-0.338,2.132-0.883
		c0.546-0.546,0.884-1.3,0.884-2.133s-0.338-1.588-0.884-2.132c-0.544-0.545-1.299-0.884-2.132-0.884
		c-0.833,0-1.585,0.339-2.131,0.884C28.672,17.001,28.336,17.757,28.336,18.59z"/>
</g>
<g id="图层_2">
	<polygon fill="#FFFFFF" points="16.485,8.351 10.09,14.183 10.859,15.025 18.027,8.489 11.491,1.321 10.718,2.026 	"/>
</g>
</svg>
