<?xml version="1.0" encoding="utf-8"?>
<!-- Generator: Adobe Illustrator 16.0.0, SVG Export Plug-In . SVG Version: 6.00 Build 0)  -->
<!DOCTYPE svg PUBLIC "-//W3C//DTD SVG 1.1//EN" "http://www.w3.org/Graphics/SVG/1.1/DTD/svg11.dtd">
<svg version="1.1" id="图层_1" xmlns="http://www.w3.org/2000/svg" xmlns:xlink="http://www.w3.org/1999/xlink" x="0px" y="0px"
	 width="100px" height="100px" viewBox="0 0 100 100" enable-background="new 0 0 100 100" xml:space="preserve">
<g id="图层_2">
	<g id="图层_3">
		<ellipse opacity="0.3" fill="#FFFFFF" enable-background="new    " cx="50.217" cy="50.532" rx="41.545" ry="41.196"/>
	</g>
	<g id="图层_4">
		<ellipse fill="#FFFFFF" cx="49.687" cy="50.533" rx="37.899" ry="37.582"/>
	</g>
	<path display="none" fill="#0BD38A" d="M34.989,32.345L34.989,32.345c0.996-0.996,2.627-0.996,3.621,0l13.226,13.218
		c0.997,0.996,0.997,2.625,0,3.623l0,0c-0.994,0.997-2.625,0.997-3.626,0L34.99,35.968C33.993,34.972,33.993,33.342,34.989,32.345
		L34.989,32.345z M52.016,25.922v8.636h-4.322l8.638,8.637l8.641-8.637h-4.32v-8.636H52.016L52.016,25.922z M69.807,45.394H53.65
		c0.854,1.569,0.619,3.579-0.702,4.903c-1.608,1.609-4.237,1.609-5.849,0l-4.905-4.903H30.628c-1.622,0-2.945,1.326-2.945,2.947l0,0
		c0,1.622,1.324,2.947,2.945,2.947h0.709l6.805,19.955h6.004h12.54h6.004l6.806-19.955h0.313c1.621,0,2.946-1.326,2.946-2.947l0,0
		C72.754,46.72,71.428,45.394,69.807,45.394L69.807,45.394z M38.397,53.154h23.805c0.835,0,1.516,0.68,1.516,1.514l0,0
		c0,0.834-0.681,1.516-1.516,1.516H38.397c-0.833,0-1.515-0.682-1.515-1.516l0,0C36.883,53.834,37.564,53.154,38.397,53.154
		L38.397,53.154z M41.727,65.162h17.3c0.832,0,1.513,0.684,1.513,1.518l0,0c0,0.831-0.681,1.514-1.513,1.514h-17.3
		c-0.834,0-1.516-0.683-1.516-1.514l0,0C40.21,65.846,40.893,65.162,41.727,65.162L41.727,65.162z M40.061,59.255h20.781
		c0.834,0,1.516,0.683,1.516,1.517l0,0c0,0.834-0.682,1.516-1.516,1.516H40.061c-0.831,0-1.513-0.682-1.513-1.516l0,0
		C38.548,59.938,39.23,59.255,40.061,59.255z"/>
</g>
<g id="图层_5" display="none">
	<path display="inline" fill="#0BD38A" d="M35.446,32.777L35.446,32.777c0.989-0.988,2.608-0.988,3.595,0l13.126,13.122
		c0.987,0.989,0.987,2.607,0,3.596l0,0c-0.987,0.99-2.606,0.99-3.597,0.001L35.446,36.375
		C34.458,35.385,34.458,33.767,35.446,32.777L35.446,32.777z M60.921,43.548v-8.574h4.285l-8.571-8.573l-8.576,8.573h4.289v8.574
		H60.921L60.921,43.548z M70.006,45.73H53.969c0.848,1.558,0.614,3.554-0.697,4.868c-1.597,1.6-4.207,1.6-5.803,0l-4.87-4.868
		H31.117c-1.61,0-2.924,1.317-2.924,2.926l0,0c0,1.608,1.314,2.925,2.924,2.925h0.704l6.756,19.81h5.959H56.98h5.961l6.756-19.81
		h0.309c1.61,0,2.926-1.317,2.926-2.925l0,0C72.932,47.047,71.616,45.73,70.006,45.73L70.006,45.73z M38.83,53.434h23.627
		c0.829,0,1.506,0.676,1.506,1.504l0,0c0,0.828-0.677,1.504-1.506,1.504H38.83c-0.828,0-1.504-0.676-1.504-1.504l0,0
		C37.326,54.107,38.002,53.434,38.83,53.434L38.83,53.434z M42.134,65.354h17.171c0.825,0,1.502,0.68,1.502,1.508l0,0
		c0,0.826-0.677,1.502-1.502,1.502H42.134c-0.827,0-1.505-0.676-1.505-1.502l0,0C40.629,66.033,41.307,65.354,42.134,65.354
		L42.134,65.354z M40.481,59.492h20.626c0.826,0,1.502,0.677,1.502,1.505l0,0c0,0.826-0.676,1.501-1.502,1.501H40.481
		c-0.825,0-1.502-0.675-1.502-1.501l0,0C38.979,60.169,39.656,59.492,40.481,59.492z"/>
</g>
<g id="图层_6">
	<path fill="#DBB03E" d="M68.131,45.033h-3.693v-9.965l0.625-0.397l0.756-0.482l-0.336-0.828l-0.783-1.925l-0.422-1.029
		l-1.012,0.449L41.564,40.47h-2.693v8.269h1.439v15.27H24.096v3.382h53.005v-3.382H45.217v-15.27h1.572v-2.412l16.635-10.609v9.316
		h-3.748v6.088h8.454L68.131,45.033L68.131,45.033z M35.625,41.611h0.914v0.912v7.893v0.912h-0.914H25.078h-0.914v-0.912v-7.893
		v-0.912h0.914H35.625L35.625,41.611z M32.738,43.435l1.973,5.916v0.15H33.69l-2.021-6.066H32.738L32.738,43.435z M34.71,46.48
		l-1.015-3.045h1.015V46.48L34.71,46.48z M26.656,43.435l2.021,6.066h-1.069l-1.615-4.85v-1.217L26.656,43.435L26.656,43.435z
		 M29.634,49.501l-2.021-6.066h1.067l2.025,6.066H29.634L29.634,49.501z M31.665,49.501l-2.023-6.066h1.069l2.023,6.066H31.665
		L31.665,49.501z M25.992,47.523l0.657,1.979h-0.657V47.523L25.992,47.523z M35.625,52.807h0.914v0.912v7.891v0.912h-0.914H25.078
		h-0.914v-0.912v-7.891v-0.912h0.914H35.625L35.625,52.807z M32.738,54.629l1.973,5.918v0.148H33.69l-2.021-6.066H32.738
		L32.738,54.629z M34.71,57.674l-1.015-3.045h1.015V57.674L34.71,57.674z M26.656,54.629l2.021,6.066h-1.069l-1.615-4.853v-1.215
		L26.656,54.629L26.656,54.629z M29.634,60.695l-2.021-6.066h1.067l2.025,6.066H29.634L29.634,60.695z M31.665,60.695l-2.023-6.066
		h1.069l2.023,6.066H31.665L31.665,60.695z M25.992,58.719l0.657,1.977h-0.657V58.719L25.992,58.719z M61.128,52.807h0.914v0.912
		v7.891v0.912h-0.914H50.581h-0.915v-0.912v-7.891v-0.912h0.915H61.128L61.128,52.807z M58.244,54.629l1.971,5.918v0.148h-1.021
		l-2.021-6.066H58.244L58.244,54.629z M60.215,57.674l-1.013-3.045h1.013V57.674L60.215,57.674z M52.159,54.629l2.021,6.066h-1.068
		l-1.618-4.853v-1.215L52.159,54.629L52.159,54.629z M55.139,60.695l-2.021-6.066h1.069l2.022,6.066H55.139L55.139,60.695z
		 M57.168,60.695l-2.025-6.066h1.071l2.021,6.066H57.168L57.168,60.695z M51.493,58.719l0.659,1.977h-0.659V58.719L51.493,58.719z
		 M76.169,52.807h0.912v0.912v7.891v0.912h-0.912H65.622h-0.914v-0.912v-7.891v-0.912h0.914H76.169L76.169,52.807z M73.282,54.629
		l1.973,5.918v0.148h-1.021l-2.023-6.066H73.282L73.282,54.629z M75.255,57.674l-1.015-3.045h1.015V57.674L75.255,57.674z
		 M67.198,54.629l2.022,6.066h-1.07l-1.616-4.853v-1.215L67.198,54.629L67.198,54.629z M70.177,60.695l-2.021-6.066h1.07
		l2.021,6.066H70.177L70.177,60.695z M72.207,60.695l-2.021-6.066h1.069l2.022,6.066H72.207L72.207,60.695z M66.534,58.719
		l0.659,1.977h-0.659V58.719L66.534,58.719z M54.63,37.038l2.356-1.044l-0.435,1.561l-0.421,0.267L54.63,37.038L54.63,37.038z
		 M50.568,38.839l1.955-0.866l-0.053,2L50.568,38.839L50.568,38.839z M47.592,40.153l1.28-0.564l-0.083,1.67L47.592,40.153
		L47.592,40.153z M48.648,42.595l-1.859,1.18V40.88L48.648,42.595L48.648,42.595z M51.607,40.71l-1.766,1.129l0.106-2.119
		L51.607,40.71L51.607,40.71z M55.088,38.49l-1.529,0.975l0.047-1.75L55.088,38.49L55.088,38.49z M58.664,36.206l-0.757,0.483
		l0.239-0.857L58.664,36.206L58.664,36.206z M60.723,34.893l-1.097,0.698c-0.216-0.164-0.44-0.328-0.649-0.479l1.646-0.731
		C60.654,34.542,60.689,34.717,60.723,34.893L60.723,34.893z M61.436,34.021l1.688-0.746l0.027,0.067l-1.817,1.159
		C61.374,34.317,61.408,34.153,61.436,34.021z"/>
</g>
</svg>
