<?xml version="1.0" encoding="utf-8"?>
<!-- Generator: Adobe Illustrator 16.0.0, SVG Export Plug-In . SVG Version: 6.00 Build 0)  -->
<!DOCTYPE svg PUBLIC "-//W3C//DTD SVG 1.1//EN" "http://www.w3.org/Graphics/SVG/1.1/DTD/svg11.dtd">
<svg version="1.1" xmlns="http://www.w3.org/2000/svg" xmlns:xlink="http://www.w3.org/1999/xlink" x="0px" y="0px" width="16px"
	 height="16px" viewBox="41.688 42 16 16" enable-background="new 41.688 42 16 16" xml:space="preserve">
<g id="图层_1">
	<path fill="#0BD38A" d="M57.688,56c0,1.104-0.896,2-2,2h-12c-1.104,0-2-0.896-2-2V44c0-1.104,0.896-2,2-2h12c1.104,0,2,0.896,2,2
		V56z"/>
	<path fill="#FFFFFF" d="M45.883,45.944L45.883,45.944c0.25-0.249,0.656-0.249,0.905,0l3.304,3.302c0.25,0.249,0.25,0.656,0,0.904
		l0,0c-0.249,0.25-0.656,0.25-0.906,0l-3.301-3.302C45.634,46.6,45.634,46.193,45.883,45.944L45.883,45.944z M50.136,44.339v2.157
		h-1.08l2.158,2.158l2.158-2.158h-1.079v-2.157H50.136L50.136,44.339z M54.581,49.204h-4.037c0.215,0.392,0.156,0.894-0.174,1.225
		c-0.403,0.402-1.059,0.402-1.462,0l-1.224-1.225h-2.89c-0.405,0-0.735,0.331-0.735,0.736l0,0c0,0.405,0.33,0.736,0.735,0.736h0.178
		l1.7,4.984h1.5h3.132h1.5l1.699-4.984h0.08c0.404,0,0.736-0.332,0.736-0.736l0,0C55.316,49.535,54.986,49.204,54.581,49.204
		L54.581,49.204z M46.734,51.142h5.947c0.208,0,0.378,0.17,0.378,0.379l0,0c0,0.208-0.17,0.378-0.378,0.378h-5.947
		c-0.208,0-0.378-0.17-0.378-0.378l0,0C46.356,51.312,46.526,51.142,46.734,51.142L46.734,51.142z M47.567,54.142h4.321
		c0.208,0,0.379,0.171,0.379,0.379l0,0c0,0.208-0.171,0.38-0.379,0.38h-4.321c-0.209,0-0.379-0.172-0.379-0.38l0,0
		C47.188,54.313,47.357,54.142,47.567,54.142L47.567,54.142z M47.149,52.665h5.192c0.208,0,0.379,0.172,0.379,0.379l0,0
		c0,0.209-0.171,0.38-0.379,0.38h-5.192c-0.207,0-0.378-0.171-0.378-0.38l0,0C46.771,52.837,46.942,52.665,47.149,52.665z"/>
	<g id="图层_5" display="none">
		<path display="inline" fill="#0BD38A" d="M35.446,32.777L35.446,32.777c0.989-0.988,2.608-0.988,3.595,0l13.126,13.122
			c0.987,0.989,0.987,2.607,0,3.596l0,0c-0.987,0.99-2.606,0.99-3.597,0.001L35.446,36.375
			C34.458,35.385,34.458,33.767,35.446,32.777L35.446,32.777z M60.921,43.548v-8.574h4.285l-8.571-8.573l-8.576,8.573h4.289v8.574
			H60.921L60.921,43.548z M70.006,45.73H53.969c0.848,1.558,0.614,3.554-0.697,4.868c-1.597,1.6-4.207,1.6-5.803,0l-4.87-4.868
			H31.117c-1.61,0-2.924,1.317-2.924,2.926l0,0c0,1.608,1.314,2.925,2.924,2.925h0.704l6.756,19.81h5.959H56.98h5.961l6.756-19.81
			h0.309c1.61,0,2.926-1.317,2.926-2.925l0,0C72.932,47.047,71.616,45.73,70.006,45.73L70.006,45.73z M38.83,53.434h23.627
			c0.829,0,1.506,0.676,1.506,1.504l0,0c0,0.828-0.677,1.504-1.506,1.504H38.83c-0.828,0-1.504-0.676-1.504-1.504l0,0
			C37.326,54.107,38.002,53.434,38.83,53.434L38.83,53.434z M42.134,65.354h17.171c0.825,0,1.502,0.68,1.502,1.508l0,0
			c0,0.826-0.677,1.502-1.502,1.502H42.134c-0.827,0-1.505-0.676-1.505-1.502l0,0C40.629,66.033,41.307,65.354,42.134,65.354
			L42.134,65.354z M40.481,59.492h20.626c0.826,0,1.502,0.677,1.502,1.505l0,0c0,0.826-0.676,1.501-1.502,1.501H40.481
			c-0.825,0-1.502-0.675-1.502-1.501l0,0C38.979,60.169,39.656,59.492,40.481,59.492z"/>
	</g>
</g>
<g id="图层_2_1_">
</g>
</svg>
