<?xml version="1.0" encoding="utf-8"?>
<!-- Generator: Adobe Illustrator 16.0.0, SVG Export Plug-In . SVG Version: 6.00 Build 0)  -->
<!DOCTYPE svg PUBLIC "-//W3C//DTD SVG 1.1//EN" "http://www.w3.org/Graphics/SVG/1.1/DTD/svg11.dtd">
<svg version="1.1" id="图层_1" xmlns="http://www.w3.org/2000/svg" xmlns:xlink="http://www.w3.org/1999/xlink" x="0px" y="0px"
	 width="16px" height="16px" viewBox="0 0 16 16" enable-background="new 0 0 16 16" xml:space="preserve">
<g id="图层_1_1_">
	<path fill="#005B3A" d="M16.188,14c0,1.104-0.896,2-2,2h-12c-1.104,0-2-0.896-2-2V2c0-1.104,0.896-2,2-2h12c1.104,0,2,0.896,2,2V14
		z"/>
	<path display="none" fill="#FFFFFF" d="M4.383,3.943L4.383,3.943c0.25-0.248,0.656-0.248,0.905,0l3.304,3.303
		c0.25,0.249,0.25,0.656,0,0.904l0,0c-0.249,0.25-0.656,0.25-0.906,0L4.385,4.848C4.134,4.6,4.134,4.193,4.383,3.943L4.383,3.943z
		 M8.637,2.339v2.157h-1.08l2.157,2.158l2.158-2.158h-1.079V2.339H8.637L8.637,2.339z M13.081,7.204H9.044
		C9.259,7.596,9.2,8.098,8.87,8.43c-0.403,0.401-1.06,0.401-1.462,0L6.184,7.204h-2.89c-0.405,0-0.735,0.331-0.735,0.735l0,0
		c0,0.406,0.33,0.736,0.735,0.736h0.179l1.699,4.984h1.5h3.133h1.5l1.698-4.984h0.08c0.403,0,0.735-0.332,0.735-0.736l0,0
		C13.816,7.535,13.486,7.204,13.081,7.204L13.081,7.204z M5.234,9.143h5.947c0.207,0,0.377,0.17,0.377,0.379l0,0
		c0,0.207-0.17,0.377-0.377,0.377H5.234c-0.209,0-0.379-0.17-0.379-0.377l0,0C4.855,9.313,5.025,9.143,5.234,9.143L5.234,9.143z
		 M6.066,12.143h4.322c0.207,0,0.379,0.17,0.379,0.379l0,0c0,0.207-0.172,0.379-0.379,0.379H6.066c-0.209,0-0.379-0.172-0.379-0.379
		l0,0C5.688,12.313,5.857,12.143,6.066,12.143L6.066,12.143z M5.648,10.665h5.192c0.208,0,0.38,0.172,0.38,0.379l0,0
		c0,0.209-0.172,0.38-0.38,0.38H5.648c-0.207,0-0.377-0.171-0.377-0.38l0,0C5.271,10.837,5.441,10.665,5.648,10.665z"/>
	<g id="图层_5" display="none">
		<path display="inline" fill="#0BD38A" d="M-6.055-9.223L-6.055-9.223c0.99-0.988,2.609-0.988,3.596,0L10.667,3.898
			c0.987,0.99,0.987,2.607,0,3.597l0,0C9.68,8.484,8.061,8.484,7.07,7.496L-6.055-5.625C-7.042-6.615-7.042-8.232-6.055-9.223
			L-6.055-9.223z M19.421,1.548v-8.573h4.285L15.135-15.6L6.559-7.025h4.289v8.573H19.421L19.421,1.548z M28.506,3.73H12.469
			c0.848,1.558,0.614,3.554-0.697,4.867c-1.597,1.601-4.207,1.601-5.803,0L1.1,3.73h-11.482c-1.61,0-2.924,1.316-2.924,2.926l0,0
			c0,1.607,1.313,2.925,2.924,2.925h0.703l6.757,19.81h5.959H15.48h5.961l6.756-19.81h0.309c1.61,0,2.926-1.317,2.926-2.925l0,0
			C31.432,5.047,30.116,3.73,28.506,3.73L28.506,3.73z M-2.67,11.434h23.627c0.829,0,1.506,0.676,1.506,1.504l0,0
			c0,0.828-0.677,1.504-1.506,1.504H-2.67c-0.828,0-1.504-0.676-1.504-1.504l0,0C-4.174,12.107-3.498,11.434-2.67,11.434
			L-2.67,11.434z M0.634,23.354h17.171c0.825,0,1.502,0.681,1.502,1.508l0,0c0,0.826-0.677,1.503-1.502,1.503H0.634
			c-0.827,0-1.505-0.677-1.505-1.503l0,0C-0.871,24.033-0.193,23.354,0.634,23.354L0.634,23.354z M-1.02,17.492h20.627
			c0.826,0,1.502,0.677,1.502,1.505l0,0c0,0.826-0.676,1.501-1.502,1.501H-1.02c-0.824,0-1.502-0.675-1.502-1.501l0,0
			C-2.521,18.169-1.844,17.492-1.02,17.492z"/>
	</g>
</g>
<g id="图层_3">
	<path fill="#FFFFFF" d="M4.383,3.943L4.383,3.943c0.25-0.248,0.656-0.248,0.904,0l3.305,3.303c0.249,0.248,0.249,0.656,0,0.904l0,0
		c-0.249,0.25-0.656,0.25-0.906,0L4.384,4.848C4.135,4.6,4.135,4.193,4.383,3.943L4.383,3.943z M10.793,6.654V4.497h1.08
		L9.715,2.339L7.557,4.497h1.08v2.157H10.793L10.793,6.654z M13.081,7.203H9.044C9.259,7.596,9.2,8.098,8.869,8.428
		c-0.402,0.402-1.059,0.402-1.462,0L6.184,7.203H3.292c-0.403,0-0.733,0.332-0.733,0.736l0,0c0,0.404,0.33,0.735,0.733,0.735h0.179
		l1.7,4.984H6.67h3.132h1.5l1.699-4.984h0.08c0.403,0,0.735-0.332,0.735-0.735l0,0C13.816,7.535,13.486,7.203,13.081,7.203
		L13.081,7.203z M5.234,9.143h5.947c0.207,0,0.377,0.17,0.377,0.379l0,0c0,0.207-0.17,0.377-0.377,0.377H5.234
		c-0.209,0-0.379-0.17-0.379-0.377l0,0C4.855,9.313,5.025,9.143,5.234,9.143L5.234,9.143z M6.066,12.143h4.32
		c0.209,0,0.379,0.17,0.379,0.379l0,0c0,0.207-0.17,0.379-0.379,0.379h-4.32c-0.209,0-0.379-0.172-0.379-0.379l0,0
		C5.688,12.313,5.857,12.143,6.066,12.143L6.066,12.143z M5.648,10.665h5.192c0.208,0,0.38,0.172,0.38,0.379l0,0
		c0,0.209-0.172,0.38-0.38,0.38H5.648c-0.207,0-0.377-0.171-0.377-0.38l0,0C5.271,10.837,5.441,10.665,5.648,10.665z"/>
</g>
<g id="图层_2_1_">
</g>
</svg>
