<?xml version="1.0" encoding="utf-8"?>
<!-- Generator: Adobe Illustrator 16.0.0, SVG Export Plug-In . SVG Version: 6.00 Build 0)  -->
<!DOCTYPE svg PUBLIC "-//W3C//DTD SVG 1.1//EN" "http://www.w3.org/Graphics/SVG/1.1/DTD/svg11.dtd">
<svg version="1.1" id="图层_1" xmlns="http://www.w3.org/2000/svg" xmlns:xlink="http://www.w3.org/1999/xlink" x="0px" y="0px"
	 width="70px" height="70.001px" viewBox="15.01 15.098 70 70.001" enable-background="new 15.01 15.098 70 70.001"
	 xml:space="preserve">
<g>
	<g>
		<path fill="#FFFFFF" d="M15.01,85.098v-6.917c0-0.136,0.054-0.264,0.15-0.361c0.097-0.097,0.226-0.15,0.362-0.15
			c0.177,0,0.305,0.054,0.402,0.151c0.096,0.096,0.149,0.224,0.149,0.361v5.856h5.859c0.138,0,0.267,0.052,0.362,0.149
			c0.097,0.097,0.15,0.226,0.15,0.36c0,0.177-0.052,0.305-0.15,0.401c-0.096,0.097-0.225,0.15-0.361,0.15H15.01V85.098z"/>
		<path fill="#FFFFFF" d="M15.521,22.529c-0.137,0-0.265-0.053-0.362-0.15c-0.096-0.097-0.15-0.225-0.15-0.361v-6.919h6.922
			c0.137,0,0.265,0.054,0.362,0.15c0.097,0.099,0.15,0.227,0.15,0.361c0,0.176-0.053,0.305-0.15,0.401
			c-0.096,0.096-0.224,0.15-0.362,0.15h-5.859v5.857c0,0.137-0.053,0.265-0.15,0.361c-0.096,0.096-0.224,0.15-0.36,0.15H15.521z"/>
		<path fill="#FFFFFF" d="M78.092,85.098c-0.137,0-0.266-0.052-0.362-0.149c-0.095-0.096-0.149-0.224-0.149-0.362
			c0-0.177,0.054-0.305,0.151-0.4c0.094-0.096,0.224-0.149,0.36-0.149h5.856v-5.855c0-0.137,0.052-0.266,0.149-0.361
			c0.095-0.095,0.224-0.15,0.36-0.15c0.177,0,0.306,0.054,0.402,0.15c0.097,0.098,0.149,0.226,0.149,0.361v6.917H78.092z"/>
		<path fill="#FFFFFF" d="M84.458,22.529c-0.137,0-0.266-0.053-0.362-0.151c-0.096-0.094-0.147-0.223-0.147-0.36v-5.856h-5.856
			c-0.137,0-0.265-0.054-0.361-0.151c-0.096-0.095-0.15-0.223-0.15-0.361c0-0.176,0.054-0.306,0.15-0.402
			c0.098-0.096,0.225-0.15,0.361-0.15h6.918v6.919c0,0.137-0.053,0.265-0.149,0.36c-0.097,0.097-0.226,0.15-0.362,0.15
			L84.458,22.529L84.458,22.529z"/>
	</g>
	<g>
		<g>
			<path fill="#FFFFFF" d="M36.704,19.86H19.773v16.932h16.931V19.86z M34.29,34.374H22.192V22.278H34.29V34.374L34.29,34.374z"/>
			<polygon fill="#FFFFFF" points="46.387,29.535 46.387,31.953 43.964,31.953 43.964,34.374 43.964,36.792 46.387,36.792 
				46.387,34.374 48.806,34.374 48.806,31.953 51.226,31.953 51.226,29.535 53.645,29.535 53.645,31.953 56.063,31.953 
				56.063,29.535 58.481,29.535 58.481,31.953 56.063,31.953 56.063,34.374 58.481,34.374 58.481,36.792 58.481,39.212 60.9,39.212 
				60.9,36.792 60.9,34.374 60.9,31.953 60.9,29.535 60.9,27.116 58.481,27.116 56.063,27.116 53.645,27.116 51.226,27.116 
				48.806,27.116 48.806,29.535 			"/>
			<rect x="51.226" y="31.953" fill="#FFFFFF" width="2.419" height="2.421"/>
			<rect x="48.806" y="34.374" fill="#FFFFFF" width="2.42" height="2.419"/>
			<rect x="56.063" y="22.278" fill="#FFFFFF" width="2.419" height="2.419"/>
			<polygon fill="#FFFFFF" points="31.867,44.05 31.867,46.469 31.867,48.888 34.29,48.888 34.29,46.469 36.704,46.469 
				36.704,44.05 34.29,44.05 			"/>
			<rect x="34.298" y="48.897" fill="#FFFFFF" width="2.419" height="2.42"/>
			<rect x="34.29" y="39.212" fill="#FFFFFF" width="2.419" height="2.419"/>
			<rect x="31.867" y="39.212" fill="#FFFFFF" width="2.423" height="2.419"/>
			<rect x="29.448" y="39.212" fill="#FFFFFF" width="2.418" height="2.419"/>
			<rect x="27.025" y="39.212" fill="#FFFFFF" width="2.419" height="2.419"/>
			<polygon fill="#FFFFFF" points="27.025,46.469 27.025,48.888 27.025,51.309 29.445,51.309 29.445,48.888 29.445,46.469 
				29.445,44.05 27.025,44.05 			"/>
			<polygon fill="#FFFFFF" points="29.448,51.305 29.448,51.309 29.448,53.717 29.448,53.725 29.448,56.136 29.448,56.14 
				29.448,58.549 29.448,58.554 29.448,60.968 31.867,60.968 31.867,58.554 31.867,58.549 31.867,56.14 31.867,56.136 
				31.867,53.725 31.867,53.717 31.867,51.309 31.867,51.305 31.867,48.888 29.448,48.888 			"/>
			<polygon fill="#FFFFFF" points="31.867,58.549 31.867,58.554 31.867,60.968 34.29,60.968 34.29,58.554 34.29,58.549 
				34.29,56.136 31.867,56.136 			"/>
			<rect x="34.298" y="58.549" fill="#FFFFFF" width="2.419" height="2.419"/>
			<rect x="36.725" y="58.549" fill="#FFFFFF" width="2.415" height="2.419"/>
			<rect x="39.152" y="58.549" fill="#FFFFFF" width="2.419" height="2.419"/>
			<rect x="39.152" y="60.98" fill="#FFFFFF" width="2.419" height="2.419"/>
			<polygon fill="#FFFFFF" points="46.364,68.238 43.945,68.238 43.945,70.655 41.571,70.655 41.571,68.238 41.571,65.817 
				39.152,65.817 39.152,68.238 39.152,70.655 39.152,73.078 39.152,75.495 41.571,75.495 41.571,73.078 43.945,73.078 
				43.964,73.078 46.334,73.078 46.364,73.078 48.757,73.078 48.757,70.655 46.364,70.655 			"/>
			<rect x="63.27" y="63.399" fill="#FFFFFF" width="2.424" height="2.418"/>
			<polygon fill="#FFFFFF" points="80.21,56.143 80.21,53.725 77.786,53.725 75.372,53.725 75.372,56.143 77.786,56.143 
				77.786,58.563 80.21,58.563 			"/>
			<polygon fill="#FFFFFF" points="75.372,63.399 75.372,65.817 77.786,65.817 80.21,65.817 80.21,63.399 80.21,60.98 77.786,60.98 
				77.786,63.399 			"/>
			<path fill="#FFFFFF" d="M77.786,41.631h-2.414v2.419h-2.423v-2.419h2.423v-2.419h-2.423h-2.42h-2.421h-2.415H63.27v2.419h2.424
				v2.419H63.27v-2.419h-2.42h-2.418v2.419h2.418v2.419h-2.418V44.05h-2.419v2.419h-2.419v2.418h2.419h2.419h2.418v2.417h2.42h2.424
				v2.42h2.415v-2.42h2.421h2.42h2.423h2.414v-2.417v-0.004V46.47h2.423V44.05h-2.423V41.631z M68.108,41.631h2.421v2.419h-2.421
				V41.631z M75.372,48.883H72.95h-2.42h-2.422h-2.415v-2.415h2.415h2.422h2.42h2.422V48.883z"/>
			<path fill="#FFFFFF" d="M58.432,53.725h-2.418v-2.401v-0.019v-2.401h-2.37h-0.05h-2.369v-0.015V46.47V44.05h2.419v-2.419h2.419
				v-2.419v-2.419v-2.419h-2.419v2.419v2.419h-2.419v2.419h-2.419v-2.419v-2.419h-2.419v2.419v2.419v2.419v2.419v2.418h-2.423v2.417
				h-2.418v-2.417v-0.004V46.47V44.05h2.418v-2.419v-2.419v-2.419h-2.418v-2.419v-2.421h2.418v-2.418h-2.418v-2.419h2.418h2.423
				h2.419v-2.418v-2.419h2.419V19.86h-2.419h-2.419h-2.423v2.417h-2.418v2.419h-2.419v2.418v2.419v2.418v2.421v2.419v2.419h2.419
				v2.419h-2.419h-2.418v2.419v2.419v2.418h2.418v2.417v2.42h-2.418h-2.419v2.42h2.419h2.418h2.419v-2.42h2.418v-2.416h2.423h2.419
				v2.408v0.008v2.415h2.419v-2.415v-0.008v-2.394h2.369v2.401v2.42h2.42h2.418v2.419v2.417h-2.418v2.419h2.418v2.42v2.42h-2.418
				h-2.42h-2.419h-2.419v2.418h2.419h2.419h2.42v2.422h2.418v-2.422h2.419h2.419v2.422h2.424v2.418H63.27v2.42v2.42h2.424v-2.42
				h2.415v-2.42v-2.418h2.422v2.418h2.42v-2.418v-2.422h2.422v-2.418H72.95v-2.42h-2.42v-2.42V60.98h2.42v2.419h2.422V60.98h2.415
				v-2.417h-2.415H72.95h-2.42h-2.422h-2.415v-2.419H63.27v-2.42h-2.419v-2.42h-2.419V53.725z M68.108,60.98v2.419v2.42v2.42h-2.415
				H63.27h-2.42v-2.42v-2.42V60.98h2.42h2.424H68.108z"/>
			<polygon fill="#FFFFFF" points="56.014,75.495 53.595,75.495 53.595,77.916 51.177,77.916 48.757,77.916 46.334,77.916 
				46.334,80.335 48.757,80.335 51.177,80.335 53.595,80.335 56.014,80.335 56.014,77.916 58.432,77.916 60.851,77.916 
				60.851,75.495 58.432,75.495 			"/>
			<polygon fill="#FFFFFF" points="77.786,73.078 77.786,75.495 77.786,77.916 75.372,77.916 72.949,77.916 70.53,77.916 
				68.108,77.916 68.108,80.335 70.53,80.335 72.949,80.335 75.372,80.335 77.786,80.335 80.21,80.335 80.21,77.916 80.21,75.495 
				80.21,73.078 80.21,70.655 77.786,70.655 75.372,70.655 75.372,73.078 			"/>
			<rect x="41.571" y="75.495" fill="#FFFFFF" width="2.418" height="2.421"/>
			<rect x="39.152" y="77.916" fill="#FFFFFF" width="2.419" height="2.419"/>
			<polygon fill="#FFFFFF" points="43.989,65.817 46.387,65.817 46.387,63.399 43.989,63.399 43.964,63.399 41.571,63.399 
				41.571,65.817 43.964,65.817 			"/>
			<rect x="41.583" y="58.549" fill="#FFFFFF" width="2.419" height="2.419"/>
			<rect x="46.429" y="60.968" fill="#FFFFFF" width="2.422" height="2.418"/>
			<rect x="51.226" y="58.563" fill="#FFFFFF" width="2.419" height="2.417"/>
			<polygon fill="#FFFFFF" points="46.429,58.549 46.429,56.143 44.01,56.143 44.01,58.549 44.01,58.563 44.01,60.968 
				46.429,60.968 46.429,58.563 			"/>
			<polygon fill="#FFFFFF" points="19.782,46.469 22.192,46.469 22.192,48.883 19.777,48.883 19.777,51.305 22.196,51.305 
				22.196,48.888 24.606,48.888 24.611,48.888 27.022,48.888 27.022,46.469 27.022,44.05 27.022,41.631 27.022,39.212 
				24.606,39.212 24.606,41.631 24.606,44.05 22.2,44.05 22.192,44.05 22.192,41.631 22.192,39.212 19.773,39.212 19.773,41.631 
				19.773,44.05 19.782,44.05 			"/>
			<polygon fill="#FFFFFF" points="22.196,56.143 22.196,58.563 22.196,60.98 24.606,60.98 24.619,60.98 27.022,60.98 
				27.022,58.563 24.619,58.563 24.619,56.143 27.022,56.143 27.022,53.725 24.619,53.725 24.619,51.305 22.196,51.305 
				22.196,53.725 			"/>
			<rect x="24.611" y="24.697" fill="#FFFFFF" width="7.256" height="7.255"/>
			<path fill="#FFFFFF" d="M63.314,19.86v16.932H80.25V19.86H63.314z M77.831,34.374H65.734V22.278h12.097V34.374z"/>
			<rect x="68.151" y="24.697" fill="#FFFFFF" width="7.263" height="7.255"/>
			<path fill="#FFFFFF" d="M19.773,80.335h16.931V63.403H19.773V80.335z M22.192,65.822H34.29v12.097H22.192V65.822L22.192,65.822z"
				/>
			<rect x="24.611" y="68.24" fill="#FFFFFF" width="7.256" height="7.259"/>
		</g>
	</g>
</g>
</svg>
