<?xml version="1.0" encoding="utf-8"?>
<!-- Generator: Adobe Illustrator 16.0.0, SVG Export Plug-In . SVG Version: 6.00 Build 0)  -->
<!DOCTYPE svg PUBLIC "-//W3C//DTD SVG 1.1//EN" "http://www.w3.org/Graphics/SVG/1.1/DTD/svg11.dtd">
<svg version="1.1" id="Layer_1" xmlns="http://www.w3.org/2000/svg" xmlns:xlink="http://www.w3.org/1999/xlink" x="0px" y="0px"
	 width="150px" height="150.001px" viewBox="0 0 150 150.001" enable-background="new 0 0 150 150.001" xml:space="preserve">
<rect display="none" fill="#62D38A" width="150" height="150.001"/>
<path fill="#FFD200" d="M141.02,75c0,36.46-29.563,66.021-66.02,66.021S8.98,111.46,8.98,75C8.98,38.542,38.543,8.98,75,8.98
	S141.02,38.542,141.02,75z"/>
<path opacity="0.25" fill="#FFD200" d="M149.032,75c0,40.886-33.15,74.033-74.032,74.033S0.968,115.886,0.968,75
	C0.968,34.117,34.118,0.967,75,0.967S149.032,34.117,149.032,75z"/>
<polygon fill="#0BD38A" points="75,41.694 32.464,72.427 32.464,124.222 117.531,124.222 117.531,72.427 "/>
<g>
	<path fill="#62D38A" d="M31.047,20.137c-4.779,0-8.655,3.875-8.655,8.656h34.307v-8.656H31.047z"/>
	<path fill="#FFFFFF" d="M110.295,28.793v70.105H39.703V28.793c0-4.781-3.876-8.656-8.656-8.656h70.594
		C106.42,20.137,110.295,24.012,110.295,28.793z"/>
	<g>
		<rect x="48.22" y="39.454" fill="#0BD38A" width="25.642" height="25.64"/>
		<g>
			<rect x="78.75" y="39.454" fill="#E6E5E5" width="24.448" height="2.744"/>
			<rect x="78.75" y="47.085" fill="#E6E5E5" width="24.448" height="2.744"/>
			<rect x="78.75" y="54.717" fill="#E6E5E5" width="24.448" height="2.744"/>
			<rect x="78.75" y="62.349" fill="#E6E5E5" width="24.448" height="2.745"/>
			<rect x="48.22" y="69.98" fill="#E6E5E5" width="54.979" height="2.746"/>
			<rect x="48.22" y="77.611" fill="#E6E5E5" width="27.489" height="2.746"/>
		</g>
	</g>
</g>
<polygon fill="#62D38A" points="117.531,72.427 117.531,124.222 75,98.326 "/>
<polygon fill="#62D38A" points="75,98.326 32.464,124.222 32.464,72.427 "/>
<polygon fill="#0BD38A" points="117.531,124.222 32.464,124.222 75,98.326 "/>
<path fill="none" d="M124.231,4.74V75c0,27.196-22.046,49.231-49.231,49.231S25.769,102.196,25.769,75h-4.751V4.74H124.231z"/>
</svg>
