<?xml version="1.0" encoding="utf-8"?>
<!-- Generator: Adobe Illustrator 16.0.0, SVG Export Plug-In . SVG Version: 6.00 Build 0)  -->
<!DOCTYPE svg PUBLIC "-//W3C//DTD SVG 1.1//EN" "http://www.w3.org/Graphics/SVG/1.1/DTD/svg11.dtd">
<svg version="1.1" id="图层_1" xmlns="http://www.w3.org/2000/svg" xmlns:xlink="http://www.w3.org/1999/xlink" x="0px" y="0px"
	 width="47.855px" height="46.35px" viewBox="0 0 47.855 46.35" enable-background="new 0 0 47.855 46.35" xml:space="preserve">
<g>
	<defs>
		<path id="SVGID_1_" d="M47.855,44.099c0,0.003,0,0.006,0,0.006c0,1.239-1.006,2.245-2.245,2.245H2.244
			c-1.238,0-2.243-1.006-2.243-2.245c0,0,0-0.003,0-0.006H0c0,0,0-8.173,5.973-11.144c3.779-1.88,2.324-0.354,6.963-2.278
			c4.64-1.921,5.739-2.593,5.739-2.593l0.043-4.427c0,0-1.738-1.331-2.277-5.498c-1.088,0.314-1.447-1.276-1.511-2.289
			c-0.059-0.979-0.629-4.034,0.697-3.757c-0.271-2.041-0.467-3.88-0.371-4.855C15.59,3.837,18.886,0.262,23.963,0
			c5.971,0.262,8.337,3.833,8.667,7.255c0.101,0.975-0.114,2.816-0.385,4.854c1.326-0.272,0.75,2.777,0.685,3.756
			c-0.06,1.014-0.428,2.599-1.511,2.285c-0.541,4.167-2.279,5.485-2.279,5.485l0.041,4.405c0,0,1.1,0.629,5.738,2.551
			c4.639,1.923,3.186,0.484,6.964,2.364C47.855,35.926,47.855,44.099,47.855,44.099L47.855,44.099L47.855,44.099z"/>
	</defs>
	<clipPath id="SVGID_2_">
		<use xlink:href="#SVGID_1_"  overflow="visible"/>
	</clipPath>
	<rect x="-2.612" y="-0.673" clip-path="url(#SVGID_2_)" fill="#D5D5D5" width="55.956" height="48.774"/>
</g>
</svg>
