<?xml version="1.0" encoding="utf-8"?>
<!-- Generator: Adobe Illustrator 16.0.0, SVG Export Plug-In . SVG Version: 6.00 Build 0)  -->
<!DOCTYPE svg PUBLIC "-//W3C//DTD SVG 1.1//EN" "http://www.w3.org/Graphics/SVG/1.1/DTD/svg11.dtd">
<svg version="1.1" id="图层_1" xmlns="http://www.w3.org/2000/svg" xmlns:xlink="http://www.w3.org/1999/xlink" x="0px" y="0px"
	 width="500px" height="500px" viewBox="0 0 500 500" enable-background="new 0 0 500 500" xml:space="preserve">
<g>
	<path fill="#8C68A7" d="M262.198,145.229c32.828,4.035,60.915,23.332,76.957,50.594l75.716-2.015l39.99-65.896
		C415.607,61.19,344.799,15.272,262.938,10.674l36.325,66.214L262.198,145.229z"/>
	<path fill="#97B443" d="M345.663,208.893c5.039,12.223,7.833,25.606,7.833,39.648c0,19.078-5.154,36.942-14.111,52.319
		l39.604,64.564l77.089,1.686c20.072-34.917,31.551-75.402,31.551-118.569c0-38.562-9.171-74.978-25.437-107.201l-39.751,65.505
		L345.663,208.893z"/>
	<path fill="#5DBCC8" d="M166.321,185.736c18.673-24.651,48.063-40.709,81.236-41.279l36.63-67.532l-36.546-66.622
		C165.415,10.887,93.099,53.119,50.725,116.957l74.403,1.627L166.321,185.736z"/>
	<path fill="#526C78" d="M153.051,288.135c-5.023-12.208-7.813-25.572-7.813-39.594c0-18.338,4.758-35.562,13.083-50.527
		L117.62,131.66l-74.988-1.642c-20.056,34.908-31.525,75.376-31.525,118.522c0,37.796,8.815,73.527,24.479,105.276l38.584-63.581
		L153.051,288.135z"/>
	<path fill="#E56B62" d="M234.547,351.603c-31.995-4.563-59.287-23.66-74.999-50.397l-77.81,2.072l-38.912,64.119
		c38.686,67.081,109.116,113.535,190.767,118.873l-36.248-66.074L234.547,351.603z"/>
	<path fill="#EE8226" d="M331.221,312.867c-19.067,24.228-48.631,39.803-81.853,39.803c-0.112,0-0.224-0.007-0.335-0.007
		l-36.61,67.495l36.554,66.641c0.131,0,0.26,0.004,0.391,0.004c82.922,0,155.938-42.371,198.612-106.633l-76.498-1.671
		L331.221,312.867z"/>
</g>
<g>
	<path fill="#FFFFFF" d="M363.858,98.856c0,0.888-0.234,1.615-1.347,1.615h-39.61c-1.112,0-2.02-0.908-2.02-2.02V61.117
		c0-1.113,0.727-1.348,1.615-1.348c0.89,0,1.615,0.235,1.615,1.348v34.101c0,1.11,0.911,2.02,2.022,2.02h36.377
		C363.624,97.237,363.858,97.964,363.858,98.856L363.858,98.856z M363.858,98.856"/>
	<path fill="#FFFFFF" d="M360.079,73.604c0.468,0.296,0.809,0.085,0.761-0.463l-0.783-8.61c-0.048-0.549-0.512-0.84-1.03-0.648
		l-8.095,3.031c-0.518,0.192-0.558,0.592-0.092,0.887l1.502,0.941c0.469,0.294,0.602,0.912,0.298,1.373l-6.119,9.293
		c-0.302,0.461-0.975,0.678-1.492,0.482l-9.507-3.6c-0.516-0.195-1.226-0.006-1.577,0.419l-5.973,7.228
		c-0.352,0.426-0.643,1.226-0.644,1.778l-0.031,5.904c-0.003,0.552,0.288,0.661,0.648,0.242l7.689-8.957
		c0.361-0.418,1.079-0.603,1.594-0.405l9.58,3.628c0.516,0.196,1.189-0.02,1.493-0.479l8.576-12.87
		c0.306-0.462,0.938-0.597,1.406-0.302L360.079,73.604z M360.079,73.604"/>
</g>
<g>
	<g>
		<g>
			<g opacity="0.2">
				<path fill="#FFFFFF" d="M432.36,254.778c-0.079,0.062-0.19,0.062-0.269,0l-22.457-16.674c-0.067-0.046-0.158-0.056-0.234-0.019
					c-0.075,0.037-0.126,0.115-0.126,0.199v23.573c0,0.494,0.396,0.815,0.889,0.815h43.994c0.492,0,0.887-0.321,0.887-0.815v-23.654
					c0-0.084-0.046-0.166-0.124-0.2c-0.076-0.041-0.168-0.031-0.237,0.02L432.36,254.778z"/>
				<path fill="#FFFFFF" d="M455.043,234.011v-0.326c0-0.493-0.397-0.817-0.888-0.817h-43.967c-0.492,0-0.886,0.324-0.886,0.817
					v0.412l22.813,14.823c0.074,0.05,0.172,0.05,0.246,0L455.043,234.011z"/>
			</g>
		</g>
		<g>
			<g>
				<path fill="#FFFFFF" d="M432.362,254.778c-0.081,0.059-0.192,0.062-0.271,0l-22.459-16.674c-0.066-0.05-0.294-0.057-0.37-0.021
					c-0.073,0.037-0.258,0.117-0.258,0.201v23.572c0,0.495,0.665,0.997,1.154,0.997h44.002c0.49,0,0.621-0.502,0.621-0.997v-23.659
					c0-0.084,0.081-0.162,0.007-0.201c-0.077-0.037-0.101-0.027-0.17,0.025L432.362,254.778z"/>
				<path fill="#FFFFFF" d="M454.782,234.011v-0.325c0-0.495-0.137-0.645-0.627-0.645h-44.002c-0.487,0-1.149,0.149-1.149,0.645
					v0.412l22.966,14.839c0.072,0.051,0.104,0.045,0.177,0L454.782,234.011z"/>
			</g>
		</g>
	</g>
</g>
<g id="_x32__7_">
	<g>
		<g>
			<g>
				<g opacity="0.2">
					<path fill="#FFFFFF" d="M357.924,393.462c0.333-0.676,0.879-0.676,1.213,0l5.746,11.642c0.334,0.676,1.217,1.317,1.962,1.426
						l12.851,1.866c0.745,0.108,0.914,0.627,0.374,1.153l-9.301,9.059c-0.54,0.526-0.877,1.563-0.75,2.307l2.196,12.809
						c0.127,0.742-0.314,1.063-0.98,0.712l-11.492-6.042c-0.666-0.351-1.758-0.351-2.425,0l-11.495,6.042
						c-0.667,0.351-1.108,0.03-0.981-0.712l2.195-12.809c0.127-0.743-0.21-1.781-0.75-2.307l-9.296-9.059
						c-0.54-0.525-0.371-1.045,0.374-1.153l12.846-1.866c0.745-0.108,1.629-0.75,1.962-1.426L357.924,393.462z"/>
				</g>
			</g>
			<path fill="#FFFFFF" d="M357.641,394.025c0.494-0.981,1.288-0.981,1.773,0l5.192,10.513c0.484,0.985,1.771,1.921,2.864,2.088
				l11.594,1.684c1.093,0.158,1.341,0.918,0.551,1.687l-8.393,8.184c-0.788,0.766-1.285,2.283-1.097,3.363l1.982,11.55
				c0.187,1.092-0.46,1.558-1.436,1.04l-10.374-5.449c-0.969-0.508-2.566-0.508-3.54,0l-10.376,5.449
				c-0.975,0.518-1.618,0.052-1.436-1.04l1.981-11.55c0.188-1.08-0.312-2.598-1.097-3.363l-8.392-8.184
				c-0.792-0.769-0.54-1.528,0.55-1.687l11.597-1.684c1.089-0.167,2.379-1.103,2.866-2.088L357.641,394.025z"/>
		</g>
	</g>
</g>
<path fill="#FFFFFF" d="M61.562,230.963c-10.18,0-18.442,7.184-18.442,16.04c0,8.855,8.263,16.042,18.442,16.042
	c1.273,0,2.568,0.076,3.719-0.323c6.55-2.301,1.604,10.479,1.604,10.479s7.764-7.883,11.188-16.019
	c1.37-3.248,1.929-6.735,1.929-10.179C80.002,238.146,71.75,230.963,61.562,230.963z M53.412,251.171
	c-1.532,0-2.777-1.246-2.777-2.777c0-1.529,1.245-2.771,2.777-2.771c1.529,0,2.777,1.241,2.777,2.771
	C56.189,249.925,54.941,251.171,53.412,251.171z M61.57,251.171c-1.533,0-2.773-1.246-2.773-2.777c0-1.529,1.24-2.771,2.773-2.771
	c1.538,0,2.784,1.241,2.784,2.771C64.354,249.925,63.108,251.171,61.57,251.171z M69.736,251.171c-1.542,0-2.774-1.246-2.774-2.777
	c0-1.529,1.232-2.771,2.774-2.771c1.528,0,2.776,1.241,2.776,2.771C72.512,249.925,71.264,251.171,69.736,251.171z"/>
<path fill="#FFFFFF" d="M126.507,345.769c-2.011,0-3.815,0.896-5.042,2.304l-10.32-5.429c0.423-1.17,0.665-2.43,0.665-3.745
	c0-1.541-0.315-3.004-0.883-4.336l8.046-4.831c0.858,0.71,1.943,1.151,3.141,1.151c2.747,0,4.965-2.221,4.965-4.966
	c0-2.736-2.218-4.962-4.965-4.962c-2.739,0-4.959,2.226-4.959,4.962c0,0.431,0.073,0.841,0.175,1.241l-7.978,4.791
	c-2.03-2.512-5.13-4.122-8.609-4.122c-6.118,0-11.072,4.96-11.072,11.071c0,6.112,4.955,11.065,11.072,11.065
	c3.702,0,6.972-1.824,8.981-4.616l10.318,5.429c-0.139,0.535-0.221,1.096-0.221,1.674c0,3.687,2.999,6.683,6.687,6.683
	c3.688,0,6.682-2.996,6.682-6.683C133.189,348.762,130.195,345.769,126.507,345.769z"/>
<g>
	<circle fill="#FFFFFF" cx="181.697" cy="112.094" r="10"/>
	<path fill="#FFFFFF" d="M191.117,120.274h-0.187c-2.22,2.616-5.532,4.28-9.233,4.28c-3.701,0-7.012-1.664-9.232-4.28h-0.188
		c-4.524,0-8.228,3.702-8.228,8.226v12.158h6.082v-6.77c0-0.491,0.403-0.894,0.895-0.894c0.491,0,0.894,0.402,0.894,0.894v6.77
		h19.556v-6.77c0-0.491,0.402-0.894,0.895-0.894c0.491,0,0.894,0.402,0.894,0.894v6.77h6.081V128.5
		C199.345,123.977,195.643,120.274,191.117,120.274z"/>
</g>
<g>
	<path fill="#FFFFFF" d="M139.134,60.061v-1.266h5.189v1.301c-0.517,1.137-1.128,2.212-1.836,3.226v9.062h-1.246v-7.471
		c-0.585,0.68-1.219,1.324-1.9,1.934c-0.096-0.422-0.245-0.908-0.447-1.459c1.639-1.453,2.997-3.229,4.072-5.326H139.134z
		 M140.714,55.842l1.118-0.615c0.394,0.691,0.809,1.494,1.246,2.408l-1.182,0.668C141.481,57.354,141.087,56.533,140.714,55.842z
		 M142.679,64.297l0.83-0.756c0.649,0.797,1.24,1.553,1.772,2.268l-0.99,0.861C143.78,65.861,143.243,65.07,142.679,64.297z
		 M144.323,70.467h4.487v-8.613h-3.8v-1.371h3.8v-5.15h1.278v5.15h4.056v1.371h-4.056v8.613h4.535v1.371h-10.299V70.467z"/>
	<path fill="#FFFFFF" d="M163.213,56.791c-2.129,2.766-4.519,4.992-7.17,6.68c-0.255-0.422-0.548-0.85-0.878-1.283
		c3.055-1.723,5.53-3.996,7.425-6.82h1.708l-0.303,0.439c1.842,2.707,4.274,4.693,7.297,5.959c-0.319,0.469-0.618,0.967-0.894,1.494
		C167.312,61.607,164.917,59.451,163.213,56.791z M165.625,67.408c1.543,1.512,2.874,2.93,3.992,4.254l-1.038,1.02
		c-0.341-0.434-0.735-0.914-1.182-1.441c-2.651,0.176-5.36,0.375-8.128,0.598c-0.447,0.047-0.899,0.176-1.357,0.387l-0.718-1.459
		c0.521-0.211,0.963-0.492,1.325-0.844c0.926-0.996,1.82-2.162,2.683-3.498h-5.317v-1.301h14.659v1.301h-7.729
		c-1.086,1.512-2.145,2.854-3.178,4.025c2.353-0.129,4.599-0.252,6.739-0.369c-0.49-0.551-1.027-1.148-1.613-1.793L165.625,67.408z
		 M158.774,61.502h8.814v1.301h-8.814V61.502z"/>
	<path fill="#FFFFFF" d="M173.864,65.352c1.086-0.152,2.22-0.311,3.401-0.475c-0.042,0.504-0.08,0.902-0.111,1.195
		c-1.576,0.223-3.157,0.463-4.743,0.721l-0.255-1.283c0.676-0.58,1.514-1.793,2.515-3.639c-1.171,0.082-2.046,0.152-2.626,0.211
		l-0.319-1.16c0.83-1.102,1.74-2.988,2.73-5.66l1.293,0.492c-0.926,1.922-1.799,3.609-2.619,5.063
		c0.878-0.006,1.581-0.018,2.107-0.035c0.426-0.838,0.878-1.781,1.357-2.83l1.229,0.598C176.61,60.916,175.29,63.184,173.864,65.352
		z M171.852,69.324c1.544-0.316,3.396-0.738,5.557-1.266c-0.043,0.539-0.064,0.984-0.064,1.336
		c-2.214,0.504-3.928,0.926-5.142,1.266L171.852,69.324z M176.482,71.592v-1.266h1.9v-14.08h7.729v14.08h1.405v1.266H176.482z
		 M184.897,57.512h-5.301v3.463h5.301V57.512z M179.596,65.65h5.301v-3.463h-5.301V65.65z M179.596,70.326h5.301v-3.463h-5.301
		V70.326z"/>
	<path fill="#FFFFFF" d="M187.995,69.746c1.533-0.34,3.337-0.785,5.413-1.336c-0.032,0.633-0.048,1.066-0.048,1.301
		c-2.246,0.586-3.917,1.049-5.014,1.389L187.995,69.746z M190.055,65.703c1.203-0.188,2.278-0.369,3.226-0.545
		c-0.064,0.457-0.112,0.902-0.144,1.336c-1.448,0.234-2.959,0.492-4.535,0.773l-0.255-1.301c0.681-0.803,1.474-2.03,2.379-3.683
		c-0.953,0.059-1.751,0.126-2.395,0.202l-0.303-1.195c0.958-1.395,1.969-3.469,3.034-6.223l1.213,0.527
		c-1.032,2.227-1.975,4.09-2.826,5.59c0.697-0.012,1.325-0.029,1.884-0.053c0.399-0.773,0.82-1.623,1.262-2.549l1.197,0.58
		C192.461,61.719,191.215,63.898,190.055,65.703z M196.298,66.389l1.166,0.773c-1.267,2.039-2.582,3.838-3.944,5.396
		c-0.309-0.316-0.66-0.633-1.054-0.949C193.829,70.227,195.106,68.486,196.298,66.389z M194.271,56.316h8.527v9.492h-1.229v-0.984
		H195.5v0.984h-1.229V56.316z M201.568,57.547H195.5v6.047h6.068V57.547z M199.349,67.285l1.054-0.826
		c1.182,1.523,2.395,3.146,3.641,4.869l-1.166,0.949C201.738,70.566,200.562,68.902,199.349,67.285z"/>
	<path fill="#FFFFFF" d="M212.689,70.142h-7.09v-1.485h2.771V58.32l-2.842,0.905v-1.582l4.399-1.406v12.419h2.762V70.142z"/>
	<path fill="#FFFFFF" d="M214.406,63.603c0-2.402,0.362-4.22,1.086-5.454c0.724-1.233,1.772-1.85,3.146-1.85
		c2.619,0,3.928,2.326,3.928,6.979c0,2.297-0.369,4.053-1.106,5.269s-1.771,1.824-3.102,1.824c-1.256,0-2.229-0.577-2.918-1.731
		C214.751,67.484,214.406,65.806,214.406,63.603z M216.003,63.523c0,3.615,0.833,5.423,2.499,5.423c1.639,0,2.459-1.837,2.459-5.511
		c0-3.803-0.804-5.704-2.411-5.704C216.852,57.731,216.003,59.662,216.003,63.523z"/>
	<path fill="#FFFFFF" d="M232.466,55.578l-0.24,0.404c1.725,3.129,4.12,5.367,7.186,6.715c-0.33,0.574-0.612,1.102-0.846,1.582
		c-3.13-1.805-5.499-4.131-7.106-6.979c-1.575,2.707-3.965,5.115-7.169,7.225c-0.234-0.422-0.506-0.885-0.814-1.389
		c3.321-2.027,5.791-4.547,7.409-7.559H232.466z M230.709,61.625h1.453v10.881h-1.453V61.625z"/>
</g>
<g>
	<path fill="#FFFFFF" d="M34.173,187.369h5.253v-3.516h-4.679v-1.266h4.679v-3.445h-4.934v-1.266h4.934v-2.514h1.277v17.104h-1.277
		v-3.832h-5.253V187.369z M43.21,175.363h1.278v2.514h4.966v1.266h-4.966v3.445h4.727v1.266h-4.727v3.516h5.317v1.266h-5.317v3.832
		H43.21V175.363z"/>
	<path fill="#FFFFFF" d="M50.332,183.572c2.374-2.133,4.146-4.646,5.317-7.541l1.262,0.58c-1.437,3.293-3.29,5.988-5.557,8.086
		C51.077,184.311,50.737,183.936,50.332,183.572z M60.728,185.752c1.533,2.191,2.826,4.184,3.88,5.977l-1.213,0.879
		c-0.298-0.539-0.615-1.099-0.95-1.679c-3.513,0.188-6.369,0.378-8.567,0.571c-0.404,0.047-0.894,0.146-1.469,0.299l-0.703-1.494
		c0.479-0.211,0.921-0.533,1.325-0.967c1.246-1.582,2.598-3.92,4.056-7.014l1.373,0.686c-1.32,2.496-2.73,4.828-4.231,6.996
		c2.198-0.076,4.687-0.185,7.465-0.325c-0.607-1.014-1.275-2.083-2.004-3.208L60.728,185.752z M59.354,176.295l1.182-0.51
		c1.033,3.059,2.954,5.484,5.765,7.277c-0.288,0.328-0.618,0.785-0.99,1.371C62.372,182.207,60.387,179.494,59.354,176.295z"/>
	<path fill="#FFFFFF" d="M71.234,192.52h-1.262v-9.097c-0.772,0.99-1.624,1.942-2.555,2.856c-0.224-0.41-0.479-0.838-0.767-1.283
		c2.055-1.893,3.659-3.99,4.814-6.293h-4.367v-1.301h4.966c0.303-0.732,0.564-1.482,0.783-2.25l1.325,0.334
		c-0.213,0.65-0.447,1.289-0.703,1.916h9.022v1.301h-9.597c-0.33,0.691-0.692,1.365-1.086,2.021h8.75v9.387
		c0,1.453-0.644,2.18-1.932,2.18c-0.564,0.012-1.421,0.018-2.571,0.018c-0.053-0.398-0.133-0.879-0.24-1.441
		c0.979,0.082,1.767,0.123,2.363,0.123c0.734,0,1.102-0.398,1.102-1.195v-1.248h-8.048V192.52z M79.282,181.955h-8.048v2.092h8.048
		V181.955z M71.234,187.352h8.048v-2.109h-8.048V187.352z"/>
	<path fill="#FFFFFF" d="M43.179,197.034l-0.319,0.475c1.661,2.414,4.019,4.289,7.074,5.625c-0.234,0.375-0.527,0.879-0.878,1.512
		c-2.906-1.605-5.248-3.621-7.026-6.047c-1.671,2.379-4.083,4.535-7.233,6.469c-0.277-0.445-0.585-0.926-0.926-1.441
		c3.247-1.629,5.775-3.826,7.584-6.592H43.179z M34.731,212.116h2.156v-6.82h1.326v6.82h3.305v-9.826h1.325v3.885h4.87v1.283h-4.87
		v4.658h6.387v1.301H34.731V212.116z"/>
	<path fill="#FFFFFF" d="M50.444,211.694h5.126v-14.52h1.341v14.52h2.794v-14.52h1.341v14.52h5.173v1.301H50.444V211.694z
		 M52.296,200.62c0.873,2.262,1.719,4.664,2.539,7.207l-1.31,0.65c-0.713-2.473-1.512-4.904-2.395-7.295L52.296,200.62z
		 M61.622,207.985c1.064-2.484,1.958-4.887,2.683-7.207l1.293,0.563c-0.99,2.801-1.932,5.209-2.826,7.225L61.622,207.985z"/>
	<path fill="#FFFFFF" d="M66.811,209.268h7.233v-1.986h-4.423v0.826h-1.214v-8.525h3.313c-0.511-0.656-1.062-1.33-1.653-2.021
		l0.91-0.826c0.788,0.832,1.48,1.6,2.076,2.303l-0.591,0.545h3.744c0.585-0.855,1.179-1.787,1.781-2.795l1.277,0.756
		c-0.548,0.732-1.078,1.412-1.589,2.039h3.266v8.525h-1.214v-0.826H75.29v1.986h7.233v1.266H75.29v3.709h-1.246v-3.709h-7.233
		V209.268z M69.622,202.817h4.423v-2.004h-4.423V202.817z M69.622,206.051h4.423v-2.039h-4.423V206.051z M79.729,200.813H75.29
		v2.004h4.439V200.813z M75.29,206.051h4.439v-2.039H75.29V206.051z"/>
	<path fill="#FFFFFF" d="M83.05,205.383c1.522-2.531,2.672-5.373,3.449-8.525l1.357,0.369c-0.442,1.488-0.916,2.877-1.421,4.166
		v12.832h-1.198v-10.081c-0.5,1.031-1.027,1.983-1.581,2.856C83.508,206.555,83.306,206.016,83.05,205.383z M87.41,211.993h6.235
		c0.767-2.256,1.653-5.473,2.659-9.65l1.437,0.475c-0.644,2.174-1.56,5.232-2.746,9.176h3.992v1.301H87.41V211.993z M87.745,200.04
		h5.628c-0.474-0.879-0.998-1.693-1.573-2.443l1.086-0.826c0.468,0.598,1.048,1.4,1.74,2.408l-1.182,0.861h5.253v1.301H87.745
		V200.04z M89.917,202.518c0.703,2.109,1.469,4.664,2.299,7.664l-1.325,0.422c-0.724-2.871-1.453-5.414-2.188-7.629L89.917,202.518z
		"/>
	<path fill="#FFFFFF" d="M107.792,211.826h-7.09v-1.485h2.771v-10.336l-2.842,0.905v-1.582l4.399-1.406v12.419h2.762V211.826z"/>
	<path fill="#FFFFFF" d="M109.509,205.287c0-2.402,0.362-4.22,1.086-5.454c0.724-1.233,1.772-1.85,3.146-1.85
		c2.619,0,3.928,2.326,3.928,6.979c0,2.297-0.369,4.053-1.106,5.269s-1.771,1.824-3.102,1.824c-1.256,0-2.229-0.577-2.918-1.731
		C109.854,209.168,109.509,207.49,109.509,205.287z M111.106,205.208c0,3.615,0.833,5.423,2.499,5.423
		c1.639,0,2.459-1.837,2.459-5.511c0-3.803-0.804-5.704-2.411-5.704C111.955,199.416,111.106,201.346,111.106,205.208z"/>
	<path fill="#FFFFFF" d="M127.569,197.262l-0.24,0.404c1.725,3.129,4.12,5.367,7.186,6.715c-0.33,0.574-0.612,1.102-0.846,1.582
		c-3.13-1.805-5.499-4.131-7.106-6.979c-1.575,2.707-3.965,5.115-7.169,7.225c-0.234-0.422-0.506-0.885-0.814-1.389
		c3.321-2.027,5.791-4.547,7.409-7.559H127.569z M125.813,203.309h1.453v10.881h-1.453V203.309z"/>
</g>
<g>
	<path fill="#FFFFFF" d="M89.861,381.305c2.374-2.133,4.146-4.646,5.317-7.541l1.262,0.58c-1.437,3.293-3.29,5.988-5.557,8.086
		C90.606,382.043,90.266,381.668,89.861,381.305z M100.257,383.484c1.533,2.191,2.826,4.184,3.88,5.977l-1.213,0.879
		c-0.298-0.539-0.615-1.099-0.95-1.679c-3.513,0.188-6.369,0.378-8.567,0.571c-0.404,0.047-0.894,0.146-1.469,0.299l-0.703-1.494
		c0.479-0.211,0.921-0.533,1.325-0.967c1.246-1.582,2.598-3.92,4.056-7.014l1.373,0.686c-1.32,2.496-2.73,4.828-4.231,6.996
		c2.198-0.076,4.687-0.185,7.465-0.325c-0.607-1.014-1.275-2.083-2.004-3.208L100.257,383.484z M98.883,374.027l1.182-0.51
		c1.033,3.059,2.954,5.484,5.765,7.277c-0.288,0.328-0.618,0.785-0.99,1.371C101.901,379.939,99.916,377.227,98.883,374.027z"/>
	<path fill="#FFFFFF" d="M110.764,390.252h-1.262v-9.097c-0.772,0.99-1.624,1.942-2.555,2.856c-0.224-0.41-0.479-0.838-0.767-1.283
		c2.055-1.893,3.659-3.99,4.814-6.293h-4.367v-1.301h4.966c0.303-0.732,0.564-1.482,0.783-2.25l1.325,0.334
		c-0.213,0.65-0.447,1.289-0.703,1.916h9.022v1.301h-9.597c-0.33,0.691-0.692,1.365-1.086,2.021h8.75v9.387
		c0,1.453-0.644,2.18-1.932,2.18c-0.564,0.012-1.421,0.018-2.571,0.018c-0.053-0.398-0.133-0.879-0.24-1.441
		c0.979,0.082,1.767,0.123,2.363,0.123c0.734,0,1.102-0.398,1.102-1.195v-1.248h-8.048V390.252z M118.812,379.688h-8.048v2.092
		h8.048V379.688z M110.764,385.084h8.048v-2.109h-8.048V385.084z"/>
	<path fill="#FFFFFF" d="M99.059,394.766l-0.319,0.475c1.661,2.414,4.019,4.289,7.074,5.625c-0.234,0.375-0.527,0.879-0.878,1.512
		c-2.906-1.605-5.248-3.621-7.026-6.047c-1.671,2.379-4.083,4.535-7.233,6.469c-0.277-0.445-0.585-0.926-0.926-1.441
		c3.247-1.629,5.775-3.826,7.584-6.592H99.059z M90.612,409.848h2.156v-6.82h1.326v6.82h3.305v-9.826h1.325v3.885h4.87v1.283h-4.87
		v4.658h6.387v1.301H90.612V409.848z"/>
	<path fill="#FFFFFF" d="M106.324,409.426h5.126v-14.52h1.341v14.52h2.794v-14.52h1.341v14.52h5.173v1.301h-15.776V409.426z
		 M108.177,398.352c0.873,2.262,1.719,4.664,2.539,7.207l-1.31,0.65c-0.713-2.473-1.512-4.904-2.395-7.295L108.177,398.352z
		 M117.502,405.717c1.064-2.484,1.958-4.887,2.683-7.207l1.293,0.563c-0.99,2.801-1.932,5.209-2.826,7.225L117.502,405.717z"/>
	<path fill="#FFFFFF" d="M122.691,407h7.233v-1.986h-4.423v0.826h-1.214v-8.525h3.313c-0.511-0.656-1.062-1.33-1.653-2.021
		l0.91-0.826c0.788,0.832,1.48,1.6,2.076,2.303l-0.591,0.545h3.744c0.585-0.855,1.179-1.787,1.781-2.795l1.277,0.756
		c-0.548,0.732-1.078,1.412-1.589,2.039h3.266v8.525h-1.214v-0.826h-4.439V407h7.233v1.266h-7.233v3.709h-1.246v-3.709h-7.233V407z
		 M125.502,400.549h4.423v-2.004h-4.423V400.549z M125.502,403.783h4.423v-2.039h-4.423V403.783z M135.609,398.545h-4.439v2.004
		h4.439V398.545z M131.17,403.783h4.439v-2.039h-4.439V403.783z"/>
	<path fill="#FFFFFF" d="M138.931,403.115c1.522-2.531,2.672-5.373,3.449-8.525l1.357,0.369c-0.442,1.488-0.916,2.877-1.421,4.166
		v12.832h-1.198v-10.08c-0.5,1.031-1.027,1.982-1.581,2.855C139.389,404.287,139.186,403.748,138.931,403.115z M143.29,409.725
		h6.235c0.767-2.256,1.653-5.473,2.659-9.65l1.437,0.475c-0.644,2.174-1.56,5.232-2.746,9.176h3.992v1.301H143.29V409.725z
		 M143.625,397.771h5.628c-0.474-0.879-0.998-1.693-1.573-2.443l1.086-0.826c0.468,0.598,1.048,1.4,1.74,2.408l-1.182,0.861h5.253
		v1.301h-10.954V397.771z M145.797,400.25c0.703,2.109,1.469,4.664,2.299,7.664l-1.325,0.422c-0.724-2.871-1.453-5.414-2.188-7.629
		L145.797,400.25z"/>
	<path fill="#FFFFFF" d="M163.673,409.559h-7.09v-1.486h2.771v-10.336l-2.842,0.906v-1.582l4.399-1.406v12.418h2.762V409.559z"/>
	<path fill="#FFFFFF" d="M165.39,403.02c0-2.402,0.362-4.221,1.086-5.454c0.724-1.233,1.772-1.851,3.146-1.851
		c2.619,0,3.928,2.326,3.928,6.979c0,2.297-0.369,4.054-1.106,5.27s-1.771,1.824-3.102,1.824c-1.256,0-2.229-0.578-2.918-1.732
		C165.734,406.9,165.39,405.223,165.39,403.02z M166.986,402.939c0,3.615,0.833,5.424,2.499,5.424c1.639,0,2.459-1.838,2.459-5.512
		c0-3.803-0.804-5.703-2.411-5.703C167.835,397.148,166.986,399.078,166.986,402.939z"/>
	<path fill="#FFFFFF" d="M183.45,394.994l-0.24,0.404c1.725,3.129,4.12,5.367,7.186,6.715c-0.33,0.574-0.612,1.102-0.846,1.582
		c-3.13-1.805-5.499-4.131-7.106-6.979c-1.575,2.707-3.965,5.115-7.169,7.225c-0.234-0.422-0.506-0.885-0.814-1.389
		c3.321-2.027,5.791-4.547,7.409-7.559H183.45z M181.693,401.041h1.453v10.881h-1.453V401.041z"/>
</g>
<g>
	<path fill="#FFFFFF" d="M226.664,427.185h6.243v-1.318h-7.233v-1.09h7.233v-1.301h-6.195v-1.055h6.195v-1.195h-4.056v0.457h-1.118
		v-3.779h5.173v-1.16h-7.186v-1.09h7.186v-1.371h1.182v1.371h7.17v1.09h-7.17v1.16h5.174v3.779h-1.118v-0.457h-4.056v1.195h5.525
		v2.355h1.772v1.09h-1.772v3.217h-1.149v-0.844h-4.375v1.037c0,1.406-0.617,2.115-1.852,2.127c-0.585,0-1.352-0.012-2.299-0.035
		c-0.043-0.398-0.106-0.885-0.192-1.459c0.831,0.117,1.57,0.176,2.22,0.176c0.628,0,0.942-0.352,0.942-1.055v-0.791h-6.243V427.185z
		 M228.852,420.241h4.056v-1.354h-4.056V420.241z M238.145,418.888h-4.056v1.354h4.056V418.888z M238.464,423.476h-4.375v1.301
		h4.375V423.476z M234.089,427.185h4.375v-1.318h-4.375V427.185z"/>
	<path fill="#FFFFFF" d="M241.961,429.118h5.126v-14.52h1.341v14.52h2.794v-14.52h1.342v14.52h5.173v1.301h-15.776V429.118z
		 M243.813,418.044c0.873,2.262,1.719,4.664,2.539,7.207l-1.31,0.65c-0.713-2.473-1.512-4.904-2.395-7.295L243.813,418.044z
		 M253.139,425.409c1.064-2.484,1.959-4.887,2.683-7.207l1.294,0.563c-0.99,2.801-1.933,5.209-2.826,7.225L253.139,425.409z"/>
	<path fill="#FFFFFF" d="M258.328,426.692h7.233v-1.986h-4.423v0.826h-1.214v-8.525h3.313c-0.511-0.656-1.063-1.33-1.652-2.021
		l0.91-0.826c0.787,0.832,1.479,1.6,2.076,2.303l-0.592,0.545h3.744c0.586-0.855,1.18-1.787,1.781-2.795l1.277,0.756
		c-0.549,0.732-1.078,1.412-1.589,2.039h3.266v8.525h-1.214v-0.826h-4.439v1.986h7.234v1.266h-7.234v3.709h-1.245v-3.709h-7.233
		V426.692z M261.139,420.241h4.423v-2.004h-4.423V420.241z M261.139,423.476h4.423v-2.039h-4.423V423.476z M271.246,418.237h-4.439
		v2.004h4.439V418.237z M266.807,423.476h4.439v-2.039h-4.439V423.476z"/>
	<path fill="#FFFFFF" d="M274.567,422.808c1.522-2.531,2.672-5.373,3.449-8.525l1.357,0.369c-0.442,1.488-0.915,2.877-1.421,4.166
		v12.832h-1.198v-10.081c-0.5,1.031-1.027,1.983-1.581,2.856C275.025,423.979,274.822,423.44,274.567,422.808z M278.927,429.417
		h6.235c0.767-2.256,1.652-5.473,2.658-9.65l1.438,0.475c-0.645,2.174-1.56,5.232-2.746,9.176h3.992v1.301h-11.577V429.417z
		 M279.262,417.464h5.629c-0.474-0.879-0.998-1.693-1.572-2.443l1.086-0.826c0.468,0.598,1.048,1.4,1.74,2.408l-1.182,0.861h5.253
		v1.301h-10.954V417.464z M281.434,419.942c0.703,2.109,1.469,4.664,2.299,7.664l-1.324,0.422c-0.725-2.871-1.453-5.414-2.188-7.629
		L281.434,419.942z"/>
	<path fill="#FFFFFF" d="M299.31,429.25h-7.09v-1.485h2.771v-10.336l-2.842,0.905v-1.582l4.398-1.406v12.419h2.763V429.25z"/>
	<path fill="#FFFFFF" d="M301.026,422.711c0-2.402,0.362-4.221,1.086-5.453c0.724-1.234,1.772-1.851,3.146-1.851
		c2.619,0,3.928,2.326,3.928,6.979c0,2.297-0.368,4.054-1.105,5.269c-0.737,1.217-1.771,1.824-3.102,1.824
		c-1.256,0-2.229-0.577-2.918-1.731S301.026,424.914,301.026,422.711z M302.623,422.632c0,3.615,0.833,5.423,2.499,5.423
		c1.64,0,2.459-1.837,2.459-5.511c0-3.803-0.804-5.704-2.411-5.704C303.473,416.84,302.623,418.771,302.623,422.632z"/>
	<path fill="#FFFFFF" d="M319.086,414.687l-0.239,0.404c1.725,3.129,4.12,5.367,7.186,6.715c-0.33,0.574-0.612,1.102-0.847,1.582
		c-3.129-1.805-5.498-4.131-7.105-6.979c-1.575,2.707-3.965,5.115-7.17,7.225c-0.234-0.422-0.506-0.885-0.814-1.389
		c3.322-2.027,5.791-4.547,7.41-7.559H319.086z M317.33,420.733h1.453v10.881h-1.453V420.733z"/>
</g>
<g>
	<path fill="#FFFFFF" d="M373.5,300.36c1.193-1.957,2.041-4.066,2.547-6.328h-2.387v-1.195h2.491v-3.463h1.149v3.463h2.236v1.195
		h-2.236v2.918l0.639-0.703c0.82,0.82,1.464,1.488,1.932,2.004l-0.861,0.967c-0.654-0.797-1.225-1.459-1.709-1.986v9.281h-1.149
		v-9.422c-0.569,1.986-1.277,3.592-2.124,4.816C373.857,301.38,373.682,300.864,373.5,300.36z M381.916,291.835v5.818
		c0,4.195-0.953,7.236-2.858,9.123c-0.298-0.398-0.612-0.797-0.942-1.195c1.682-1.629,2.523-4.166,2.523-7.611v-7.471h5.939v13.219
		c0,0.586,0.187,0.879,0.559,0.879h0.367c0.342,0,0.56-0.328,0.655-0.984c0.106-0.902,0.181-1.875,0.224-2.918
		c0.373,0.199,0.777,0.387,1.213,0.563c-0.096,1.16-0.191,2.109-0.287,2.848c-0.17,1.242-0.713,1.863-1.629,1.863h-0.846
		c-1.021,0-1.533-0.668-1.533-2.004v-12.129H381.916z"/>
	<path fill="#FFFFFF" d="M389.979,305.423c3.816-1.494,6.092-3.645,6.826-6.451h-6.507v-1.336h6.738
		c0.021-0.252,0.032-1.371,0.032-3.357h-5.829v-1.336h3.833c-0.915-1.107-1.698-1.998-2.347-2.672l0.926-0.914
		c0.915,0.902,1.751,1.764,2.507,2.584l-1.022,1.002h3.809c0.825-1.283,1.552-2.484,2.18-3.604l1.325,0.809
		c-0.734,1.031-1.41,1.963-2.028,2.795h4.041v1.336h-6.037c0,1.723-0.008,2.842-0.023,3.357h7.002v1.336h-6.778
		c1.251,2.947,3.606,4.969,7.065,6.064c-0.436,0.492-0.83,0.967-1.182,1.424c-3.278-1.406-5.506-3.521-6.682-6.346
		c-0.868,2.742-3.176,4.934-6.923,6.574C390.629,306.29,390.32,305.868,389.979,305.423z"/>
	<path fill="#FFFFFF" d="M406.314,301.749h7.233v-1.986h-4.423v0.826h-1.214v-8.525h3.313c-0.511-0.656-1.063-1.33-1.652-2.021
		l0.91-0.826c0.787,0.832,1.479,1.6,2.076,2.303l-0.592,0.545h3.744c0.586-0.855,1.18-1.787,1.781-2.795l1.277,0.756
		c-0.549,0.732-1.078,1.412-1.589,2.039h3.266v8.525h-1.214v-0.826h-4.439v1.986h7.234v1.266h-7.234v3.709h-1.245v-3.709h-7.233
		V301.749z M409.125,295.298h4.423v-2.004h-4.423V295.298z M409.125,298.532h4.423v-2.039h-4.423V298.532z M419.232,293.294h-4.439
		v2.004h4.439V293.294z M414.793,298.532h4.439v-2.039h-4.439V298.532z"/>
	<path fill="#FFFFFF" d="M422.554,297.864c1.522-2.531,2.672-5.373,3.449-8.525l1.357,0.369c-0.442,1.488-0.915,2.877-1.421,4.166
		v12.832h-1.198v-10.081c-0.5,1.031-1.027,1.983-1.581,2.856C423.012,299.036,422.809,298.497,422.554,297.864z M426.913,304.474
		h6.235c0.767-2.256,1.652-5.473,2.658-9.65l1.438,0.475c-0.645,2.174-1.56,5.232-2.746,9.176h3.992v1.301h-11.577V304.474z
		 M427.248,292.521h5.629c-0.474-0.879-0.998-1.693-1.572-2.443l1.086-0.826c0.468,0.598,1.048,1.4,1.74,2.408l-1.182,0.861h5.253
		v1.301h-10.954V292.521z M429.42,294.999c0.703,2.109,1.469,4.664,2.299,7.664l-1.324,0.422c-0.725-2.871-1.453-5.414-2.188-7.629
		L429.42,294.999z"/>
	<path fill="#FFFFFF" d="M447.296,304.307h-7.09v-1.485h2.771v-10.336l-2.842,0.905v-1.582l4.398-1.406v12.419h2.763V304.307z"/>
	<path fill="#FFFFFF" d="M449.013,297.768c0-2.402,0.362-4.221,1.086-5.453c0.724-1.234,1.772-1.851,3.146-1.851
		c2.619,0,3.928,2.326,3.928,6.979c0,2.297-0.368,4.054-1.105,5.269c-0.737,1.217-1.771,1.824-3.102,1.824
		c-1.256,0-2.229-0.577-2.918-1.731S449.013,299.971,449.013,297.768z M450.609,297.688c0,3.615,0.833,5.423,2.499,5.423
		c1.64,0,2.459-1.837,2.459-5.511c0-3.803-0.804-5.704-2.411-5.704C451.459,291.896,450.609,293.827,450.609,297.688z"/>
	<path fill="#FFFFFF" d="M467.072,289.743l-0.239,0.404c1.725,3.129,4.12,5.367,7.186,6.715c-0.33,0.574-0.612,1.102-0.847,1.582
		c-3.129-1.805-5.498-4.131-7.105-6.979c-1.575,2.707-3.965,5.115-7.17,7.225c-0.234-0.422-0.506-0.885-0.814-1.389
		c3.322-2.027,5.791-4.547,7.41-7.559H467.072z M465.316,295.79h1.453v10.881h-1.453V295.79z"/>
</g>
<g>
	<path fill="#FFFFFF" d="M330.33,148.644c0.596-0.158,1.25-0.34,1.964-0.545v-6.012h-1.82v-1.266h1.82v-4.271h1.198v4.271h1.725
		v1.266h-1.725v5.643c0.531-0.17,1.096-0.352,1.691-0.545c0,0.539,0.012,0.996,0.033,1.371c-1.725,0.551-3.279,1.084-4.664,1.6
		L330.33,148.644z M338.713,152.405c1.214-0.943,2.291-2.095,3.234-3.454c-0.373-1.764-0.631-4.485-0.775-8.165h-4.135v2.742h3.225
		c-0.021,2.063-0.059,3.85-0.111,5.361c-0.053,1.441-0.697,2.162-1.932,2.162c-0.416,0-0.81-0.006-1.182-0.018
		c-0.064-0.387-0.155-0.844-0.271-1.371c0.468,0.059,0.889,0.088,1.261,0.088c0.618,0,0.942-0.398,0.974-1.195
		c0.054-1.137,0.08-2.414,0.08-3.832h-2.06c-0.037,2.104-0.192,3.738-0.463,4.904c-0.33,1.383-0.953,2.73-1.868,4.043
		c-0.299-0.34-0.623-0.674-0.975-1.002c0.873-1.23,1.447-2.438,1.725-3.621c0.266-1.137,0.399-2.994,0.399-5.572v-3.955h5.285
		c-0.026-1.008-0.048-2.068-0.063-3.182h1.262c-0.012,1.125-0.006,2.186,0.016,3.182h3.943v1.266h-3.903
		c0.096,2.754,0.269,4.963,0.519,6.627c0.75-1.324,1.395-2.813,1.932-4.465l1.182,0.615c-0.824,2.168-1.745,4.052-2.762,5.651
		c0.197,0.791,0.437,1.409,0.719,1.854c0.287,0.469,0.537,0.703,0.75,0.703c0.203,0,0.33-0.164,0.383-0.492
		c0.086-0.516,0.166-1.336,0.24-2.461c0.426,0.199,0.814,0.357,1.166,0.475c-0.107,1.148-0.203,1.975-0.287,2.479
		c-0.203,1.066-0.623,1.6-1.262,1.6c-0.682,0-1.289-0.393-1.82-1.178c-0.299-0.434-0.557-0.993-0.775-1.679
		c-0.861,1.154-1.785,2.13-2.77,2.927C339.346,153.114,339.054,152.769,338.713,152.405z M342.929,137.253l0.734-0.844
		c0.671,0.551,1.331,1.143,1.979,1.775l-0.814,0.967C344.243,138.495,343.609,137.862,342.929,137.253z"/>
	<path fill="#FFFFFF" d="M349.635,151.843h-1.245v-9.088h5.7v-2.426h-7.058v-1.336h7.449c-0.33-0.732-0.716-1.471-1.157-2.215
		l1.229-0.633c0.458,0.738,0.879,1.494,1.262,2.268l-1.054,0.58h7.729v1.336h-7.122v2.426h5.797v6.574
		c0,1.477-0.634,2.215-1.9,2.215c-0.586,0-1.347-0.012-2.283-0.035c-0.053-0.387-0.128-0.855-0.224-1.406
		c0.884,0.059,1.591,0.088,2.124,0.088c0.691,0,1.037-0.387,1.037-1.16v-4.975h-4.551v9.615h-1.277v-9.615h-4.455V151.843z"/>
	<path fill="#FFFFFF" d="M363.128,146.095c1.458-1.57,2.709-3.398,3.753-5.484l1.102,0.633c-0.512,1.002-1.055,1.948-1.629,2.839
		v9.536h-1.214v-7.796c-0.446,0.592-0.91,1.151-1.39,1.679C363.591,147.044,363.383,146.575,363.128,146.095z M363.16,140.944
		c1.32-1.137,2.48-2.689,3.48-4.658l1.15,0.615c-1.311,2.32-2.635,4.107-3.977,5.361
		C363.666,141.771,363.447,141.331,363.16,140.944z M367.088,150.858c1.021-0.117,2.039-0.246,3.05-0.387v-3.146h-2.476v-1.16h2.476
		v-1.951h1.182v1.951h2.411v1.16h-2.411v2.979c1.017-0.152,2.028-0.319,3.034-0.501c0,0.516,0.005,0.943,0.016,1.283
		c-2.416,0.375-4.737,0.762-6.962,1.16L367.088,150.858z M367.679,142.456h2.427v-2.689h-2.123v-1.16h2.123v-2.18h1.182v2.18h2.188
		v1.16h-2.188v2.689h2.348v1.16h-5.956V142.456z M374.018,142.474H379v1.266h-1.74v7.488c0,1.43-0.597,2.15-1.789,2.162
		c-0.469,0.012-1.021,0.006-1.66-0.018c-0.053-0.492-0.128-0.984-0.224-1.477c0.606,0.094,1.144,0.141,1.612,0.141
		c0.564,0,0.847-0.352,0.847-1.055v-7.242h-2.028V142.474z M374.113,137.499h4.472v1.266h-4.472V137.499z"/>
	<path fill="#FFFFFF" d="M386.121,151.948l3.865,0.053l5.412-0.141c-0.181,0.457-0.355,0.908-0.526,1.354l-5.317,0.053l-3.545-0.07
		c-1.789-0.012-3.113-0.686-3.977-2.021c-0.309,0.27-0.932,1.02-1.867,2.25l-0.688-1.494c0.692-0.68,1.363-1.327,2.012-1.942v-6.108
		h-1.852v-1.283h3.066v7.69C383.477,151.342,384.615,151.896,386.121,151.948z M381.044,136.743
		c0.734,0.938,1.458,1.957,2.171,3.059l-1.117,0.844c-0.713-1.219-1.389-2.262-2.027-3.129L381.044,136.743z M384.908,141.296h3.289
		l0.312-1.529h-4.511v-1.16H387c-0.25-0.393-0.639-0.938-1.166-1.635l0.926-0.756c0.555,0.656,1.027,1.254,1.422,1.793l-0.727,0.598
		h2.938c0.463-0.703,0.93-1.482,1.397-2.338l1.214,0.686c-0.341,0.48-0.748,1.031-1.222,1.652h3.394v1.16h-5.373l-0.408,1.529h4.615
		v9.58h-1.182v-0.65h-6.738v0.65h-1.182V141.296z M392.828,142.368h-6.738v1.564h6.738V142.368z M386.09,146.534h6.738v-1.564
		h-6.738V146.534z M386.09,149.153h6.738v-1.582h-6.738V149.153z"/>
	<path fill="#FFFFFF" d="M404.205,151.307h-7.09v-1.485h2.771v-10.336l-2.843,0.905v-1.582l4.4-1.406v12.419h2.762V151.307z"/>
	<path fill="#FFFFFF" d="M405.922,144.768c0-2.402,0.361-4.22,1.086-5.454c0.724-1.233,1.772-1.85,3.146-1.85
		c2.618,0,3.929,2.326,3.929,6.979c0,2.297-0.369,4.053-1.106,5.269s-1.771,1.824-3.102,1.824c-1.257,0-2.229-0.577-2.919-1.731
		C406.267,148.649,405.922,146.971,405.922,144.768z M407.519,144.688c0,3.615,0.833,5.423,2.499,5.423
		c1.639,0,2.459-1.837,2.459-5.511c0-3.803-0.804-5.704-2.411-5.704C408.367,138.896,407.519,140.827,407.519,144.688z"/>
	<path fill="#FFFFFF" d="M423.982,136.743l-0.24,0.404c1.725,3.129,4.119,5.367,7.186,6.715c-0.33,0.574-0.612,1.102-0.846,1.582
		c-3.131-1.805-5.499-4.131-7.106-6.979c-1.575,2.707-3.966,5.115-7.169,7.225c-0.234-0.422-0.506-0.885-0.814-1.389
		c3.32-2.027,5.791-4.547,7.408-7.559H423.982z M422.225,142.79h1.453v10.881h-1.453V142.79z"/>
</g>
</svg>
