<?xml version="1.0" encoding="utf-8"?>
<!-- Generator: Adobe Illustrator 16.0.0, SVG Export Plug-In . SVG Version: 6.00 Build 0)  -->
<!DOCTYPE svg PUBLIC "-//W3C//DTD SVG 1.1//EN" "http://www.w3.org/Graphics/SVG/1.1/DTD/svg11.dtd">
<svg version="1.1" id="图层_1" xmlns="http://www.w3.org/2000/svg" xmlns:xlink="http://www.w3.org/1999/xlink" x="0px" y="0px"
	 width="530px" height="230px" viewBox="0 0 530 230" enable-background="new 0 0 530 230" xml:space="preserve">
<g>
	<path fill="#999999" d="M229.189,189.17l-0.118-33.476c-18.171-13.682-24.119-38.952-12.991-59.584
		c10.48-19.428,32.711-28.447,53.15-23.031l28.402-18.221l-0.119-33.26c-49.082-20.484-106.656-0.802-132.44,46.999
		c-26.341,48.834-9.932,109.272,36.368,138.375L229.189,189.17z"/>
	<path fill="#F29600" d="M230.552,183.365l-0.118-33.476c-18.171-13.682-24.119-38.952-12.991-59.584
		c10.48-19.428,32.711-28.447,53.149-23.031l28.402-18.221l-0.117-33.26C249.794-4.691,192.22,14.992,166.436,62.792
		c-26.341,48.834-9.932,109.272,36.368,138.375L230.552,183.365z"/>
	<path fill="#999999" d="M305.432,25.268c-1.314-0.709-2.637-1.378-3.965-2.025l0.459,34.036l-26.613,17.704
		c0.877,0.404,1.746,0.829,2.605,1.293c22.752,12.272,31.248,40.666,18.975,63.418s-40.667,31.248-63.418,18.975
		c-0.149-0.08-0.291-0.17-0.439-0.251l0.448,33.173l-27.335,18.186c50.892,27.319,114.316,8.293,141.752-42.568
		C375.369,116.285,356.355,52.735,305.432,25.268z"/>
	<path fill="#E6454A" d="M309.377,21.324c-1.314-0.709-2.639-1.378-3.967-2.025l0.461,34.036l-26.613,17.703
		c0.875,0.406,1.744,0.83,2.604,1.294c22.752,12.272,31.248,40.665,18.975,63.418c-12.271,22.753-40.666,31.247-63.417,18.976
		c-0.149-0.081-0.291-0.17-0.439-0.252l0.448,33.173l-27.335,18.185c50.892,27.32,114.317,8.294,141.751-42.566
		C379.313,112.341,360.299,48.792,309.377,21.324z"/>
	<g>
		<path fill="#FFFFFF" d="M300.518,170.654h10.576c0.107-0.762,0.205-1.611,0.293-2.549h2.373c-0.107,0.967-0.21,1.816-0.308,2.549
			h13.491c-0.195,2.52-0.381,4.502-0.557,5.947c-0.371,3.164-2.031,4.746-4.98,4.746c-1.875,0-3.799-0.039-5.771-0.117
			c-0.078-0.664-0.225-1.523-0.439-2.578c2.148,0.234,4.102,0.352,5.859,0.352c1.777,0,2.773-0.869,2.988-2.607
			c0.156-1.113,0.293-2.344,0.41-3.691h-11.338c-0.713,4.326-4.619,7.412-11.719,9.258c-0.059-0.078-0.566-0.781-1.523-2.109
			c6.445-1.494,10.073-3.877,10.884-7.148h-10.239V170.654z M302.363,154.395h23.262v13.975h-2.227v-1.23H304.59v1.23h-2.227
			V154.395z M304.59,159.756h8.291v-3.369h-8.291V159.756z M304.59,165.146h8.291v-3.398h-8.291V165.146z M323.398,156.387h-8.291
			v3.369h8.291V156.387z M315.107,165.146h8.291v-3.398h-8.291V165.146z"/>
	</g>
	<g>
		<path fill="#FFFFFF" d="M235.847,54.576l-1.611,2.197c-3.232-1.885-6.67-3.75-10.313-5.596c-2.9,2.217-7.48,4.15-13.74,5.801
			c-0.352-0.684-0.811-1.465-1.377-2.344c5.693-1.26,9.932-2.813,12.715-4.658c-2.734-1.357-5.576-2.705-8.525-4.043
			c1.328-2.891,2.51-5.713,3.545-8.467h-7.471v-2.168h8.247c0.879-2.48,1.636-4.912,2.271-7.295l2.607,0.527
			c-0.781,2.441-1.538,4.697-2.271,6.768H237.4v2.168h-6.108c-0.85,5.146-2.686,9.16-5.508,12.041
			C229.221,51.167,232.576,52.857,235.847,54.576z M228.845,37.466h-9.712c-1.074,2.891-2.104,5.391-3.091,7.5
			c2.52,1.133,5,2.28,7.441,3.442C226.326,45.704,228.113,42.056,228.845,37.466z"/>
	</g>
	<g>
		<path fill="#FFFFFF" d="M169.839,103.102c0.813,0.531,1.659,0.797,2.539,0.797c0.833,0,1.505-0.233,2.016-0.699
			c0.51-0.466,0.766-1.084,0.766-1.855c0-0.776-0.259-1.377-0.777-1.805c-0.519-0.427-1.27-0.641-2.254-0.641
			c-0.474,0-1.112,0.037-1.914,0.109v-6.148h5.953v1.352h-4.531v3.422c0.453-0.026,0.794-0.039,1.023-0.039
			c1.276,0,2.271,0.323,2.984,0.969c0.713,0.646,1.07,1.537,1.07,2.672c0,1.172-0.383,2.12-1.148,2.844
			c-0.766,0.724-1.823,1.086-3.172,1.086c-1.13,0-1.982-0.167-2.555-0.5V103.102z"/>
		<path fill="#FFFFFF" d="M178.55,99.148c0-2.135,0.354-3.751,1.063-4.848c0.708-1.096,1.734-1.645,3.078-1.645
			c2.563,0,3.844,2.068,3.844,6.203c0,2.042-0.361,3.603-1.082,4.684c-0.722,1.081-1.733,1.621-3.035,1.621
			c-1.229,0-2.181-0.513-2.855-1.539C178.887,102.599,178.55,101.107,178.55,99.148z M180.112,99.078c0,3.214,0.815,4.82,2.445,4.82
			c1.604,0,2.406-1.633,2.406-4.898c0-3.38-0.787-5.07-2.359-5.07C180.943,93.93,180.112,95.646,180.112,99.078z"/>
		<path fill="#FFFFFF" d="M187.901,95.914c0-0.989,0.264-1.776,0.793-2.359c0.528-0.583,1.241-0.875,2.137-0.875
			c0.859,0,1.53,0.269,2.012,0.805c0.481,0.537,0.723,1.284,0.723,2.242c0,0.953-0.266,1.727-0.797,2.32s-1.237,0.891-2.117,0.891
			c-0.833,0-1.5-0.276-2-0.828C188.151,97.558,187.901,96.826,187.901,95.914z M189.104,95.836c0,0.672,0.146,1.19,0.438,1.555
			c0.292,0.365,0.69,0.547,1.195,0.547c0.521,0,0.923-0.188,1.207-0.566c0.284-0.377,0.426-0.91,0.426-1.598
			c0-0.672-0.14-1.191-0.418-1.559c-0.279-0.367-0.671-0.551-1.176-0.551c-0.516,0-0.923,0.191-1.223,0.574
			C189.254,94.621,189.104,95.154,189.104,95.836z M198.839,92.859l-7.773,12.18h-1.305l7.773-12.18H198.839z M195.151,102.125
			c0-0.989,0.264-1.78,0.793-2.371c0.528-0.591,1.238-0.887,2.129-0.887c0.854,0,1.523,0.27,2.008,0.809s0.727,1.298,0.727,2.277
			c0,0.948-0.269,1.718-0.805,2.309c-0.537,0.591-1.237,0.887-2.102,0.887c-0.839,0-1.507-0.28-2.004-0.84
			C195.4,103.749,195.151,103.021,195.151,102.125z M196.347,102.055c0,0.656,0.146,1.168,0.438,1.535
			c0.292,0.367,0.69,0.551,1.195,0.551c0.521,0,0.923-0.19,1.207-0.57c0.284-0.38,0.426-0.911,0.426-1.594
			c0-0.677-0.142-1.195-0.426-1.555c-0.284-0.359-0.673-0.539-1.168-0.539c-0.531,0-0.943,0.191-1.234,0.574
			C196.492,100.84,196.347,101.373,196.347,102.055z"/>
	</g>
	<g>
		<path fill="#FFFFFF" d="M316.189,104.102c0.813,0.531,1.658,0.797,2.539,0.797c0.833,0,1.505-0.233,2.016-0.699
			c0.51-0.466,0.766-1.084,0.766-1.855c0-0.776-0.26-1.377-0.777-1.805c-0.519-0.427-1.27-0.641-2.254-0.641
			c-0.475,0-1.112,0.037-1.914,0.109v-6.148h5.953v1.352h-4.531v3.422c0.453-0.026,0.794-0.039,1.023-0.039
			c1.275,0,2.271,0.323,2.984,0.969c0.713,0.646,1.07,1.537,1.07,2.672c0,1.172-0.383,2.12-1.148,2.844
			c-0.766,0.724-1.823,1.086-3.172,1.086c-1.131,0-1.982-0.167-2.555-0.5V104.102z"/>
		<path fill="#FFFFFF" d="M324.9,100.148c0-2.135,0.354-3.751,1.063-4.848c0.708-1.096,1.734-1.645,3.078-1.645
			c2.563,0,3.844,2.068,3.844,6.203c0,2.042-0.361,3.603-1.082,4.684c-0.722,1.081-1.733,1.621-3.035,1.621
			c-1.229,0-2.182-0.513-2.855-1.539C325.237,103.599,324.9,102.107,324.9,100.148z M326.463,100.078c0,3.214,0.814,4.82,2.445,4.82
			c1.604,0,2.406-1.633,2.406-4.898c0-3.38-0.787-5.07-2.359-5.07C327.293,94.93,326.463,96.646,326.463,100.078z"/>
		<path fill="#FFFFFF" d="M334.252,96.914c0-0.989,0.264-1.776,0.793-2.359c0.528-0.583,1.24-0.875,2.137-0.875
			c0.859,0,1.529,0.269,2.012,0.805c0.481,0.537,0.723,1.284,0.723,2.242c0,0.953-0.266,1.727-0.797,2.32s-1.237,0.891-2.117,0.891
			c-0.834,0-1.5-0.276-2-0.828C334.502,98.558,334.252,97.826,334.252,96.914z M335.455,96.836c0,0.672,0.146,1.19,0.438,1.555
			c0.291,0.365,0.689,0.547,1.195,0.547c0.521,0,0.923-0.188,1.207-0.566c0.283-0.377,0.426-0.91,0.426-1.598
			c0-0.672-0.14-1.191-0.418-1.559c-0.279-0.367-0.671-0.551-1.176-0.551c-0.516,0-0.924,0.191-1.223,0.574
			C335.604,95.621,335.455,96.154,335.455,96.836z M345.189,93.859l-7.773,12.18h-1.305l7.773-12.18H345.189z M341.502,103.125
			c0-0.989,0.264-1.78,0.793-2.371c0.528-0.591,1.238-0.887,2.129-0.887c0.854,0,1.523,0.27,2.008,0.809s0.727,1.298,0.727,2.277
			c0,0.948-0.269,1.718-0.805,2.309c-0.537,0.591-1.237,0.887-2.102,0.887c-0.839,0-1.507-0.28-2.004-0.84
			C341.75,104.749,341.502,104.021,341.502,103.125z M342.697,103.055c0,0.656,0.146,1.168,0.438,1.535
			c0.291,0.367,0.689,0.551,1.195,0.551c0.521,0,0.923-0.19,1.207-0.57c0.283-0.38,0.426-0.911,0.426-1.594
			c0-0.677-0.143-1.195-0.426-1.555c-0.284-0.359-0.674-0.539-1.168-0.539c-0.531,0-0.943,0.191-1.234,0.574
			C342.843,101.84,342.697,102.373,342.697,103.055z"/>
	</g>
	<g>
		<path fill="#333333" d="M30.984,31.554l-0.859,1.172c-1.724-1.005-3.557-2-5.5-2.984c-1.547,1.182-3.99,2.213-7.328,3.094
			c-0.188-0.365-0.432-0.781-0.734-1.25c3.037-0.672,5.297-1.5,6.781-2.484c-1.458-0.724-2.974-1.442-4.547-2.156
			c0.708-1.542,1.338-3.047,1.891-4.516h-3.984v-1.156h4.398c0.469-1.323,0.873-2.62,1.211-3.891l1.391,0.281
			c-0.417,1.302-0.82,2.505-1.211,3.609h9.32v1.156h-3.258c-0.453,2.745-1.432,4.886-2.938,6.422
			C27.451,29.737,29.24,30.638,30.984,31.554z M27.25,22.429h-5.18c-0.573,1.542-1.123,2.875-1.648,4
			c1.344,0.604,2.667,1.216,3.969,1.836C25.906,26.823,26.859,24.877,27.25,22.429z"/>
		<path fill="#333333" d="M40.281,21.875c0.276,0,0.513,0.097,0.711,0.289c0.198,0.193,0.297,0.425,0.297,0.695
			c0,0.271-0.096,0.504-0.289,0.699s-0.432,0.293-0.719,0.293s-0.526-0.098-0.719-0.293s-0.289-0.428-0.289-0.699
			c0-0.271,0.099-0.502,0.297-0.695C39.768,21.971,40.005,21.875,40.281,21.875z M40.281,28.914c0.276,0,0.513,0.097,0.711,0.289
			c0.198,0.193,0.297,0.427,0.297,0.703c0,0.281-0.099,0.517-0.297,0.707s-0.435,0.285-0.711,0.285s-0.513-0.095-0.711-0.285
			s-0.297-0.426-0.297-0.707c0-0.276,0.099-0.51,0.297-0.703C39.768,29.01,40.005,28.914,40.281,28.914z"/>
		<path fill="#333333" d="M49.648,28.843c0.813,0.531,1.659,0.797,2.539,0.797c0.833,0,1.505-0.233,2.016-0.699
			c0.51-0.466,0.766-1.084,0.766-1.855c0-0.776-0.259-1.377-0.777-1.805c-0.518-0.427-1.27-0.641-2.254-0.641
			c-0.474,0-1.112,0.037-1.914,0.109v-6.148h5.953v1.352h-4.531v3.422c0.453-0.026,0.794-0.039,1.023-0.039
			c1.276,0,2.271,0.323,2.984,0.969c0.713,0.646,1.07,1.537,1.07,2.672c0,1.172-0.383,2.12-1.148,2.844
			c-0.766,0.724-1.823,1.086-3.172,1.086c-1.13,0-1.982-0.167-2.555-0.5V28.843z"/>
		<path fill="#333333" d="M58.359,24.89c0-2.135,0.354-3.751,1.063-4.848c0.708-1.096,1.734-1.645,3.078-1.645
			c2.563,0,3.844,2.068,3.844,6.203c0,2.042-0.361,3.603-1.082,4.684c-0.721,1.081-1.733,1.621-3.035,1.621
			c-1.229,0-2.181-0.513-2.855-1.539C58.697,28.341,58.359,26.849,58.359,24.89z M59.922,24.82c0,3.214,0.815,4.82,2.445,4.82
			c1.604,0,2.406-1.633,2.406-4.898c0-3.38-0.787-5.07-2.359-5.07C60.752,19.671,59.922,21.388,59.922,24.82z"/>
		<path fill="#333333" d="M67.281,31.46c4.542-2.625,6.943-7.229,7.203-13.813h1.375c-0.057,1.115-0.167,2.177-0.328,3.188
			c1.292,5.208,3.719,8.636,7.281,10.281c-0.438,0.479-0.823,0.932-1.156,1.359c-3.094-1.75-5.299-4.846-6.617-9.289
			c-1.141,4.292-3.398,7.445-6.773,9.461C67.984,32.262,67.656,31.867,67.281,31.46z"/>
	</g>
	<g>
		<path fill="#333333" d="M18.922,47.273v4.688h4.406v1.172h-4.406v6.641c1.083-0.458,2.5-1.104,4.25-1.938
			c0,0.49,0.021,0.958,0.063,1.406c-1.531,0.615-2.828,1.192-3.891,1.734c-0.458,0.239-0.88,0.526-1.266,0.859l-0.953-1.219
			c0.333-0.25,0.5-0.63,0.5-1.141V47.273H18.922z M24.328,46.867h1.297v6.609c2.026-1.463,3.693-2.995,5-4.594l1.109,0.828
			c-1.688,1.859-3.724,3.628-6.109,5.305v4.523c0,0.688,0.302,1.031,0.906,1.031h2.672c0.688,0,1.083-0.308,1.188-0.922
			c0.125-0.792,0.219-1.661,0.281-2.609c0.438,0.167,0.885,0.318,1.344,0.453c-0.094,0.969-0.219,1.839-0.375,2.609
			c-0.219,1.073-0.912,1.609-2.078,1.609h-3.438c-1.198,0-1.797-0.651-1.797-1.953V46.867z"/>
		<path fill="#333333" d="M32.484,54.43c1.344-2.281,2.338-4.807,2.984-7.578l1.156,0.219c-0.276,1.167-0.625,2.318-1.047,3.453
			V62.18h-1.063v-9.141c-0.458,0.953-0.969,1.896-1.531,2.828C32.859,55.451,32.693,54.972,32.484,54.43z M38.219,55.555
			l0.625-0.875c0.474,0.323,0.987,0.701,1.539,1.133c0.401-1.067,0.68-2.227,0.836-3.477h-2.195
			c-0.588,1.906-1.315,3.438-2.18,4.594c-0.219-0.333-0.469-0.656-0.75-0.969c1.177-1.692,2.049-4.063,2.617-7.109h-1.695v-1.094
			h6.047v1.094h-3.188c-0.162,0.854-0.341,1.656-0.539,2.406h3.039v1.078c-0.427,4.104-2.099,7.396-5.016,9.875
			c-0.229-0.313-0.516-0.651-0.859-1.016c1.474-1.188,2.615-2.62,3.422-4.297C39.406,56.477,38.838,56.029,38.219,55.555z
			 M46.203,46.898h1.141v13.047c0,0.792-0.125,1.333-0.375,1.625c-0.219,0.271-0.656,0.411-1.313,0.422
			c-0.448,0.01-1.172,0-2.172-0.031c-0.042-0.427-0.115-0.859-0.219-1.297c0.802,0.083,1.458,0.125,1.969,0.125
			c0.406,0.01,0.667-0.063,0.781-0.219c0.125-0.136,0.188-0.469,0.188-1V46.898z M44.547,58.523h-1.109v-9.172h1.109V58.523z"/>
		<path fill="#333333" d="M56.281,51.328c0.276,0,0.513,0.097,0.711,0.289c0.198,0.193,0.297,0.425,0.297,0.695
			c0,0.271-0.096,0.504-0.289,0.699s-0.432,0.293-0.719,0.293s-0.526-0.098-0.719-0.293s-0.289-0.428-0.289-0.699
			c0-0.271,0.099-0.502,0.297-0.695C55.768,51.425,56.005,51.328,56.281,51.328z M56.281,58.367c0.276,0,0.513,0.097,0.711,0.289
			c0.198,0.193,0.297,0.427,0.297,0.703c0,0.281-0.099,0.517-0.297,0.707s-0.435,0.285-0.711,0.285s-0.513-0.095-0.711-0.285
			s-0.297-0.426-0.297-0.707c0-0.276,0.099-0.51,0.297-0.703C55.768,58.464,56.005,58.367,56.281,58.367z"/>
		<path fill="#333333" d="M65.648,58.297c0.813,0.531,1.659,0.797,2.539,0.797c0.833,0,1.505-0.233,2.016-0.699
			c0.51-0.466,0.766-1.084,0.766-1.855c0-0.776-0.259-1.377-0.777-1.805c-0.518-0.427-1.27-0.641-2.254-0.641
			c-0.474,0-1.112,0.037-1.914,0.109v-6.148h5.953v1.352h-4.531v3.422c0.453-0.026,0.794-0.039,1.023-0.039
			c1.276,0,2.271,0.323,2.984,0.969c0.713,0.646,1.07,1.537,1.07,2.672c0,1.172-0.383,2.12-1.148,2.844
			c-0.766,0.724-1.823,1.086-3.172,1.086c-1.13,0-1.982-0.167-2.555-0.5V58.297z"/>
		<path fill="#333333" d="M74.359,54.344c0-2.135,0.354-3.751,1.063-4.848c0.708-1.096,1.734-1.645,3.078-1.645
			c2.563,0,3.844,2.068,3.844,6.203c0,2.042-0.361,3.603-1.082,4.684c-0.721,1.081-1.733,1.621-3.035,1.621
			c-1.229,0-2.181-0.513-2.855-1.539C74.697,57.794,74.359,56.302,74.359,54.344z M75.922,54.273c0,3.214,0.815,4.82,2.445,4.82
			c1.604,0,2.406-1.633,2.406-4.898c0-3.38-0.787-5.07-2.359-5.07C76.752,49.125,75.922,50.841,75.922,54.273z"/>
		<path fill="#333333" d="M83.711,51.109c0-0.989,0.264-1.776,0.793-2.359c0.529-0.583,1.241-0.875,2.137-0.875
			c0.859,0,1.53,0.269,2.012,0.805c0.482,0.537,0.723,1.284,0.723,2.242c0,0.953-0.266,1.727-0.797,2.32s-1.237,0.891-2.117,0.891
			c-0.833,0-1.5-0.276-2-0.828C83.961,52.753,83.711,52.021,83.711,51.109z M84.914,51.031c0,0.672,0.146,1.19,0.438,1.555
			c0.292,0.365,0.69,0.547,1.195,0.547c0.521,0,0.923-0.188,1.207-0.566c0.284-0.377,0.426-0.91,0.426-1.598
			c0-0.672-0.139-1.191-0.418-1.559s-0.67-0.551-1.176-0.551c-0.516,0-0.923,0.191-1.223,0.574S84.914,50.349,84.914,51.031z
			 M94.648,48.055l-7.773,12.18H85.57l7.773-12.18H94.648z M90.961,57.32c0-0.989,0.264-1.78,0.793-2.371
			c0.529-0.591,1.238-0.887,2.129-0.887c0.854,0,1.523,0.27,2.008,0.809s0.727,1.298,0.727,2.277c0,0.948-0.268,1.718-0.805,2.309
			c-0.537,0.591-1.237,0.887-2.102,0.887c-0.838,0-1.506-0.28-2.004-0.84C91.209,58.944,90.961,58.216,90.961,57.32z M92.156,57.25
			c0,0.656,0.146,1.168,0.438,1.535s0.69,0.551,1.195,0.551c0.521,0,0.923-0.19,1.207-0.57c0.284-0.38,0.426-0.911,0.426-1.594
			c0-0.677-0.142-1.195-0.426-1.555s-0.673-0.539-1.168-0.539c-0.531,0-0.943,0.191-1.234,0.574S92.156,56.568,92.156,57.25z"/>
	</g>
	<polyline fill="none" stroke="#685046" stroke-dasharray="16.2598" points="152.287,151.212 83.626,151.212 68.268,63.31 	"/>
	<polyline fill="none" stroke="#685046" stroke-dasharray="16.2598" points="336.701,192.798 418.982,192.798 437.387,104.895 	"/>
	<rect x="16.801" y="37.899" fill="#F29600" width="84.345" height="2.669"/>
	<g>
		<path fill="#333333" d="M433.157,61.849l-0.859,1.172c-1.724-1.005-3.558-2-5.5-2.984c-1.547,1.182-3.989,2.213-7.328,3.094
			c-0.188-0.365-0.433-0.781-0.734-1.25c3.036-0.672,5.297-1.5,6.781-2.484c-1.458-0.724-2.974-1.442-4.547-2.156
			c0.708-1.542,1.339-3.047,1.891-4.516h-3.984v-1.156h4.398c0.469-1.323,0.872-2.62,1.211-3.891l1.391,0.281
			c-0.417,1.302-0.82,2.505-1.211,3.609h9.32v1.156h-3.258c-0.453,2.745-1.433,4.886-2.938,6.422
			C429.623,60.031,431.412,60.932,433.157,61.849z M429.423,52.724h-5.18c-0.573,1.542-1.122,2.875-1.648,4
			c1.344,0.604,2.667,1.216,3.969,1.836C428.079,57.117,429.032,55.172,429.423,52.724z"/>
		<path fill="#333333" d="M442.454,52.169c0.276,0,0.513,0.097,0.711,0.289c0.198,0.193,0.297,0.425,0.297,0.695
			c0,0.271-0.097,0.504-0.289,0.699s-0.433,0.293-0.719,0.293s-0.526-0.098-0.719-0.293s-0.289-0.428-0.289-0.699
			c0-0.271,0.099-0.502,0.297-0.695C441.941,52.266,442.178,52.169,442.454,52.169z M442.454,59.208
			c0.276,0,0.513,0.097,0.711,0.289c0.198,0.193,0.297,0.427,0.297,0.703c0,0.281-0.099,0.517-0.297,0.707s-0.435,0.285-0.711,0.285
			s-0.513-0.095-0.711-0.285s-0.297-0.426-0.297-0.707c0-0.276,0.099-0.51,0.297-0.703
			C441.941,59.305,442.178,59.208,442.454,59.208z"/>
		<path fill="#333333" d="M451.821,59.138c0.813,0.531,1.659,0.797,2.539,0.797c0.833,0,1.505-0.233,2.016-0.699
			c0.511-0.466,0.766-1.084,0.766-1.855c0-0.776-0.259-1.377-0.777-1.805c-0.519-0.427-1.27-0.641-2.254-0.641
			c-0.474,0-1.112,0.037-1.914,0.109v-6.148h5.953v1.352h-4.531v3.422c0.453-0.026,0.794-0.039,1.023-0.039
			c1.276,0,2.271,0.323,2.984,0.969c0.714,0.646,1.07,1.537,1.07,2.672c0,1.172-0.383,2.12-1.148,2.844
			c-0.766,0.724-1.823,1.086-3.172,1.086c-1.13,0-1.981-0.167-2.555-0.5V59.138z"/>
		<path fill="#333333" d="M460.532,55.185c0-2.135,0.354-3.751,1.063-4.848c0.708-1.096,1.734-1.645,3.078-1.645
			c2.563,0,3.844,2.068,3.844,6.203c0,2.042-0.36,3.603-1.082,4.684c-0.722,1.081-1.733,1.621-3.035,1.621
			c-1.229,0-2.181-0.513-2.855-1.539C460.869,58.635,460.532,57.143,460.532,55.185z M462.095,55.114c0,3.214,0.815,4.82,2.445,4.82
			c1.604,0,2.406-1.633,2.406-4.898c0-3.38-0.786-5.07-2.359-5.07C462.926,49.966,462.095,51.682,462.095,55.114z"/>
		<path fill="#333333" d="M469.454,61.755c4.542-2.625,6.942-7.229,7.203-13.813h1.375c-0.058,1.115-0.167,2.177-0.328,3.188
			c1.292,5.208,3.719,8.636,7.281,10.281c-0.438,0.479-0.823,0.932-1.156,1.359c-3.094-1.75-5.3-4.846-6.617-9.289
			c-1.141,4.292-3.398,7.445-6.773,9.461C470.157,62.557,469.829,62.161,469.454,61.755z"/>
	</g>
	<g>
		<path fill="#333333" d="M421.095,77.568v4.688h4.406v1.172h-4.406v6.641c1.083-0.458,2.5-1.104,4.25-1.938
			c0,0.49,0.021,0.958,0.063,1.406c-1.531,0.615-2.828,1.192-3.891,1.734c-0.458,0.239-0.88,0.526-1.266,0.859l-0.953-1.219
			c0.333-0.25,0.5-0.63,0.5-1.141V77.568H421.095z M426.501,77.162h1.297v6.609c2.026-1.463,3.692-2.995,5-4.594l1.109,0.828
			c-1.688,1.859-3.724,3.628-6.109,5.305v4.523c0,0.688,0.302,1.031,0.906,1.031h2.672c0.688,0,1.083-0.308,1.188-0.922
			c0.125-0.792,0.219-1.661,0.281-2.609c0.438,0.167,0.886,0.318,1.344,0.453c-0.094,0.969-0.219,1.839-0.375,2.609
			c-0.219,1.073-0.911,1.609-2.078,1.609h-3.438c-1.198,0-1.797-0.651-1.797-1.953V77.162z"/>
		<path fill="#333333" d="M434.657,84.724c1.344-2.281,2.339-4.807,2.984-7.578l1.156,0.219c-0.276,1.167-0.625,2.318-1.047,3.453
			v11.656h-1.063v-9.141c-0.458,0.953-0.969,1.896-1.531,2.828C435.032,85.745,434.865,85.266,434.657,84.724z M440.392,85.849
			l0.625-0.875c0.474,0.323,0.987,0.701,1.539,1.133c0.401-1.067,0.68-2.227,0.836-3.477h-2.195
			c-0.589,1.906-1.315,3.438-2.18,4.594c-0.219-0.333-0.469-0.656-0.75-0.969c1.177-1.692,2.05-4.063,2.617-7.109h-1.695v-1.094
			h6.047v1.094h-3.188c-0.161,0.854-0.341,1.656-0.539,2.406h3.039v1.078c-0.427,4.104-2.099,7.396-5.016,9.875
			c-0.229-0.313-0.516-0.651-0.859-1.016c1.474-1.188,2.614-2.62,3.422-4.297C441.579,86.771,441.012,86.323,440.392,85.849z
			 M448.376,77.193h1.141V90.24c0,0.792-0.125,1.333-0.375,1.625c-0.219,0.271-0.656,0.411-1.313,0.422
			c-0.448,0.01-1.172,0-2.172-0.031c-0.042-0.427-0.114-0.859-0.219-1.297c0.802,0.083,1.458,0.125,1.969,0.125
			c0.406,0.01,0.667-0.063,0.781-0.219c0.125-0.136,0.188-0.469,0.188-1V77.193z M446.72,88.818h-1.109v-9.172h1.109V88.818z"/>
		<path fill="#333333" d="M458.454,81.623c0.276,0,0.513,0.097,0.711,0.289c0.198,0.193,0.297,0.425,0.297,0.695
			c0,0.271-0.097,0.504-0.289,0.699s-0.433,0.293-0.719,0.293s-0.526-0.098-0.719-0.293s-0.289-0.428-0.289-0.699
			c0-0.271,0.099-0.502,0.297-0.695C457.941,81.719,458.178,81.623,458.454,81.623z M458.454,88.662
			c0.276,0,0.513,0.097,0.711,0.289c0.198,0.193,0.297,0.427,0.297,0.703c0,0.281-0.099,0.517-0.297,0.707s-0.435,0.285-0.711,0.285
			s-0.513-0.095-0.711-0.285s-0.297-0.426-0.297-0.707c0-0.276,0.099-0.51,0.297-0.703
			C457.941,88.758,458.178,88.662,458.454,88.662z"/>
		<path fill="#333333" d="M467.821,88.591c0.813,0.531,1.659,0.797,2.539,0.797c0.833,0,1.505-0.233,2.016-0.699
			c0.511-0.466,0.766-1.084,0.766-1.855c0-0.776-0.259-1.377-0.777-1.805c-0.519-0.427-1.27-0.641-2.254-0.641
			c-0.474,0-1.112,0.037-1.914,0.109v-6.148h5.953v1.352h-4.531v3.422c0.453-0.026,0.794-0.039,1.023-0.039
			c1.276,0,2.271,0.323,2.984,0.969c0.714,0.646,1.07,1.537,1.07,2.672c0,1.172-0.383,2.12-1.148,2.844
			c-0.766,0.724-1.823,1.086-3.172,1.086c-1.13,0-1.981-0.167-2.555-0.5V88.591z"/>
		<path fill="#333333" d="M476.532,84.638c0-2.135,0.354-3.751,1.063-4.848c0.708-1.096,1.734-1.645,3.078-1.645
			c2.563,0,3.844,2.068,3.844,6.203c0,2.042-0.36,3.603-1.082,4.684c-0.722,1.081-1.733,1.621-3.035,1.621
			c-1.229,0-2.181-0.513-2.855-1.539C476.869,88.089,476.532,86.597,476.532,84.638z M478.095,84.568c0,3.214,0.815,4.82,2.445,4.82
			c1.604,0,2.406-1.633,2.406-4.898c0-3.38-0.786-5.07-2.359-5.07C478.926,79.419,478.095,81.136,478.095,84.568z"/>
		<path fill="#333333" d="M485.884,81.404c0-0.989,0.265-1.776,0.793-2.359c0.528-0.583,1.241-0.875,2.137-0.875
			c0.859,0,1.53,0.269,2.012,0.805c0.481,0.537,0.723,1.284,0.723,2.242c0,0.953-0.266,1.727-0.797,2.32s-1.237,0.891-2.117,0.891
			c-0.833,0-1.5-0.276-2-0.828C486.134,83.047,485.884,82.315,485.884,81.404z M487.087,81.326c0,0.672,0.146,1.19,0.438,1.555
			c0.292,0.365,0.69,0.547,1.195,0.547c0.521,0,0.923-0.188,1.207-0.566c0.284-0.377,0.426-0.91,0.426-1.598
			c0-0.672-0.14-1.191-0.418-1.559s-0.671-0.551-1.176-0.551c-0.516,0-0.923,0.191-1.223,0.574S487.087,80.644,487.087,81.326z
			 M496.821,78.349l-7.773,12.18h-1.305l7.773-12.18H496.821z M493.134,87.615c0-0.989,0.265-1.78,0.793-2.371
			c0.528-0.591,1.238-0.887,2.129-0.887c0.854,0,1.523,0.27,2.008,0.809s0.727,1.298,0.727,2.277c0,0.948-0.269,1.718-0.805,2.309
			c-0.536,0.591-1.237,0.887-2.102,0.887c-0.839,0-1.507-0.28-2.004-0.84C493.383,89.239,493.134,88.511,493.134,87.615z
			 M494.329,87.544c0,0.656,0.146,1.168,0.438,1.535s0.69,0.551,1.195,0.551c0.521,0,0.923-0.19,1.207-0.57
			c0.284-0.38,0.426-0.911,0.426-1.594c0-0.677-0.142-1.195-0.426-1.555s-0.673-0.539-1.168-0.539c-0.531,0-0.942,0.191-1.234,0.574
			S494.329,86.862,494.329,87.544z"/>
	</g>
	<rect x="418.975" y="68.193" fill="#E6454A" width="84.344" height="2.669"/>
	<g>
		<circle fill="#FFFFFF" cx="263.785" cy="21.36" r="3.099"/>
		<polygon fill="#FFFFFF" points="271.27,42.492 256.186,42.492 260.647,25.545 267.059,25.545 		"/>
		<rect x="260.966" y="39.712" fill="#FFFFFF" width="2.565" height="12.343"/>
		<rect x="264.333" y="39.712" fill="#FFFFFF" width="2.566" height="12.343"/>
		
			<rect x="257.019" y="25.124" transform="matrix(0.961 0.2767 -0.2767 0.961 18.5692 -70.151)" fill="#FFFFFF" width="1.763" height="11.221"/>
		
			<rect x="268.704" y="25.083" transform="matrix(0.9686 -0.2485 0.2485 0.9686 0.8301 67.9626)" fill="#FFFFFF" width="1.762" height="11.221"/>
	</g>
	<g>
		<circle fill="#FFFFFF" cx="270.025" cy="171.542" r="3.125"/>
		<rect x="266.859" y="175.763" fill="#FFFFFF" width="6.465" height="13.416"/>
		<rect x="267.184" y="190.049" fill="#FFFFFF" width="2.586" height="12.446"/>
		<rect x="270.578" y="190.049" fill="#FFFFFF" width="2.586" height="12.446"/>
		<rect x="264.435" y="175.763" fill="#FFFFFF" width="1.778" height="11.314"/>
		<rect x="273.949" y="175.763" fill="#FFFFFF" width="1.779" height="11.314"/>
	</g>
	<polygon fill="#6D6D6D" points="236.979,154.474 233.035,158.418 233.466,190.282 237.428,187.646 	"/>
	<polygon fill="#999999" points="305.41,19.299 301.467,23.243 301.467,56.265 305.871,53.335 	"/>
	<polygon fill="#6D6D6D" points="230.552,183.365 229.189,189.17 201.441,206.972 202.803,201.167 	"/>
	<polygon fill="#999999" points="210.093,205.831 206.148,209.776 213.958,207.804 	"/>
	<polygon fill="#6D6D6D" points="298.994,49.054 297.633,54.858 269.23,73.079 270.592,67.274 	"/>
</g>
</svg>
