<?xml version="1.0" encoding="utf-8"?>
<!-- Generator: Adobe Illustrator 16.0.0, SVG Export Plug-In . SVG Version: 6.00 Build 0)  -->
<!DOCTYPE svg PUBLIC "-//W3C//DTD SVG 1.1//EN" "http://www.w3.org/Graphics/SVG/1.1/DTD/svg11.dtd">
<svg version="1.1" id="图层_1" xmlns="http://www.w3.org/2000/svg" xmlns:xlink="http://www.w3.org/1999/xlink" x="0px" y="0px"
	 width="530px" height="230px" viewBox="0 0 530 230" enable-background="new 0 0 530 230" xml:space="preserve">
<g>
	<polyline fill="none" stroke="#685046" stroke-dasharray="16.2598" points="164.108,163.861 95.447,163.861 80.088,75.958 	"/>
	<g>
		<path fill="#FFFFFF" d="M328.01,105.341c0.813,0.531,1.658,0.797,2.539,0.797c0.834,0,1.506-0.233,2.016-0.699
			c0.51-0.466,0.766-1.084,0.766-1.855c0-0.776-0.26-1.377-0.777-1.805c-0.518-0.427-1.27-0.641-2.254-0.641
			c-0.475,0-1.111,0.037-1.914,0.109v-6.148h5.953v1.352h-4.531v3.422c0.453-0.026,0.795-0.039,1.023-0.039
			c1.275,0,2.271,0.323,2.984,0.969c0.713,0.646,1.07,1.537,1.07,2.672c0,1.172-0.383,2.12-1.148,2.844
			c-0.766,0.724-1.822,1.086-3.172,1.086c-1.131,0-1.982-0.167-2.555-0.5V105.341z"/>
		<path fill="#FFFFFF" d="M336.721,101.388c0-2.135,0.354-3.751,1.063-4.848c0.709-1.096,1.734-1.645,3.078-1.645
			c2.563,0,3.844,2.068,3.844,6.203c0,2.042-0.361,3.603-1.082,4.684c-0.721,1.081-1.732,1.621-3.035,1.621
			c-1.229,0-2.182-0.513-2.855-1.539C337.059,104.838,336.721,103.346,336.721,101.388z M338.283,101.317
			c0,3.214,0.814,4.82,2.445,4.82c1.604,0,2.406-1.633,2.406-4.898c0-3.38-0.787-5.07-2.359-5.07
			C339.113,96.169,338.283,97.885,338.283,101.317z"/>
		<path fill="#FFFFFF" d="M346.072,98.153c0-0.989,0.264-1.776,0.793-2.359c0.529-0.583,1.24-0.875,2.137-0.875
			c0.859,0,1.529,0.269,2.012,0.805c0.482,0.537,0.723,1.284,0.723,2.242c0,0.953-0.266,1.727-0.797,2.32s-1.236,0.891-2.117,0.891
			c-0.834,0-1.5-0.276-2-0.828C346.322,99.797,346.072,99.065,346.072,98.153z M347.275,98.075c0,0.672,0.146,1.19,0.438,1.555
			c0.291,0.365,0.689,0.547,1.195,0.547c0.521,0,0.924-0.188,1.207-0.566c0.283-0.377,0.426-0.91,0.426-1.598
			c0-0.672-0.139-1.191-0.418-1.559s-0.67-0.551-1.176-0.551c-0.516,0-0.924,0.191-1.223,0.574S347.275,97.393,347.275,98.075z
			 M357.01,95.099l-7.773,12.18h-1.305l7.773-12.18H357.01z M353.322,104.364c0-0.989,0.264-1.78,0.793-2.371
			c0.529-0.591,1.238-0.887,2.129-0.887c0.854,0,1.523,0.27,2.008,0.809s0.727,1.298,0.727,2.277c0,0.948-0.268,1.718-0.805,2.309
			c-0.537,0.591-1.236,0.887-2.102,0.887c-0.838,0-1.506-0.28-2.004-0.84C353.57,105.988,353.322,105.26,353.322,104.364z
			 M354.518,104.294c0,0.656,0.146,1.168,0.438,1.535s0.689,0.551,1.195,0.551c0.521,0,0.924-0.19,1.207-0.57
			c0.283-0.38,0.426-0.911,0.426-1.594c0-0.677-0.143-1.195-0.426-1.555s-0.674-0.539-1.168-0.539c-0.531,0-0.943,0.191-1.234,0.574
			S354.518,103.612,354.518,104.294z"/>
	</g>
	<g>
		<path fill="#333333" d="M33.906,25.902l1.141,0.75c-3.021,3.885-7.214,6.365-12.578,7.438c-0.229-0.417-0.49-0.833-0.781-1.25
			C27.104,31.788,31.177,29.475,33.906,25.902z M25.516,20.871l1.281,0.5c-1.136,2.51-2.365,4.797-3.688,6.859
			c-0.323-0.208-0.714-0.443-1.172-0.703C23.26,25.611,24.453,23.392,25.516,20.871z M28.75,18.73h1.344v9.813H28.75V18.73z
			 M31.781,21.277l0.984-0.75c1.667,1.792,3.167,3.49,4.5,5.094l-1.125,0.906C34.682,24.673,33.229,22.923,31.781,21.277z"/>
		<path fill="#333333" d="M37.813,27.699h2.375c0.229-0.396,0.453-0.802,0.672-1.219l1.125,0.359
			c-0.167,0.292-0.333,0.578-0.5,0.859h3.828v1.016c-0.396,1.021-0.995,1.917-1.797,2.688c0.573,0.271,1.156,0.542,1.75,0.813
			l-0.688,1.078c-0.646-0.365-1.318-0.729-2.016-1.094c-1.177,0.844-2.662,1.51-4.453,2c-0.167-0.333-0.344-0.698-0.531-1.094
			c1.521-0.344,2.807-0.838,3.859-1.484c-0.896-0.458-1.833-0.927-2.813-1.406c0.333-0.479,0.656-0.974,0.969-1.484h-1.781V27.699z
			 M37.984,22.324h3.594v-3.5h1.156v3.5h3v1.031h-3v0.953l0.469-0.531c0.969,0.708,1.781,1.333,2.438,1.875l-0.75,0.875
			c-0.573-0.542-1.292-1.151-2.156-1.828v1.781h-1.156v-2.188c-0.948,0.99-2.052,1.859-3.313,2.609
			c-0.198-0.302-0.422-0.62-0.672-0.953c1.313-0.708,2.516-1.573,3.609-2.594h-3.219V22.324z M38.391,19.902l0.891-0.609
			c0.469,0.573,0.953,1.188,1.453,1.844l-0.969,0.688C39.307,21.147,38.849,20.506,38.391,19.902z M40.156,29.855
			c0.739,0.333,1.5,0.682,2.281,1.047c0.719-0.615,1.281-1.338,1.688-2.172h-3.25C40.635,29.116,40.396,29.491,40.156,29.855z
			 M45.031,19.215L46,19.855c-0.573,0.75-1.146,1.443-1.719,2.078c-0.24-0.208-0.521-0.427-0.844-0.656
			C43.979,20.642,44.51,19.955,45.031,19.215z M47.875,18.684l1.25,0.188c-0.219,1.01-0.474,1.953-0.766,2.828h4.781v1.063h-0.984
			c-0.261,3.063-0.927,5.495-2,7.297c0.844,1.146,1.917,2.083,3.219,2.813c-0.333,0.458-0.615,0.87-0.844,1.234
			c-1.271-0.823-2.328-1.802-3.172-2.938c-0.958,1.188-2.099,2.219-3.422,3.094c-0.229-0.302-0.526-0.63-0.891-0.984
			c1.458-0.958,2.641-2.047,3.547-3.266c-0.844-1.458-1.401-3.141-1.672-5.047c-0.219,0.385-0.448,0.745-0.688,1.078
			c-0.208-0.302-0.469-0.635-0.781-1C46.661,23.303,47.469,21.184,47.875,18.684z M50.906,22.762h-2.922
			c-0.052,0.135-0.109,0.266-0.172,0.391c0.188,2.208,0.708,4.099,1.563,5.672C50.208,27.303,50.719,25.283,50.906,22.762z"/>
		<path fill="#333333" d="M55.25,19.293h12.516v5.703h-1.234v-0.688h-3.508c0.088,1.026,0.221,1.963,0.398,2.813h5.563v1.125h-5.281
			c0.531,1.823,1.323,3.162,2.375,4.016c0.521,0.427,0.927,0.344,1.219-0.25c0.25-0.51,0.438-1.396,0.563-2.656
			c0.479,0.208,0.88,0.359,1.203,0.453c-0.177,1.177-0.391,2.099-0.641,2.766c-0.344,0.885-0.859,1.328-1.547,1.328
			c-0.625,0-1.24-0.266-1.844-0.797c-1.146-0.979-2.011-2.599-2.594-4.859h-5.969v4.078c1.198-0.375,2.474-0.849,3.828-1.422
			c-0.042,0.479-0.047,0.938-0.016,1.375c-1.688,0.573-3.089,1.083-4.203,1.531c-0.125,0.063-0.318,0.162-0.578,0.297l-0.688-1.156
			c0.292-0.208,0.438-0.5,0.438-0.875V19.293z M66.531,20.418H56.469v2.766h10.063V20.418z M61.773,24.309h-5.305v2.813h5.719
			C62.016,26.262,61.877,25.324,61.773,24.309z"/>
		<path fill="#333333" d="M69.922,21.293h5.922v1.078h-3.367c-0.011,0.833-0.023,1.604-0.039,2.313h3
			c-0.073,2.958-0.146,5.172-0.219,6.641c-0.073,1.427-0.63,2.141-1.672,2.141c-0.479,0-0.99-0.005-1.531-0.016
			c-0.063-0.344-0.141-0.74-0.234-1.188c0.583,0.063,1.021,0.094,1.313,0.094c0.625,0,0.953-0.375,0.984-1.125
			c0.083-1.542,0.146-3.365,0.188-5.469h-1.859c0,3.74-0.677,6.458-2.031,8.156c-0.208-0.281-0.474-0.594-0.797-0.938
			c1.01-1.333,1.563-3.406,1.656-6.219c0.057-1.333,0.094-2.797,0.109-4.391h-1.422V21.293z M71.781,19.168l0.938-0.594
			c0.5,0.594,0.969,1.255,1.406,1.984l-1,0.641C72.604,20.355,72.156,19.678,71.781,19.168z M75.906,27.59h3.805
			c0.099-0.713,0.156-1.563,0.172-2.547h-1.57c-0.359,0.688-0.729,1.318-1.109,1.891c-0.406-0.229-0.745-0.412-1.016-0.547
			c0.823-1.156,1.547-2.521,2.172-4.094l1.063,0.359c-0.188,0.458-0.38,0.896-0.578,1.313h5.5v1.078h-3.297
			c-0.031,1.005-0.086,1.854-0.164,2.547h4.039v1.078h-3.664c0.911,1.87,2.242,3.25,3.992,4.141
			c-0.375,0.354-0.703,0.724-0.984,1.109c-1.708-1.151-2.969-2.641-3.781-4.469c-0.547,1.698-1.958,3.25-4.234,4.656
			c-0.219-0.344-0.505-0.693-0.859-1.047c2.307-1.245,3.68-2.708,4.117-4.391h-3.602V27.59z M75.453,23.449
			c0.969-1.375,1.771-2.995,2.406-4.859L79,18.98c-0.219,0.563-0.44,1.099-0.664,1.609H85v1.078h-7.164
			c-0.422,0.865-0.857,1.651-1.305,2.359C76.114,23.788,75.755,23.595,75.453,23.449z"/>
		<path fill="#333333" d="M93.453,23.113c0.276,0,0.513,0.096,0.711,0.289c0.198,0.193,0.297,0.424,0.297,0.695
			s-0.097,0.504-0.289,0.699c-0.193,0.195-0.433,0.293-0.719,0.293c-0.287,0-0.526-0.098-0.719-0.293
			c-0.193-0.195-0.289-0.428-0.289-0.699s0.099-0.502,0.297-0.695C92.94,23.209,93.177,23.113,93.453,23.113z M93.453,30.152
			c0.276,0,0.513,0.096,0.711,0.289c0.198,0.193,0.297,0.427,0.297,0.703c0,0.281-0.099,0.517-0.297,0.707
			c-0.198,0.19-0.435,0.285-0.711,0.285c-0.276,0-0.513-0.095-0.711-0.285c-0.198-0.19-0.297-0.426-0.297-0.707
			c0-0.276,0.099-0.51,0.297-0.703C92.94,30.249,93.177,30.152,93.453,30.152z"/>
		<path fill="#333333" d="M110.039,20.371l-4.734,11.57h-1.586l4.5-10.75h-6.047V19.84h7.867V20.371z"/>
		<path fill="#333333" d="M111.531,26.129c0-2.135,0.354-3.751,1.063-4.848c0.708-1.096,1.734-1.645,3.078-1.645
			c2.563,0,3.844,2.068,3.844,6.203c0,2.042-0.361,3.603-1.082,4.684c-0.722,1.081-1.733,1.621-3.035,1.621
			c-1.229,0-2.181-0.513-2.855-1.539C111.868,29.58,111.531,28.087,111.531,26.129z M113.094,26.059c0,3.213,0.815,4.82,2.445,4.82
			c1.604,0,2.406-1.633,2.406-4.898c0-3.38-0.787-5.07-2.359-5.07C113.924,20.91,113.094,22.626,113.094,26.059z"/>
		<path fill="#333333" d="M120.453,32.699c4.542-2.625,6.942-7.229,7.203-13.813h1.375c-0.058,1.115-0.167,2.177-0.328,3.188
			c1.292,5.208,3.719,8.635,7.281,10.281c-0.438,0.479-0.823,0.932-1.156,1.359c-3.094-1.75-5.3-4.846-6.617-9.289
			c-1.141,4.292-3.398,7.445-6.773,9.461C121.156,33.501,120.828,33.105,120.453,32.699z"/>
	</g>
	<g>
		<path fill="#333333" d="M24.284,48.513V53.2h4.406v1.172h-4.406v6.641c1.083-0.458,2.5-1.104,4.25-1.938
			c0,0.49,0.021,0.958,0.063,1.406c-1.531,0.615-2.828,1.192-3.891,1.734c-0.458,0.239-0.88,0.526-1.266,0.859l-0.953-1.219
			c0.333-0.25,0.5-0.63,0.5-1.141V48.513H24.284z M29.69,48.106h1.297v6.609c2.026-1.463,3.693-2.995,5-4.594l1.109,0.828
			c-1.688,1.859-3.724,3.628-6.109,5.305v4.523c0,0.688,0.302,1.031,0.906,1.031h2.672c0.688,0,1.083-0.308,1.188-0.922
			c0.125-0.792,0.219-1.661,0.281-2.609c0.438,0.167,0.885,0.318,1.344,0.453c-0.094,0.969-0.219,1.839-0.375,2.609
			c-0.219,1.073-0.912,1.609-2.078,1.609h-3.438c-1.198,0-1.797-0.651-1.797-1.953V48.106z"/>
		<path fill="#333333" d="M37.847,55.669c1.344-2.281,2.338-4.807,2.984-7.578l1.156,0.219c-0.276,1.167-0.625,2.318-1.047,3.453
			v11.656h-1.063v-9.141c-0.458,0.953-0.969,1.896-1.531,2.828C38.222,56.69,38.055,56.211,37.847,55.669z M43.581,56.794
			l0.625-0.875c0.474,0.323,0.987,0.701,1.539,1.133c0.401-1.067,0.68-2.227,0.836-3.477h-2.195
			c-0.588,1.906-1.315,3.438-2.18,4.594c-0.219-0.333-0.469-0.656-0.75-0.969c1.177-1.692,2.049-4.063,2.617-7.109h-1.695v-1.094
			h6.047v1.094h-3.188c-0.162,0.854-0.341,1.656-0.539,2.406h3.039v1.078c-0.427,4.104-2.099,7.396-5.016,9.875
			c-0.229-0.313-0.516-0.651-0.859-1.016c1.474-1.188,2.615-2.62,3.422-4.297C44.769,57.716,44.201,57.268,43.581,56.794z
			 M51.565,48.138h1.141v13.047c0,0.792-0.125,1.333-0.375,1.625c-0.219,0.271-0.656,0.411-1.313,0.422
			c-0.448,0.01-1.172,0-2.172-0.031c-0.042-0.427-0.115-0.859-0.219-1.297c0.802,0.083,1.458,0.125,1.969,0.125
			c0.406,0.01,0.667-0.063,0.781-0.219c0.125-0.136,0.188-0.469,0.188-1V48.138z M49.909,59.763H48.8v-9.172h1.109V59.763z"/>
		<path fill="#333333" d="M61.644,52.567c0.276,0,0.513,0.097,0.711,0.289c0.198,0.193,0.297,0.425,0.297,0.695
			c0,0.271-0.096,0.504-0.289,0.699s-0.432,0.293-0.719,0.293s-0.526-0.098-0.719-0.293s-0.289-0.428-0.289-0.699
			c0-0.271,0.099-0.502,0.297-0.695C61.13,52.664,61.368,52.567,61.644,52.567z M61.644,59.606c0.276,0,0.513,0.097,0.711,0.289
			c0.198,0.193,0.297,0.427,0.297,0.703c0,0.281-0.099,0.517-0.297,0.707s-0.435,0.285-0.711,0.285s-0.513-0.095-0.711-0.285
			s-0.297-0.426-0.297-0.707c0-0.276,0.099-0.51,0.297-0.703C61.13,59.703,61.368,59.606,61.644,59.606z"/>
		<path fill="#333333" d="M78.229,49.825l-4.734,11.57h-1.586l4.5-10.75h-6.047v-1.352h7.867V49.825z"/>
		<path fill="#333333" d="M79.722,55.583c0-2.135,0.354-3.751,1.063-4.848c0.708-1.096,1.734-1.645,3.078-1.645
			c2.563,0,3.844,2.068,3.844,6.203c0,2.042-0.361,3.603-1.082,4.684c-0.721,1.081-1.733,1.621-3.035,1.621
			c-1.229,0-2.181-0.513-2.855-1.539C80.059,59.034,79.722,57.542,79.722,55.583z M81.284,55.513c0,3.214,0.815,4.82,2.445,4.82
			c1.604,0,2.406-1.633,2.406-4.898c0-3.38-0.787-5.07-2.359-5.07C82.115,50.364,81.284,52.081,81.284,55.513z"/>
		<path fill="#333333" d="M89.073,52.349c0-0.989,0.264-1.776,0.793-2.359c0.529-0.583,1.241-0.875,2.137-0.875
			c0.859,0,1.53,0.269,2.012,0.805c0.482,0.537,0.723,1.284,0.723,2.242c0,0.953-0.266,1.727-0.797,2.32s-1.237,0.891-2.117,0.891
			c-0.833,0-1.5-0.276-2-0.828C89.323,53.992,89.073,53.26,89.073,52.349z M90.276,52.271c0,0.672,0.146,1.19,0.438,1.555
			c0.292,0.365,0.69,0.547,1.195,0.547c0.521,0,0.923-0.188,1.207-0.566c0.284-0.377,0.426-0.91,0.426-1.598
			c0-0.672-0.139-1.191-0.418-1.559s-0.67-0.551-1.176-0.551c-0.516,0-0.923,0.191-1.223,0.574S90.276,51.588,90.276,52.271z
			 M100.011,49.294l-7.773,12.18h-1.305l7.773-12.18H100.011z M96.323,58.56c0-0.989,0.264-1.78,0.793-2.371
			c0.529-0.591,1.238-0.887,2.129-0.887c0.854,0,1.523,0.27,2.008,0.809s0.727,1.298,0.727,2.277c0,0.948-0.268,1.718-0.805,2.309
			c-0.537,0.591-1.237,0.887-2.102,0.887c-0.838,0-1.506-0.28-2.004-0.84C96.572,60.184,96.323,59.456,96.323,58.56z M97.519,58.489
			c0,0.656,0.146,1.168,0.438,1.535s0.69,0.551,1.195,0.551c0.521,0,0.923-0.19,1.207-0.57c0.284-0.38,0.426-0.911,0.426-1.594
			c0-0.677-0.142-1.195-0.426-1.555s-0.673-0.539-1.168-0.539c-0.531,0-0.943,0.191-1.234,0.574S97.519,57.807,97.519,58.489z"/>
	</g>
	<polyline fill="none" stroke="#685046" stroke-dasharray="16.2598" points="363.3,43.521 445.58,43.521 463.985,131.425 	"/>
	<rect x="16.551" y="39.139" fill="#8DC21F" width="136.417" height="2.668"/>
	<g>
		<path fill="#333333" d="M429.568,145.447c0.958,0.698,1.864,1.406,2.719,2.125l-0.875,0.984c-1.125-1.011-2-1.75-2.625-2.219
			L429.568,145.447z M431.256,149.744c0.406,0.188,0.828,0.349,1.266,0.484c-0.563,2.011-1.131,4.016-1.703,6.016l-1.359-0.484
			C430.146,153.937,430.745,151.932,431.256,149.744z M430.303,141.338c1.156,0.813,2.156,1.563,3,2.25l-0.891,0.984
			c-1.219-1.063-2.172-1.844-2.859-2.344L430.303,141.338z M433.678,143.291v-1.188h9.156v1.063
			c-0.417,3.229-1.607,6.023-3.57,8.383c1.328,1.401,3.028,2.523,5.102,3.367c-0.281,0.323-0.604,0.739-0.969,1.25
			c-2.006-0.969-3.67-2.188-4.992-3.656c-1.417,1.458-3.159,2.734-5.227,3.828c-0.271-0.417-0.578-0.802-0.922-1.156
			c2.166-1.005,3.953-2.214,5.359-3.625c-1.683-2.245-2.675-5-2.977-8.266H433.678z M441.475,143.291h-5.664
			c0.26,2.911,1.146,5.354,2.656,7.328C440.186,148.557,441.188,146.114,441.475,143.291z"/>
		<path fill="#333333" d="M445.053,143.588h5.922v1.078h-3.367c-0.011,0.833-0.023,1.604-0.039,2.313h3
			c-0.073,2.958-0.146,5.172-0.219,6.641c-0.073,1.427-0.631,2.141-1.672,2.141c-0.479,0-0.99-0.005-1.531-0.016
			c-0.063-0.344-0.141-0.739-0.234-1.188c0.583,0.063,1.021,0.094,1.313,0.094c0.625,0,0.953-0.375,0.984-1.125
			c0.083-1.542,0.146-3.364,0.188-5.469h-1.859c0,3.739-0.678,6.458-2.031,8.156c-0.209-0.281-0.475-0.594-0.797-0.938
			c1.01-1.333,1.563-3.406,1.656-6.219c0.057-1.333,0.094-2.797,0.109-4.391h-1.422V143.588z M446.912,141.463l0.938-0.594
			c0.5,0.594,0.969,1.255,1.406,1.984l-1,0.641C447.734,142.65,447.287,141.974,446.912,141.463z M451.037,149.885h3.805
			c0.099-0.714,0.156-1.563,0.172-2.547h-1.57c-0.359,0.688-0.729,1.317-1.109,1.891c-0.406-0.229-0.745-0.411-1.016-0.547
			c0.822-1.156,1.547-2.521,2.172-4.094l1.063,0.359c-0.188,0.458-0.381,0.896-0.578,1.313h5.5v1.078h-3.297
			c-0.031,1.005-0.086,1.854-0.164,2.547h4.039v1.078h-3.664c0.911,1.87,2.242,3.25,3.992,4.141
			c-0.375,0.354-0.703,0.724-0.984,1.109c-1.709-1.151-2.969-2.641-3.781-4.469c-0.547,1.698-1.959,3.25-4.234,4.656
			c-0.219-0.344-0.506-0.692-0.859-1.047c2.307-1.245,3.68-2.708,4.117-4.391h-3.602V149.885z M450.584,145.744
			c0.969-1.375,1.771-2.995,2.406-4.859l1.141,0.391c-0.219,0.563-0.44,1.099-0.664,1.609h6.664v1.078h-7.164
			c-0.422,0.864-0.857,1.651-1.305,2.359C451.245,146.083,450.886,145.89,450.584,145.744z"/>
		<path fill="#333333" d="M468.584,145.408c0.275,0,0.513,0.097,0.711,0.289c0.197,0.192,0.297,0.425,0.297,0.695
			s-0.097,0.504-0.289,0.699c-0.193,0.195-0.433,0.293-0.719,0.293c-0.287,0-0.526-0.098-0.719-0.293
			c-0.193-0.195-0.289-0.429-0.289-0.699s0.099-0.503,0.297-0.695C468.07,145.505,468.308,145.408,468.584,145.408z
			 M468.584,152.447c0.275,0,0.513,0.097,0.711,0.289c0.197,0.192,0.297,0.427,0.297,0.703c0,0.281-0.1,0.517-0.297,0.707
			c-0.198,0.19-0.436,0.285-0.711,0.285c-0.276,0-0.514-0.095-0.711-0.285c-0.198-0.19-0.297-0.426-0.297-0.707
			c0-0.276,0.099-0.511,0.297-0.703C468.07,152.544,468.308,152.447,468.584,152.447z"/>
		<path fill="#333333" d="M477.686,152.213c0.828,0.641,1.763,0.961,2.805,0.961c0.833,0,1.493-0.204,1.98-0.613
			c0.486-0.409,0.73-0.957,0.73-1.645c0-1.531-1.097-2.297-3.289-2.297h-1.008v-1.266h0.961c1.942,0,2.914-0.719,2.914-2.156
			c0-1.328-0.742-1.992-2.227-1.992c-0.85,0-1.648,0.286-2.398,0.859v-1.445c0.791-0.458,1.716-0.688,2.773-0.688
			c1.031,0,1.859,0.27,2.484,0.809s0.938,1.238,0.938,2.098c0,1.583-0.808,2.602-2.422,3.055v0.031
			c0.875,0.094,1.566,0.402,2.074,0.926s0.762,1.176,0.762,1.957c0,1.089-0.393,1.966-1.176,2.633c-0.784,0.667-1.827,1-3.129,1
			c-1.146,0-2.07-0.214-2.773-0.641V152.213z"/>
		<path fill="#333333" d="M486.662,148.424c0-2.136,0.354-3.751,1.063-4.848c0.708-1.097,1.734-1.645,3.078-1.645
			c2.563,0,3.844,2.067,3.844,6.203c0,2.042-0.361,3.603-1.082,4.684c-0.722,1.081-1.733,1.621-3.035,1.621
			c-1.229,0-2.182-0.513-2.855-1.539C486.999,151.874,486.662,150.382,486.662,148.424z M488.225,148.354
			c0,3.214,0.814,4.82,2.445,4.82c1.604,0,2.406-1.633,2.406-4.898c0-3.38-0.787-5.07-2.359-5.07
			C489.055,143.205,488.225,144.921,488.225,148.354z"/>
		<path fill="#333333" d="M495.584,154.994c4.541-2.625,6.942-7.229,7.203-13.813h1.375c-0.058,1.114-0.167,2.177-0.328,3.188
			c1.291,5.208,3.719,8.636,7.281,10.281c-0.438,0.479-0.823,0.933-1.156,1.359c-3.094-1.75-5.3-4.847-6.617-9.289
			c-1.141,4.292-3.398,7.445-6.773,9.461C496.287,155.796,495.959,155.4,495.584,154.994z"/>
	</g>
	<g>
		<path fill="#333333" d="M431.225,170.808v4.688h4.406v1.172h-4.406v6.641c1.084-0.459,2.5-1.104,4.25-1.938
			c0,0.489,0.021,0.958,0.063,1.406c-1.531,0.614-2.828,1.191-3.891,1.734c-0.458,0.238-0.88,0.525-1.266,0.859l-0.953-1.219
			c0.334-0.25,0.5-0.631,0.5-1.141v-12.203H431.225z M436.631,170.401h1.297v6.609c2.026-1.464,3.693-2.995,5-4.594l1.109,0.828
			c-1.688,1.859-3.724,3.627-6.109,5.305v4.523c0,0.688,0.303,1.031,0.906,1.031h2.672c0.688,0,1.084-0.309,1.188-0.922
			c0.125-0.792,0.219-1.662,0.281-2.609c0.438,0.166,0.886,0.317,1.344,0.453c-0.094,0.969-0.219,1.838-0.375,2.609
			c-0.219,1.072-0.911,1.609-2.078,1.609h-3.438c-1.197,0-1.797-0.652-1.797-1.953V170.401z"/>
		<path fill="#333333" d="M444.787,177.964c1.344-2.281,2.339-4.808,2.984-7.578l1.156,0.219c-0.275,1.166-0.625,2.317-1.047,3.453
			v11.656h-1.063v-9.141c-0.458,0.953-0.969,1.896-1.531,2.828C445.162,178.984,444.996,178.505,444.787,177.964z M450.521,179.089
			l0.625-0.875c0.475,0.322,0.987,0.7,1.539,1.133c0.401-1.068,0.68-2.227,0.836-3.477h-2.195c-0.588,1.906-1.314,3.438-2.18,4.594
			c-0.219-0.334-0.469-0.656-0.75-0.969c1.178-1.693,2.05-4.063,2.617-7.109h-1.695v-1.094h6.047v1.094h-3.188
			c-0.161,0.854-0.341,1.656-0.539,2.406h3.039v1.078c-0.427,4.104-2.099,7.396-5.016,9.875c-0.229-0.313-0.516-0.652-0.859-1.016
			c1.475-1.188,2.615-2.62,3.422-4.297C451.709,180.011,451.142,179.563,450.521,179.089z M458.506,170.433h1.141v13.047
			c0,0.791-0.125,1.332-0.375,1.625c-0.219,0.27-0.656,0.41-1.313,0.422c-0.447,0.01-1.172,0-2.172-0.031
			c-0.041-0.428-0.114-0.859-0.219-1.297c0.803,0.082,1.459,0.125,1.969,0.125c0.406,0.01,0.667-0.063,0.781-0.219
			c0.125-0.137,0.188-0.469,0.188-1V170.433z M456.85,182.058h-1.109v-9.172h1.109V182.058z"/>
		<path fill="#333333" d="M468.584,174.862c0.276,0,0.514,0.096,0.711,0.289c0.198,0.192,0.297,0.424,0.297,0.695
			c0,0.271-0.096,0.504-0.289,0.699c-0.192,0.195-0.432,0.293-0.719,0.293c-0.286,0-0.525-0.098-0.719-0.293
			c-0.192-0.195-0.289-0.429-0.289-0.699c0-0.271,0.1-0.503,0.297-0.695C468.071,174.958,468.309,174.862,468.584,174.862z
			 M468.584,181.901c0.276,0,0.514,0.096,0.711,0.289c0.198,0.192,0.297,0.427,0.297,0.703c0,0.281-0.099,0.517-0.297,0.707
			c-0.197,0.189-0.435,0.285-0.711,0.285c-0.275,0-0.513-0.096-0.711-0.285c-0.197-0.19-0.297-0.426-0.297-0.707
			c0-0.276,0.1-0.511,0.297-0.703C468.071,181.997,468.309,181.901,468.584,181.901z"/>
		<path fill="#333333" d="M477.686,181.667c0.828,0.641,1.764,0.961,2.805,0.961c0.834,0,1.494-0.205,1.98-0.613
			c0.487-0.409,0.73-0.957,0.73-1.645c0-1.531-1.096-2.297-3.289-2.297h-1.008v-1.266h0.961c1.943,0,2.914-0.719,2.914-2.156
			c0-1.328-0.742-1.992-2.227-1.992c-0.849,0-1.648,0.286-2.398,0.859v-1.445c0.792-0.459,1.717-0.688,2.773-0.688
			c1.031,0,1.859,0.27,2.484,0.809s0.938,1.238,0.938,2.098c0,1.583-0.807,2.602-2.422,3.055v0.031
			c0.875,0.094,1.566,0.402,2.074,0.926s0.762,1.176,0.762,1.957c0,1.088-0.392,1.966-1.176,2.633c-0.783,0.666-1.826,1-3.129,1
			c-1.146,0-2.07-0.214-2.773-0.641V181.667z"/>
		<path fill="#333333" d="M486.662,177.878c0-2.136,0.354-3.752,1.063-4.848c0.709-1.097,1.734-1.645,3.078-1.645
			c2.563,0,3.844,2.067,3.844,6.203c0,2.041-0.36,3.603-1.082,4.684c-0.721,1.08-1.732,1.621-3.035,1.621
			c-1.229,0-2.181-0.514-2.855-1.539C487,181.328,486.662,179.836,486.662,177.878z M488.225,177.808c0,3.213,0.815,4.82,2.445,4.82
			c1.604,0,2.406-1.633,2.406-4.898c0-3.381-0.786-5.07-2.359-5.07C489.056,172.659,488.225,174.375,488.225,177.808z"/>
		<path fill="#333333" d="M496.014,174.644c0-0.99,0.265-1.776,0.793-2.359c0.529-0.584,1.241-0.875,2.137-0.875
			c0.859,0,1.53,0.268,2.012,0.805c0.482,0.536,0.723,1.283,0.723,2.242c0,0.953-0.266,1.727-0.797,2.32s-1.236,0.891-2.117,0.891
			c-0.833,0-1.5-0.276-2-0.828C496.264,176.286,496.014,175.555,496.014,174.644z M497.217,174.565c0,0.672,0.146,1.189,0.438,1.555
			c0.292,0.364,0.69,0.547,1.195,0.547c0.521,0,0.924-0.189,1.207-0.566c0.284-0.378,0.426-0.91,0.426-1.598
			c0-0.672-0.139-1.191-0.418-1.559c-0.278-0.367-0.67-0.551-1.176-0.551c-0.516,0-0.923,0.191-1.223,0.574
			C497.367,173.351,497.217,173.883,497.217,174.565z M506.951,171.589l-7.773,12.18h-1.305l7.773-12.18H506.951z M503.264,180.854
			c0-0.99,0.265-1.78,0.793-2.371c0.529-0.592,1.238-0.887,2.129-0.887c0.854,0,1.523,0.27,2.008,0.809s0.727,1.298,0.727,2.277
			c0,0.947-0.268,1.717-0.805,2.309c-0.536,0.591-1.236,0.887-2.102,0.887c-0.838,0-1.506-0.28-2.004-0.84
			C503.513,182.478,503.264,181.75,503.264,180.854z M504.459,180.784c0,0.656,0.146,1.168,0.438,1.535
			c0.292,0.367,0.69,0.551,1.195,0.551c0.521,0,0.924-0.19,1.207-0.57c0.284-0.381,0.426-0.912,0.426-1.594
			c0-0.678-0.142-1.195-0.426-1.555c-0.283-0.359-0.673-0.539-1.168-0.539c-0.531,0-0.942,0.191-1.234,0.574
			C504.605,179.569,504.459,180.102,504.459,180.784z"/>
	</g>
	<path fill="#999999" d="M277.123,64.874c23.441,2.728,41.642,22.64,41.642,46.813c0,12.141-4.594,23.207-12.131,31.565
		l31.824,9.586l9.229,31.969c18.233-18.965,29.448-44.731,29.448-73.12c0-56.913-45.064-103.295-101.457-105.428l16.692,29.967
		L277.123,64.874z"/>
	<path fill="#F7B52C" d="M275.123,61.671c23.441,2.728,41.642,22.64,41.642,46.813c0,12.141-4.594,23.207-12.131,31.565
		l31.824,9.586l9.229,31.969c18.233-18.965,29.448-44.731,29.448-73.12c0-56.913-45.064-103.295-101.457-105.428l16.692,29.967
		L275.123,61.671z"/>
	<rect x="429.104" y="161.433" fill="#F29600" width="84.345" height="2.669"/>
	<path fill="#999999" d="M327.724,167.282l-31.454-9.818c-8.216,6.959-18.839,11.165-30.45,11.165
		c-26.036,0-47.144-21.106-47.144-47.145c0-25.436,20.148-46.155,45.354-47.097l15.762-28.464l-16.277-29.923
		c-57.208,1.227-103.208,47.981-103.208,105.483c0,58.273,47.24,105.515,105.513,105.515c27.202,0,51.994-10.296,70.706-27.197
		L327.724,167.282z"/>
	<path fill="#8DC21F" d="M324.524,154.282l-31.454-9.818c-8.216,6.959-18.839,11.165-30.45,11.165
		c-26.036,0-47.144-21.106-47.144-47.145c0-25.436,20.148-46.155,45.354-47.097l15.762-28.464L260.315,3.001
		c-57.208,1.227-103.208,47.981-103.208,105.483c0,58.273,47.24,105.515,105.513,105.515c27.202,0,51.994-10.296,70.706-27.197
		L324.524,154.282z"/>
	<g>
		<path fill="#FFFFFF" d="M190.992,66.336l1.426,0.938c-3.776,4.857-9.017,7.956-15.723,9.297c-0.287-0.521-0.612-1.042-0.977-1.563
			C182.489,73.693,187.58,70.802,190.992,66.336z M180.503,60.047l1.602,0.625c-1.419,3.138-2.956,5.996-4.609,8.574
			c-0.404-0.26-0.892-0.553-1.465-0.879C177.685,65.971,179.175,63.198,180.503,60.047z M184.546,57.371h1.68v12.266h-1.68V57.371z
			 M188.335,60.555l1.23-0.938c2.083,2.24,3.958,4.362,5.625,6.367l-1.406,1.133C191.962,64.799,190.146,62.612,188.335,60.555z"/>
		<path fill="#FFFFFF" d="M195.875,68.582h2.969c0.287-0.495,0.566-1.002,0.84-1.523l1.406,0.449
			c-0.208,0.365-0.417,0.723-0.625,1.074h4.785v1.27c-0.495,1.276-1.244,2.396-2.246,3.359c0.716,0.338,1.445,0.677,2.188,1.016
			l-0.859,1.348c-0.807-0.456-1.647-0.912-2.52-1.367c-1.471,1.055-3.327,1.888-5.566,2.5c-0.208-0.417-0.43-0.873-0.664-1.367
			c1.901-0.43,3.509-1.048,4.824-1.855c-1.12-0.573-2.292-1.159-3.516-1.758c0.417-0.599,0.82-1.217,1.211-1.855h-2.227V68.582z
			 M196.089,61.863h4.492v-4.375h1.445v4.375h3.75v1.289h-3.75v1.191l0.586-0.664c1.211,0.885,2.227,1.667,3.047,2.344l-0.938,1.094
			c-0.716-0.677-1.615-1.439-2.695-2.285v2.227h-1.445v-2.734c-1.185,1.237-2.565,2.324-4.141,3.262
			c-0.248-0.377-0.527-0.775-0.84-1.191c1.641-0.885,3.145-1.966,4.512-3.242h-4.023V61.863z M196.597,58.836l1.113-0.762
			c0.586,0.716,1.191,1.484,1.816,2.305l-1.211,0.859C197.743,60.392,197.17,59.591,196.597,58.836z M198.804,71.277
			c0.924,0.417,1.875,0.853,2.852,1.309c0.898-0.768,1.602-1.673,2.109-2.715h-4.063C199.403,70.353,199.104,70.822,198.804,71.277z
			 M204.898,57.977l1.211,0.801c-0.716,0.938-1.432,1.803-2.148,2.598c-0.299-0.26-0.651-0.534-1.055-0.82
			C203.583,59.76,204.247,58.901,204.898,57.977z M208.453,57.313l1.563,0.234c-0.273,1.263-0.592,2.441-0.957,3.535h5.977v1.328
			h-1.23c-0.326,3.828-1.159,6.869-2.5,9.121c1.055,1.432,2.396,2.604,4.023,3.516c-0.417,0.573-0.768,1.087-1.055,1.543
			c-1.588-1.029-2.91-2.252-3.965-3.672c-1.198,1.484-2.624,2.773-4.277,3.867c-0.287-0.377-0.658-0.788-1.113-1.23
			c1.823-1.198,3.301-2.559,4.434-4.082c-1.055-1.823-1.751-3.926-2.09-6.309c-0.273,0.482-0.56,0.931-0.859,1.348
			c-0.26-0.377-0.586-0.794-0.977-1.25C206.936,63.087,207.945,60.438,208.453,57.313z M212.242,62.41h-3.652
			c-0.065,0.169-0.137,0.332-0.215,0.488c0.234,2.76,0.885,5.124,1.953,7.09C211.369,68.087,212.007,65.561,212.242,62.41z"/>
	</g>
	<g>
		<path fill="#FFFFFF" d="M164.7,88.871h15.645V96h-1.543v-0.859h-4.385c0.111,1.283,0.277,2.455,0.498,3.516h6.953v1.406h-6.602
			c0.664,2.279,1.654,3.952,2.969,5.02c0.651,0.534,1.159,0.43,1.523-0.313c0.313-0.638,0.547-1.745,0.703-3.32
			c0.599,0.26,1.1,0.449,1.504,0.566c-0.221,1.471-0.488,2.624-0.801,3.457c-0.43,1.107-1.074,1.66-1.934,1.66
			c-0.781,0-1.549-0.332-2.305-0.996c-1.432-1.224-2.513-3.249-3.242-6.074h-7.461v5.098c1.498-0.469,3.092-1.061,4.785-1.777
			c-0.052,0.599-0.059,1.172-0.02,1.719c-2.109,0.716-3.861,1.354-5.254,1.914c-0.156,0.078-0.397,0.202-0.723,0.371l-0.859-1.445
			c0.365-0.26,0.547-0.625,0.547-1.094V88.871z M178.801,90.277h-12.578v3.457h12.578V90.277z M172.854,95.141h-6.631v3.516h7.148
			C173.157,97.582,172.984,96.41,172.854,95.141z"/>
		<path fill="#FFFFFF" d="M183.04,91.371h7.402v1.348h-4.209c-0.013,1.042-0.029,2.005-0.049,2.891h3.75
			c-0.091,3.698-0.182,6.465-0.273,8.301c-0.091,1.784-0.788,2.676-2.09,2.676c-0.599,0-1.237-0.006-1.914-0.02
			c-0.078-0.43-0.176-0.924-0.293-1.484c0.729,0.078,1.276,0.117,1.641,0.117c0.781,0,1.191-0.469,1.23-1.406
			c0.104-1.927,0.182-4.206,0.234-6.836h-2.324c0,4.674-0.846,8.073-2.539,10.195c-0.26-0.352-0.592-0.742-0.996-1.172
			c1.263-1.667,1.953-4.258,2.07-7.773c0.072-1.667,0.117-3.496,0.137-5.488h-1.777V91.371z M185.364,88.715l1.172-0.742
			c0.625,0.742,1.211,1.569,1.758,2.48l-1.25,0.801C186.393,90.199,185.833,89.353,185.364,88.715z M190.52,99.242h4.756
			c0.124-0.892,0.195-1.953,0.215-3.184h-1.963c-0.449,0.859-0.912,1.647-1.387,2.363c-0.508-0.287-0.931-0.514-1.27-0.684
			c1.029-1.445,1.934-3.151,2.715-5.117l1.328,0.449c-0.234,0.573-0.475,1.12-0.723,1.641h6.875v1.348h-4.121
			c-0.039,1.256-0.107,2.318-0.205,3.184h5.049v1.348h-4.58c1.139,2.337,2.803,4.063,4.99,5.176
			c-0.469,0.443-0.879,0.905-1.23,1.387c-2.135-1.439-3.711-3.301-4.727-5.586c-0.684,2.123-2.448,4.063-5.293,5.82
			c-0.273-0.43-0.631-0.866-1.074-1.309c2.884-1.556,4.6-3.385,5.146-5.488h-4.502V99.242z M189.954,94.066
			c1.211-1.719,2.213-3.744,3.008-6.074l1.426,0.488c-0.273,0.703-0.55,1.374-0.83,2.012h8.33v1.348h-8.955
			c-0.527,1.081-1.071,2.064-1.631,2.949C190.78,94.49,190.331,94.249,189.954,94.066z"/>
	</g>
	<g>
		<path fill="#FFFFFF" d="M214.494,163.581l-4.734,11.57h-1.586l4.5-10.75h-6.047v-1.352h7.867V163.581z"/>
		<path fill="#FFFFFF" d="M215.986,169.339c0-2.135,0.354-3.751,1.063-4.848c0.708-1.096,1.734-1.645,3.078-1.645
			c2.563,0,3.844,2.068,3.844,6.203c0,2.042-0.361,3.604-1.082,4.684c-0.722,1.081-1.733,1.621-3.035,1.621
			c-1.229,0-2.181-0.513-2.855-1.539C216.323,172.79,215.986,171.298,215.986,169.339z M217.548,169.269
			c0,3.214,0.815,4.82,2.445,4.82c1.604,0,2.406-1.633,2.406-4.898c0-3.38-0.787-5.07-2.359-5.07
			C218.379,164.12,217.548,165.837,217.548,169.269z"/>
		<path fill="#FFFFFF" d="M225.337,166.104c0-0.989,0.264-1.775,0.793-2.359c0.528-0.583,1.241-0.875,2.137-0.875
			c0.859,0,1.53,0.269,2.012,0.805c0.481,0.537,0.723,1.284,0.723,2.242c0,0.953-0.266,1.727-0.797,2.32s-1.237,0.891-2.117,0.891
			c-0.833,0-1.5-0.275-2-0.828C225.587,167.748,225.337,167.017,225.337,166.104z M226.541,166.026c0,0.672,0.146,1.19,0.438,1.555
			c0.292,0.365,0.69,0.547,1.195,0.547c0.521,0,0.923-0.188,1.207-0.566c0.284-0.377,0.426-0.91,0.426-1.598
			c0-0.672-0.14-1.191-0.418-1.559c-0.279-0.367-0.671-0.551-1.176-0.551c-0.516,0-0.923,0.191-1.223,0.574
			C226.69,164.812,226.541,165.345,226.541,166.026z M236.275,163.05l-7.773,12.18h-1.305l7.773-12.18H236.275z M232.587,172.315
			c0-0.989,0.264-1.779,0.793-2.371c0.528-0.591,1.238-0.887,2.129-0.887c0.854,0,1.523,0.27,2.008,0.809s0.727,1.299,0.727,2.277
			c0,0.948-0.269,1.718-0.805,2.309c-0.537,0.592-1.237,0.887-2.102,0.887c-0.839,0-1.507-0.279-2.004-0.84
			C232.836,173.939,232.587,173.212,232.587,172.315z M233.783,172.245c0,0.656,0.146,1.168,0.438,1.535
			c0.292,0.367,0.69,0.551,1.195,0.551c0.521,0,0.923-0.189,1.207-0.57c0.284-0.38,0.426-0.911,0.426-1.594
			c0-0.677-0.142-1.195-0.426-1.555c-0.284-0.359-0.673-0.539-1.168-0.539c-0.531,0-0.943,0.191-1.234,0.574
			C233.928,171.03,233.783,171.563,233.783,172.245z"/>
	</g>
	<g>
		<path fill="#FFFFFF" d="M321.131,76.182c1.797,1.309,3.496,2.637,5.098,3.984l-1.641,1.846c-2.109-1.895-3.75-3.281-4.922-4.16
			L321.131,76.182z M324.295,84.239c0.762,0.352,1.553,0.654,2.373,0.908c-1.055,3.77-2.119,7.529-3.193,11.279l-2.549-0.908
			C322.215,92.1,323.338,88.34,324.295,84.239z M322.508,68.477c2.168,1.523,4.043,2.93,5.625,4.219l-1.67,1.846
			c-2.285-1.992-4.072-3.457-5.361-4.395L322.508,68.477z M328.836,72.139v-2.227h17.168v1.992
			c-0.781,6.055-3.012,11.294-6.693,15.718c2.49,2.627,5.678,4.731,9.564,6.313c-0.527,0.605-1.133,1.387-1.816,2.344
			c-3.76-1.816-6.879-4.102-9.359-6.855c-2.656,2.734-5.924,5.127-9.801,7.178c-0.508-0.781-1.084-1.504-1.729-2.168
			c4.063-1.885,7.412-4.15,10.049-6.797c-3.154-4.209-5.014-9.375-5.58-15.498H328.836z M343.455,72.139h-10.619
			c0.488,5.459,2.148,10.039,4.98,13.74C341.039,82.012,342.918,77.432,343.455,72.139z"/>
	</g>
	<g>
		<path fill="#FFFFFF" d="M301.598,48.706c0.828,0.641,1.764,0.961,2.805,0.961c0.834,0,1.494-0.204,1.98-0.613
			c0.486-0.409,0.73-0.957,0.73-1.645c0-1.531-1.096-2.297-3.289-2.297h-1.008v-1.266h0.961c1.943,0,2.914-0.719,2.914-2.156
			c0-1.328-0.742-1.992-2.227-1.992c-0.85,0-1.648,0.287-2.398,0.859v-1.445c0.791-0.458,1.717-0.688,2.773-0.688
			c1.031,0,1.859,0.27,2.484,0.809s0.938,1.238,0.938,2.098c0,1.583-0.807,2.602-2.422,3.055v0.031
			c0.875,0.094,1.566,0.402,2.074,0.926s0.762,1.176,0.762,1.957c0,1.089-0.393,1.966-1.176,2.633c-0.783,0.667-1.826,1-3.129,1
			c-1.146,0-2.07-0.213-2.773-0.641V48.706z"/>
		<path fill="#FFFFFF" d="M310.574,44.917c0-2.135,0.354-3.751,1.063-4.848c0.709-1.096,1.734-1.645,3.078-1.645
			c2.563,0,3.844,2.068,3.844,6.203c0,2.042-0.361,3.603-1.082,4.684c-0.721,1.081-1.732,1.621-3.035,1.621
			c-1.229,0-2.182-0.513-2.855-1.539C310.912,48.368,310.574,46.875,310.574,44.917z M312.137,44.847c0,3.214,0.814,4.82,2.445,4.82
			c1.604,0,2.406-1.633,2.406-4.898c0-3.38-0.787-5.07-2.359-5.07C312.967,39.698,312.137,41.415,312.137,44.847z"/>
		<path fill="#FFFFFF" d="M319.926,41.683c0-0.989,0.264-1.776,0.793-2.359c0.529-0.583,1.24-0.875,2.137-0.875
			c0.859,0,1.529,0.269,2.012,0.805c0.482,0.537,0.723,1.284,0.723,2.242c0,0.953-0.266,1.727-0.797,2.32s-1.236,0.891-2.117,0.891
			c-0.834,0-1.5-0.276-2-0.828C320.176,43.326,319.926,42.594,319.926,41.683z M321.129,41.604c0,0.672,0.146,1.19,0.438,1.555
			c0.291,0.365,0.689,0.547,1.195,0.547c0.521,0,0.924-0.188,1.207-0.566c0.283-0.377,0.426-0.91,0.426-1.598
			c0-0.672-0.139-1.191-0.418-1.559s-0.67-0.551-1.176-0.551c-0.516,0-0.924,0.191-1.223,0.574S321.129,40.922,321.129,41.604z
			 M330.863,38.628l-7.773,12.18h-1.305l7.773-12.18H330.863z M327.176,47.894c0-0.989,0.264-1.78,0.793-2.371
			c0.529-0.591,1.238-0.887,2.129-0.887c0.854,0,1.523,0.27,2.008,0.809s0.727,1.298,0.727,2.277c0,0.948-0.268,1.718-0.805,2.309
			c-0.537,0.591-1.236,0.887-2.102,0.887c-0.838,0-1.506-0.28-2.004-0.84C327.424,49.518,327.176,48.79,327.176,47.894z
			 M328.371,47.823c0,0.656,0.146,1.168,0.438,1.535s0.689,0.551,1.195,0.551c0.521,0,0.924-0.19,1.207-0.57
			c0.283-0.38,0.426-0.911,0.426-1.594c0-0.677-0.143-1.195-0.426-1.555s-0.674-0.539-1.168-0.539c-0.531,0-0.943,0.191-1.234,0.574
			S328.371,47.141,328.371,47.823z"/>
	</g>
	<g>
		<circle fill="#FFFFFF" cx="344.107" cy="116.535" r="5.971"/>
		<path fill="#FFFFFF" d="M349.732,121.419h-0.112c-1.325,1.563-3.303,2.557-5.513,2.557s-4.188-0.993-5.513-2.557h-0.112
			c-2.701,0-4.912,2.211-4.912,4.912v7.26h3.631v-4.042c0-0.294,0.24-0.534,0.534-0.534s0.534,0.24,0.534,0.534v4.042h11.676v-4.042
			c0-0.294,0.24-0.534,0.534-0.534s0.534,0.24,0.534,0.534v4.042h3.631v-7.26C354.645,123.63,352.434,121.419,349.732,121.419z"/>
	</g>
	<g>
		<g>
			<g>
				<path fill="#FFFFFF" d="M258.073,36.649c0,0,0.107-0.341,0.163-0.691c0.054-0.352,0.109-0.703,0.109-0.703
					c0.024-0.243,0.261-0.434,0.554-0.417c0,0,0.501,0.095,1.001,0.191c0.5,0.108,1,0.216,1,0.216
					c0.291,0.021,0.516,0.312,0.457,0.639c0,0-0.049,0.32-0.1,0.642c-0.041,0.322-0.141,0.633-0.141,0.633
					c-0.084,0.322-0.38,0.516-0.656,0.432c0,0-0.501-0.08-1.002-0.159c-0.5-0.094-1.002-0.187-1.002-0.187
					C258.188,37.155,258.015,36.887,258.073,36.649z"/>
				<path fill="#FFFFFF" d="M257.759,37.608c0,0,0.075-0.202,0.187-0.504c0.092-0.309,0.209-0.725,0.29-1.146
					c0.065-0.426,0.141-0.851,0.137-1.176c0.018-0.323,0.03-0.539,0.03-0.539h1.218c0,0-0.013,0.244-0.032,0.609
					c0.002,0.367-0.08,0.849-0.156,1.331c-0.09,0.477-0.223,0.949-0.328,1.298c-0.127,0.343-0.211,0.571-0.211,0.571L257.759,37.608
					z"/>
			</g>
			<g>
				<path fill="#FFFFFF" d="M256.583,39.731c0.027,0.02,0.79-1.186,0.759-1.202c0.105-0.222,0.41-0.303,0.674-0.184
					c0,0,0.429,0.272,0.858,0.543c0.424,0.282,0.848,0.565,0.848,0.565c0.259,0.125,0.364,0.478,0.203,0.769
					c0,0-0.663,1.116-0.69,1.097c-0.199,0.266-0.549,0.335-0.777,0.154c0,0-0.438-0.257-0.875-0.514
					c-0.431-0.268-0.861-0.533-0.861-0.533C256.499,40.24,256.436,39.927,256.583,39.731z"/>
				<path fill="#FFFFFF" d="M255.938,40.512c0,0,0.145-0.16,0.361-0.401c0.182-0.268,0.479-0.586,0.685-0.967
					c0.476-0.722,0.775-1.535,0.775-1.535l1.135,0.444c0,0-0.34,0.92-0.877,1.738c-0.235,0.429-0.566,0.793-0.775,1.093
					c-0.245,0.272-0.407,0.454-0.407,0.454L255.938,40.512z"/>
			</g>
			<g>
				<path fill="#FFFFFF" d="M254.073,42.075c0.023,0.033,1.161-0.832,1.14-0.856c0.182-0.164,0.498-0.128,0.701,0.079
					c0,0,0.301,0.408,0.603,0.815c0.292,0.416,0.585,0.832,0.585,0.832c0.198,0.212,0.159,0.567-0.087,0.788
					c0,0-0.253,0.203-0.514,0.395c-0.26,0.192-0.521,0.385-0.521,0.385c-0.283,0.173-0.636,0.108-0.784-0.142
					c0,0-0.316-0.397-0.633-0.796c-0.307-0.404-0.613-0.809-0.613-0.809C253.808,42.513,253.863,42.2,254.073,42.075z"/>
				<path fill="#FFFFFF" d="M253.19,42.569c0,0,0.786-0.369,1.468-0.902c0.704-0.505,1.28-1.155,1.28-1.155l0.896,0.826
					c0,0-0.651,0.733-1.446,1.305c-0.771,0.602-1.659,1.02-1.659,1.02L253.19,42.569z"/>
			</g>
			<g>
				<path fill="#FFFFFF" d="M250.891,43.363c0,0,0.346-0.088,0.691-0.175c0.175-0.037,0.344-0.095,0.468-0.146
					c0.125-0.046,0.209-0.077,0.209-0.077c0.23-0.084,0.514,0.069,0.628,0.334c0,0,0.135,0.488,0.269,0.977
					c0.123,0.491,0.246,0.983,0.246,0.983c0.109,0.27-0.057,0.584-0.37,0.695c0.011,0.034-1.246,0.354-1.246,0.354
					c-0.32,0.091-0.631-0.124-0.678-0.405c0,0-0.152-0.487-0.304-0.975c-0.14-0.488-0.28-0.979-0.28-0.979
					C250.483,43.664,250.648,43.397,250.891,43.363z"/>
				<path fill="#FFFFFF" d="M249.886,43.505c0,0,0.216-0.02,0.535-0.072c0.324-0.032,0.745-0.129,1.161-0.244
					c0.42-0.102,0.815-0.282,1.122-0.385c0.292-0.141,0.486-0.234,0.486-0.234l0.54,1.093c0,0-0.22,0.104-0.55,0.263
					c-0.345,0.119-0.793,0.319-1.267,0.436c-0.471,0.132-0.946,0.239-1.312,0.276c-0.361,0.06-0.604,0.082-0.604,0.082
					L249.886,43.505z"/>
			</g>
			<g>
				<path fill="#FFFFFF" d="M247.45,43.406c0,0,0.352,0.064,0.707,0.099c0.357,0.018,0.714,0.036,0.714,0.036
					c0.246,0.02,0.456,0.221,0.468,0.52c0,0-0.049,0.507-0.099,1.015c-0.062,0.508-0.123,1.016-0.123,1.016
					c0.005,0.298-0.262,0.527-0.592,0.509c0,0-0.323-0.016-0.646-0.033c-0.322-0.022-0.642-0.082-0.642-0.082
					c-0.328-0.051-0.548-0.325-0.491-0.609c0,0,0.031-0.506,0.061-1.013c0.043-0.51,0.087-1.019,0.087-1.019
					C246.957,43.566,247.206,43.378,247.45,43.406z"/>
				<path fill="#FFFFFF" d="M246.461,43.188c0,0,0.209,0.053,0.523,0.134c0.314,0.073,0.745,0.129,1.173,0.183
					c0.865,0.078,1.729,0,1.729,0l0.11,1.214c0,0-0.975,0.088-1.95,0c-0.483-0.059-0.969-0.124-1.325-0.207
					c-0.354-0.091-0.59-0.151-0.59-0.151L246.461,43.188z"/>
			</g>
			<g>
				<path fill="#FFFFFF" d="M244.227,42.229c-0.017,0.03,1.262,0.664,1.274,0.635c0.231,0.082,0.343,0.377,0.25,0.652
					c0,0-0.228,0.454-0.454,0.908c-0.239,0.451-0.478,0.9-0.478,0.9c-0.098,0.27-0.439,0.412-0.743,0.278
					c0,0-1.178-0.543-1.161-0.575c-0.285-0.171-0.389-0.511-0.232-0.755c0,0,0.211-0.463,0.422-0.925
					c0.222-0.455,0.443-0.91,0.443-0.91C243.712,42.197,244.017,42.103,244.227,42.229z"/>
				<path fill="#FFFFFF" d="M243.385,41.667c0,0,0.174,0.128,0.436,0.319c0.285,0.151,0.632,0.417,1.033,0.583
					c0.767,0.399,1.607,0.619,1.607,0.619l-0.33,1.172c0,0-0.95-0.247-1.817-0.698c-0.452-0.19-0.846-0.485-1.167-0.66
					c-0.296-0.217-0.493-0.359-0.493-0.359L243.385,41.667z"/>
			</g>
			<g>
				<path fill="#FFFFFF" d="M241.64,39.972c-0.031,0.026,0.944,1.07,0.966,1.046c0.183,0.164,0.179,0.482-0.007,0.706
					c0,0-0.375,0.342-0.749,0.683c-0.384,0.333-0.768,0.666-0.768,0.666c-0.191,0.22-0.549,0.217-0.793-0.006
					c0,0-0.227-0.231-0.445-0.471c-0.218-0.24-0.436-0.48-0.436-0.48c-0.201-0.264-0.173-0.621,0.06-0.794
					c0,0,0.364-0.355,0.728-0.711c0.372-0.345,0.743-0.691,0.743-0.691C241.178,39.753,241.494,39.775,241.64,39.972z"/>
				<path fill="#FFFFFF" d="M241.059,39.144c0,0,0.446,0.744,1.046,1.368c0.574,0.648,1.28,1.155,1.28,1.155l-0.73,0.976
					c0,0-0.796-0.573-1.446-1.305c-0.677-0.706-1.182-1.547-1.182-1.547L241.059,39.144z"/>
			</g>
			<g>
				<path fill="#FFFFFF" d="M240.044,36.939c0,0,0.02,0.087,0.07,0.211c0.046,0.125,0.108,0.291,0.17,0.458
					c0.056,0.17,0.124,0.333,0.189,0.45c0.058,0.12,0.097,0.2,0.097,0.2c0.107,0.22-0.015,0.518-0.269,0.657
					c0,0-0.472,0.184-0.943,0.366c-0.478,0.173-0.955,0.343-0.955,0.343c-0.257,0.136-0.587,0.002-0.731-0.297
					c-0.033,0.014-0.475-1.208-0.475-1.208c-0.121-0.311,0.065-0.643,0.338-0.715c0,0,0.47-0.199,0.939-0.398
					c0.473-0.187,0.946-0.373,0.946-0.373C239.703,36.565,239.985,36.702,240.044,36.939z"/>
				<path fill="#FFFFFF" d="M239.808,35.958c0,0,0.028,0.214,0.119,0.523c0.04,0.156,0.087,0.339,0.137,0.535
					c0.07,0.188,0.145,0.39,0.22,0.592c0.137,0.409,0.364,0.78,0.492,1.076c0.169,0.275,0.283,0.459,0.283,0.459l-1.032,0.647
					c0,0-0.127-0.208-0.318-0.521c-0.149-0.333-0.401-0.755-0.559-1.218c-0.084-0.229-0.168-0.457-0.248-0.672
					c-0.058-0.221-0.111-0.428-0.157-0.604c-0.102-0.352-0.135-0.593-0.135-0.593L239.808,35.958z"/>
			</g>
			<g>
				<path fill="#FFFFFF" d="M239.678,33.531c0,0-0.019,0.355-0.038,0.712c0.019,0.356,0.038,0.712,0.038,0.712
					c0.001,0.247-0.19,0.475-0.479,0.513c0,0-0.511-0.002-1.021-0.003c-0.511-0.015-1.022-0.029-1.022-0.029
					c-0.289,0.031-0.541-0.214-0.558-0.545c0,0-0.015-0.323-0.031-0.647c0.016-0.324,0.031-0.647,0.031-0.647
					c0.017-0.331,0.269-0.576,0.558-0.544c0,0,0.511-0.015,1.022-0.029c0.511-0.003,1.021-0.004,1.021-0.004
					C239.488,33.057,239.679,33.285,239.678,33.531z"/>
				<path fill="#FFFFFF" d="M239.808,32.528c0,0-0.154,0.849-0.167,1.715c0.013,0.867,0.167,1.715,0.167,1.715l-1.198,0.226
					c0,0-0.176-0.962-0.188-1.94c0.012-0.979,0.188-1.938,0.188-1.938L239.808,32.528z"/>
			</g>
			<g>
				<path fill="#FFFFFF" d="M240.57,30.228c0,0-0.039,0.08-0.097,0.199c-0.065,0.118-0.133,0.282-0.189,0.451
					c-0.062,0.166-0.124,0.334-0.17,0.459c-0.051,0.123-0.07,0.21-0.07,0.21c-0.059,0.237-0.341,0.375-0.623,0.307
					c0,0-0.473-0.188-0.946-0.374c-0.47-0.198-0.939-0.396-0.939-0.396c-0.272-0.073-0.458-0.406-0.338-0.716
					c0,0,0.442-1.223,0.475-1.208c0.144-0.3,0.474-0.434,0.731-0.298c0,0,0.478,0.172,0.955,0.343
					c0.471,0.184,0.943,0.366,0.943,0.366C240.555,29.712,240.677,30.008,240.57,30.228z"/>
				<path fill="#FFFFFF" d="M241.059,29.343c0,0-0.113,0.184-0.283,0.459c-0.128,0.297-0.355,0.667-0.492,1.076
					c-0.075,0.202-0.15,0.403-0.22,0.594c-0.05,0.194-0.097,0.377-0.137,0.533c-0.091,0.311-0.119,0.523-0.119,0.523l-1.198-0.224
					c0,0,0.033-0.242,0.135-0.595c0.046-0.177,0.1-0.384,0.157-0.604c0.079-0.214,0.164-0.443,0.248-0.672
					c0.158-0.463,0.41-0.885,0.559-1.218c0.191-0.312,0.318-0.52,0.318-0.52L241.059,29.343z"/>
			</g>
			<g>
				<path fill="#FFFFFF" d="M242.606,27.469c-0.022-0.024-0.998,1.021-0.966,1.047c-0.146,0.195-0.462,0.22-0.7,0.052
					c0,0-0.371-0.345-0.743-0.691c-0.364-0.355-0.728-0.71-0.728-0.71c-0.233-0.173-0.261-0.53-0.06-0.795
					c0,0,0.218-0.24,0.436-0.479s0.445-0.471,0.445-0.471c0.245-0.223,0.603-0.226,0.793-0.007c0,0,0.384,0.333,0.768,0.667
					c0.375,0.341,0.749,0.683,0.749,0.683C242.786,26.986,242.789,27.304,242.606,27.469z"/>
				<path fill="#FFFFFF" d="M243.385,26.82c0,0-0.706,0.507-1.28,1.154c-0.6,0.625-1.046,1.368-1.046,1.368l-1.032-0.646
					c0,0,0.505-0.841,1.182-1.547c0.649-0.731,1.446-1.306,1.446-1.306L243.385,26.82z"/>
			</g>
			<g>
				<path fill="#FFFFFF" d="M245.501,25.622c-0.012-0.029-1.291,0.605-1.274,0.636c-0.21,0.126-0.515,0.031-0.677-0.209
					c0,0-0.222-0.456-0.443-0.91c-0.211-0.463-0.422-0.924-0.422-0.924c-0.157-0.245-0.052-0.587,0.232-0.757
					c-0.017-0.031,1.161-0.576,1.161-0.576c0.303-0.132,0.645,0.01,0.743,0.279c0,0,0.239,0.45,0.478,0.9
					c0.227,0.455,0.454,0.909,0.454,0.909C245.845,25.245,245.732,25.54,245.501,25.622z"/>
				<path fill="#FFFFFF" d="M246.461,25.3c0,0-0.84,0.217-1.607,0.618c-0.401,0.165-0.748,0.431-1.033,0.584
					c-0.261,0.189-0.436,0.318-0.436,0.318l-0.73-0.977c0,0,0.197-0.143,0.493-0.358c0.32-0.176,0.715-0.471,1.167-0.659
					c0.867-0.451,1.817-0.7,1.817-0.7L246.461,25.3z"/>
			</g>
			<g>
				<path fill="#FFFFFF" d="M248.871,24.946c0,0-0.357,0.018-0.714,0.036c-0.355,0.034-0.707,0.098-0.707,0.098
					c-0.244,0.029-0.493-0.159-0.555-0.437c0,0-0.044-0.509-0.087-1.019c-0.03-0.507-0.061-1.013-0.061-1.013
					c-0.057-0.284,0.164-0.56,0.491-0.609c0,0,0.319-0.059,0.642-0.083c0.323-0.016,0.646-0.033,0.646-0.033
					c0.33-0.018,0.597,0.212,0.592,0.509c0,0,0.062,0.508,0.123,1.017c0.05,0.507,0.099,1.015,0.099,1.015
					C249.327,24.725,249.117,24.927,248.871,24.946z"/>
				<path fill="#FFFFFF" d="M249.886,24.982c0,0-0.865-0.078-1.729,0c-0.428,0.054-0.858,0.109-1.173,0.183
					c-0.314,0.08-0.523,0.135-0.523,0.135l-0.33-1.174c0,0,0.236-0.061,0.59-0.151c0.356-0.082,0.842-0.147,1.325-0.206
					c0.975-0.089,1.95,0,1.95,0L249.886,24.982z"/>
			</g>
			<g>
				<path fill="#FFFFFF" d="M252.259,25.521c0,0-0.083-0.031-0.209-0.076c-0.124-0.051-0.292-0.109-0.468-0.145
					c-0.346-0.089-0.691-0.176-0.691-0.176c-0.243-0.036-0.408-0.301-0.367-0.589c0,0,0.14-0.488,0.28-0.978
					c0.152-0.487,0.304-0.975,0.304-0.975c0.046-0.279,0.358-0.495,0.678-0.403c0,0,1.257,0.317,1.246,0.352
					c0.313,0.112,0.479,0.427,0.37,0.696c0,0-0.123,0.491-0.246,0.983c-0.134,0.487-0.269,0.976-0.269,0.976
					C252.773,25.452,252.489,25.604,252.259,25.521z"/>
				<path fill="#FFFFFF" d="M253.19,25.918c0,0-0.195-0.094-0.486-0.235c-0.306-0.102-0.702-0.281-1.122-0.383
					c-0.416-0.116-0.836-0.213-1.161-0.245c-0.319-0.054-0.535-0.072-0.535-0.072l0.11-1.214c0,0,0.243,0.021,0.604,0.081
					c0.366,0.038,0.841,0.145,1.312,0.276c0.474,0.116,0.922,0.316,1.267,0.436c0.33,0.158,0.55,0.265,0.55,0.265L253.19,25.918z"/>
			</g>
			<g>
				<path fill="#FFFFFF" d="M255.213,27.268c0.021-0.024-1.117-0.89-1.14-0.855c-0.21-0.126-0.266-0.438-0.124-0.691
					c0,0,0.306-0.403,0.613-0.808c0.317-0.399,0.633-0.797,0.633-0.797c0.148-0.251,0.501-0.315,0.784-0.143
					c0,0,0.261,0.193,0.521,0.385c0.261,0.192,0.514,0.395,0.514,0.395c0.247,0.221,0.286,0.577,0.087,0.789
					c0,0-0.292,0.416-0.585,0.831c-0.301,0.408-0.603,0.815-0.603,0.815C255.711,27.396,255.395,27.433,255.213,27.268z"/>
				<path fill="#FFFFFF" d="M255.938,27.975c0,0-0.576-0.649-1.28-1.154c-0.682-0.534-1.468-0.902-1.468-0.902l0.54-1.092
					c0,0,0.887,0.417,1.659,1.018c0.794,0.572,1.446,1.306,1.446,1.306L255.938,27.975z"/>
			</g>
			<g>
				<path fill="#FFFFFF" d="M257.343,29.958c0.03-0.016-0.732-1.222-0.759-1.203c-0.148-0.195-0.085-0.508,0.138-0.693
					c0,0,0.431-0.268,0.861-0.534c0.438-0.257,0.875-0.515,0.875-0.515c0.228-0.18,0.578-0.111,0.777,0.154
					c0.027-0.02,0.69,1.098,0.69,1.098c0.161,0.29,0.056,0.644-0.203,0.769c0,0-0.424,0.282-0.848,0.564
					c-0.429,0.271-0.858,0.543-0.858,0.543C257.752,30.261,257.448,30.179,257.343,29.958z"/>
				<path fill="#FFFFFF" d="M257.759,30.878c0,0-0.299-0.813-0.775-1.535c-0.205-0.381-0.503-0.699-0.685-0.967
					c-0.217-0.24-0.361-0.401-0.361-0.401l0.896-0.825c0,0,0.163,0.182,0.407,0.454c0.208,0.3,0.54,0.663,0.775,1.093
					c0.537,0.817,0.877,1.737,0.877,1.737L257.759,30.878z"/>
			</g>
			<g>
				<path fill="#FFFFFF" d="M258.345,33.232c0,0-0.055-0.352-0.109-0.704c-0.056-0.351-0.163-0.691-0.163-0.691
					c-0.058-0.236,0.115-0.505,0.383-0.595c0,0,0.502-0.093,1.002-0.185c0.501-0.081,1.002-0.16,1.002-0.16
					c0.276-0.085,0.572,0.108,0.656,0.431c0,0,0.1,0.311,0.141,0.633c0.051,0.321,0.1,0.642,0.1,0.642
					c0.059,0.329-0.166,0.617-0.457,0.64c0,0-0.5,0.108-1,0.216c-0.5,0.096-1.001,0.192-1.001,0.192
					C258.605,33.665,258.369,33.477,258.345,33.232z"/>
				<path fill="#FFFFFF" d="M258.403,34.243c0,0-0.012-0.215-0.03-0.538c0.003-0.326-0.072-0.75-0.137-1.177
					c-0.081-0.422-0.198-0.838-0.29-1.146c-0.112-0.303-0.187-0.505-0.187-0.505l1.135-0.444c0,0,0.084,0.229,0.211,0.572
					c0.105,0.349,0.238,0.82,0.328,1.299c0.076,0.48,0.158,0.962,0.156,1.329c0.02,0.366,0.032,0.609,0.032,0.609H258.403z"/>
			</g>
		</g>
		<path fill="#FFFFFF" d="M249.021,42.147c-4.388,0-7.958-3.546-7.958-7.904s3.569-7.904,7.958-7.904s7.958,3.546,7.958,7.904
			S253.41,42.147,249.021,42.147z M249.021,26.968c-4.041,0-7.329,3.264-7.329,7.275c0,4.013,3.288,7.275,7.329,7.275
			c4.041,0,7.328-3.263,7.328-7.275C256.35,30.231,253.062,26.968,249.021,26.968z"/>
	</g>
	<polygon fill="#999999" points="304.634,140.05 306.634,143.253 336.961,152.388 336.458,149.636 	"/>
	<polygon fill="#999999" points="345.687,181.604 347.687,184.808 352.479,179.473 	"/>
	<path fill="#999999" d="M275.123,61.671l2,3.203l3.928-1.602C281.051,63.272,280.384,62.16,275.123,61.671z"/>
	<polyline fill="#6D6D6D" points="276.593,32.924 279.792,45.924 264.03,74.388 260.831,61.388 275.861,34.244 	"/>
</g>
</svg>
