<?xml version="1.0" encoding="utf-8"?>
<!-- Generator: Adobe Illustrator 16.0.0, SVG Export Plug-In . SVG Version: 6.00 Build 0)  -->
<!DOCTYPE svg PUBLIC "-//W3C//DTD SVG 1.1//EN" "http://www.w3.org/Graphics/SVG/1.1/DTD/svg11.dtd">
<svg version="1.1" id="图层_1" xmlns="http://www.w3.org/2000/svg" xmlns:xlink="http://www.w3.org/1999/xlink" x="0px" y="0px"
	 width="530px" height="230px" viewBox="0 0 530 230" enable-background="new 0 0 530 230" xml:space="preserve">
<g>
	<path fill="#999999" d="M244.288,189.17l-0.118-33.476c-18.171-13.682-24.119-38.952-12.991-59.584
		c10.48-19.428,32.711-28.447,53.149-23.031l28.402-18.221l-0.118-33.26c-49.082-20.484-106.656-0.803-132.44,46.998
		c-26.342,48.834-9.932,109.273,36.367,138.375L244.288,189.17z"/>
	<path fill="#D2A2F1" d="M245.65,183.365l-0.118-33.476c-18.171-13.682-24.119-38.953-12.991-59.584
		c10.48-19.428,32.711-28.447,53.149-23.031l28.402-18.221l-0.118-33.26c-49.082-20.484-106.656-0.803-132.44,46.998
		c-26.342,48.834-9.932,109.273,36.367,138.375L245.65,183.365z"/>
	<path fill="#999999" d="M320.53,25.268c-1.314-0.709-2.638-1.379-3.966-2.025l0.46,34.036l-26.613,17.704
		c0.876,0.404,1.745,0.829,2.604,1.293c22.752,12.272,31.248,40.667,18.975,63.418c-12.272,22.752-40.666,31.248-63.418,18.975
		c-0.149-0.08-0.291-0.17-0.438-0.251l0.448,33.173l-27.335,18.186c50.892,27.319,114.316,8.293,141.751-42.568
		C390.467,116.285,371.453,52.735,320.53,25.268z"/>
	<path fill="#009FE8" d="M324.475,21.323c-1.314-0.709-2.638-1.378-3.966-2.024l0.46,34.036l-26.613,17.703
		c0.876,0.406,1.745,0.83,2.604,1.294c22.752,12.272,31.248,40.665,18.975,63.418c-12.272,22.753-40.666,31.247-63.418,18.976
		c-0.149-0.081-0.291-0.17-0.438-0.252l0.448,33.173l-27.335,18.185c50.892,27.32,114.316,8.294,141.751-42.566
		C394.411,112.34,375.397,48.792,324.475,21.323z"/>
	<g>
		<path fill="#FFFFFF" d="M317.273,173.95l1.406,1.963c-3.711,2.051-7.178,3.701-10.4,4.951c-0.254-0.625-0.654-1.357-1.201-2.197
			C311.16,177.183,314.559,175.61,317.273,173.95z M331.043,152.007v3.633h4.424v2.109h-4.424v13.623h5.068v2.109h-28.887v-2.109
			h5.01v-13.623h-4.424v-2.109h4.424v-3.633h2.256v3.633h14.297v-3.633H331.043z M314.49,160.913h14.297v-3.164H314.49V160.913z
			 M314.49,166.128h14.297v-3.164H314.49V166.128z M314.49,171.372h14.297v-3.193H314.49V171.372z M324.422,175.913l1.289-1.992
			c4.727,1.895,8.223,3.398,10.488,4.512l-1.23,2.285C331.629,178.979,328.113,177.378,324.422,175.913z"/>
	</g>
	<g>
		<path fill="#FFFFFF" d="M338.555,135.27c3.027-4.082,5.322-8.701,6.885-13.857l2.373,0.791c-0.957,2.666-1.992,5.127-3.105,7.383
			v20.596h-2.227v-16.553c-0.947,1.533-1.943,2.949-2.988,4.248C339.199,137.037,338.887,136.168,338.555,135.27z M356.367,121.705
			h2.285v7.28l7.617-1.743c-0.137,4.336-0.244,7.334-0.322,8.994c-0.098,1.738-0.381,2.881-0.85,3.428
			c-0.527,0.664-1.465,0.996-2.813,0.996c-0.605,0-1.377-0.02-2.314-0.059c-0.117-0.742-0.264-1.543-0.439-2.402
			c0.84,0.098,1.68,0.166,2.52,0.205c1.055,0.059,1.602-0.703,1.641-2.285c0.098-1.641,0.166-3.691,0.205-6.152l-5.244,1.216v12.993
			h-2.285v-12.451l-4.922,1.143v11.836c0,1.641,0.811,2.461,2.432,2.461h8.145c1.777,0,2.793-0.654,3.047-1.963
			c0.254-1.25,0.469-2.764,0.645-4.541c0.82,0.313,1.631,0.586,2.432,0.82c-0.254,1.855-0.537,3.418-0.85,4.688
			c-0.488,2.148-2.119,3.223-4.893,3.223h-8.994c-2.832,0-4.248-1.406-4.248-4.219v-11.777l-2.637,0.615l-0.381-2.168l3.018-0.688
			v-6.021h2.285v5.508l4.922-1.128V121.705z"/>
	</g>
	<g>
		<path fill="#FFFFFF" d="M185.174,77.099c-0.664,2.266-2.064,4.544-4.199,6.836c-0.313-0.417-0.703-0.873-1.172-1.367
			c1.953-2.044,3.229-4.102,3.828-6.172c0.586-1.777,0.931-4.688,1.035-8.73h-3.965v-1.465h14.355v1.484l-1.895,3.809h3.613v1.387
			c-1.029,2.598-2.406,4.779-4.131,6.543c1.934,1.38,4.117,2.305,6.553,2.773c-0.456,0.638-0.795,1.198-1.016,1.68
			c-2.832-0.898-5.088-2.008-6.768-3.33c-1.765,1.439-3.949,2.646-6.553,3.623c-0.209-0.377-0.534-0.853-0.977-1.426
			c2.525-0.84,4.632-1.937,6.318-3.291c-1.777-1.797-3.178-4.027-4.199-6.689C185.809,74.495,185.531,75.94,185.174,77.099z
			 M191.268,71.689l2.012-4.023h-6.973c-0.014,0.723-0.036,1.416-0.068,2.08c1.295,3.737,3.014,6.621,5.156,8.652
			c1.627-1.582,2.828-3.395,3.604-5.439h-3.73V71.689z"/>
		<path fill="#FFFFFF" d="M208.494,76.123c0.039,0.846,0.091,1.465,0.156,1.855c-3.125,1.966-5.072,3.203-5.84,3.711
			c-0.43,0.299-0.84,0.625-1.23,0.977l-1.113-1.543c0.611-0.547,0.911-1.205,0.898-1.973V65.576h1.602v13.965
			C204.398,78.681,206.241,77.542,208.494,76.123z M214.549,65.302h1.602v3.516c0,3.6-0.463,6.458-1.387,8.574
			c1.614,1.667,3.138,3.307,4.57,4.922l-1.348,1.23c-1.335-1.654-2.666-3.226-3.994-4.717c-1.504,2.285-3.767,4.072-6.787,5.361
			c-0.3-0.404-0.651-0.853-1.055-1.348c3.281-1.51,5.488-3.262,6.621-5.254c1.211-1.953,1.803-4.889,1.777-8.809V65.302z
			 M207.693,64.853c0.872,1.38,1.842,3.034,2.91,4.961l-1.523,0.859c-1.016-2.005-1.94-3.698-2.773-5.078L207.693,64.853z"/>
		<path fill="#FFFFFF" d="M219.998,81.318h7.656V65.185h1.777v5.879h8.027v1.563h-8.027v8.691h9.57v1.563h-19.004V81.318z"/>
	</g>
	<g>
		<path fill="#FFFFFF" d="M173.053,106.759h9.141v-1.094l3.73-2.109h-9.18v-1.426h11.465v1.641l-4.434,2.559v0.43h8.398v1.426
			h-8.398v2.949c0,1.537-0.775,2.305-2.324,2.305c-0.859,0-1.869-0.013-3.027-0.039c-0.039-0.443-0.117-0.996-0.234-1.66
			c1.041,0.104,2.037,0.163,2.988,0.176c0.677,0.013,1.016-0.345,1.016-1.074v-2.656h-9.141V106.759z M173.717,98.791h17.813v3.945
			h-1.543v-2.52H175.26v2.52h-1.543V98.791z M175.26,95.607l1.152-0.84c0.794,0.873,1.575,1.816,2.344,2.832l-1.328,0.938
			C176.698,97.43,175.976,96.453,175.26,95.607z M180.533,95.021l1.27-0.742c0.794,1.042,1.529,2.103,2.207,3.184l-1.406,0.801
			C182.03,97.248,181.34,96.167,180.533,95.021z M186.08,97.658c0.872-0.938,1.692-1.947,2.461-3.027l1.406,1.035
			c-0.847,0.963-1.752,1.973-2.715,3.027L186.08,97.658z"/>
		<path fill="#FFFFFF" d="M196.744,102.365c-0.014,2.877-0.202,5.084-0.566,6.621c-0.378,1.588-1.094,3.138-2.148,4.648
			c-0.326-0.443-0.717-0.885-1.172-1.328c0.885-1.276,1.478-2.559,1.777-3.848c0.299-1.25,0.449-3.164,0.449-5.742v-7.07h17.031
			v1.504h-15.371V102.365z M197.818,101.369h4.248c0.032-1.178,0.049-2.363,0.049-3.555h1.641c-0.014,1.191-0.036,2.376-0.068,3.555
			h7.041c-0.156,3.463-0.307,6.322-0.449,8.574c-0.209,1.992-1.218,3.008-3.027,3.047c-0.977,0-2.123-0.033-3.438-0.098
			c-0.065-0.495-0.163-1.081-0.293-1.758c1.289,0.143,2.428,0.215,3.418,0.215c1.041-0.013,1.634-0.612,1.777-1.797
			c0.143-1.875,0.26-4.102,0.352-6.68h-5.43c-0.111,2.643-0.521,4.635-1.23,5.977c-0.951,1.784-2.644,3.385-5.078,4.805
			c-0.365-0.43-0.749-0.873-1.152-1.328c2.396-1.471,3.958-2.897,4.688-4.277c0.677-1.211,1.061-2.936,1.152-5.176h-4.199V101.369z"
			/>
	</g>
	<g>
		<path fill="#FFFFFF" d="M193.959,149.857c0.813,0.531,1.658,0.797,2.539,0.797c0.833,0,1.505-0.232,2.016-0.699
			c0.51-0.466,0.766-1.084,0.766-1.855c0-0.775-0.26-1.377-0.777-1.805c-0.519-0.427-1.27-0.641-2.254-0.641
			c-0.475,0-1.112,0.037-1.914,0.109v-6.148h5.953v1.352h-4.531v3.422c0.453-0.025,0.794-0.039,1.023-0.039
			c1.275,0,2.271,0.323,2.984,0.969c0.713,0.646,1.07,1.537,1.07,2.672c0,1.172-0.383,2.12-1.148,2.844
			c-0.766,0.725-1.823,1.086-3.172,1.086c-1.131,0-1.982-0.167-2.555-0.5V149.857z"/>
		<path fill="#FFFFFF" d="M202.67,145.904c0-2.135,0.354-3.751,1.063-4.848c0.708-1.096,1.734-1.645,3.078-1.645
			c2.563,0,3.844,2.068,3.844,6.203c0,2.042-0.361,3.604-1.082,4.684c-0.722,1.081-1.733,1.621-3.035,1.621
			c-1.229,0-2.182-0.513-2.855-1.539C203.007,149.355,202.67,147.863,202.67,145.904z M204.232,145.834
			c0,3.214,0.814,4.82,2.445,4.82c1.604,0,2.406-1.633,2.406-4.898c0-3.38-0.787-5.07-2.359-5.07
			C205.063,140.686,204.232,142.402,204.232,145.834z"/>
		<path fill="#FFFFFF" d="M212.021,142.67c0-0.989,0.264-1.775,0.793-2.359c0.528-0.583,1.24-0.875,2.137-0.875
			c0.859,0,1.529,0.269,2.012,0.805c0.481,0.537,0.723,1.284,0.723,2.242c0,0.953-0.266,1.727-0.797,2.32s-1.237,0.891-2.117,0.891
			c-0.834,0-1.5-0.275-2-0.828C212.271,144.313,212.021,143.582,212.021,142.67z M213.225,142.592c0,0.672,0.146,1.19,0.438,1.555
			c0.291,0.365,0.689,0.547,1.195,0.547c0.521,0,0.923-0.188,1.207-0.566c0.283-0.377,0.426-0.91,0.426-1.598
			c0-0.672-0.14-1.191-0.418-1.559c-0.279-0.367-0.671-0.551-1.176-0.551c-0.516,0-0.924,0.191-1.223,0.574
			C213.374,141.377,213.225,141.91,213.225,142.592z M222.959,139.615l-7.773,12.18h-1.305l7.773-12.18H222.959z M219.271,148.881
			c0-0.989,0.264-1.779,0.793-2.371c0.528-0.591,1.238-0.887,2.129-0.887c0.854,0,1.523,0.27,2.008,0.809s0.727,1.299,0.727,2.277
			c0,0.948-0.269,1.718-0.805,2.309c-0.537,0.592-1.237,0.887-2.102,0.887c-0.839,0-1.507-0.279-2.004-0.84
			C219.52,150.505,219.271,149.777,219.271,148.881z M220.467,148.811c0,0.656,0.146,1.168,0.438,1.535
			c0.291,0.367,0.689,0.551,1.195,0.551c0.521,0,0.923-0.189,1.207-0.57c0.283-0.38,0.426-0.911,0.426-1.594
			c0-0.677-0.143-1.195-0.426-1.555c-0.284-0.359-0.674-0.539-1.168-0.539c-0.531,0-0.943,0.191-1.234,0.574
			C220.612,147.596,220.467,148.129,220.467,148.811z"/>
	</g>
	<g>
		<path fill="#FFFFFF" d="M329.066,81.503c0.813,0.531,1.659,0.797,2.539,0.797c0.833,0,1.505-0.233,2.016-0.699
			c0.511-0.466,0.766-1.084,0.766-1.855c0-0.776-0.259-1.377-0.777-1.805c-0.519-0.427-1.27-0.641-2.254-0.641
			c-0.474,0-1.112,0.037-1.914,0.109v-6.148h5.953v1.352h-4.531v3.422c0.453-0.026,0.794-0.039,1.023-0.039
			c1.276,0,2.271,0.323,2.984,0.969c0.714,0.646,1.07,1.537,1.07,2.672c0,1.172-0.383,2.12-1.148,2.844
			c-0.766,0.724-1.823,1.086-3.172,1.086c-1.13,0-1.981-0.167-2.555-0.5V81.503z"/>
		<path fill="#FFFFFF" d="M337.777,77.55c0-2.135,0.354-3.751,1.063-4.848c0.708-1.096,1.734-1.645,3.078-1.645
			c2.563,0,3.844,2.068,3.844,6.203c0,2.042-0.36,3.603-1.082,4.684c-0.722,1.081-1.733,1.621-3.035,1.621
			c-1.229,0-2.181-0.513-2.855-1.539C338.114,81.001,337.777,79.509,337.777,77.55z M339.34,77.48c0,3.214,0.815,4.82,2.445,4.82
			c1.604,0,2.406-1.633,2.406-4.898c0-3.38-0.786-5.07-2.359-5.07C340.171,72.332,339.34,74.048,339.34,77.48z"/>
		<path fill="#FFFFFF" d="M347.129,74.316c0-0.989,0.265-1.776,0.793-2.359c0.528-0.583,1.241-0.875,2.137-0.875
			c0.859,0,1.53,0.269,2.012,0.805c0.481,0.537,0.723,1.284,0.723,2.242c0,0.953-0.266,1.727-0.797,2.32s-1.237,0.891-2.117,0.891
			c-0.833,0-1.5-0.276-2-0.828C347.379,75.959,347.129,75.228,347.129,74.316z M348.332,74.238c0,0.672,0.146,1.19,0.438,1.555
			c0.292,0.365,0.69,0.547,1.195,0.547c0.521,0,0.923-0.188,1.207-0.566c0.284-0.377,0.426-0.91,0.426-1.598
			c0-0.672-0.14-1.191-0.418-1.559s-0.671-0.551-1.176-0.551c-0.516,0-0.923,0.191-1.223,0.574S348.332,73.556,348.332,74.238z
			 M358.066,71.261l-7.773,12.18h-1.305l7.773-12.18H358.066z M354.379,80.527c0-0.989,0.265-1.78,0.793-2.371
			c0.528-0.591,1.238-0.887,2.129-0.887c0.854,0,1.523,0.27,2.008,0.809s0.727,1.298,0.727,2.277c0,0.948-0.269,1.718-0.805,2.309
			c-0.536,0.591-1.237,0.887-2.102,0.887c-0.839,0-1.507-0.28-2.004-0.84C354.628,82.151,354.379,81.423,354.379,80.527z
			 M355.574,80.457c0,0.656,0.146,1.168,0.438,1.535s0.69,0.551,1.195,0.551c0.521,0,0.923-0.19,1.207-0.57
			c0.284-0.38,0.426-0.911,0.426-1.594c0-0.677-0.142-1.195-0.426-1.555s-0.673-0.539-1.168-0.539c-0.531,0-0.942,0.191-1.234,0.574
			S355.574,79.774,355.574,80.457z"/>
	</g>
	<g>
		<path fill="#333333" d="M11.583,31.553c4.297-1.912,6.614-4.781,6.953-8.609h-6.672v-1.219h6.727
			c0.025-1.401,0.039-2.813,0.039-4.234h1.359c0,1.401-0.014,2.813-0.039,4.234h6.93v1.219h-6.953
			c0.739,4.162,3.166,6.906,7.281,8.234c-0.531,0.51-0.928,0.932-1.188,1.266c-3.391-1.365-5.607-3.794-6.648-7.289
			c-0.813,3.162-3.086,5.695-6.82,7.602C12.343,32.475,12.021,32.074,11.583,31.553z"/>
		<path fill="#333333" d="M31.474,28.1c1.38,0.615,2.869,1.299,4.469,2.055l3.531-3.055h-8.75v-1.156l0.758-1.938h-3.727v-1.188
			h4.195l0.844-2.141h-4.086v-1.188h4.555l0.82-2.078h1.422l-0.82,2.078h7.398v1.188h-7.867l-0.844,2.141h9.711v1.188h-10.18
			l-0.758,1.922h9.109v1.219l-4.156,3.555c0.697,0.333,1.416,0.68,2.156,1.039l-0.766,1.188c-2.615-1.375-5.172-2.635-7.672-3.781
			L31.474,28.1z"/>
		<path fill="#333333" d="M47.911,27.209c-0.531,1.813-1.651,3.635-3.359,5.469c-0.25-0.333-0.563-0.698-0.938-1.094
			c1.563-1.635,2.583-3.281,3.063-4.938c0.469-1.422,0.744-3.75,0.828-6.984h-3.172v-1.172h11.484v1.188l-1.516,3.047h2.891v1.109
			c-0.823,2.078-1.925,3.823-3.305,5.234c1.547,1.104,3.294,1.844,5.242,2.219c-0.365,0.51-0.636,0.958-0.813,1.344
			c-2.266-0.719-4.07-1.607-5.414-2.664c-1.412,1.151-3.159,2.117-5.242,2.898c-0.167-0.302-0.428-0.682-0.781-1.141
			c2.021-0.672,3.705-1.549,5.055-2.633c-1.422-1.438-2.542-3.221-3.359-5.352C48.419,25.126,48.197,26.282,47.911,27.209z
			 M52.786,22.881l1.609-3.219h-5.578c-0.011,0.578-0.029,1.133-0.055,1.664c1.036,2.99,2.411,5.297,4.125,6.922
			c1.302-1.266,2.263-2.716,2.883-4.352h-2.984V22.881z"/>
		<path fill="#333333" d="M66.567,26.428c0.031,0.677,0.072,1.172,0.125,1.484c-2.5,1.573-4.058,2.563-4.672,2.969
			c-0.344,0.24-0.672,0.5-0.984,0.781l-0.891-1.234c0.489-0.438,0.729-0.963,0.719-1.578V17.991h1.281v11.172
			C63.291,28.475,64.765,27.563,66.567,26.428z M71.411,17.772h1.281v2.813c0,2.88-0.37,5.167-1.109,6.859
			c1.291,1.333,2.51,2.646,3.656,3.938l-1.078,0.984c-1.068-1.323-2.133-2.581-3.195-3.773c-1.203,1.828-3.014,3.258-5.43,4.289
			c-0.24-0.323-0.521-0.682-0.844-1.078c2.625-1.208,4.391-2.609,5.297-4.203c0.969-1.563,1.442-3.912,1.422-7.047V17.772z
			 M65.927,17.413c0.697,1.104,1.474,2.427,2.328,3.969l-1.219,0.688c-0.813-1.604-1.553-2.958-2.219-4.063L65.927,17.413z"/>
		<path fill="#333333" d="M75.771,30.584h6.125V17.678h1.422v4.703h6.422v1.25h-6.422v6.953h7.656v1.25H75.771V30.584z"/>
		<path fill="#333333" d="M91.724,27.303h7.313v-0.875l2.984-1.688h-7.344V23.6h9.172v1.313l-3.547,2.047v0.344h6.719v1.141h-6.719
			v2.359c0,1.229-0.62,1.844-1.859,1.844c-0.688,0-1.495-0.01-2.422-0.031c-0.031-0.354-0.094-0.797-0.188-1.328
			c0.833,0.083,1.63,0.13,2.391,0.141c0.541,0.01,0.813-0.276,0.813-0.859v-2.125h-7.313V27.303z M92.255,20.928h14.25v3.156h-1.234
			v-2.016H93.489v2.016h-1.234V20.928z M93.489,18.381l0.922-0.672c0.635,0.698,1.26,1.453,1.875,2.266l-1.063,0.75
			C94.64,19.84,94.062,19.059,93.489,18.381z M97.708,17.913l1.016-0.594c0.635,0.833,1.224,1.682,1.766,2.547l-1.125,0.641
			C98.905,19.694,98.354,18.829,97.708,17.913z M102.146,20.022c0.697-0.75,1.354-1.557,1.969-2.422l1.125,0.828
			c-0.678,0.771-1.401,1.578-2.172,2.422L102.146,20.022z"/>
		<path fill="#333333" d="M110.677,23.788c-0.011,2.302-0.162,4.068-0.453,5.297c-0.303,1.271-0.875,2.51-1.719,3.719
			c-0.261-0.354-0.573-0.708-0.938-1.063c0.708-1.021,1.182-2.047,1.422-3.078c0.239-1,0.359-2.531,0.359-4.594v-5.656h13.625v1.203
			h-12.297V23.788z M111.536,22.991h3.398c0.025-0.943,0.039-1.891,0.039-2.844h1.313c-0.011,0.953-0.029,1.901-0.055,2.844h5.633
			c-0.125,2.771-0.245,5.057-0.359,6.859c-0.167,1.594-0.975,2.406-2.422,2.438c-0.781,0-1.698-0.026-2.75-0.078
			c-0.053-0.396-0.131-0.865-0.234-1.406c1.031,0.115,1.942,0.172,2.734,0.172c0.833-0.01,1.307-0.49,1.422-1.438
			c0.114-1.5,0.208-3.281,0.281-5.344h-4.344c-0.089,2.115-0.417,3.708-0.984,4.781c-0.761,1.427-2.115,2.708-4.063,3.844
			c-0.292-0.344-0.6-0.698-0.922-1.063c1.916-1.177,3.166-2.318,3.75-3.422c0.541-0.969,0.849-2.349,0.922-4.141h-3.359V22.991z"/>
		<path fill="#333333" d="M131.38,21.874c0.275,0,0.513,0.096,0.711,0.289c0.197,0.193,0.297,0.424,0.297,0.695
			s-0.097,0.504-0.289,0.699c-0.193,0.195-0.433,0.293-0.719,0.293c-0.287,0-0.526-0.098-0.719-0.293
			c-0.193-0.195-0.289-0.428-0.289-0.699s0.099-0.502,0.297-0.695C130.866,21.97,131.104,21.874,131.38,21.874z M131.38,28.913
			c0.275,0,0.513,0.096,0.711,0.289c0.197,0.193,0.297,0.427,0.297,0.703c0,0.281-0.1,0.517-0.297,0.707
			c-0.198,0.19-0.436,0.285-0.711,0.285c-0.276,0-0.514-0.095-0.711-0.285c-0.198-0.19-0.297-0.426-0.297-0.707
			c0-0.276,0.099-0.51,0.297-0.703C130.866,29.009,131.104,28.913,131.38,28.913z"/>
		<path fill="#333333" d="M140.747,28.842c0.813,0.531,1.658,0.797,2.539,0.797c0.833,0,1.505-0.233,2.016-0.699
			c0.51-0.466,0.766-1.084,0.766-1.855c0-0.776-0.26-1.377-0.777-1.805c-0.519-0.427-1.27-0.641-2.254-0.641
			c-0.475,0-1.112,0.037-1.914,0.109V18.6h5.953v1.352h-4.531v3.422c0.453-0.026,0.794-0.039,1.023-0.039
			c1.275,0,2.271,0.323,2.984,0.969c0.713,0.646,1.07,1.537,1.07,2.672c0,1.172-0.383,2.12-1.148,2.844s-1.823,1.086-3.172,1.086
			c-1.131,0-1.982-0.167-2.555-0.5V28.842z"/>
		<path fill="#333333" d="M149.458,24.889c0-2.135,0.354-3.751,1.063-4.848c0.708-1.096,1.734-1.645,3.078-1.645
			c2.563,0,3.844,2.068,3.844,6.203c0,2.042-0.361,3.603-1.082,4.684c-0.722,1.081-1.733,1.621-3.035,1.621
			c-1.229,0-2.182-0.513-2.855-1.539C149.795,28.34,149.458,26.848,149.458,24.889z M151.021,24.819c0,3.213,0.814,4.82,2.445,4.82
			c1.604,0,2.406-1.633,2.406-4.898c0-3.38-0.787-5.07-2.359-5.07C151.851,19.67,151.021,21.387,151.021,24.819z"/>
		<path fill="#333333" d="M158.38,31.459c4.541-2.625,6.942-7.229,7.203-13.813h1.375c-0.058,1.115-0.167,2.177-0.328,3.188
			c1.291,5.208,3.719,8.635,7.281,10.281c-0.438,0.479-0.823,0.932-1.156,1.359c-3.094-1.75-5.3-4.846-6.617-9.289
			c-1.141,4.292-3.398,7.445-6.773,9.461C159.083,32.262,158.755,31.866,158.38,31.459z"/>
	</g>
	<g>
		<path fill="#333333" d="M14.021,47.273v4.688h4.406v1.172h-4.406v6.641c1.083-0.458,2.5-1.104,4.25-1.938
			c0,0.49,0.021,0.958,0.063,1.406c-1.531,0.615-2.828,1.192-3.891,1.734c-0.459,0.239-0.881,0.526-1.266,0.859l-0.953-1.219
			c0.333-0.25,0.5-0.63,0.5-1.141V47.273H14.021z M19.427,46.867h1.297v6.609c2.025-1.463,3.692-2.995,5-4.594l1.109,0.828
			c-1.688,1.859-3.725,3.628-6.109,5.305v4.523c0,0.688,0.302,1.031,0.906,1.031h2.672c0.688,0,1.083-0.308,1.188-0.922
			c0.125-0.792,0.219-1.661,0.281-2.609c0.438,0.167,0.885,0.318,1.344,0.453c-0.094,0.969-0.219,1.839-0.375,2.609
			c-0.219,1.073-0.912,1.609-2.078,1.609h-3.438c-1.198,0-1.797-0.651-1.797-1.953V46.867z"/>
		<path fill="#333333" d="M27.583,54.429c1.344-2.281,2.338-4.807,2.984-7.578l1.156,0.219c-0.276,1.167-0.625,2.318-1.047,3.453
			v11.656h-1.063v-9.141c-0.459,0.953-0.969,1.896-1.531,2.828C27.958,55.45,27.791,54.971,27.583,54.429z M33.317,55.554
			l0.625-0.875c0.474,0.323,0.986,0.701,1.539,1.133c0.4-1.067,0.68-2.227,0.836-3.477h-2.195c-0.589,1.906-1.315,3.438-2.18,4.594
			c-0.219-0.333-0.469-0.656-0.75-0.969c1.177-1.692,2.049-4.063,2.617-7.109h-1.695v-1.094h6.047v1.094h-3.188
			c-0.162,0.854-0.342,1.656-0.539,2.406h3.039v1.078c-0.428,4.104-2.1,7.396-5.016,9.875c-0.229-0.313-0.516-0.651-0.859-1.016
			c1.474-1.188,2.614-2.62,3.422-4.297C34.505,56.476,33.937,56.028,33.317,55.554z M41.302,46.898h1.141v13.047
			c0,0.792-0.125,1.333-0.375,1.625c-0.219,0.271-0.656,0.411-1.313,0.422c-0.448,0.01-1.172,0-2.172-0.031
			c-0.042-0.427-0.115-0.859-0.219-1.297c0.802,0.083,1.458,0.125,1.969,0.125c0.406,0.01,0.666-0.063,0.781-0.219
			c0.125-0.136,0.188-0.469,0.188-1V46.898z M39.646,58.523h-1.109v-9.172h1.109V58.523z"/>
		<path fill="#333333" d="M51.38,51.328c0.275,0,0.513,0.097,0.711,0.289c0.197,0.193,0.297,0.425,0.297,0.695
			c0,0.271-0.097,0.504-0.289,0.699c-0.193,0.195-0.433,0.293-0.719,0.293c-0.287,0-0.526-0.098-0.719-0.293
			c-0.193-0.195-0.289-0.428-0.289-0.699c0-0.271,0.099-0.502,0.297-0.695C50.866,51.424,51.104,51.328,51.38,51.328z M51.38,58.367
			c0.275,0,0.513,0.097,0.711,0.289c0.197,0.193,0.297,0.427,0.297,0.703c0,0.281-0.1,0.517-0.297,0.707
			c-0.198,0.19-0.436,0.285-0.711,0.285c-0.276,0-0.514-0.095-0.711-0.285c-0.198-0.19-0.297-0.426-0.297-0.707
			c0-0.276,0.099-0.51,0.297-0.703C50.866,58.463,51.104,58.367,51.38,58.367z"/>
		<path fill="#333333" d="M60.747,58.296c0.813,0.531,1.658,0.797,2.539,0.797c0.833,0,1.505-0.233,2.016-0.699
			c0.51-0.466,0.766-1.084,0.766-1.855c0-0.776-0.26-1.377-0.777-1.805c-0.519-0.427-1.27-0.641-2.254-0.641
			c-0.475,0-1.112,0.037-1.914,0.109v-6.148h5.953v1.352h-4.531v3.422c0.453-0.026,0.794-0.039,1.023-0.039
			c1.275,0,2.271,0.323,2.984,0.969c0.713,0.646,1.07,1.537,1.07,2.672c0,1.172-0.383,2.12-1.148,2.844
			c-0.766,0.724-1.823,1.086-3.172,1.086c-1.131,0-1.982-0.167-2.555-0.5V58.296z"/>
		<path fill="#333333" d="M69.458,54.343c0-2.135,0.354-3.751,1.063-4.848c0.708-1.096,1.734-1.645,3.078-1.645
			c2.563,0,3.844,2.068,3.844,6.203c0,2.042-0.361,3.603-1.082,4.684c-0.722,1.081-1.733,1.621-3.035,1.621
			c-1.229,0-2.182-0.513-2.855-1.539C69.795,57.794,69.458,56.302,69.458,54.343z M71.021,54.273c0,3.214,0.814,4.82,2.445,4.82
			c1.604,0,2.406-1.633,2.406-4.898c0-3.38-0.787-5.07-2.359-5.07C71.851,49.125,71.021,50.841,71.021,54.273z"/>
		<path fill="#333333" d="M78.81,51.109c0-0.989,0.264-1.776,0.793-2.359c0.528-0.583,1.24-0.875,2.137-0.875
			c0.859,0,1.529,0.269,2.012,0.805c0.481,0.537,0.723,1.284,0.723,2.242c0,0.953-0.266,1.727-0.797,2.32s-1.237,0.891-2.117,0.891
			c-0.834,0-1.5-0.276-2-0.828C79.06,52.752,78.81,52.021,78.81,51.109z M80.013,51.031c0,0.672,0.146,1.19,0.438,1.555
			c0.291,0.365,0.689,0.547,1.195,0.547c0.521,0,0.923-0.188,1.207-0.566c0.283-0.377,0.426-0.91,0.426-1.598
			c0-0.672-0.14-1.191-0.418-1.559c-0.279-0.367-0.671-0.551-1.176-0.551c-0.516,0-0.924,0.191-1.223,0.574
			C80.162,49.816,80.013,50.349,80.013,51.031z M89.747,48.054l-7.773,12.18h-1.305l7.773-12.18H89.747z M86.06,57.32
			c0-0.989,0.264-1.78,0.793-2.371c0.528-0.591,1.238-0.887,2.129-0.887c0.854,0,1.523,0.27,2.008,0.809s0.727,1.298,0.727,2.277
			c0,0.948-0.269,1.718-0.805,2.309c-0.537,0.591-1.237,0.887-2.102,0.887c-0.839,0-1.507-0.28-2.004-0.84
			C86.308,58.944,86.06,58.216,86.06,57.32z M87.255,57.25c0,0.656,0.146,1.168,0.438,1.535c0.291,0.367,0.689,0.551,1.195,0.551
			c0.521,0,0.923-0.19,1.207-0.57c0.283-0.38,0.426-0.911,0.426-1.594c0-0.677-0.143-1.195-0.426-1.555
			c-0.284-0.359-0.674-0.539-1.168-0.539c-0.531,0-0.943,0.191-1.234,0.574C87.4,56.035,87.255,56.567,87.255,57.25z"/>
	</g>
	<polyline fill="none" stroke="#685046" stroke-dasharray="16.2598" points="167.386,151.212 98.725,151.212 83.366,63.309 	"/>
	<polyline fill="none" stroke="#685046" stroke-dasharray="16.2598" points="351.8,192.798 434.08,192.798 452.485,104.894 	"/>
	<rect x="11.899" y="37.899" fill="#D2A2F1" width="160.784" height="2.668"/>
	<g>
		<path fill="#333333" d="M439.208,59.489l0.75,1.047c-1.979,1.094-3.828,1.974-5.547,2.641c-0.136-0.333-0.35-0.724-0.641-1.172
			C435.947,61.212,437.76,60.375,439.208,59.489z M446.552,47.786v1.938h2.359v1.125h-2.359v7.266h2.703v1.125h-15.406v-1.125h2.672
			v-7.266h-2.359v-1.125h2.359v-1.938h1.203v1.938h7.625v-1.938H446.552z M437.724,52.536h7.625v-1.688h-7.625V52.536z
			 M437.724,55.317h7.625v-1.688h-7.625V55.317z M437.724,58.114h7.625v-1.703h-7.625V58.114z M443.021,60.536l0.688-1.063
			c2.521,1.011,4.385,1.813,5.594,2.406l-0.656,1.219C446.864,62.171,444.989,61.317,443.021,60.536z"/>
		<path fill="#333333" d="M449.661,55.083c1.614-2.177,2.838-4.641,3.672-7.391l1.266,0.422c-0.511,1.422-1.063,2.734-1.656,3.938
			v10.984h-1.188v-8.828c-0.506,0.818-1.037,1.573-1.594,2.266C450.005,56.025,449.838,55.562,449.661,55.083z M459.161,47.848
			h1.219v3.883l4.063-0.93c-0.073,2.313-0.131,3.912-0.172,4.797c-0.053,0.927-0.203,1.537-0.453,1.828
			c-0.281,0.354-0.781,0.531-1.5,0.531c-0.323,0-0.734-0.01-1.234-0.031c-0.063-0.396-0.141-0.823-0.234-1.281
			c0.447,0.052,0.896,0.089,1.344,0.109c0.563,0.031,0.854-0.375,0.875-1.219c0.052-0.875,0.088-1.969,0.109-3.281l-2.797,0.648
			v6.93h-1.219v-6.641l-2.625,0.609v6.313c0,0.875,0.432,1.313,1.297,1.313h4.344c0.947,0,1.489-0.349,1.625-1.047
			c0.135-0.667,0.25-1.474,0.344-2.422c0.438,0.167,0.869,0.313,1.297,0.438c-0.136,0.99-0.287,1.823-0.453,2.5
			c-0.261,1.146-1.131,1.719-2.609,1.719h-4.797c-1.511,0-2.266-0.75-2.266-2.25v-6.281l-1.406,0.328l-0.203-1.156l1.609-0.367
			v-3.211h1.219v2.938l2.625-0.602V47.848z"/>
		<path fill="#333333" d="M473.552,52.168c0.275,0,0.513,0.097,0.711,0.289c0.197,0.193,0.297,0.425,0.297,0.695
			c0,0.271-0.097,0.504-0.289,0.699c-0.193,0.195-0.433,0.293-0.719,0.293c-0.287,0-0.526-0.098-0.719-0.293
			c-0.193-0.195-0.289-0.428-0.289-0.699c0-0.271,0.099-0.502,0.297-0.695C473.038,52.265,473.275,52.168,473.552,52.168z
			 M473.552,59.208c0.275,0,0.513,0.097,0.711,0.289c0.197,0.193,0.297,0.427,0.297,0.703c0,0.281-0.1,0.517-0.297,0.707
			c-0.198,0.19-0.436,0.285-0.711,0.285c-0.276,0-0.514-0.095-0.711-0.285c-0.198-0.19-0.297-0.426-0.297-0.707
			c0-0.276,0.099-0.51,0.297-0.703C473.038,59.304,473.275,59.208,473.552,59.208z"/>
		<path fill="#333333" d="M482.919,59.137c0.813,0.531,1.658,0.797,2.539,0.797c0.833,0,1.505-0.233,2.016-0.699
			c0.51-0.466,0.766-1.084,0.766-1.855c0-0.776-0.26-1.377-0.777-1.805c-0.519-0.427-1.27-0.641-2.254-0.641
			c-0.475,0-1.112,0.037-1.914,0.109v-6.148h5.953v1.352h-4.531v3.422c0.453-0.026,0.794-0.039,1.023-0.039
			c1.275,0,2.271,0.323,2.984,0.969c0.713,0.646,1.07,1.537,1.07,2.672c0,1.172-0.383,2.12-1.148,2.844
			c-0.766,0.724-1.823,1.086-3.172,1.086c-1.131,0-1.982-0.167-2.555-0.5V59.137z"/>
		<path fill="#333333" d="M491.63,55.184c0-2.135,0.354-3.751,1.063-4.848c0.708-1.096,1.734-1.645,3.078-1.645
			c2.563,0,3.844,2.068,3.844,6.203c0,2.042-0.361,3.603-1.082,4.684c-0.722,1.081-1.733,1.621-3.035,1.621
			c-1.229,0-2.182-0.513-2.855-1.539C491.967,58.635,491.63,57.143,491.63,55.184z M493.192,55.114c0,3.214,0.814,4.82,2.445,4.82
			c1.604,0,2.406-1.633,2.406-4.898c0-3.38-0.787-5.07-2.359-5.07C494.022,49.965,493.192,51.682,493.192,55.114z"/>
		<path fill="#333333" d="M500.552,61.754c4.541-2.625,6.942-7.229,7.203-13.813h1.375c-0.058,1.115-0.167,2.177-0.328,3.188
			c1.291,5.208,3.719,8.636,7.281,10.281c-0.438,0.479-0.823,0.932-1.156,1.359c-3.094-1.75-5.3-4.846-6.617-9.289
			c-1.141,4.292-3.398,7.445-6.773,9.461C501.255,62.556,500.927,62.161,500.552,61.754z"/>
	</g>
	<g>
		<path fill="#333333" d="M436.192,77.567v4.688h4.406v1.172h-4.406v6.641c1.084-0.458,2.5-1.104,4.25-1.938
			c0,0.49,0.021,0.958,0.063,1.406c-1.531,0.615-2.828,1.192-3.891,1.734c-0.458,0.239-0.88,0.526-1.266,0.859l-0.953-1.219
			c0.334-0.25,0.5-0.63,0.5-1.141V77.567H436.192z M441.599,77.161h1.297v6.609c2.026-1.463,3.693-2.995,5-4.594l1.109,0.828
			c-1.688,1.859-3.724,3.628-6.109,5.305v4.523c0,0.688,0.303,1.031,0.906,1.031h2.672c0.688,0,1.084-0.308,1.188-0.922
			c0.125-0.792,0.219-1.661,0.281-2.609c0.438,0.167,0.886,0.318,1.344,0.453c-0.094,0.969-0.219,1.839-0.375,2.609
			c-0.219,1.073-0.911,1.609-2.078,1.609h-3.438c-1.197,0-1.797-0.651-1.797-1.953V77.161z"/>
		<path fill="#333333" d="M449.755,84.724c1.344-2.281,2.339-4.807,2.984-7.578l1.156,0.219c-0.275,1.167-0.625,2.318-1.047,3.453
			v11.656h-1.063v-9.141c-0.458,0.953-0.969,1.896-1.531,2.828C450.13,85.745,449.964,85.266,449.755,84.724z M455.489,85.849
			l0.625-0.875c0.475,0.323,0.987,0.701,1.539,1.133c0.401-1.067,0.68-2.227,0.836-3.477h-2.195
			c-0.588,1.906-1.314,3.438-2.18,4.594c-0.219-0.333-0.469-0.656-0.75-0.969c1.178-1.692,2.05-4.063,2.617-7.109h-1.695v-1.094
			h6.047v1.094h-3.188c-0.161,0.854-0.341,1.656-0.539,2.406h3.039v1.078c-0.427,4.104-2.099,7.396-5.016,9.875
			c-0.229-0.313-0.516-0.651-0.859-1.016c1.475-1.188,2.615-2.62,3.422-4.297C456.677,86.771,456.109,86.323,455.489,85.849z
			 M463.474,77.192h1.141v13.047c0,0.792-0.125,1.333-0.375,1.625c-0.219,0.271-0.656,0.411-1.313,0.422
			c-0.447,0.01-1.172,0-2.172-0.031c-0.041-0.427-0.114-0.859-0.219-1.297c0.803,0.083,1.459,0.125,1.969,0.125
			c0.406,0.01,0.667-0.063,0.781-0.219c0.125-0.136,0.188-0.469,0.188-1V77.192z M461.817,88.817h-1.109v-9.172h1.109V88.817z"/>
		<path fill="#333333" d="M473.552,81.622c0.276,0,0.514,0.097,0.711,0.289c0.198,0.193,0.297,0.425,0.297,0.695
			c0,0.271-0.096,0.504-0.289,0.699c-0.192,0.195-0.432,0.293-0.719,0.293c-0.286,0-0.525-0.098-0.719-0.293
			c-0.192-0.195-0.289-0.428-0.289-0.699c0-0.271,0.1-0.502,0.297-0.695C473.039,81.719,473.276,81.622,473.552,81.622z
			 M473.552,88.661c0.276,0,0.514,0.097,0.711,0.289c0.198,0.193,0.297,0.427,0.297,0.703c0,0.281-0.099,0.517-0.297,0.707
			c-0.197,0.19-0.435,0.285-0.711,0.285c-0.275,0-0.513-0.095-0.711-0.285c-0.197-0.19-0.297-0.426-0.297-0.707
			c0-0.276,0.1-0.51,0.297-0.703C473.039,88.758,473.276,88.661,473.552,88.661z"/>
		<path fill="#333333" d="M482.919,88.591c0.813,0.531,1.659,0.797,2.539,0.797c0.834,0,1.506-0.233,2.016-0.699
			c0.511-0.466,0.766-1.084,0.766-1.855c0-0.776-0.259-1.377-0.777-1.805c-0.518-0.427-1.27-0.641-2.254-0.641
			c-0.474,0-1.111,0.037-1.914,0.109v-6.148h5.953V79.7h-4.531v3.422c0.453-0.026,0.795-0.039,1.023-0.039
			c1.276,0,2.271,0.323,2.984,0.969c0.714,0.646,1.07,1.537,1.07,2.672c0,1.172-0.383,2.12-1.148,2.844
			c-0.766,0.724-1.822,1.086-3.172,1.086c-1.13,0-1.981-0.167-2.555-0.5V88.591z"/>
		<path fill="#333333" d="M491.63,84.638c0-2.135,0.354-3.751,1.063-4.848c0.709-1.096,1.734-1.645,3.078-1.645
			c2.563,0,3.844,2.068,3.844,6.203c0,2.042-0.36,3.603-1.082,4.684c-0.721,1.081-1.732,1.621-3.035,1.621
			c-1.229,0-2.181-0.513-2.855-1.539C491.968,88.088,491.63,86.596,491.63,84.638z M493.192,84.567c0,3.214,0.815,4.82,2.445,4.82
			c1.604,0,2.406-1.633,2.406-4.898c0-3.38-0.786-5.07-2.359-5.07C494.023,79.419,493.192,81.135,493.192,84.567z"/>
		<path fill="#333333" d="M500.981,81.403c0-0.989,0.265-1.776,0.793-2.359c0.529-0.583,1.241-0.875,2.137-0.875
			c0.859,0,1.53,0.269,2.012,0.805c0.482,0.537,0.723,1.284,0.723,2.242c0,0.953-0.266,1.727-0.797,2.32s-1.236,0.891-2.117,0.891
			c-0.833,0-1.5-0.276-2-0.828C501.231,83.047,500.981,82.315,500.981,81.403z M502.185,81.325c0,0.672,0.146,1.19,0.438,1.555
			c0.292,0.365,0.69,0.547,1.195,0.547c0.521,0,0.924-0.188,1.207-0.566c0.284-0.377,0.426-0.91,0.426-1.598
			c0-0.672-0.139-1.191-0.418-1.559c-0.278-0.367-0.67-0.551-1.176-0.551c-0.516,0-0.923,0.191-1.223,0.574
			C502.335,80.11,502.185,80.643,502.185,81.325z M511.919,78.349l-7.773,12.18h-1.305l7.773-12.18H511.919z M508.231,87.614
			c0-0.989,0.265-1.78,0.793-2.371c0.529-0.591,1.238-0.887,2.129-0.887c0.854,0,1.523,0.27,2.008,0.809s0.727,1.298,0.727,2.277
			c0,0.948-0.268,1.718-0.805,2.309c-0.536,0.591-1.236,0.887-2.102,0.887c-0.838,0-1.506-0.28-2.004-0.84
			C508.48,89.238,508.231,88.51,508.231,87.614z M509.427,87.544c0,0.656,0.146,1.168,0.438,1.535
			c0.292,0.367,0.69,0.551,1.195,0.551c0.521,0,0.924-0.19,1.207-0.57c0.284-0.38,0.426-0.911,0.426-1.594
			c0-0.677-0.142-1.195-0.426-1.555c-0.283-0.359-0.673-0.539-1.168-0.539c-0.531,0-0.942,0.191-1.234,0.574
			C509.573,86.329,509.427,86.862,509.427,87.544z"/>
	</g>
	<rect x="434.072" y="68.193" fill="#009FE8" width="84.345" height="2.669"/>
	<polygon fill="#6D6D6D" points="252.078,154.474 248.134,158.418 248.564,190.282 252.526,187.646 	"/>
	<polygon fill="#999999" points="320.509,19.298 316.564,23.243 316.564,56.264 320.969,53.334 	"/>
	<polygon fill="#6D6D6D" points="245.65,183.365 244.288,189.17 216.539,206.972 217.901,201.167 	"/>
	<polygon fill="#999999" points="225.191,205.831 221.247,209.776 229.057,207.804 	"/>
	<polygon fill="#6D6D6D" points="314.093,49.053 312.73,54.858 284.328,73.079 285.69,67.274 	"/>
	<g>
		<path fill="#FFFFFF" d="M293.548,198.996c0,0.58-0.154,1.055-0.879,1.055h-25.832c-0.726,0-1.318-0.593-1.318-1.318v-24.348
			c0-0.725,0.475-0.878,1.055-0.878s1.055,0.153,1.055,0.878v22.24c0,0.725,0.593,1.317,1.317,1.317h23.724
			C293.394,197.942,293.548,198.417,293.548,198.996L293.548,198.996z M293.548,198.996"/>
		<path fill="#FFFFFF" d="M291.083,182.531c0.305,0.19,0.527,0.055,0.495-0.305l-0.51-5.614c-0.032-0.358-0.335-0.548-0.673-0.422
			l-5.279,1.976c-0.336,0.127-0.363,0.387-0.059,0.578l0.979,0.615c0.305,0.191,0.393,0.594,0.194,0.895l-3.989,6.061
			c-0.198,0.301-0.637,0.442-0.973,0.314l-6.201-2.348c-0.337-0.127-0.8-0.004-1.029,0.273l-3.895,4.715
			c-0.229,0.277-0.419,0.799-0.42,1.158l-0.021,3.852c-0.001,0.359,0.188,0.43,0.423,0.157l5.016-5.842
			c0.234-0.272,0.702-0.392,1.039-0.265l6.247,2.367c0.337,0.128,0.775-0.013,0.976-0.313l5.591-8.395
			c0.2-0.299,0.612-0.388,0.917-0.195L291.083,182.531z M291.083,182.531"/>
	</g>
	<path fill-rule="evenodd" clip-rule="evenodd" fill="#FFFFFF" d="M265.16,30.495V33.8l-1.894,4.536
		c-0.177,0.453,0.029,0.953,0.472,1.147c0.439,0.176,0.952-0.029,1.138-0.473l0.284-0.739v0.833c0,0.472,0.396,0.89,0.877,0.89
		s0.876-0.418,0.876-0.89V38.29l0.286,0.722c0.187,0.443,0.698,0.648,1.146,0.473c0.433-0.194,0.65-0.694,0.474-1.147l-1.905-4.536
		v-2.676l6.219,2.26v6.71v0.039v0.017l0,0v0.019c0.042,1.196,1.236,2.204,3.125,2.831c1.643,0.539,3.9,0.909,6.368,0.909
		c2.463,0,4.72-0.37,6.362-0.909c1.894-0.627,3.083-1.635,3.115-2.831V40.15l0,0v-0.017v-0.039v-6.71l8.369-3.037
		c0.388-0.14,0.719-0.436,0.885-0.849c0.266-0.761-0.125-1.584-0.885-1.854l-17.355-6.303c-0.318-0.095-0.656-0.111-0.989,0
		l-17.363,6.303c-0.378,0.121-0.707,0.453-0.853,0.861c-0.283,0.74,0.102,1.583,0.853,1.841L265.16,30.495L265.16,30.495z
		 M273.523,30.451L273.523,30.451l-4.024-1.474l13.126-4.729l13.121,4.729l-4.027,1.474c-0.472-0.73-1.436-1.313-2.731-1.75
		c-1.643-0.573-3.899-0.935-6.362-0.935c-2.468,0-4.726,0.361-6.368,0.935C274.961,29.137,274.013,29.72,273.523,30.451
		L273.523,30.451z M290.378,37.789L290.378,37.789c-0.401-0.222-0.853-0.426-1.391-0.591c-1.643-0.574-3.899-0.918-6.362-0.918
		c-2.468,0-4.726,0.344-6.368,0.918c-0.515,0.165-0.988,0.369-1.392,0.591v-6.189c0-0.4,0.741-0.87,1.93-1.261
		c1.483-0.501,3.539-0.806,5.83-0.806c2.299,0,4.341,0.305,5.806,0.806c1.195,0.391,1.947,0.86,1.947,1.261V37.789L290.378,37.789z
		 M288.431,38.828L288.431,38.828c1.188,0.397,1.912,0.853,1.947,1.241v0.025v0.039c-0.035,0.379-0.76,0.831-1.947,1.231
		c-1.465,0.518-3.507,0.813-5.806,0.813c-2.291,0-4.347-0.296-5.83-0.813c-1.169-0.4-1.893-0.853-1.93-1.231v-0.039v-0.025
		c0.037-0.389,0.761-0.844,1.93-1.241c1.483-0.491,3.539-0.825,5.83-0.825C284.924,38.002,286.966,38.336,288.431,38.828
		L288.431,38.828z"/>
</g>
</svg>
