<?xml version="1.0" encoding="utf-8"?>
<!-- Generator: Adobe Illustrator 16.0.0, SVG Export Plug-In . SVG Version: 6.00 Build 0)  -->
<!DOCTYPE svg PUBLIC "-//W3C//DTD SVG 1.1//EN" "http://www.w3.org/Graphics/SVG/1.1/DTD/svg11.dtd">
<svg version="1.1" id="图层_1" xmlns="http://www.w3.org/2000/svg" xmlns:xlink="http://www.w3.org/1999/xlink" x="0px" y="0px"
	 width="586px" height="321px" viewBox="-35.5 -45.5 586 321" enable-background="new -35.5 -45.5 586 321" xml:space="preserve">
<g>
	<polyline fill="none" stroke="#685046" stroke-dasharray="16.2598" points="171.606,144.561 70.258,144.561 47.587,190.174 	"/>
	<polyline fill="none" stroke="#685046" stroke-dasharray="16.2598" points="354.524,72.979 450.765,72.979 472.294,36.901 	"/>
	<polyline fill="none" stroke="#685046" stroke-dasharray="16.2598" points="336.22,161.338 434.632,161.338 456.646,197.416 	"/>
	<polyline fill="none" stroke="#685046" stroke-dasharray="16.2598" points="167.472,54.94 69.22,54.94 47.24,18.862 	"/>
	<g>
		<path fill="#333333" d="M-27.618-14.533c0.828,0.641,1.763,0.961,2.805,0.961c0.833,0,1.493-0.205,1.98-0.613
			c0.486-0.409,0.73-0.957,0.73-1.645c0-1.531-1.097-2.297-3.289-2.297h-1.008v-1.266h0.961c1.942,0,2.914-0.719,2.914-2.156
			c0-1.328-0.742-1.992-2.227-1.992c-0.85,0-1.648,0.287-2.398,0.859v-1.445c0.791-0.458,1.716-0.688,2.773-0.688
			c1.031,0,1.859,0.27,2.484,0.809s0.938,1.238,0.938,2.098c0,1.583-0.808,2.602-2.422,3.055v0.031
			c0.875,0.094,1.566,0.402,2.074,0.926s0.762,1.176,0.762,1.957c0,1.088-0.393,1.966-1.176,2.633c-0.784,0.667-1.827,1-3.129,1
			c-1.146,0-2.07-0.213-2.773-0.641V-14.533z"/>
		<path fill="#333333" d="M-11.399-23.056c-0.631-0.323-1.289-0.484-1.977-0.484c-1.047,0-1.889,0.456-2.523,1.367
			c-0.636,0.912-0.959,2.156-0.969,3.734h0.039c0.572-1.109,1.486-1.664,2.742-1.664c1.047,0,1.883,0.341,2.508,1.023
			s0.938,1.588,0.938,2.719c0,1.182-0.361,2.154-1.082,2.914c-0.722,0.76-1.643,1.141-2.762,1.141c-1.229,0-2.194-0.48-2.895-1.441
			c-0.701-0.961-1.051-2.324-1.051-4.09c0-2.135,0.459-3.832,1.379-5.09c0.919-1.258,2.129-1.887,3.629-1.887
			c0.859,0,1.533,0.117,2.023,0.352V-23.056z M-16.774-16.47c0,0.797,0.212,1.479,0.637,2.047c0.424,0.568,0.988,0.852,1.691,0.852
			c0.666,0,1.208-0.245,1.625-0.734c0.416-0.49,0.625-1.12,0.625-1.891c0-0.833-0.197-1.482-0.59-1.945
			c-0.394-0.463-0.952-0.695-1.676-0.695c-0.688,0-1.245,0.234-1.672,0.703C-16.562-17.666-16.774-17.111-16.774-16.47z"/>
		<path fill="#333333" d="M-9.688-15.408c2.333-1.563,4.161-3.385,5.484-5.469l1.219,0.391c-0.323,0.49-0.656,0.963-1,1.422h8.156
			v1.078c-1.636,2.354-3.469,4.109-5.5,5.266s-4.516,1.969-7.453,2.438c-0.167-0.344-0.396-0.75-0.688-1.219
			c2.625-0.375,4.849-1,6.672-1.875c-0.803-0.719-1.714-1.469-2.734-2.25l0.797-0.828c1.197,0.927,2.203,1.755,3.016,2.484
			c1.697-0.979,3.146-2.302,4.344-3.969h-7.547c-0.979,1.167-2.271,2.323-3.875,3.469C-9.038-14.772-9.335-15.085-9.688-15.408z
			 M3.077-20.533v-0.531H-8.235v-3.781h1.219v2.656h4.438v-3.438h1.219v3.438h4.438v-2.656h1.219v4.313H3.077z"/>
		<path fill="#333333" d="M10.577-16.001c-0.531,1.813-1.651,3.635-3.359,5.469c-0.25-0.333-0.563-0.698-0.938-1.094
			c1.563-1.635,2.583-3.281,3.063-4.938c0.469-1.422,0.744-3.75,0.828-6.984H6.999v-1.172h11.484v1.188l-1.516,3.047h2.891v1.109
			c-0.823,2.078-1.925,3.823-3.305,5.234c1.547,1.104,3.294,1.844,5.242,2.219c-0.365,0.51-0.636,0.958-0.813,1.344
			c-2.266-0.719-4.07-1.607-5.414-2.664c-1.412,1.151-3.159,2.117-5.242,2.898c-0.167-0.302-0.428-0.682-0.781-1.141
			c2.021-0.672,3.705-1.549,5.055-2.633c-1.422-1.438-2.542-3.221-3.359-5.352C11.085-18.085,10.863-16.929,10.577-16.001z
			 M15.452-20.33l1.609-3.219h-5.578c-0.011,0.578-0.029,1.133-0.055,1.664c1.036,2.99,2.411,5.297,4.125,6.922
			c1.302-1.266,2.263-2.716,2.883-4.352h-2.984V-20.33z"/>
		<path fill="#333333" d="M29.233-16.783c0.031,0.677,0.072,1.172,0.125,1.484c-2.5,1.573-4.058,2.563-4.672,2.969
			c-0.344,0.24-0.672,0.5-0.984,0.781l-0.891-1.234c0.489-0.438,0.729-0.963,0.719-1.578V-25.22h1.281v11.172
			C25.957-14.736,27.431-15.647,29.233-16.783z M34.077-25.439h1.281v2.813c0,2.88-0.37,5.167-1.109,6.859
			c1.291,1.333,2.51,2.646,3.656,3.938l-1.078,0.984c-1.068-1.323-2.133-2.581-3.195-3.773c-1.203,1.828-3.014,3.258-5.43,4.289
			c-0.24-0.323-0.521-0.682-0.844-1.078c2.625-1.208,4.391-2.609,5.297-4.203c0.969-1.563,1.442-3.912,1.422-7.047V-25.439z
			 M28.593-25.798c0.697,1.104,1.474,2.427,2.328,3.969l-1.219,0.688c-0.813-1.604-1.553-2.958-2.219-4.063L28.593-25.798z"/>
		<path fill="#333333" d="M38.437-24.517h15.188v1.281H46.03v3.406l0.719-1c2.385,1.406,4.385,2.672,6,3.797l-0.922,1.266
			c-1.615-1.24-3.547-2.547-5.797-3.922v9.172h-1.422v-12.719h-6.172V-24.517z"/>
		<path fill="#333333" d="M62.046-21.337c0.275,0,0.513,0.096,0.711,0.289c0.197,0.193,0.297,0.424,0.297,0.695
			s-0.097,0.504-0.289,0.699c-0.193,0.195-0.433,0.293-0.719,0.293c-0.287,0-0.526-0.098-0.719-0.293
			c-0.193-0.195-0.289-0.428-0.289-0.699s0.099-0.502,0.297-0.695C61.532-21.241,61.77-21.337,62.046-21.337z M62.046-14.298
			c0.275,0,0.513,0.096,0.711,0.289c0.197,0.193,0.297,0.427,0.297,0.703c0,0.281-0.1,0.517-0.297,0.707
			c-0.198,0.19-0.436,0.285-0.711,0.285c-0.276,0-0.514-0.095-0.711-0.285c-0.198-0.19-0.297-0.426-0.297-0.707
			c0-0.276,0.099-0.51,0.297-0.703C61.532-14.202,61.77-14.298,62.046-14.298z"/>
		<path fill="#333333" d="M78.218-12.509h-7.359v-1.328l3.516-3.508c0.969-0.969,1.617-1.736,1.945-2.301s0.492-1.15,0.492-1.754
			c0-0.688-0.193-1.215-0.578-1.582c-0.386-0.367-0.943-0.551-1.672-0.551c-1.078,0-2.107,0.458-3.086,1.375v-1.555
			c0.953-0.734,2.063-1.102,3.328-1.102c1.088,0,1.947,0.294,2.578,0.883c0.63,0.588,0.945,1.38,0.945,2.375
			c0,0.75-0.202,1.486-0.605,2.207c-0.404,0.721-1.168,1.639-2.293,2.754L72.671-13.9v0.031h5.547V-12.509z"/>
		<path fill="#333333" d="M80.796-14.369c0.813,0.531,1.658,0.797,2.539,0.797c0.833,0,1.505-0.233,2.016-0.699
			c0.51-0.466,0.766-1.084,0.766-1.855c0-0.776-0.26-1.377-0.777-1.805c-0.519-0.427-1.27-0.641-2.254-0.641
			c-0.475,0-1.112,0.037-1.914,0.109v-6.148h5.953v1.352h-4.531v3.422c0.453-0.026,0.794-0.039,1.023-0.039
			c1.275,0,2.271,0.323,2.984,0.969c0.713,0.646,1.07,1.537,1.07,2.672c0,1.172-0.383,2.12-1.148,2.844s-1.823,1.086-3.172,1.086
			c-1.131,0-1.982-0.167-2.555-0.5V-14.369z"/>
		<path fill="#333333" d="M89.046-11.751c4.541-2.625,6.942-7.229,7.203-13.813h1.375c-0.058,1.115-0.167,2.177-0.328,3.188
			c1.291,5.208,3.719,8.635,7.281,10.281c-0.438,0.479-0.823,0.932-1.156,1.359c-3.094-1.75-5.3-4.846-6.617-9.289
			c-1.141,4.292-3.398,7.445-6.773,9.461C89.749-10.949,89.421-11.345,89.046-11.751z"/>
	</g>
	<g>
		<path fill="#333333" d="M-26.079,4.062V8.75h4.406v1.172h-4.406v6.641c1.083-0.458,2.5-1.104,4.25-1.938
			c0,0.49,0.021,0.958,0.063,1.406c-1.531,0.615-2.828,1.192-3.891,1.734c-0.459,0.239-0.881,0.526-1.266,0.859l-0.953-1.219
			c0.333-0.25,0.5-0.63,0.5-1.141V4.062H-26.079z M-20.673,3.656h1.297v6.609c2.025-1.463,3.692-2.995,5-4.594l1.109,0.828
			c-1.688,1.859-3.725,3.628-6.109,5.305v4.523c0,0.688,0.302,1.031,0.906,1.031h2.672c0.688,0,1.083-0.308,1.188-0.922
			c0.125-0.792,0.219-1.661,0.281-2.609c0.438,0.167,0.885,0.318,1.344,0.453c-0.094,0.969-0.219,1.839-0.375,2.609
			c-0.219,1.073-0.912,1.609-2.078,1.609h-3.438c-1.198,0-1.797-0.651-1.797-1.953V3.656z"/>
		<path fill="#333333" d="M-12.517,11.218c1.344-2.281,2.338-4.807,2.984-7.578l1.156,0.219c-0.276,1.167-0.625,2.318-1.047,3.453
			v11.656h-1.063V9.828c-0.459,0.953-0.969,1.896-1.531,2.828C-12.142,12.239-12.309,11.76-12.517,11.218z M-6.782,12.343
			l0.625-0.875c0.474,0.323,0.986,0.701,1.539,1.133c0.4-1.067,0.68-2.227,0.836-3.477h-2.195c-0.589,1.906-1.315,3.438-2.18,4.594
			c-0.219-0.333-0.469-0.656-0.75-0.969C-7.73,11.057-6.858,8.687-6.29,5.64h-1.695V4.546h6.047V5.64h-3.188
			c-0.162,0.854-0.342,1.656-0.539,2.406h3.039v1.078c-0.428,4.104-2.1,7.396-5.016,9.875c-0.229-0.313-0.516-0.651-0.859-1.016
			c1.474-1.188,2.614-2.62,3.422-4.297C-5.595,13.265-6.163,12.817-6.782,12.343z M1.202,3.687h1.141v13.047
			c0,0.792-0.125,1.333-0.375,1.625c-0.219,0.271-0.656,0.411-1.313,0.422c-0.448,0.01-1.172,0-2.172-0.031
			c-0.042-0.427-0.115-0.859-0.219-1.297c0.802,0.083,1.458,0.125,1.969,0.125c0.406,0.01,0.666-0.063,0.781-0.219
			c0.125-0.136,0.188-0.469,0.188-1V3.687z M-0.454,15.312h-1.109V6.14h1.109V15.312z"/>
		<path fill="#333333" d="M11.28,8.117c0.275,0,0.513,0.097,0.711,0.289c0.197,0.193,0.297,0.425,0.297,0.695
			c0,0.271-0.097,0.504-0.289,0.699c-0.193,0.195-0.433,0.293-0.719,0.293c-0.287,0-0.526-0.098-0.719-0.293
			c-0.193-0.195-0.289-0.428-0.289-0.699c0-0.271,0.099-0.502,0.297-0.695C10.767,8.213,11.004,8.117,11.28,8.117z M11.28,15.156
			c0.275,0,0.513,0.097,0.711,0.289c0.197,0.193,0.297,0.427,0.297,0.703c0,0.281-0.1,0.517-0.297,0.707
			c-0.198,0.19-0.436,0.285-0.711,0.285c-0.276,0-0.514-0.095-0.711-0.285c-0.198-0.19-0.297-0.426-0.297-0.707
			c0-0.276,0.099-0.51,0.297-0.703C10.767,15.252,11.004,15.156,11.28,15.156z"/>
		<path fill="#333333" d="M27.452,16.945h-7.359v-1.328l3.516-3.508c0.969-0.969,1.617-1.735,1.945-2.301
			c0.328-0.565,0.492-1.149,0.492-1.754c0-0.688-0.193-1.215-0.578-1.582c-0.386-0.367-0.943-0.551-1.672-0.551
			c-1.078,0-2.107,0.458-3.086,1.375V5.742c0.953-0.734,2.063-1.102,3.328-1.102c1.088,0,1.947,0.294,2.578,0.883
			c0.63,0.589,0.945,1.38,0.945,2.375c0,0.75-0.202,1.486-0.605,2.207c-0.404,0.722-1.168,1.64-2.293,2.754l-2.758,2.695v0.031
			h5.547V16.945z"/>
		<path fill="#333333" d="M30.03,15.085c0.813,0.531,1.658,0.797,2.539,0.797c0.833,0,1.505-0.233,2.016-0.699
			c0.51-0.466,0.766-1.084,0.766-1.855c0-0.776-0.26-1.377-0.777-1.805c-0.519-0.427-1.27-0.641-2.254-0.641
			c-0.475,0-1.112,0.037-1.914,0.109V4.843h5.953v1.352h-4.531v3.422c0.453-0.026,0.794-0.039,1.023-0.039
			c1.275,0,2.271,0.323,2.984,0.969c0.713,0.646,1.07,1.537,1.07,2.672c0,1.172-0.383,2.12-1.148,2.844
			c-0.766,0.724-1.823,1.086-3.172,1.086c-1.131,0-1.982-0.167-2.555-0.5V15.085z"/>
		<path fill="#333333" d="M38.71,7.898c0-0.989,0.264-1.776,0.793-2.359c0.528-0.583,1.24-0.875,2.137-0.875
			c0.859,0,1.529,0.269,2.012,0.805c0.481,0.537,0.723,1.284,0.723,2.242c0,0.953-0.266,1.727-0.797,2.32s-1.237,0.891-2.117,0.891
			c-0.834,0-1.5-0.276-2-0.828C38.96,9.542,38.71,8.81,38.71,7.898z M39.913,7.82c0,0.672,0.146,1.19,0.438,1.555
			c0.291,0.365,0.689,0.547,1.195,0.547c0.521,0,0.923-0.188,1.207-0.566c0.283-0.377,0.426-0.91,0.426-1.598
			c0-0.672-0.14-1.191-0.418-1.559c-0.279-0.367-0.671-0.551-1.176-0.551c-0.516,0-0.924,0.191-1.223,0.574
			C40.063,6.605,39.913,7.138,39.913,7.82z M49.647,4.843l-7.773,12.18h-1.305l7.773-12.18H49.647z M45.96,14.109
			c0-0.989,0.264-1.78,0.793-2.371c0.528-0.591,1.238-0.887,2.129-0.887c0.854,0,1.523,0.27,2.008,0.809s0.727,1.298,0.727,2.277
			c0,0.948-0.269,1.718-0.805,2.309c-0.537,0.591-1.237,0.887-2.102,0.887c-0.839,0-1.507-0.28-2.004-0.84
			C46.208,15.733,45.96,15.005,45.96,14.109z M47.155,14.039c0,0.656,0.146,1.168,0.438,1.535c0.291,0.367,0.689,0.551,1.195,0.551
			c0.521,0,0.923-0.19,1.207-0.57c0.283-0.38,0.426-0.911,0.426-1.594c0-0.677-0.143-1.195-0.426-1.555
			c-0.284-0.359-0.674-0.539-1.168-0.539c-0.531,0-0.943,0.191-1.234,0.574C47.301,12.824,47.155,13.356,47.155,14.039z"/>
	</g>
	<rect x="-28.2" y="-5.312" fill="#546E7A" width="137.797" height="2.668"/>
	<g>
		<path fill="#333333" d="M412.82-16.257c-0.63-0.323-1.289-0.484-1.977-0.484c-1.047,0-1.888,0.456-2.523,1.367
			s-0.958,2.156-0.969,3.734h0.039c0.573-1.109,1.487-1.664,2.742-1.664c1.047,0,1.883,0.341,2.508,1.023s0.938,1.588,0.938,2.719
			c0,1.182-0.36,2.154-1.082,2.914s-1.642,1.141-2.762,1.141c-1.229,0-2.194-0.48-2.895-1.441s-1.051-2.324-1.051-4.09
			c0-2.135,0.46-3.832,1.379-5.09s2.129-1.887,3.629-1.887c0.859,0,1.534,0.117,2.023,0.352V-16.257z M407.445-9.671
			c0,0.797,0.212,1.479,0.637,2.047s0.988,0.852,1.691,0.852c0.667,0,1.208-0.245,1.625-0.734s0.625-1.12,0.625-1.891
			c0-0.833-0.196-1.482-0.59-1.945s-0.952-0.695-1.676-0.695c-0.688,0-1.245,0.234-1.672,0.703S407.445-10.312,407.445-9.671z"/>
		<path fill="#333333" d="M422.664-5.71h-6.938v-1.32h2.711v-9.188l-2.781,0.805v-1.406l4.305-1.25v11.039h2.703V-5.71z"/>
		<path fill="#333333" d="M423.914-8.609c2.333-1.563,4.161-3.385,5.484-5.469l1.219,0.391c-0.323,0.49-0.656,0.963-1,1.422h8.156
			v1.078c-1.636,2.354-3.469,4.109-5.5,5.266s-4.516,1.969-7.453,2.438c-0.167-0.344-0.396-0.75-0.688-1.219
			c2.625-0.375,4.849-1,6.672-1.875c-0.802-0.719-1.714-1.469-2.734-2.25l0.797-0.828c1.198,0.927,2.203,1.755,3.016,2.484
			c1.698-0.979,3.146-2.302,4.344-3.969h-7.547c-0.979,1.167-2.271,2.323-3.875,3.469C424.565-7.974,424.269-8.286,423.914-8.609z
			 M436.68-13.734v-0.531h-11.313v-3.781h1.219v2.656h4.438v-3.438h1.219v3.438h4.438v-2.656h1.219v4.313H436.68z"/>
		<path fill="#333333" d="M444.18-9.203c-0.531,1.813-1.651,3.635-3.359,5.469c-0.25-0.333-0.563-0.698-0.938-1.094
			c1.563-1.635,2.583-3.281,3.063-4.938c0.469-1.422,0.745-3.75,0.828-6.984h-3.172v-1.172h11.484v1.188l-1.516,3.047h2.891v1.109
			c-0.823,2.078-1.925,3.823-3.305,5.234c1.547,1.104,3.294,1.844,5.242,2.219c-0.364,0.51-0.636,0.958-0.813,1.344
			c-2.266-0.719-4.07-1.607-5.414-2.664c-1.411,1.151-3.159,2.117-5.242,2.898c-0.167-0.302-0.427-0.682-0.781-1.141
			c2.021-0.672,3.706-1.549,5.055-2.633c-1.422-1.438-2.542-3.221-3.359-5.352C444.688-11.286,444.466-10.13,444.18-9.203z
			 M449.055-13.531l1.609-3.219h-5.578c-0.011,0.578-0.028,1.133-0.055,1.664c1.036,2.99,2.411,5.297,4.125,6.922
			c1.302-1.266,2.263-2.716,2.883-4.352h-2.984V-13.531z"/>
		<path fill="#333333" d="M462.836-9.984c0.031,0.677,0.073,1.172,0.125,1.484c-2.5,1.573-4.058,2.563-4.672,2.969
			c-0.344,0.24-0.672,0.5-0.984,0.781l-0.891-1.234c0.489-0.438,0.729-0.963,0.719-1.578v-10.859h1.281V-7.25
			C459.56-7.937,461.034-8.849,462.836-9.984z M467.68-18.64h1.281v2.813c0,2.88-0.37,5.167-1.109,6.859
			c1.292,1.333,2.511,2.646,3.656,3.938l-1.078,0.984c-1.067-1.323-2.133-2.581-3.195-3.773c-1.203,1.828-3.013,3.258-5.43,4.289
			c-0.239-0.323-0.521-0.682-0.844-1.078c2.625-1.208,4.391-2.609,5.297-4.203c0.969-1.563,1.442-3.912,1.422-7.047V-18.64z
			 M462.195-19c0.698,1.104,1.474,2.427,2.328,3.969l-1.219,0.688c-0.813-1.604-1.552-2.958-2.219-4.063L462.195-19z"/>
		<path fill="#333333" d="M472.039-5.828h6.125v-12.906h1.422v4.703h6.422v1.25h-6.422v6.953h7.656v1.25h-15.203V-5.828z"/>
		<path fill="#333333" d="M495.648-14.539c0.276,0,0.513,0.096,0.711,0.289s0.297,0.424,0.297,0.695s-0.097,0.504-0.289,0.699
			s-0.433,0.293-0.719,0.293s-0.526-0.098-0.719-0.293s-0.289-0.428-0.289-0.699s0.099-0.502,0.297-0.695
			S495.372-14.539,495.648-14.539z M495.648-7.5c0.276,0,0.513,0.096,0.711,0.289s0.297,0.427,0.297,0.703
			c0,0.281-0.099,0.517-0.297,0.707s-0.435,0.285-0.711,0.285s-0.513-0.095-0.711-0.285s-0.297-0.426-0.297-0.707
			c0-0.276,0.099-0.51,0.297-0.703S495.372-7.5,495.648-7.5z"/>
		<path fill="#333333" d="M511.82-5.71h-7.359v-1.328l3.516-3.508c0.969-0.969,1.617-1.736,1.945-2.301s0.492-1.15,0.492-1.754
			c0-0.688-0.192-1.215-0.578-1.582s-0.942-0.551-1.672-0.551c-1.078,0-2.106,0.458-3.086,1.375v-1.555
			c0.953-0.734,2.063-1.102,3.328-1.102c1.089,0,1.948,0.294,2.578,0.883s0.945,1.38,0.945,2.375c0,0.75-0.202,1.486-0.605,2.207
			s-1.168,1.639-2.293,2.754l-2.758,2.695v0.031h5.547V-5.71z"/>
		<path fill="#333333" d="M514.398-7.57c0.813,0.531,1.659,0.797,2.539,0.797c0.833,0,1.505-0.233,2.016-0.699
			s0.766-1.084,0.766-1.855c0-0.776-0.259-1.377-0.777-1.805s-1.27-0.641-2.254-0.641c-0.474,0-1.112,0.037-1.914,0.109v-6.148
			h5.953v1.352h-4.531v3.422c0.453-0.026,0.794-0.039,1.023-0.039c1.276,0,2.271,0.323,2.984,0.969s1.07,1.537,1.07,2.672
			c0,1.172-0.383,2.12-1.148,2.844s-1.823,1.086-3.172,1.086c-1.13,0-1.981-0.167-2.555-0.5V-7.57z"/>
		<path fill="#333333" d="M522.648-4.953c4.542-2.625,6.942-7.229,7.203-13.813h1.375c-0.058,1.115-0.167,2.177-0.328,3.188
			c1.292,5.208,3.719,8.635,7.281,10.281c-0.438,0.479-0.823,0.932-1.156,1.359c-3.094-1.75-5.3-4.846-6.617-9.289
			c-1.141,4.292-3.398,7.445-6.773,9.461C523.352-4.15,523.023-4.546,522.648-4.953z"/>
	</g>
	<g>
		<path fill="#333333" d="M407.523,10.861v4.688h4.406v1.172h-4.406v6.641c1.083-0.458,2.5-1.104,4.25-1.938
			c0,0.49,0.021,0.958,0.063,1.406c-1.531,0.615-2.828,1.192-3.891,1.734c-0.458,0.239-0.88,0.526-1.266,0.859l-0.953-1.219
			c0.333-0.25,0.5-0.63,0.5-1.141V10.861H407.523z M412.93,10.455h1.297v6.609c2.026-1.463,3.692-2.995,5-4.594l1.109,0.828
			c-1.688,1.859-3.724,3.628-6.109,5.305v4.523c0,0.688,0.302,1.031,0.906,1.031h2.672c0.688,0,1.083-0.308,1.188-0.922
			c0.125-0.792,0.219-1.661,0.281-2.609c0.438,0.167,0.886,0.318,1.344,0.453c-0.094,0.969-0.219,1.839-0.375,2.609
			c-0.219,1.073-0.911,1.609-2.078,1.609h-3.438c-1.198,0-1.797-0.651-1.797-1.953V10.455z"/>
		<path fill="#333333" d="M421.086,18.017c1.344-2.281,2.339-4.807,2.984-7.578l1.156,0.219c-0.276,1.167-0.625,2.318-1.047,3.453
			v11.656h-1.063v-9.141c-0.458,0.953-0.969,1.896-1.531,2.828C421.461,19.038,421.294,18.559,421.086,18.017z M426.82,19.142
			l0.625-0.875c0.474,0.323,0.987,0.701,1.539,1.133c0.401-1.067,0.68-2.227,0.836-3.477h-2.195
			c-0.589,1.906-1.315,3.438-2.18,4.594c-0.219-0.333-0.469-0.656-0.75-0.969c1.177-1.692,2.05-4.063,2.617-7.109h-1.695v-1.094
			h6.047v1.094h-3.188c-0.161,0.854-0.341,1.656-0.539,2.406h3.039v1.078c-0.427,4.104-2.099,7.396-5.016,9.875
			c-0.229-0.313-0.516-0.651-0.859-1.016c1.474-1.188,2.614-2.62,3.422-4.297C428.008,20.064,427.44,19.616,426.82,19.142z
			 M434.805,10.486h1.141v13.047c0,0.792-0.125,1.333-0.375,1.625c-0.219,0.271-0.656,0.411-1.313,0.422
			c-0.448,0.01-1.172,0-2.172-0.031c-0.042-0.427-0.114-0.859-0.219-1.297c0.802,0.083,1.458,0.125,1.969,0.125
			c0.406,0.01,0.667-0.063,0.781-0.219c0.125-0.136,0.188-0.469,0.188-1V10.486z M433.148,22.111h-1.109v-9.172h1.109V22.111z"/>
		<path fill="#333333" d="M444.883,14.916c0.276,0,0.513,0.097,0.711,0.289c0.198,0.193,0.297,0.425,0.297,0.695
			c0,0.271-0.097,0.504-0.289,0.699s-0.433,0.293-0.719,0.293s-0.526-0.098-0.719-0.293s-0.289-0.428-0.289-0.699
			c0-0.271,0.099-0.502,0.297-0.695C444.37,15.012,444.606,14.916,444.883,14.916z M444.883,21.955c0.276,0,0.513,0.097,0.711,0.289
			c0.198,0.193,0.297,0.427,0.297,0.703c0,0.281-0.099,0.517-0.297,0.707s-0.435,0.285-0.711,0.285s-0.513-0.095-0.711-0.285
			s-0.297-0.426-0.297-0.707c0-0.276,0.099-0.51,0.297-0.703C444.37,22.051,444.606,21.955,444.883,21.955z"/>
		<path fill="#333333" d="M461.055,23.744h-7.359v-1.328l3.516-3.508c0.969-0.969,1.617-1.735,1.945-2.301
			c0.328-0.565,0.492-1.149,0.492-1.754c0-0.688-0.192-1.215-0.578-1.582s-0.942-0.551-1.672-0.551
			c-1.078,0-2.106,0.458-3.086,1.375v-1.555c0.953-0.734,2.063-1.102,3.328-1.102c1.089,0,1.948,0.294,2.578,0.883
			c0.63,0.589,0.945,1.38,0.945,2.375c0,0.75-0.202,1.486-0.605,2.207c-0.403,0.722-1.168,1.64-2.293,2.754l-2.758,2.695v0.031
			h5.547V23.744z"/>
		<path fill="#333333" d="M463.633,21.884c0.813,0.531,1.659,0.797,2.539,0.797c0.833,0,1.505-0.233,2.016-0.699
			c0.511-0.466,0.766-1.084,0.766-1.855c0-0.776-0.259-1.377-0.777-1.805c-0.519-0.427-1.27-0.641-2.254-0.641
			c-0.474,0-1.112,0.037-1.914,0.109v-6.148h5.953v1.352h-4.531v3.422c0.453-0.026,0.794-0.039,1.023-0.039
			c1.276,0,2.271,0.323,2.984,0.969c0.714,0.646,1.07,1.537,1.07,2.672c0,1.172-0.383,2.12-1.148,2.844
			c-0.766,0.724-1.823,1.086-3.172,1.086c-1.13,0-1.981-0.167-2.555-0.5V21.884z"/>
		<path fill="#333333" d="M472.313,14.697c0-0.989,0.265-1.776,0.793-2.359c0.528-0.583,1.241-0.875,2.137-0.875
			c0.859,0,1.53,0.269,2.012,0.805c0.481,0.537,0.723,1.284,0.723,2.242c0,0.953-0.266,1.727-0.797,2.32s-1.237,0.891-2.117,0.891
			c-0.833,0-1.5-0.276-2-0.828C472.563,16.34,472.313,15.608,472.313,14.697z M473.516,14.619c0,0.672,0.146,1.19,0.438,1.555
			c0.292,0.365,0.69,0.547,1.195,0.547c0.521,0,0.923-0.188,1.207-0.566c0.284-0.377,0.426-0.91,0.426-1.598
			c0-0.672-0.14-1.191-0.418-1.559s-0.671-0.551-1.176-0.551c-0.516,0-0.923,0.191-1.223,0.574S473.516,13.937,473.516,14.619z
			 M483.25,11.642l-7.773,12.18h-1.305l7.773-12.18H483.25z M479.563,20.908c0-0.989,0.265-1.78,0.793-2.371
			c0.528-0.591,1.238-0.887,2.129-0.887c0.854,0,1.523,0.27,2.008,0.809s0.727,1.298,0.727,2.277c0,0.948-0.269,1.718-0.805,2.309
			c-0.536,0.591-1.237,0.887-2.102,0.887c-0.839,0-1.507-0.28-2.004-0.84C479.812,22.532,479.563,21.804,479.563,20.908z
			 M480.758,20.837c0,0.656,0.146,1.168,0.438,1.535s0.69,0.551,1.195,0.551c0.521,0,0.923-0.19,1.207-0.57
			c0.284-0.38,0.426-0.911,0.426-1.594c0-0.677-0.142-1.195-0.426-1.555s-0.673-0.539-1.168-0.539c-0.531,0-0.942,0.191-1.234,0.574
			S480.758,20.155,480.758,20.837z"/>
	</g>
	<rect x="405.403" y="1.487" fill="#5EC6D3" width="137.797" height="2.668"/>
	<g>
		<path fill="#333333" d="M405.246,221.148h-1.547v3.141h-1.484v-3.141h-5.641v-0.992l5.352-7.969h1.773v7.75h1.547V221.148z
			 M402.215,219.938v-5.07c0-0.359,0.011-0.773,0.031-1.242h-0.031c-0.073,0.199-0.227,0.508-0.461,0.93l-3.602,5.383H402.215z"/>
		<path fill="#333333" d="M407.199,222.43c0.813,0.531,1.659,0.797,2.539,0.797c0.833,0,1.505-0.232,2.016-0.699
			c0.511-0.465,0.766-1.084,0.766-1.855c0-0.775-0.259-1.377-0.777-1.805c-0.519-0.426-1.27-0.641-2.254-0.641
			c-0.474,0-1.112,0.037-1.914,0.109v-6.148h5.953v1.352h-4.531v3.422c0.453-0.025,0.794-0.039,1.023-0.039
			c1.276,0,2.271,0.324,2.984,0.969c0.714,0.646,1.07,1.537,1.07,2.672c0,1.172-0.383,2.121-1.148,2.844
			c-0.766,0.725-1.823,1.086-3.172,1.086c-1.13,0-1.981-0.166-2.555-0.5V222.43z"/>
		<path fill="#333333" d="M421.02,220.086h-4.602v-1.18h4.602V220.086z"/>
		<path fill="#333333" d="M430.074,213.742c-0.63-0.322-1.289-0.484-1.977-0.484c-1.047,0-1.888,0.457-2.523,1.367
			c-0.636,0.912-0.958,2.156-0.969,3.734h0.039c0.573-1.109,1.487-1.664,2.742-1.664c1.047,0,1.883,0.342,2.508,1.023
			c0.625,0.684,0.938,1.59,0.938,2.719c0,1.184-0.36,2.154-1.082,2.914c-0.722,0.762-1.642,1.141-2.762,1.141
			c-1.229,0-2.194-0.48-2.895-1.441s-1.051-2.324-1.051-4.09c0-2.135,0.46-3.832,1.379-5.09s2.129-1.887,3.629-1.887
			c0.859,0,1.534,0.117,2.023,0.352V213.742z M424.699,220.328c0,0.797,0.212,1.48,0.637,2.047c0.425,0.568,0.988,0.852,1.691,0.852
			c0.667,0,1.208-0.244,1.625-0.734c0.417-0.488,0.625-1.119,0.625-1.891c0-0.832-0.196-1.48-0.59-1.945
			c-0.394-0.463-0.952-0.695-1.676-0.695c-0.688,0-1.245,0.234-1.672,0.703S424.699,219.688,424.699,220.328z"/>
		<path fill="#333333" d="M432.215,218.477c0-2.135,0.354-3.75,1.063-4.848c0.708-1.096,1.734-1.645,3.078-1.645
			c2.563,0,3.844,2.068,3.844,6.203c0,2.043-0.36,3.604-1.082,4.684c-0.722,1.082-1.733,1.621-3.035,1.621
			c-1.229,0-2.181-0.512-2.855-1.539C432.552,221.928,432.215,220.436,432.215,218.477z M433.777,218.406
			c0,3.215,0.815,4.82,2.445,4.82c1.604,0,2.406-1.633,2.406-4.898c0-3.379-0.786-5.07-2.359-5.07
			C434.608,213.258,433.777,214.975,433.777,218.406z"/>
		<path fill="#333333" d="M441.168,221.391c2.333-1.563,4.161-3.385,5.484-5.469l1.219,0.391c-0.323,0.49-0.656,0.965-1,1.422h8.156
			v1.078c-1.636,2.355-3.469,4.109-5.5,5.266s-4.516,1.969-7.453,2.438c-0.167-0.344-0.396-0.75-0.688-1.219
			c2.625-0.375,4.849-1,6.672-1.875c-0.802-0.719-1.714-1.469-2.734-2.25l0.797-0.828c1.198,0.928,2.203,1.756,3.016,2.484
			c1.698-0.979,3.146-2.301,4.344-3.969h-7.547c-0.979,1.168-2.271,2.324-3.875,3.469
			C441.819,222.027,441.522,221.715,441.168,221.391z M453.934,216.266v-0.531h-11.313v-3.781h1.219v2.656h4.438v-3.438h1.219v3.438
			h4.438v-2.656h1.219v4.313H453.934z"/>
		<path fill="#333333" d="M464.902,215.461c0.276,0,0.513,0.098,0.711,0.289c0.198,0.193,0.297,0.426,0.297,0.695
			c0,0.271-0.097,0.504-0.289,0.699s-0.433,0.293-0.719,0.293s-0.526-0.098-0.719-0.293s-0.289-0.428-0.289-0.699
			c0-0.27,0.099-0.502,0.297-0.695C464.39,215.559,464.626,215.461,464.902,215.461z M464.902,222.5
			c0.276,0,0.513,0.098,0.711,0.289c0.198,0.193,0.297,0.428,0.297,0.703c0,0.281-0.099,0.518-0.297,0.707
			c-0.198,0.191-0.435,0.285-0.711,0.285s-0.513-0.094-0.711-0.285c-0.198-0.189-0.297-0.426-0.297-0.707
			c0-0.275,0.099-0.51,0.297-0.703C464.39,222.598,464.626,222.5,464.902,222.5z"/>
		<path fill="#333333" d="M481.074,224.289h-7.359v-1.328l3.516-3.508c0.969-0.969,1.617-1.734,1.945-2.301
			c0.328-0.564,0.492-1.148,0.492-1.754c0-0.688-0.192-1.215-0.578-1.582s-0.942-0.551-1.672-0.551
			c-1.078,0-2.106,0.459-3.086,1.375v-1.555c0.953-0.734,2.063-1.102,3.328-1.102c1.089,0,1.948,0.295,2.578,0.883
			c0.63,0.59,0.945,1.381,0.945,2.375c0,0.75-0.202,1.486-0.605,2.207c-0.403,0.723-1.168,1.641-2.293,2.754l-2.758,2.695v0.031
			h5.547V224.289z"/>
		<path fill="#333333" d="M483.652,222.43c0.813,0.531,1.659,0.797,2.539,0.797c0.833,0,1.505-0.232,2.016-0.699
			c0.511-0.465,0.766-1.084,0.766-1.855c0-0.775-0.259-1.377-0.777-1.805c-0.519-0.426-1.27-0.641-2.254-0.641
			c-0.474,0-1.112,0.037-1.914,0.109v-6.148h5.953v1.352h-4.531v3.422c0.453-0.025,0.794-0.039,1.023-0.039
			c1.276,0,2.271,0.324,2.984,0.969c0.714,0.646,1.07,1.537,1.07,2.672c0,1.172-0.383,2.121-1.148,2.844
			c-0.766,0.725-1.823,1.086-3.172,1.086c-1.13,0-1.981-0.166-2.555-0.5V222.43z"/>
		<path fill="#333333" d="M491.902,225.047c4.542-2.625,6.942-7.229,7.203-13.813h1.375c-0.058,1.115-0.167,2.178-0.328,3.188
			c1.292,5.209,3.719,8.637,7.281,10.281c-0.438,0.48-0.823,0.934-1.156,1.359c-3.094-1.75-5.3-4.846-6.617-9.289
			c-1.141,4.293-3.398,7.445-6.773,9.461C492.605,225.85,492.277,225.453,491.902,225.047z"/>
	</g>
	<g>
		<path fill="#333333" d="M399.09,240.861v4.688h4.406v1.172h-4.406v6.641c1.083-0.459,2.5-1.104,4.25-1.938
			c0,0.49,0.021,0.959,0.063,1.406c-1.531,0.615-2.828,1.191-3.891,1.734c-0.458,0.238-0.88,0.525-1.266,0.859l-0.953-1.219
			c0.333-0.25,0.5-0.631,0.5-1.141v-12.203H399.09z M404.496,240.455h1.297v6.609c2.026-1.463,3.692-2.994,5-4.594l1.109,0.828
			c-1.688,1.859-3.724,3.627-6.109,5.305v4.523c0,0.688,0.302,1.031,0.906,1.031h2.672c0.688,0,1.083-0.309,1.188-0.922
			c0.125-0.791,0.219-1.662,0.281-2.609c0.438,0.166,0.886,0.318,1.344,0.453c-0.094,0.969-0.219,1.838-0.375,2.609
			c-0.219,1.072-0.911,1.609-2.078,1.609h-3.438c-1.198,0-1.797-0.652-1.797-1.953V240.455z"/>
		<path fill="#333333" d="M412.652,248.018c1.344-2.281,2.339-4.807,2.984-7.578l1.156,0.219c-0.276,1.166-0.625,2.318-1.047,3.453
			v11.656h-1.063v-9.141c-0.458,0.953-0.969,1.896-1.531,2.828C413.027,249.039,412.86,248.559,412.652,248.018z M418.387,249.143
			l0.625-0.875c0.474,0.322,0.987,0.701,1.539,1.133c0.401-1.068,0.68-2.227,0.836-3.477h-2.195
			c-0.589,1.906-1.315,3.438-2.18,4.594c-0.219-0.334-0.469-0.656-0.75-0.969c1.177-1.693,2.05-4.063,2.617-7.109h-1.695v-1.094
			h6.047v1.094h-3.188c-0.161,0.854-0.341,1.656-0.539,2.406h3.039v1.078c-0.427,4.104-2.099,7.396-5.016,9.875
			c-0.229-0.313-0.516-0.652-0.859-1.016c1.474-1.188,2.614-2.619,3.422-4.297C419.574,250.064,419.007,249.617,418.387,249.143z
			 M426.371,240.486h1.141v13.047c0,0.791-0.125,1.332-0.375,1.625c-0.219,0.27-0.656,0.41-1.313,0.422
			c-0.448,0.01-1.172,0-2.172-0.031c-0.042-0.428-0.114-0.859-0.219-1.297c0.802,0.082,1.458,0.125,1.969,0.125
			c0.406,0.01,0.667-0.063,0.781-0.219c0.125-0.137,0.188-0.469,0.188-1V240.486z M424.715,252.111h-1.109v-9.172h1.109V252.111z"/>
		<path fill="#333333" d="M436.449,244.916c0.276,0,0.513,0.096,0.711,0.289s0.297,0.424,0.297,0.695s-0.097,0.504-0.289,0.699
			s-0.433,0.293-0.719,0.293s-0.526-0.098-0.719-0.293s-0.289-0.428-0.289-0.699s0.099-0.502,0.297-0.695
			S436.173,244.916,436.449,244.916z M436.449,251.955c0.276,0,0.513,0.096,0.711,0.289s0.297,0.428,0.297,0.703
			c0,0.281-0.099,0.518-0.297,0.707s-0.435,0.285-0.711,0.285s-0.513-0.096-0.711-0.285s-0.297-0.426-0.297-0.707
			c0-0.275,0.099-0.51,0.297-0.703S436.173,251.955,436.449,251.955z"/>
		<path fill="#333333" d="M452.621,253.744h-7.359v-1.328l3.516-3.508c0.969-0.969,1.617-1.736,1.945-2.301s0.492-1.15,0.492-1.754
			c0-0.688-0.192-1.215-0.578-1.582s-0.942-0.551-1.672-0.551c-1.078,0-2.106,0.459-3.086,1.375v-1.555
			c0.953-0.734,2.063-1.102,3.328-1.102c1.089,0,1.948,0.295,2.578,0.883s0.945,1.381,0.945,2.375c0,0.75-0.202,1.486-0.605,2.207
			s-1.168,1.639-2.293,2.754l-2.758,2.695v0.031h5.547V253.744z"/>
		<path fill="#333333" d="M455.199,251.885c0.813,0.531,1.659,0.797,2.539,0.797c0.833,0,1.505-0.232,2.016-0.699
			s0.766-1.084,0.766-1.855c0-0.775-0.259-1.377-0.777-1.805s-1.27-0.641-2.254-0.641c-0.474,0-1.112,0.037-1.914,0.109v-6.148
			h5.953v1.352h-4.531v3.422c0.453-0.025,0.794-0.039,1.023-0.039c1.276,0,2.271,0.322,2.984,0.969s1.07,1.537,1.07,2.672
			c0,1.172-0.383,2.119-1.148,2.844s-1.823,1.086-3.172,1.086c-1.13,0-1.981-0.168-2.555-0.5V251.885z"/>
		<path fill="#333333" d="M463.879,244.697c0-0.99,0.265-1.775,0.793-2.359s1.241-0.875,2.137-0.875c0.859,0,1.53,0.268,2.012,0.805
			s0.723,1.283,0.723,2.242c0,0.953-0.266,1.727-0.797,2.32s-1.237,0.891-2.117,0.891c-0.833,0-1.5-0.275-2-0.828
			S463.879,245.609,463.879,244.697z M465.082,244.619c0,0.672,0.146,1.189,0.438,1.555s0.69,0.547,1.195,0.547
			c0.521,0,0.923-0.189,1.207-0.566s0.426-0.91,0.426-1.598c0-0.672-0.14-1.191-0.418-1.559s-0.671-0.551-1.176-0.551
			c-0.516,0-0.923,0.191-1.223,0.574S465.082,243.938,465.082,244.619z M474.816,241.643l-7.773,12.18h-1.305l7.773-12.18H474.816z
			 M471.129,250.908c0-0.99,0.265-1.779,0.793-2.371s1.238-0.887,2.129-0.887c0.854,0,1.523,0.27,2.008,0.809
			s0.727,1.299,0.727,2.277c0,0.947-0.269,1.717-0.805,2.309s-1.237,0.887-2.102,0.887c-0.839,0-1.507-0.279-2.004-0.84
			S471.129,251.805,471.129,250.908z M472.324,250.838c0,0.656,0.146,1.168,0.438,1.535s0.69,0.551,1.195,0.551
			c0.521,0,0.923-0.189,1.207-0.57s0.426-0.912,0.426-1.594c0-0.678-0.142-1.195-0.426-1.555s-0.673-0.539-1.168-0.539
			c-0.531,0-0.942,0.191-1.234,0.574S472.324,250.156,472.324,250.838z"/>
	</g>
	<rect x="396.97" y="231.486" fill="#E6454A" width="115.08" height="2.668"/>
	<g>
		<path fill="#333333" d="M-2.64,209.111c0.828,0.641,1.764,0.961,2.805,0.961c0.834,0,1.494-0.205,1.98-0.613
			c0.487-0.408,0.73-0.957,0.73-1.645c0-1.531-1.096-2.297-3.289-2.297h-1.008v-1.266h0.961c1.943,0,2.914-0.719,2.914-2.156
			c0-1.328-0.742-1.992-2.227-1.992c-0.849,0-1.648,0.287-2.398,0.859v-1.445c0.792-0.459,1.717-0.688,2.773-0.688
			c1.031,0,1.859,0.27,2.484,0.809s0.938,1.238,0.938,2.098c0,1.584-0.807,2.602-2.422,3.055v0.031
			c0.875,0.094,1.566,0.402,2.074,0.926s0.762,1.176,0.762,1.957c0,1.088-0.392,1.967-1.176,2.633c-0.783,0.666-1.826,1-3.129,1
			c-1.146,0-2.07-0.213-2.773-0.641V209.111z"/>
		<path fill="#333333" d="M13.579,200.588c-0.63-0.322-1.289-0.484-1.977-0.484c-1.047,0-1.888,0.455-2.523,1.367
			c-0.635,0.912-0.958,2.156-0.969,3.734h0.039c0.573-1.109,1.487-1.664,2.742-1.664c1.047,0,1.883,0.342,2.508,1.023
			s0.938,1.588,0.938,2.719c0,1.182-0.36,2.154-1.082,2.914c-0.721,0.76-1.642,1.141-2.762,1.141c-1.229,0-2.193-0.48-2.895-1.441
			c-0.7-0.961-1.051-2.324-1.051-4.09c0-2.135,0.46-3.832,1.379-5.09c0.92-1.258,2.129-1.887,3.629-1.887
			c0.859,0,1.534,0.117,2.023,0.352V200.588z M8.204,207.174c0,0.797,0.213,1.479,0.637,2.047c0.425,0.568,0.988,0.852,1.691,0.852
			c0.667,0,1.209-0.244,1.625-0.734c0.417-0.49,0.625-1.119,0.625-1.891c0-0.834-0.196-1.482-0.59-1.945
			c-0.393-0.463-0.951-0.695-1.676-0.695c-0.688,0-1.244,0.234-1.672,0.703C8.418,205.979,8.204,206.533,8.204,207.174z"/>
		<path fill="#333333" d="M20.829,206.932h-4.602v-1.18h4.602V206.932z"/>
		<path fill="#333333" d="M30.743,207.994h-1.547v3.141h-1.484v-3.141h-5.641v-0.992l5.352-7.969h1.773v7.75h1.547V207.994z
			 M27.712,206.783v-5.07c0-0.359,0.011-0.773,0.031-1.242h-0.031c-0.072,0.197-0.227,0.508-0.461,0.93l-3.602,5.383H27.712z"/>
		<path fill="#333333" d="M32.696,209.275c0.813,0.531,1.659,0.797,2.539,0.797c0.834,0,1.506-0.232,2.016-0.699
			c0.511-0.467,0.766-1.084,0.766-1.855c0-0.775-0.259-1.377-0.777-1.805c-0.518-0.428-1.27-0.641-2.254-0.641
			c-0.474,0-1.111,0.037-1.914,0.109v-6.148h5.953v1.352h-4.531v3.422c0.453-0.025,0.795-0.039,1.023-0.039
			c1.276,0,2.271,0.322,2.984,0.969c0.714,0.646,1.07,1.537,1.07,2.672c0,1.172-0.383,2.119-1.148,2.844s-1.822,1.086-3.172,1.086
			c-1.13,0-1.981-0.166-2.555-0.5V209.275z"/>
		<path fill="#333333" d="M40.978,208.236c2.334-1.563,4.162-3.385,5.484-5.469l1.219,0.391c-0.322,0.49-0.656,0.963-1,1.422h8.156
			v1.078c-1.635,2.354-3.469,4.109-5.5,5.266s-4.516,1.969-7.453,2.438c-0.166-0.344-0.396-0.75-0.688-1.219
			c2.625-0.375,4.85-1,6.672-1.875c-0.802-0.719-1.713-1.469-2.734-2.25l0.797-0.828c1.198,0.928,2.203,1.756,3.016,2.484
			c1.698-0.979,3.146-2.303,4.344-3.969h-7.547c-0.979,1.166-2.271,2.322-3.875,3.469C41.629,208.871,41.332,208.559,40.978,208.236
			z M53.743,203.111v-0.531H42.431v-3.781h1.219v2.656h4.438v-3.438h1.219v3.438h4.438v-2.656h1.219v4.313H53.743z"/>
		<path fill="#333333" d="M64.712,202.307c0.276,0,0.514,0.096,0.711,0.289c0.198,0.193,0.297,0.424,0.297,0.695
			s-0.096,0.504-0.289,0.699c-0.192,0.195-0.432,0.293-0.719,0.293c-0.286,0-0.525-0.098-0.719-0.293
			c-0.192-0.195-0.289-0.428-0.289-0.699s0.1-0.502,0.297-0.695C64.199,202.402,64.437,202.307,64.712,202.307z M64.712,209.346
			c0.276,0,0.514,0.096,0.711,0.289c0.198,0.193,0.297,0.428,0.297,0.703c0,0.281-0.099,0.518-0.297,0.707
			c-0.197,0.189-0.435,0.285-0.711,0.285c-0.275,0-0.513-0.096-0.711-0.285c-0.197-0.189-0.297-0.426-0.297-0.707
			c0-0.275,0.1-0.51,0.297-0.703C64.199,209.441,64.437,209.346,64.712,209.346z"/>
		<path fill="#333333" d="M80.884,211.135h-7.359v-1.328l3.516-3.508c0.969-0.969,1.617-1.736,1.945-2.301s0.492-1.15,0.492-1.754
			c0-0.688-0.192-1.215-0.578-1.582c-0.385-0.367-0.942-0.551-1.672-0.551c-1.078,0-2.106,0.459-3.086,1.375v-1.555
			c0.953-0.734,2.063-1.102,3.328-1.102c1.089,0,1.948,0.295,2.578,0.883c0.631,0.588,0.945,1.381,0.945,2.375
			c0,0.75-0.201,1.486-0.605,2.207c-0.403,0.721-1.168,1.639-2.293,2.754l-2.758,2.695v0.031h5.547V211.135z"/>
		<path fill="#333333" d="M83.462,209.275c0.813,0.531,1.659,0.797,2.539,0.797c0.834,0,1.506-0.232,2.016-0.699
			c0.511-0.467,0.766-1.084,0.766-1.855c0-0.775-0.259-1.377-0.777-1.805c-0.518-0.428-1.27-0.641-2.254-0.641
			c-0.474,0-1.111,0.037-1.914,0.109v-6.148h5.953v1.352h-4.531v3.422c0.453-0.025,0.795-0.039,1.023-0.039
			c1.276,0,2.271,0.322,2.984,0.969c0.714,0.646,1.07,1.537,1.07,2.672c0,1.172-0.383,2.119-1.148,2.844s-1.822,1.086-3.172,1.086
			c-1.13,0-1.981-0.166-2.555-0.5V209.275z"/>
		<path fill="#333333" d="M91.712,211.893c4.542-2.625,6.943-7.229,7.203-13.813h1.375c-0.057,1.115-0.166,2.178-0.328,3.188
			c1.292,5.209,3.719,8.635,7.281,10.281c-0.438,0.479-0.822,0.932-1.156,1.359c-3.094-1.75-5.299-4.846-6.617-9.289
			c-1.141,4.291-3.398,7.445-6.773,9.461C92.415,212.695,92.087,212.299,91.712,211.893z"/>
	</g>
	<g>
		<path fill="#333333" d="M-1.101,227.705v4.688h4.406v1.172h-4.406v6.641c1.084-0.457,2.5-1.104,4.25-1.938
			c0,0.49,0.021,0.959,0.063,1.406c-1.531,0.615-2.828,1.193-3.891,1.734c-0.458,0.24-0.88,0.527-1.266,0.859l-0.953-1.219
			c0.334-0.25,0.5-0.629,0.5-1.141v-12.203H-1.101z M4.306,227.299h1.297v6.609c2.026-1.463,3.693-2.994,5-4.594l1.109,0.828
			c-1.688,1.859-3.724,3.629-6.109,5.305v4.523c0,0.688,0.303,1.031,0.906,1.031h2.672c0.688,0,1.084-0.307,1.188-0.922
			c0.125-0.791,0.219-1.66,0.281-2.609c0.438,0.168,0.886,0.318,1.344,0.453c-0.094,0.969-0.219,1.84-0.375,2.609
			c-0.219,1.074-0.911,1.609-2.078,1.609H6.103c-1.197,0-1.797-0.65-1.797-1.953V227.299z"/>
		<path fill="#333333" d="M12.462,234.861c1.344-2.281,2.339-4.807,2.984-7.578l1.156,0.219c-0.275,1.168-0.625,2.318-1.047,3.453
			v11.656h-1.063v-9.141c-0.458,0.953-0.969,1.896-1.531,2.828C12.837,235.883,12.671,235.404,12.462,234.861z M18.196,235.986
			l0.625-0.875c0.475,0.324,0.987,0.701,1.539,1.133c0.401-1.066,0.68-2.227,0.836-3.477h-2.195
			c-0.588,1.906-1.314,3.438-2.18,4.594c-0.219-0.332-0.469-0.656-0.75-0.969c1.178-1.691,2.05-4.063,2.617-7.109h-1.695v-1.094
			h6.047v1.094h-3.188c-0.161,0.855-0.341,1.656-0.539,2.406h3.039v1.078c-0.427,4.105-2.099,7.396-5.016,9.875
			c-0.229-0.313-0.516-0.65-0.859-1.016c1.475-1.188,2.615-2.619,3.422-4.297C19.384,236.908,18.816,236.461,18.196,235.986z
			 M26.181,227.33h1.141v13.047c0,0.793-0.125,1.334-0.375,1.625c-0.219,0.271-0.656,0.412-1.313,0.422
			c-0.447,0.012-1.172,0-2.172-0.031c-0.041-0.426-0.114-0.859-0.219-1.297c0.803,0.084,1.459,0.125,1.969,0.125
			c0.406,0.012,0.667-0.063,0.781-0.219c0.125-0.135,0.188-0.469,0.188-1V227.33z M24.524,238.955h-1.109v-9.172h1.109V238.955z"/>
		<path fill="#333333" d="M36.259,231.76c0.276,0,0.514,0.098,0.711,0.289c0.198,0.193,0.297,0.426,0.297,0.695
			c0,0.271-0.096,0.504-0.289,0.699c-0.192,0.195-0.432,0.293-0.719,0.293c-0.286,0-0.525-0.098-0.719-0.293
			c-0.192-0.195-0.289-0.428-0.289-0.699c0-0.27,0.1-0.502,0.297-0.695C35.746,231.857,35.983,231.76,36.259,231.76z
			 M36.259,238.799c0.276,0,0.514,0.098,0.711,0.289c0.198,0.193,0.297,0.428,0.297,0.703c0,0.281-0.099,0.518-0.297,0.707
			c-0.197,0.191-0.435,0.285-0.711,0.285c-0.275,0-0.513-0.094-0.711-0.285c-0.197-0.189-0.297-0.426-0.297-0.707
			c0-0.275,0.1-0.51,0.297-0.703C35.746,238.896,35.983,238.799,36.259,238.799z"/>
		<path fill="#333333" d="M52.431,240.588h-7.359v-1.328l3.516-3.508c0.969-0.969,1.617-1.734,1.945-2.301
			c0.328-0.564,0.492-1.148,0.492-1.754c0-0.688-0.192-1.215-0.578-1.582c-0.385-0.367-0.942-0.551-1.672-0.551
			c-1.078,0-2.106,0.459-3.086,1.375v-1.555c0.953-0.734,2.063-1.102,3.328-1.102c1.089,0,1.948,0.295,2.578,0.883
			c0.631,0.59,0.945,1.381,0.945,2.375c0,0.75-0.201,1.486-0.605,2.207c-0.403,0.723-1.168,1.641-2.293,2.754l-2.758,2.695v0.031
			h5.547V240.588z"/>
		<path fill="#333333" d="M55.009,238.729c0.813,0.531,1.659,0.797,2.539,0.797c0.834,0,1.506-0.232,2.016-0.699
			c0.511-0.465,0.766-1.084,0.766-1.855c0-0.775-0.259-1.377-0.777-1.805c-0.518-0.426-1.27-0.641-2.254-0.641
			c-0.474,0-1.111,0.037-1.914,0.109v-6.148h5.953v1.352h-4.531v3.422c0.453-0.025,0.795-0.039,1.023-0.039
			c1.276,0,2.271,0.324,2.984,0.969c0.714,0.646,1.07,1.537,1.07,2.672c0,1.172-0.383,2.121-1.148,2.844
			c-0.766,0.725-1.822,1.086-3.172,1.086c-1.13,0-1.981-0.166-2.555-0.5V238.729z"/>
		<path fill="#333333" d="M63.688,231.541c0-0.988,0.265-1.775,0.793-2.359c0.529-0.582,1.241-0.875,2.137-0.875
			c0.859,0,1.53,0.27,2.012,0.805c0.482,0.537,0.723,1.285,0.723,2.242c0,0.953-0.266,1.727-0.797,2.32s-1.236,0.891-2.117,0.891
			c-0.833,0-1.5-0.275-2-0.828C63.938,233.186,63.688,232.453,63.688,231.541z M64.892,231.463c0,0.672,0.146,1.191,0.438,1.555
			c0.292,0.365,0.69,0.547,1.195,0.547c0.521,0,0.924-0.188,1.207-0.566c0.284-0.377,0.426-0.91,0.426-1.598
			c0-0.672-0.139-1.191-0.418-1.559c-0.278-0.367-0.67-0.551-1.176-0.551c-0.516,0-0.923,0.191-1.223,0.574
			C65.042,230.248,64.892,230.781,64.892,231.463z M74.626,228.486l-7.773,12.18h-1.305l7.773-12.18H74.626z M70.938,237.752
			c0-0.988,0.265-1.779,0.793-2.371c0.529-0.59,1.238-0.887,2.129-0.887c0.854,0,1.523,0.27,2.008,0.809s0.727,1.299,0.727,2.277
			c0,0.949-0.268,1.719-0.805,2.309c-0.536,0.592-1.236,0.887-2.102,0.887c-0.838,0-1.506-0.279-2.004-0.84
			C71.188,239.377,70.938,238.648,70.938,237.752z M72.134,237.682c0,0.656,0.146,1.168,0.438,1.535
			c0.292,0.367,0.69,0.551,1.195,0.551c0.521,0,0.924-0.189,1.207-0.57c0.284-0.379,0.426-0.91,0.426-1.594
			c0-0.676-0.142-1.195-0.426-1.555c-0.283-0.359-0.673-0.539-1.168-0.539c-0.531,0-0.942,0.191-1.234,0.574
			C72.28,236.467,72.134,237,72.134,237.682z"/>
	</g>
	<rect x="-3.221" y="218.332" fill="#E95513" width="115.08" height="2.668"/>
	<path fill="#999999" d="M267.089,56.028c22.396,2.754,39.789,21.648,40.183,44.696l29.739,16.131l29.337-16.093
		C365.953,45.17,322.328-0.14,267.415-3.225l15.995,29.158L267.089,56.028z"/>
	<path fill="#5EC6D3" d="M267.089,52.028c22.396,2.754,39.789,21.648,40.183,44.696l29.739,16.131l29.337-16.093
		C365.953,41.17,322.328-4.14,267.415-7.225l15.995,29.158L267.089,52.028z"/>
	<path fill="#999999" d="M217.061,91.871c2.755-22.396,21.648-39.787,44.698-40.183l16.13-29.739L261.794-7.388
		c-55.591,0.396-100.9,44.02-103.985,98.933l29.157-15.995L217.061,91.871z"/>
	<path fill="#546E7A" d="M213.943,91.871c2.755-22.396,21.648-39.787,44.698-40.183l16.13-29.739L258.677-7.388
		c-55.591,0.396-100.9,44.02-103.985,98.933l29.157-15.995L213.943,91.871z"/>
	<path fill="#999999" d="M364.029,106.654l-29.158,15.997l-30.094-16.323c-2.754,22.397-21.648,39.79-44.698,40.182l-16.13,29.74
		l16.094,29.338C315.636,205.191,360.945,161.566,364.029,106.654z"/>
	<path fill="#F26D64" d="M366.185,103.499l-29.158,15.996l-30.094-16.322c-2.754,22.398-21.648,39.791-44.698,40.183l-16.13,29.738
		l16.094,29.338C317.791,202.037,363.101,158.412,366.185,103.499z"/>
	<path fill="#999999" d="M253.788,140.303c-22.398-2.756-39.79-21.65-40.184-44.699l-29.739-16.13l-29.338,16.094
		c0.396,55.592,44.021,100.901,98.934,103.985l-15.995-29.156L253.788,140.303z"/>
	<path fill="#F8841D" d="M253.788,143.018c-22.398-2.756-39.79-21.65-40.184-44.699l-29.739-16.13l-29.338,16.094
		c0.396,55.592,44.021,100.901,98.934,103.985l-15.995-29.156L253.788,143.018z"/>
	<g>
		<path fill="#FFFFFF" d="M198.945,42.244h-9.951v-1.484h9.951V42.244z M198.555,39.578l-9.17-4.541v-0.752l9.17-4.99v1.68
			l-6.816,3.623v0.039l6.816,3.232V39.578z"/>
		<path fill="#FFFFFF" d="M202.773,39.714c1.035,0.801,2.203,1.201,3.506,1.201c1.041,0,1.866-0.255,2.476-0.767
			c0.608-0.511,0.913-1.196,0.913-2.056c0-1.914-1.371-2.871-4.111-2.871h-1.26V33.64h1.201c2.428,0,3.643-0.898,3.643-2.695
			c0-1.66-0.928-2.49-2.783-2.49c-1.062,0-2.061,0.358-2.998,1.074v-1.807c0.989-0.573,2.145-0.859,3.467-0.859
			c1.289,0,2.324,0.337,3.105,1.011s1.172,1.548,1.172,2.622c0,1.979-1.01,3.252-3.027,3.818v0.039
			c1.094,0.117,1.958,0.503,2.593,1.157s0.952,1.47,0.952,2.446c0,1.361-0.49,2.458-1.47,3.291c-0.98,0.833-2.284,1.25-3.911,1.25
			c-1.433,0-2.588-0.267-3.467-0.801V39.714z"/>
		<path fill="#FFFFFF" d="M223.047,29.06c-0.788-0.404-1.611-0.605-2.471-0.605c-1.309,0-2.36,0.57-3.154,1.709
			c-0.795,1.139-1.198,2.695-1.211,4.668h0.049c0.716-1.387,1.858-2.08,3.428-2.08c1.309,0,2.354,0.426,3.135,1.279
			s1.172,1.986,1.172,3.398c0,1.478-0.451,2.692-1.353,3.643c-0.902,0.951-2.053,1.426-3.452,1.426
			c-1.537,0-2.743-0.601-3.618-1.802c-0.876-1.201-1.313-2.905-1.313-5.112c0-2.669,0.574-4.79,1.724-6.362
			c1.148-1.572,2.661-2.358,4.536-2.358c1.074,0,1.917,0.146,2.529,0.439V29.06z M216.328,37.292c0,0.996,0.265,1.849,0.796,2.559
			c0.53,0.709,1.235,1.064,2.114,1.064c0.833,0,1.51-0.306,2.031-0.918c0.521-0.612,0.781-1.4,0.781-2.363
			c0-1.042-0.246-1.852-0.737-2.432c-0.492-0.58-1.19-0.869-2.095-0.869c-0.859,0-1.557,0.293-2.09,0.879
			C216.595,35.798,216.328,36.492,216.328,37.292z"/>
		<path fill="#FFFFFF" d="M225.186,38.621c2.916-1.953,5.201-4.232,6.855-6.836l1.523,0.488c-0.404,0.612-0.82,1.205-1.25,1.777
			h10.195v1.348c-2.045,2.943-4.336,5.137-6.875,6.582s-5.645,2.461-9.316,3.047c-0.209-0.43-0.495-0.938-0.859-1.523
			c3.281-0.469,6.061-1.25,8.34-2.344c-1.003-0.898-2.143-1.836-3.418-2.813l0.996-1.035c1.497,1.159,2.754,2.194,3.77,3.105
			c2.122-1.224,3.932-2.877,5.43-4.961h-9.434c-1.225,1.458-2.839,2.904-4.844,4.336C225.999,39.415,225.628,39.024,225.186,38.621z
			 M241.143,32.214V31.55h-14.141v-4.727h1.523v3.32h5.547v-4.297h1.523v4.297h5.547v-3.32h1.523v5.391H241.143z"/>
	</g>
	<g>
		<path fill="#FFFFFF" d="M172.384,151.133c1.035,0.801,2.203,1.201,3.506,1.201c1.041,0,1.866-0.254,2.476-0.766
			c0.608-0.512,0.913-1.197,0.913-2.057c0-1.914-1.371-2.871-4.111-2.871h-1.26v-1.582h1.201c2.428,0,3.643-0.898,3.643-2.695
			c0-1.66-0.928-2.49-2.783-2.49c-1.062,0-2.061,0.359-2.998,1.074v-1.807c0.989-0.572,2.145-0.859,3.467-0.859
			c1.289,0,2.324,0.338,3.105,1.012s1.172,1.547,1.172,2.621c0,1.98-1.01,3.252-3.027,3.818v0.039
			c1.094,0.117,1.958,0.504,2.593,1.158s0.952,1.469,0.952,2.445c0,1.361-0.49,2.459-1.47,3.291c-0.98,0.834-2.284,1.25-3.911,1.25
			c-1.433,0-2.588-0.266-3.467-0.801V151.133z"/>
		<path fill="#FFFFFF" d="M192.657,140.479c-0.788-0.402-1.611-0.605-2.471-0.605c-1.309,0-2.36,0.57-3.154,1.709
			c-0.795,1.141-1.198,2.695-1.211,4.668h0.049c0.716-1.387,1.858-2.08,3.428-2.08c1.309,0,2.354,0.428,3.135,1.279
			c0.781,0.854,1.172,1.986,1.172,3.398c0,1.479-0.451,2.693-1.353,3.643c-0.902,0.951-2.053,1.426-3.452,1.426
			c-1.537,0-2.743-0.6-3.618-1.801c-0.876-1.201-1.313-2.906-1.313-5.113c0-2.668,0.574-4.789,1.724-6.361
			c1.148-1.572,2.661-2.359,4.536-2.359c1.074,0,1.917,0.146,2.529,0.439V140.479z M185.938,148.711c0,0.996,0.265,1.85,0.796,2.559
			c0.53,0.711,1.235,1.064,2.114,1.064c0.833,0,1.51-0.305,2.031-0.918c0.521-0.611,0.781-1.398,0.781-2.363
			c0-1.041-0.246-1.852-0.737-2.432c-0.492-0.578-1.19-0.869-2.095-0.869c-0.859,0-1.557,0.293-2.09,0.879
			C186.205,147.217,185.938,147.91,185.938,148.711z"/>
		<path fill="#FFFFFF" d="M201.72,148.408h-5.752v-1.475h5.752V148.408z"/>
		<path fill="#FFFFFF" d="M214.112,149.736h-1.934v3.926h-1.855v-3.926h-7.051v-1.24l6.689-9.961h2.217v9.688h1.934V149.736z
			 M210.323,148.223v-6.338c0-0.449,0.013-0.967,0.039-1.553h-0.039c-0.092,0.248-0.283,0.635-0.576,1.162l-4.502,6.729H210.323z"/>
		<path fill="#FFFFFF" d="M216.554,151.338c1.016,0.664,2.073,0.996,3.174,0.996c1.041,0,1.881-0.291,2.52-0.873
			c0.638-0.582,0.957-1.355,0.957-2.32c0-0.969-0.324-1.721-0.972-2.256c-0.648-0.533-1.587-0.801-2.817-0.801
			c-0.593,0-1.391,0.047-2.393,0.137v-7.686h7.441v1.689H218.8v4.277c0.566-0.031,0.992-0.049,1.279-0.049
			c1.595,0,2.838,0.404,3.73,1.211c0.892,0.809,1.338,1.922,1.338,3.34c0,1.465-0.479,2.65-1.436,3.555
			c-0.957,0.906-2.279,1.357-3.965,1.357c-1.413,0-2.478-0.207-3.193-0.625V151.338z"/>
		<path fill="#FFFFFF" d="M226.905,150.039c2.916-1.953,5.201-4.23,6.855-6.836l1.523,0.488c-0.404,0.613-0.82,1.205-1.25,1.777
			h10.195v1.348c-2.045,2.943-4.336,5.137-6.875,6.582s-5.645,2.461-9.316,3.047c-0.209-0.43-0.495-0.938-0.859-1.523
			c3.281-0.469,6.061-1.25,8.34-2.344c-1.003-0.898-2.143-1.836-3.418-2.813l0.996-1.035c1.497,1.16,2.754,2.195,3.77,3.105
			c2.122-1.223,3.932-2.877,5.43-4.961h-9.434c-1.225,1.459-2.839,2.904-4.844,4.336
			C227.719,150.834,227.348,150.443,226.905,150.039z M242.862,143.633v-0.664h-14.141v-4.727h1.523v3.32h5.547v-4.297h1.523v4.297
			h5.547v-3.32h1.523v5.391H242.862z"/>
	</g>
	<g>
		<path fill="#FFFFFF" d="M272.245,166.023h-1.934v3.926h-1.855v-3.926h-7.051v-1.24l6.689-9.961h2.217v9.688h1.934V166.023z
			 M268.456,164.51v-6.338c0-0.449,0.014-0.967,0.039-1.553h-0.039c-0.092,0.248-0.283,0.635-0.576,1.162l-4.502,6.729H268.456z"/>
		<path fill="#FFFFFF" d="M274.687,167.625c1.016,0.664,2.074,0.996,3.174,0.996c1.041,0,1.881-0.291,2.52-0.873
			s0.957-1.355,0.957-2.32c0-0.969-0.324-1.721-0.972-2.256c-0.647-0.533-1.587-0.801-2.817-0.801c-0.592,0-1.391,0.047-2.393,0.137
			v-7.686h7.441v1.689h-5.664v4.277c0.566-0.031,0.992-0.049,1.279-0.049c1.596,0,2.838,0.404,3.73,1.211
			c0.893,0.809,1.338,1.922,1.338,3.34c0,1.465-0.479,2.65-1.436,3.555c-0.957,0.906-2.279,1.357-3.965,1.357
			c-1.412,0-2.477-0.207-3.193-0.625V167.625z"/>
		<path fill="#FFFFFF" d="M291.962,164.695h-5.752v-1.475h5.752V164.695z"/>
		<path fill="#FFFFFF" d="M303.28,156.766c-0.787-0.402-1.611-0.605-2.471-0.605c-1.309,0-2.359,0.57-3.154,1.709
			c-0.795,1.141-1.197,2.695-1.211,4.668h0.049c0.717-1.387,1.859-2.08,3.428-2.08c1.309,0,2.354,0.428,3.135,1.279
			c0.781,0.854,1.172,1.986,1.172,3.398c0,1.479-0.451,2.693-1.353,3.643c-0.901,0.951-2.052,1.426-3.452,1.426
			c-1.537,0-2.742-0.6-3.618-1.801s-1.313-2.906-1.313-5.113c0-2.668,0.574-4.789,1.724-6.361s2.661-2.359,4.536-2.359
			c1.074,0,1.918,0.146,2.529,0.439V156.766z M296.562,164.998c0,0.996,0.266,1.85,0.796,2.559c0.53,0.711,1.235,1.064,2.114,1.064
			c0.834,0,1.51-0.305,2.031-0.918c0.521-0.611,0.781-1.398,0.781-2.363c0-1.041-0.246-1.852-0.737-2.432
			c-0.491-0.578-1.19-0.869-2.095-0.869c-0.859,0-1.557,0.293-2.09,0.879S296.562,164.197,296.562,164.998z"/>
		<path fill="#FFFFFF" d="M305.956,162.684c0-2.668,0.443-4.688,1.328-6.059s2.168-2.057,3.848-2.057
			c3.203,0,4.805,2.586,4.805,7.754c0,2.553-0.451,4.504-1.353,5.855s-2.167,2.025-3.794,2.025c-1.537,0-2.727-0.641-3.569-1.924
			C306.378,166.998,305.956,165.133,305.956,162.684z M307.909,162.596c0,4.018,1.02,6.025,3.057,6.025
			c2.006,0,3.008-2.041,3.008-6.123c0-4.225-0.982-6.338-2.949-6.338C308.948,156.16,307.909,158.307,307.909,162.596z"/>
		<path fill="#FFFFFF" d="M317.147,166.326c2.916-1.953,5.201-4.23,6.855-6.836l1.523,0.488c-0.404,0.613-0.82,1.205-1.25,1.777
			h10.195v1.348c-2.045,2.943-4.336,5.137-6.875,6.582s-5.645,2.461-9.316,3.047c-0.209-0.43-0.494-0.938-0.859-1.523
			c3.281-0.469,6.061-1.25,8.34-2.344c-1.002-0.898-2.143-1.836-3.418-2.813l0.996-1.035c1.498,1.16,2.754,2.195,3.77,3.105
			c2.123-1.223,3.932-2.877,5.43-4.961h-9.434c-1.225,1.459-2.838,2.904-4.844,4.336
			C317.962,167.121,317.591,166.73,317.147,166.326z M333.104,159.92v-0.664h-14.141v-4.727h1.523v3.32h5.547v-4.297h1.523v4.297
			h5.547v-3.32h1.523v5.391H333.104z"/>
	</g>
	<g>
		<path fill="#FFFFFF" d="M300.628,56.479h-9.951v-1.484h9.951V56.479z M300.237,49.252l-9.17,4.541v-1.709l6.816-3.184v-0.059
			l-6.816-3.652v-1.68l9.17,4.99V49.252z"/>
		<path fill="#FFFFFF" d="M313.001,43.295c-0.787-0.404-1.611-0.605-2.471-0.605c-1.309,0-2.359,0.57-3.154,1.709
			s-1.197,2.695-1.211,4.668h0.049c0.717-1.387,1.859-2.08,3.428-2.08c1.309,0,2.354,0.426,3.135,1.279s1.172,1.986,1.172,3.398
			c0,1.478-0.451,2.692-1.353,3.643s-2.052,1.426-3.452,1.426c-1.537,0-2.742-0.601-3.618-1.802s-1.313-2.905-1.313-5.112
			c0-2.669,0.574-4.79,1.724-6.362s2.661-2.358,4.536-2.358c1.074,0,1.918,0.146,2.529,0.439V43.295z M306.282,51.528
			c0,0.996,0.266,1.849,0.796,2.559s1.235,1.064,2.114,1.064c0.834,0,1.51-0.306,2.031-0.918s0.781-1.4,0.781-2.363
			c0-1.042-0.246-1.852-0.737-2.432s-1.19-0.869-2.095-0.869c-0.859,0-1.557,0.293-2.09,0.879S306.282,50.727,306.282,51.528z"/>
		<path fill="#FFFFFF" d="M325.306,56.479h-8.672v-1.65h3.389V43.344l-3.477,1.006v-1.758l5.381-1.563v13.799h3.379V56.479z"/>
		<path fill="#FFFFFF" d="M326.868,52.856c2.916-1.953,5.201-4.232,6.855-6.836l1.523,0.488c-0.404,0.612-0.82,1.205-1.25,1.777
			h10.195v1.348c-2.045,2.943-4.336,5.137-6.875,6.582s-5.645,2.461-9.316,3.047c-0.209-0.43-0.494-0.938-0.859-1.523
			c3.281-0.469,6.061-1.25,8.34-2.344c-1.002-0.898-2.143-1.836-3.418-2.813l0.996-1.035c1.498,1.159,2.754,2.194,3.77,3.105
			c2.123-1.224,3.932-2.877,5.43-4.961h-9.434c-1.225,1.458-2.838,2.904-4.844,4.336C327.683,53.65,327.312,53.26,326.868,52.856z
			 M342.825,46.45v-0.664h-14.141v-4.727h1.523v3.32h5.547v-4.297h1.523v4.297h5.547v-3.32h1.523v5.391H342.825z"/>
	</g>
	<g>
		<path fill="#FFFFFF" d="M313.526,142.732h-7.359v-1.328l3.516-3.508c0.969-0.969,1.617-1.734,1.945-2.301
			c0.328-0.564,0.492-1.148,0.492-1.754c0-0.688-0.192-1.215-0.578-1.582c-0.385-0.367-0.942-0.551-1.672-0.551
			c-1.078,0-2.106,0.459-3.086,1.375v-1.555c0.953-0.734,2.063-1.102,3.328-1.102c1.089,0,1.948,0.295,2.578,0.883
			c0.631,0.59,0.945,1.381,0.945,2.375c0,0.75-0.201,1.486-0.605,2.207c-0.403,0.723-1.168,1.641-2.293,2.754l-2.758,2.695v0.031
			h5.547V142.732z"/>
		<path fill="#FFFFFF" d="M316.104,140.873c0.813,0.531,1.659,0.797,2.539,0.797c0.834,0,1.506-0.232,2.016-0.699
			c0.511-0.465,0.766-1.084,0.766-1.855c0-0.775-0.259-1.377-0.777-1.805c-0.518-0.426-1.27-0.641-2.254-0.641
			c-0.474,0-1.111,0.037-1.914,0.109v-6.148h5.953v1.352h-4.531v3.422c0.453-0.025,0.795-0.039,1.023-0.039
			c1.276,0,2.271,0.324,2.984,0.969c0.714,0.646,1.07,1.537,1.07,2.672c0,1.172-0.383,2.121-1.148,2.844
			c-0.766,0.725-1.822,1.086-3.172,1.086c-1.13,0-1.981-0.166-2.555-0.5V140.873z"/>
		<path fill="#FFFFFF" d="M324.784,133.686c0-0.988,0.265-1.775,0.793-2.359c0.529-0.582,1.241-0.875,2.137-0.875
			c0.859,0,1.53,0.27,2.012,0.805c0.482,0.537,0.723,1.285,0.723,2.242c0,0.953-0.266,1.727-0.797,2.32s-1.236,0.891-2.117,0.891
			c-0.833,0-1.5-0.275-2-0.828C325.034,135.33,324.784,134.598,324.784,133.686z M325.987,133.607c0,0.672,0.146,1.191,0.438,1.555
			c0.292,0.365,0.69,0.547,1.195,0.547c0.521,0,0.924-0.188,1.207-0.566c0.284-0.377,0.426-0.91,0.426-1.598
			c0-0.672-0.139-1.191-0.418-1.559c-0.278-0.367-0.67-0.551-1.176-0.551c-0.516,0-0.923,0.191-1.223,0.574
			C326.138,132.393,325.987,132.926,325.987,133.607z M335.722,130.631l-7.773,12.18h-1.305l7.773-12.18H335.722z M332.034,139.896
			c0-0.988,0.265-1.779,0.793-2.371c0.529-0.59,1.238-0.887,2.129-0.887c0.854,0,1.523,0.27,2.008,0.809s0.727,1.299,0.727,2.277
			c0,0.949-0.268,1.719-0.805,2.309c-0.536,0.592-1.236,0.887-2.102,0.887c-0.838,0-1.506-0.279-2.004-0.84
			C332.283,141.521,332.034,140.793,332.034,139.896z M333.229,139.826c0,0.656,0.146,1.168,0.438,1.535
			c0.292,0.367,0.69,0.551,1.195,0.551c0.521,0,0.924-0.189,1.207-0.57c0.284-0.379,0.426-0.91,0.426-1.594
			c0-0.676-0.142-1.195-0.426-1.555c-0.283-0.359-0.673-0.539-1.168-0.539c-0.531,0-0.942,0.191-1.234,0.574
			C333.376,138.611,333.229,139.145,333.229,139.826z"/>
	</g>
	<g>
		<path fill="#FFFFFF" d="M297.007,29.532h-7.359v-1.328l3.516-3.508c0.969-0.969,1.617-1.735,1.945-2.301
			c0.328-0.565,0.492-1.149,0.492-1.754c0-0.688-0.192-1.215-0.578-1.582c-0.385-0.367-0.942-0.551-1.672-0.551
			c-1.078,0-2.106,0.458-3.086,1.375v-1.555c0.953-0.734,2.063-1.102,3.328-1.102c1.089,0,1.948,0.294,2.578,0.883
			c0.631,0.589,0.945,1.38,0.945,2.375c0,0.75-0.201,1.486-0.605,2.207c-0.403,0.722-1.168,1.64-2.293,2.754l-2.758,2.695v0.031
			h5.547V29.532z"/>
		<path fill="#FFFFFF" d="M299.585,27.672c0.813,0.531,1.659,0.797,2.539,0.797c0.834,0,1.506-0.233,2.016-0.699
			c0.511-0.466,0.766-1.084,0.766-1.855c0-0.776-0.259-1.377-0.777-1.805c-0.518-0.427-1.27-0.641-2.254-0.641
			c-0.474,0-1.111,0.037-1.914,0.109V17.43h5.953v1.352h-4.531v3.422c0.453-0.026,0.795-0.039,1.023-0.039
			c1.276,0,2.271,0.323,2.984,0.969c0.714,0.646,1.07,1.537,1.07,2.672c0,1.172-0.383,2.12-1.148,2.844
			c-0.766,0.724-1.822,1.086-3.172,1.086c-1.13,0-1.981-0.167-2.555-0.5V27.672z"/>
		<path fill="#FFFFFF" d="M308.265,20.485c0-0.989,0.265-1.776,0.793-2.359c0.529-0.583,1.241-0.875,2.137-0.875
			c0.859,0,1.53,0.269,2.012,0.805c0.482,0.537,0.723,1.284,0.723,2.242c0,0.953-0.266,1.727-0.797,2.32s-1.236,0.891-2.117,0.891
			c-0.833,0-1.5-0.276-2-0.828C308.515,22.128,308.265,21.396,308.265,20.485z M309.468,20.407c0,0.672,0.146,1.19,0.438,1.555
			c0.292,0.365,0.69,0.547,1.195,0.547c0.521,0,0.924-0.188,1.207-0.566c0.284-0.377,0.426-0.91,0.426-1.598
			c0-0.672-0.139-1.191-0.418-1.559c-0.278-0.367-0.67-0.551-1.176-0.551c-0.516,0-0.923,0.191-1.223,0.574
			C309.618,19.192,309.468,19.725,309.468,20.407z M319.202,17.43l-7.773,12.18h-1.305l7.773-12.18H319.202z M315.515,26.696
			c0-0.989,0.265-1.78,0.793-2.371c0.529-0.591,1.238-0.887,2.129-0.887c0.854,0,1.523,0.27,2.008,0.809s0.727,1.298,0.727,2.277
			c0,0.948-0.268,1.718-0.805,2.309c-0.536,0.591-1.236,0.887-2.102,0.887c-0.838,0-1.506-0.28-2.004-0.84
			C315.764,28.32,315.515,27.592,315.515,26.696z M316.71,26.625c0,0.656,0.146,1.168,0.438,1.535
			c0.292,0.367,0.69,0.551,1.195,0.551c0.521,0,0.924-0.19,1.207-0.57c0.284-0.38,0.426-0.911,0.426-1.594
			c0-0.677-0.142-1.195-0.426-1.555c-0.283-0.359-0.673-0.539-1.168-0.539c-0.531,0-0.942,0.191-1.234,0.574
			C316.856,25.411,316.71,25.943,316.71,26.625z"/>
	</g>
	<g>
		<path fill="#FFFFFF" d="M189.556,66.802h-7.359v-1.328l3.516-3.508c0.969-0.969,1.617-1.735,1.945-2.301
			c0.328-0.565,0.492-1.149,0.492-1.754c0-0.688-0.193-1.215-0.578-1.582c-0.386-0.367-0.943-0.551-1.672-0.551
			c-1.078,0-2.107,0.458-3.086,1.375v-1.555c0.953-0.734,2.063-1.102,3.328-1.102c1.088,0,1.947,0.294,2.578,0.883
			c0.63,0.589,0.945,1.38,0.945,2.375c0,0.75-0.202,1.486-0.605,2.207c-0.404,0.722-1.168,1.64-2.293,2.754l-2.758,2.695v0.031
			h5.547V66.802z"/>
		<path fill="#FFFFFF" d="M192.134,64.943c0.813,0.531,1.658,0.797,2.539,0.797c0.833,0,1.505-0.233,2.016-0.699
			c0.51-0.466,0.766-1.084,0.766-1.855c0-0.776-0.26-1.377-0.777-1.805c-0.519-0.427-1.27-0.641-2.254-0.641
			c-0.475,0-1.112,0.037-1.914,0.109v-6.148h5.953v1.352h-4.531v3.422c0.453-0.026,0.794-0.039,1.023-0.039
			c1.275,0,2.271,0.323,2.984,0.969c0.713,0.646,1.07,1.537,1.07,2.672c0,1.172-0.383,2.12-1.148,2.844
			c-0.766,0.724-1.823,1.086-3.172,1.086c-1.131,0-1.982-0.167-2.555-0.5V64.943z"/>
		<path fill="#FFFFFF" d="M200.813,57.755c0-0.989,0.264-1.776,0.793-2.359c0.528-0.583,1.24-0.875,2.137-0.875
			c0.859,0,1.529,0.269,2.012,0.805c0.481,0.537,0.723,1.284,0.723,2.242c0,0.953-0.266,1.727-0.797,2.32s-1.237,0.891-2.117,0.891
			c-0.834,0-1.5-0.276-2-0.828C201.063,59.399,200.813,58.667,200.813,57.755z M202.017,57.677c0,0.672,0.146,1.19,0.438,1.555
			c0.291,0.365,0.689,0.547,1.195,0.547c0.521,0,0.923-0.188,1.207-0.566c0.283-0.377,0.426-0.91,0.426-1.598
			c0-0.672-0.14-1.191-0.418-1.559c-0.279-0.367-0.671-0.551-1.176-0.551c-0.516,0-0.924,0.191-1.223,0.574
			C202.166,56.462,202.017,56.995,202.017,57.677z M211.751,54.701l-7.773,12.18h-1.305l7.773-12.18H211.751z M208.063,63.966
			c0-0.989,0.264-1.78,0.793-2.371c0.528-0.591,1.238-0.887,2.129-0.887c0.854,0,1.523,0.27,2.008,0.809s0.727,1.298,0.727,2.277
			c0,0.948-0.269,1.718-0.805,2.309c-0.537,0.591-1.237,0.887-2.102,0.887c-0.839,0-1.507-0.28-2.004-0.84
			C208.312,65.59,208.063,64.862,208.063,63.966z M209.259,63.896c0,0.656,0.146,1.168,0.438,1.535
			c0.291,0.367,0.689,0.551,1.195,0.551c0.521,0,0.923-0.19,1.207-0.57c0.283-0.38,0.426-0.911,0.426-1.594
			c0-0.677-0.143-1.195-0.426-1.555c-0.284-0.359-0.674-0.539-1.168-0.539c-0.531,0-0.943,0.191-1.234,0.574
			C209.404,62.681,209.259,63.214,209.259,63.896z"/>
	</g>
	<g>
		<path fill="#FFFFFF" d="M203.111,175.803h-7.359v-1.328l3.516-3.508c0.969-0.969,1.617-1.736,1.945-2.301s0.492-1.15,0.492-1.754
			c0-0.688-0.193-1.215-0.578-1.582c-0.386-0.367-0.943-0.551-1.672-0.551c-1.078,0-2.107,0.459-3.086,1.375V164.6
			c0.953-0.734,2.063-1.102,3.328-1.102c1.088,0,1.947,0.295,2.578,0.883c0.63,0.588,0.945,1.381,0.945,2.375
			c0,0.75-0.202,1.486-0.605,2.207c-0.404,0.721-1.168,1.639-2.293,2.754l-2.758,2.695v0.031h5.547V175.803z"/>
		<path fill="#FFFFFF" d="M205.689,173.943c0.813,0.531,1.658,0.797,2.539,0.797c0.833,0,1.505-0.232,2.016-0.699
			c0.51-0.467,0.766-1.084,0.766-1.855c0-0.775-0.26-1.377-0.777-1.805c-0.519-0.428-1.27-0.641-2.254-0.641
			c-0.475,0-1.112,0.037-1.914,0.109v-6.148h5.953v1.352h-4.531v3.422c0.453-0.025,0.794-0.039,1.023-0.039
			c1.275,0,2.271,0.322,2.984,0.969c0.713,0.646,1.07,1.537,1.07,2.672c0,1.172-0.383,2.119-1.148,2.844s-1.823,1.086-3.172,1.086
			c-1.131,0-1.982-0.168-2.555-0.5V173.943z"/>
		<path fill="#FFFFFF" d="M214.369,166.756c0-0.99,0.264-1.775,0.793-2.359c0.528-0.584,1.24-0.875,2.137-0.875
			c0.859,0,1.529,0.268,2.012,0.805c0.481,0.537,0.723,1.283,0.723,2.242c0,0.953-0.266,1.727-0.797,2.32s-1.237,0.891-2.117,0.891
			c-0.834,0-1.5-0.275-2-0.828S214.369,167.668,214.369,166.756z M215.572,166.678c0,0.672,0.146,1.189,0.438,1.555
			c0.291,0.365,0.689,0.547,1.195,0.547c0.521,0,0.923-0.189,1.207-0.566c0.283-0.377,0.426-0.91,0.426-1.598
			c0-0.672-0.14-1.191-0.418-1.559c-0.279-0.367-0.671-0.551-1.176-0.551c-0.516,0-0.924,0.191-1.223,0.574
			C215.722,165.463,215.572,165.996,215.572,166.678z M225.307,163.701l-7.773,12.18h-1.305l7.773-12.18H225.307z M221.619,172.967
			c0-0.99,0.264-1.779,0.793-2.371c0.528-0.592,1.238-0.887,2.129-0.887c0.854,0,1.523,0.27,2.008,0.809s0.727,1.299,0.727,2.277
			c0,0.947-0.269,1.717-0.805,2.309c-0.537,0.592-1.237,0.887-2.102,0.887c-0.839,0-1.507-0.279-2.004-0.84
			C221.867,174.59,221.619,173.863,221.619,172.967z M222.814,172.896c0,0.656,0.146,1.168,0.438,1.535
			c0.291,0.367,0.689,0.551,1.195,0.551c0.521,0,0.923-0.189,1.207-0.57c0.283-0.381,0.426-0.912,0.426-1.594
			c0-0.678-0.143-1.195-0.426-1.555c-0.284-0.359-0.674-0.539-1.168-0.539c-0.531,0-0.943,0.191-1.234,0.574
			C222.96,171.682,222.814,172.215,222.814,172.896z"/>
	</g>
</g>
</svg>
