<?xml version="1.0" encoding="utf-8"?>
<!-- Generator: Adobe Illustrator 16.0.0, SVG Export Plug-In . SVG Version: 6.00 Build 0)  -->
<!DOCTYPE svg PUBLIC "-//W3C//DTD SVG 1.1//EN" "http://www.w3.org/Graphics/SVG/1.1/DTD/svg11.dtd">
<svg version="1.1" id="图层_1" xmlns="http://www.w3.org/2000/svg" xmlns:xlink="http://www.w3.org/1999/xlink" x="0px" y="0px"
	 width="45px" height="45px" viewBox="0 0 45 45" enable-background="new 0 0 45 45" xml:space="preserve">
<g>
	<g>
		<g>
			<g>
				<defs>
					<path id="SVGID_1_" d="M22.5,0C10.072,0,0,10.072,0,22.5C0,34.928,10.072,45,22.5,45C34.928,45,45,34.928,45,22.5
						C45,10.072,34.928,0,22.5,0L22.5,0z M38.354,35.674c-2.037-0.854-6.892-2.541-9.912-3.436c-0.256-0.08-0.297-0.092-0.297-1.158
						c0-0.881,0.363-1.768,0.717-2.52c0.385-0.814,0.838-2.188,1-3.418c0.457-0.527,1.078-1.572,1.477-3.563
						c0.352-1.754,0.188-2.391-0.045-2.991c-0.023-0.062-0.05-0.124-0.064-0.186c-0.088-0.411,0.029-2.548,0.332-4.204
						c0.205-1.137-0.055-3.556-1.619-5.557c-0.986-1.262-2.881-2.816-6.336-3.032L21.71,5.612c-3.398,0.214-5.288,1.768-6.277,3.03
						c-1.568,2-1.827,4.42-1.619,5.557c0.301,1.656,0.422,3.793,0.333,4.196c-0.019,0.07-0.043,0.132-0.07,0.194
						c-0.229,0.6-0.396,1.237-0.043,2.991c0.398,1.988,1.017,3.033,1.476,3.563c0.162,1.23,0.614,2.604,0.999,3.418
						c0.282,0.598,0.413,1.407,0.413,2.559c0,1.064-0.039,1.079-0.281,1.154c-3.108,0.916-8.048,2.705-9.891,3.51
						C3.712,32.191,1.875,27.559,1.875,22.5c0-11.374,9.251-20.625,20.625-20.625c11.373,0,20.625,9.252,20.625,20.625
						C43.125,27.504,41.331,32.096,38.354,35.674L38.354,35.674z"/>
				</defs>
				<use xlink:href="#SVGID_1_"  overflow="visible" fill="#F34334"/>
				<clipPath id="SVGID_2_">
					<use xlink:href="#SVGID_1_"  overflow="visible"/>
				</clipPath>
				<rect clip-path="url(#SVGID_2_)" fill="#F34334" width="45" height="45"/>
			</g>
		</g>
	</g>
</g>
</svg>
