<?xml version="1.0" encoding="utf-8"?>
<!-- Generator: Adobe Illustrator 16.0.0, SVG Export Plug-In . SVG Version: 6.00 Build 0)  -->
<!DOCTYPE svg PUBLIC "-//W3C//DTD SVG 1.1//EN" "http://www.w3.org/Graphics/SVG/1.1/DTD/svg11.dtd">
<svg version="1.1" id="图层_1" xmlns="http://www.w3.org/2000/svg" xmlns:xlink="http://www.w3.org/1999/xlink" x="0px" y="0px"
	 width="80px" height="80px" viewBox="0 0 80 80" enable-background="new 0 0 80 80" xml:space="preserve">
<g>
	<circle fill="#F7B52C" cx="40" cy="40" r="40"/>
	<path fill="#FFFFFF" d="M29.922,25.577h12.977v-0.461c0-0.398,0.336-0.719,0.734-0.719h0.02h5.496c0.398,0,0.727,0.32,0.727,0.719
		v0.016v0.445h0.547c1.152,0,2.191,0.483,2.938,1.227c0.753,0.758,1.223,1.797,1.223,2.93v22.501c0,1.141-0.47,2.18-1.223,2.938
		c-0.747,0.75-1.786,1.227-2.938,1.227h-20.5c-1.137,0-2.176-0.477-2.929-1.227l0,0l-0.016-0.023c-0.747-0.752-1.2-1.789-1.2-2.914
		V29.733c0-1.133,0.461-2.172,1.216-2.93C27.739,26.061,28.778,25.577,29.922,25.577L29.922,25.577z M34.168,28.038L34.168,28.038
		v25.915h16.254c0.478,0,0.911-0.195,1.212-0.516c0.319-0.305,0.511-0.734,0.511-1.203V29.733c0-0.453-0.191-0.891-0.511-1.194l0,0
		l0,0c-0.301-0.321-0.734-0.501-1.212-0.501h-0.547v4.289c0,0.406-0.328,0.72-0.727,0.72c-0.226,0-0.433-0.095-0.555-0.251
		l-2.202-2.194l-2.238,2.233c-0.277,0.297-0.742,0.297-1.04,0c-0.137-0.132-0.215-0.328-0.215-0.508v-4.289H34.168L34.168,28.038z
		 M32.703,53.953L32.703,53.953V28.038h-2.781c-0.468,0-0.902,0.188-1.215,0.501c-0.292,0.304-0.484,0.741-0.484,1.194v22.501
		c0,0.469,0.176,0.898,0.484,1.203l0,0c0.313,0.32,0.747,0.516,1.215,0.516H32.703L32.703,53.953z M48.419,25.851L48.419,25.851
		h-4.047v4.703l1.5-1.5c0.293-0.289,0.754-0.289,1.039,0l1.508,1.5V25.851L48.419,25.851z M43.859,36.334L43.859,36.334l1.06,3.267
		l3.413-0.016c0.398,0,0.727,0.328,0.727,0.734c0,0.235-0.121,0.438-0.3,0.586l-2.774,2.008l1.063,3.258
		c0.126,0.391-0.081,0.797-0.465,0.93c-0.241,0.063-0.52,0.016-0.694-0.141l-2.723-1.984l-2.773,2.008
		c-0.328,0.227-0.786,0.164-1.021-0.156c-0.14-0.188-0.184-0.453-0.105-0.656l0,0l1.075-3.258l-2.789-2.008
		c-0.333-0.242-0.399-0.679-0.156-1.023c0.156-0.204,0.398-0.298,0.64-0.298l3.371,0.016l1.059-3.267
		c0.114-0.383,0.528-0.601,0.926-0.468C43.618,35.937,43.79,36.108,43.859,36.334L43.859,36.334z M43.688,40.539L43.688,40.539
		l-0.522-1.594l-0.52,1.594c-0.103,0.313-0.379,0.516-0.692,0.516h-1.699l1.353,0.953v0.039l0,0
		c0.262,0.172,0.382,0.508,0.277,0.813l-0.52,1.607l1.351-0.998h0.021c0.241-0.18,0.586-0.18,0.848,0l1.371,0.998l-0.52-1.607
		c-0.105-0.289,0-0.625,0.258-0.813l1.37-0.992h-1.648C44.103,41.078,43.79,40.875,43.688,40.539L43.688,40.539z"/>
</g>
</svg>
