<?xml version="1.0" encoding="utf-8"?>
<!-- Generator: Adobe Illustrator 16.0.0, SVG Export Plug-In . SVG Version: 6.00 Build 0)  -->
<!DOCTYPE svg PUBLIC "-//W3C//DTD SVG 1.1//EN" "http://www.w3.org/Graphics/SVG/1.1/DTD/svg11.dtd">
<svg version="1.1" id="图层_1" xmlns="http://www.w3.org/2000/svg" xmlns:xlink="http://www.w3.org/1999/xlink" x="0px" y="0px"
	 width="80px" height="80px" viewBox="0 0 80 80" enable-background="new 0 0 80 80" xml:space="preserve">
<g>
	<circle fill="#E6454A" cx="40" cy="40" r="40"/>
	<path fill="#FFFFFF" d="M54.764,24.001H25.236c-0.681,0-1.24,0.551-1.24,1.234v29.536c0,0.679,0.559,1.228,1.24,1.228h29.527
		c0.682,0,1.24-0.549,1.24-1.228V25.235C56.004,24.552,55.445,24.001,54.764,24.001L54.764,24.001z M32.173,53.54L32.173,53.54
		h-5.712v-2.414h1.834c0.682,0,1.233-0.559,1.233-1.239s-0.551-1.233-1.233-1.233h-1.834v-4.122h1.834
		c0.682,0,1.233-0.551,1.233-1.239c0-0.675-0.551-1.232-1.233-1.232h-1.834v-4.123h1.834c0.682,0,1.233-0.551,1.233-1.231
		c0-0.674-0.551-1.231-1.233-1.231h-1.834v-4.123h1.834c0.682,0,1.233-0.543,1.233-1.24c0-0.674-0.551-1.225-1.233-1.225h-1.834
		v-2.422h5.712V53.54L32.173,53.54z M53.539,53.54L53.539,53.54H33.642V26.464h19.897V53.54L53.539,53.54z M38.559,47.162
		L38.559,47.162h10.054c0.41,0,0.754-0.343,0.754-0.753v-1.082c0-0.524-0.115-1.039-0.316-1.504
		c-0.199-0.469-0.488-0.926-0.857-1.275c-0.346-0.366-0.803-0.662-1.283-0.854l-0.174-0.079l0.131-0.113
		c0.822-0.823,1.338-1.992,1.338-3.269c0-1.269-0.516-2.429-1.338-3.247c-0.84-0.839-2.01-1.363-3.285-1.363
		s-2.428,0.524-3.251,1.363c-0.838,0.818-1.361,1.979-1.361,3.247c0,1.276,0.523,2.445,1.361,3.269l0.107,0.113
		c-0.561,0.201-1.048,0.515-1.461,0.934c-0.358,0.35-0.654,0.807-0.854,1.275c-0.193,0.465-0.308,0.979-0.308,1.504v1.082
		C37.815,46.819,38.15,47.162,38.559,47.162L38.559,47.162z M41.361,36.017L41.361,36.017c0.568-0.572,1.363-0.918,2.221-0.918
		c0.875,0,1.662,0.346,2.236,0.918c0.561,0.566,0.91,1.35,0.91,2.216c0,0.873-0.35,1.661-0.91,2.236
		c-0.566,0.544-1.326,0.9-2.186,0.909h-0.086c-0.854-0.009-1.625-0.365-2.186-0.909c-0.558-0.575-0.917-1.363-0.917-2.236
		C40.445,37.366,40.803,36.583,41.361,36.017L41.361,36.017z M39.303,45.327L39.303,45.327c0-0.331,0.059-0.658,0.189-0.925
		c0.105-0.315,0.299-0.579,0.535-0.823c0.438-0.438,1.062-0.725,1.755-0.725h3.635c0.33,0,0.645,0.078,0.943,0.192
		c0.297,0.131,0.561,0.308,0.793,0.532c0.229,0.244,0.412,0.508,0.535,0.823c0.121,0.267,0.191,0.594,0.191,0.925v0.35h-8.578
		V45.327L39.303,45.327z"/>
</g>
</svg>
