<?xml version="1.0" encoding="utf-8"?>
<!-- Generator: Adobe Illustrator 16.0.0, SVG Export Plug-In . SVG Version: 6.00 Build 0)  -->
<!DOCTYPE svg PUBLIC "-//W3C//DTD SVG 1.1//EN" "http://www.w3.org/Graphics/SVG/1.1/DTD/svg11.dtd">
<svg version="1.1" id="图层_1" xmlns="http://www.w3.org/2000/svg" xmlns:xlink="http://www.w3.org/1999/xlink" x="0px" y="0px"
	 width="80px" height="80px" viewBox="0 0 80 80" enable-background="new 0 0 80 80" xml:space="preserve">
<circle fill="#E6454A" cx="40" cy="40" r="40"/>
<g>
	<path fill="#FFFFFF" d="M57.555,23.771H22.472c-0.817,0-1.473,0.655-1.473,1.449v29.538c0,0.794,0.655,1.473,1.473,1.473h35.083
		c0.789,0,1.445-0.679,1.445-1.473V25.22C59,24.425,58.344,23.771,57.555,23.771L57.555,23.771z M56.082,53.295L56.082,53.295
		H23.926V26.684h32.156V53.295L56.082,53.295z M27.18,50.658L27.18,50.658h25.667c0.478,0,0.86-0.385,0.86-0.861V30.203
		c0-0.49-0.383-0.883-0.86-0.883H27.18c-0.496,0-0.879,0.393-0.879,0.883v19.594C26.301,50.273,26.685,50.658,27.18,50.658
		L27.18,50.658z M28.041,31.082L28.041,31.082h23.914v17.822H28.041V31.082L28.041,31.082z"/>
	<path fill-rule="evenodd" clip-rule="evenodd" fill="#FFFFFF" d="M45.986,41.299c0.711-5.118-2.131-7.916-6.462-8.209
		c0.505,0.274,0.982,0.583,1.452,0.913c2.408,1.722,3.872,4.97,2.27,7.7c-1.662-1.457-3.328-2.912-4.984-4.376
		c0.509-0.566,1.018-1.133,1.525-1.702c-0.316-0.284-0.632-0.567-0.948-0.85c-0.482,0.486-1.157,0.519-1.685,0.086
		c-1.156,1.287-2.31,2.576-3.466,3.861c0.613,0.551,1.227,1.101,1.841,1.651c0.369-0.405,0.733-0.815,1.098-1.225
		c1.667,1.473,3.348,2.93,5.015,4.403c-2.487,1.515-5.491,0.796-7.588-1.002l-0.023-0.025c-0.299,0.351-0.598,0.702-0.897,1.053
		c0.345,0.324,0.738,0.653,1.047,1.01C34.09,44.697,34,44.809,33.91,44.921c-1.383-0.257-1.681,1.91-0.145,1.991
		c0.688-0.104,1.138-0.709,0.881-1.381c0.086-0.105,0.172-0.212,0.258-0.318c2.626,1.869,5.894,1.826,8.491-0.123
		c0.438,0.387,0.879,0.771,1.317,1.156c0.535-0.615,1.074-1.229,1.611-1.841c-0.434-0.381-0.868-0.761-1.303-1.144
		C45.441,42.652,45.782,42.014,45.986,41.299z"/>
</g>
</svg>
