<?xml version="1.0" encoding="utf-8"?>
<!-- Generator: Adobe Illustrator 16.0.0, SVG Export Plug-In . SVG Version: 6.00 Build 0)  -->
<!DOCTYPE svg PUBLIC "-//W3C//DTD SVG 1.1//EN" "http://www.w3.org/Graphics/SVG/1.1/DTD/svg11.dtd">
<svg version="1.1" id="图层_1" xmlns="http://www.w3.org/2000/svg" xmlns:xlink="http://www.w3.org/1999/xlink" x="0px" y="0px"
	 width="80px" height="80px" viewBox="0 0 80 80" enable-background="new 0 0 80 80" xml:space="preserve">
<g>
	<circle fill="#8DC21F" cx="40" cy="40" r="40"/>
	<path fill="#FFFFFF" d="M33.77,50.119c-0.432,0-0.795,0.353-0.795,0.801v1.461c0,0.438,0.363,0.781,0.795,0.781
		c0.445,0,0.781-0.344,0.781-0.781V50.92C34.551,50.472,34.215,50.119,33.77,50.119L33.77,50.119z M38.863,41.994L38.863,41.994
		h-5.063c-0.428,0-0.791,0.365-0.791,0.794v5.049c0,0.44,0.363,0.803,0.791,0.803h5.063c0.43,0,0.793-0.362,0.793-0.803v-5.049
		C39.656,42.359,39.293,41.994,38.863,41.994L38.863,41.994z M38.063,47.053L38.063,47.053h-3.486v-3.476h3.486V47.053
		L38.063,47.053z M38.164,50.119L38.164,50.119c-0.438,0-0.791,0.353-0.791,0.801v1.461c0,0.438,0.354,0.781,0.791,0.781
		c0.43,0,0.801-0.344,0.801-0.781V50.92C38.965,50.472,38.594,50.119,38.164,50.119L38.164,50.119z M35.967,50.119L35.967,50.119
		c-0.42,0-0.775,0.353-0.775,0.801v1.461c0,0.438,0.355,0.781,0.775,0.781c0.438,0,0.793-0.344,0.793-0.781V50.92
		C36.76,50.472,36.404,50.119,35.967,50.119L35.967,50.119z M48.721,50.119L48.721,50.119c-0.438,0-0.783,0.353-0.783,0.801v1.461
		c0,0.438,0.346,0.781,0.783,0.781s0.783-0.344,0.783-0.781V50.92C49.504,50.472,49.158,50.119,48.721,50.119L48.721,50.119z
		 M50.918,50.119L50.918,50.119c-0.43,0-0.773,0.353-0.773,0.801v1.461c0,0.438,0.344,0.781,0.773,0.781
		c0.439,0,0.795-0.344,0.795-0.781V50.92C51.713,50.472,51.357,50.119,50.918,50.119L50.918,50.119z M53.137,50.119L53.137,50.119
		c-0.455,0-0.801,0.353-0.801,0.801v1.461c0,0.438,0.346,0.781,0.801,0.781c0.428,0,0.773-0.344,0.773-0.781V50.92
		C53.91,50.472,53.564,50.119,53.137,50.119L53.137,50.119z M56.377,36.226L56.377,36.226L56.377,36.226
		c-0.488-0.53-1.162-0.858-1.92-0.858h-1.693L47.33,25.93c-0.031-0.085-0.082-0.171-0.15-0.254c-0.361-0.567-0.918-0.96-1.508-1.148
		c-0.633-0.208-1.34-0.169-1.965,0.152c-0.092,0.027-0.168,0.073-0.219,0.108L24.24,35.902l-0.059,0.037
		c-0.658,0.381-1.078,1.021-1.238,1.713v0.016c-0.127,0.635-0.043,1.363,0.336,2.02l6.117,10.6v3.328
		c0,0.738,0.287,1.419,0.732,1.924c0.498,0.54,1.172,0.858,1.928,0.858h22.4c0.758,0,1.432-0.318,1.92-0.858
		c0.455-0.505,0.734-1.186,0.734-1.924V38.154C57.111,37.424,56.832,36.733,56.377,36.226L56.377,36.226z M29.396,38.154
		L29.396,38.154v6.881l-3.842-6.678c-0.035-0.036-0.035-0.108-0.035-0.158l-0.031,0.011l0.031-0.011l0,0l0,0l0.035-0.025
		l19.316-11.15l0,0c0.051,0.01,0.092,0.064,0.135,0.122l0.018,0.025l4.725,8.196H32.057C30.566,35.367,29.396,36.657,29.396,38.154
		L29.396,38.154z M54.49,53.615L54.49,53.615c0,0.064-0.033,0.11-0.049,0.147H32.076c-0.02-0.037-0.025-0.083-0.025-0.147V38.137
		l0,0v-0.039v-0.017l0.006-0.021v-0.017v-0.022h0.01l0.01-0.01l0,0v-0.007h22.365c0.016,0.039,0.049,0.093,0.049,0.149V53.615
		L54.49,53.615z M45.654,50.119L45.654,50.119c-0.447,0-0.801,0.353-0.801,0.801v1.461c0,0.438,0.354,0.781,0.801,0.781
		c0.43,0,0.775-0.344,0.775-0.781V50.92C46.43,50.472,46.084,50.119,45.654,50.119L45.654,50.119z M43.447,50.119L43.447,50.119
		c-0.43,0-0.791,0.353-0.791,0.801v1.461c0,0.438,0.361,0.781,0.791,0.781c0.428,0,0.783-0.344,0.783-0.781V50.92
		C44.23,50.472,43.875,50.119,43.447,50.119L43.447,50.119z M41.248,50.119L41.248,50.119c-0.445,0-0.799,0.353-0.799,0.801v1.461
		c0,0.438,0.354,0.781,0.799,0.781c0.447,0,0.785-0.344,0.785-0.781V50.92C42.033,50.472,41.695,50.119,41.248,50.119L41.248,50.119
		z"/>
</g>
</svg>
