<?xml version="1.0" encoding="utf-8"?>
<!-- Generator: Adobe Illustrator 16.0.0, SVG Export Plug-In . SVG Version: 6.00 Build 0)  -->
<!DOCTYPE svg PUBLIC "-//W3C//DTD SVG 1.1//EN" "http://www.w3.org/Graphics/SVG/1.1/DTD/svg11.dtd">
<svg version="1.1" id="图层_1" xmlns="http://www.w3.org/2000/svg" xmlns:xlink="http://www.w3.org/1999/xlink" x="0px" y="0px"
	 width="80px" height="80px" viewBox="0 0 80 80" enable-background="new 0 0 80 80" xml:space="preserve">
<g>
	<circle fill="#52A6EB" cx="40" cy="40" r="40"/>
	<path fill="#FFFFFF" d="M42.856,52.907h-1.373c-0.482,0-0.855-0.39-0.855-0.862c0-0.464,0.373-0.855,0.855-0.855h1.373v-6.893
		c0-0.736,0.345-1.409,0.868-1.892l0.081-0.054c0.505-0.438,1.169-0.692,1.905-0.692h9.958c0.769,0,1.473,0.282,1.978,0.746
		c0.546,0.482,0.879,1.155,0.879,1.892v7.738v0.01v0.026v1.292c0,0.736-0.333,1.409-0.879,1.891C57.142,55.709,56.438,56,55.669,56
		h-9.958c-0.763,0-1.464-0.291-1.986-0.746c-0.523-0.481-0.868-1.154-0.868-1.891V52.907L42.856,52.907z M35.631,37.341
		L35.631,37.341H31.89v0.836c0,0.464-0.373,0.846-0.854,0.846c-0.469,0-0.851-0.382-0.851-0.846V37.35h-3.569
		c-4.479,0-6.82-5.411-3.742-8.685c0.392-0.4,0.832-0.764,1.359-1.027c0.373-0.182,0.769-0.336,1.191-0.445
		c0.223-0.355,0.464-0.71,0.746-1.009l0.041-0.047c0.354-0.4,0.769-0.755,1.231-1.036c0.523-0.364,1.109-0.637,1.714-0.818
		C29.743,24.091,30.375,24,31.035,24c0.863,0,1.714,0.191,2.491,0.51l0.036,0.019c0.777,0.327,1.487,0.818,2.068,1.39
		c0.546,0.52,0.992,1.156,1.306,1.865c0.25,0.527,0.432,1.073,0.522,1.673c0.183,0.072,0.354,0.173,0.496,0.282
		C41.201,31.976,39.729,37.331,35.631,37.341L35.631,37.341z M36.995,31.157L36.995,31.157c-0.173-0.138-0.354-0.229-0.563-0.31
		c-0.313-0.091-0.578-0.383-0.596-0.736c-0.063-0.573-0.205-1.119-0.446-1.602c-0.223-0.499-0.563-0.99-0.945-1.382
		c-0.445-0.445-0.968-0.772-1.536-1.019l-0.041-0.018c-0.564-0.246-1.2-0.372-1.832-0.372c-0.487,0-0.951,0.044-1.396,0.198
		c-0.464,0.156-0.887,0.338-1.25,0.573c-0.342,0.237-0.646,0.482-0.919,0.792l-0.027,0.036c-0.264,0.291-0.505,0.627-0.695,0.991
		c-0.113,0.255-0.354,0.445-0.659,0.481c-0.382,0.064-0.746,0.182-1.068,0.355c-0.342,0.182-0.655,0.409-0.919,0.682
		c-2.068,2.191-0.504,5.811,2.515,5.811h9.016C38.055,35.64,38.909,32.457,36.995,31.157L36.995,31.157z M44.57,51.189L44.57,51.189
		h12.249v-6.893c0-0.236-0.1-0.464-0.301-0.619c-0.213-0.172-0.504-0.317-0.85-0.317h-9.958c-0.322,0-0.595,0.101-0.804,0.282
		l-0.032,0.035c-0.2,0.155-0.305,0.392-0.305,0.619V51.189L44.57,51.189z M56.819,52.907L56.819,52.907H44.57v0.456
		c0,0.236,0.104,0.463,0.305,0.618c0.2,0.191,0.504,0.309,0.836,0.309h9.958c0.346,0,0.637-0.117,0.85-0.309
		c0.201-0.155,0.301-0.382,0.301-0.618V52.907L56.819,52.907z M30.185,43.987L30.185,43.987c0-0.481,0.382-0.854,0.851-0.854
		c0.481,0,0.854,0.373,0.854,0.854v1.082c0,0.464-0.373,0.855-0.854,0.855c-0.469,0-0.851-0.392-0.851-0.855V43.987L30.185,43.987z
		 M30.185,40.596L30.185,40.596c0-0.463,0.382-0.854,0.851-0.854c0.481,0,0.854,0.392,0.854,0.854v1.101
		c0,0.464-0.373,0.854-0.854,0.854c-0.469,0-0.851-0.39-0.851-0.854V40.596L30.185,40.596z M30.185,47.334L30.185,47.334
		c0-0.445,0.382-0.836,0.851-0.836c0.481,0,0.854,0.391,0.854,0.836v1.101c0,0.473-0.373,0.854-0.854,0.854
		c-0.469,0-0.851-0.382-0.851-0.854V47.334L30.185,47.334z M35.896,51.189L35.896,51.189c0.464,0,0.859,0.392,0.859,0.855
		c0,0.473-0.396,0.862-0.859,0.862h-1.092c-0.464,0-0.846-0.39-0.846-0.862c0-0.464,0.382-0.855,0.846-0.855H35.896L35.896,51.189z
		 M39.224,51.189L39.224,51.189c0.464,0,0.85,0.392,0.85,0.855c0,0.473-0.386,0.862-0.85,0.862h-1.097
		c-0.468,0-0.841-0.39-0.841-0.862c0-0.464,0.373-0.855,0.841-0.855H39.224L39.224,51.189z M30.185,50.48L30.185,50.48
		c0-0.464,0.382-0.837,0.851-0.837c0.481,0,0.854,0.373,0.854,0.837v0.709h0.704c0.478,0,0.842,0.392,0.842,0.855
		c0,0.473-0.364,0.862-0.842,0.862h-1.491h-0.067c-0.323,0-0.596-0.163-0.729-0.427l-0.018-0.019l0,0v-0.018v-0.027h-0.023l0,0
		v-0.018l0,0v-0.01l-0.018-0.019v-0.026l-0.022-0.019l-0.01-0.018V52.29l-0.009-0.01v-0.019l-0.014-0.017v-0.028v-0.018v-0.019l0,0
		l-0.009-0.019v-0.026v-0.019v-0.019V52.09v-0.01v-0.009v-0.026v-0.01V50.48L30.185,50.48z"/>
</g>
</svg>
