<?xml version="1.0" encoding="utf-8"?>
<!-- Generator: Adobe Illustrator 16.0.0, SVG Export Plug-In . SVG Version: 6.00 Build 0)  -->
<!DOCTYPE svg PUBLIC "-//W3C//DTD SVG 1.1//EN" "http://www.w3.org/Graphics/SVG/1.1/DTD/svg11.dtd">
<svg version="1.1" id="图层_1" xmlns="http://www.w3.org/2000/svg" xmlns:xlink="http://www.w3.org/1999/xlink" x="0px" y="0px"
	 width="80px" height="80px" viewBox="0 0 80 80" enable-background="new 0 0 80 80" xml:space="preserve">
<g>
	<circle fill="#D2A2F1" cx="40" cy="40" r="40"/>
	<path fill="#FFFFFF" d="M49.219,49.122H34.268c-0.419,0-0.765,0.357-0.765,0.793c0,0.402,0.346,0.747,0.765,0.747h14.951
		c0.418,0,0.769-0.345,0.769-0.747C49.987,49.479,49.637,49.122,49.219,49.122L49.219,49.122z M55.977,34.784L55.977,34.784
		l-9.289-9.289c-0.237-0.23-0.551-0.375-0.912-0.375H30.57c-0.949,0-1.808,0.383-2.428,1.003c-0.621,0.62-1.003,1.495-1.003,2.433
		v26.52c0,0.933,0.382,1.804,1.003,2.424l0,0l0,0c0.633,0.633,1.494,1.015,2.428,1.015h22.35c0.934,0,1.771-0.382,2.391-0.978
		l0.037-0.037V57.49c0.616-0.611,1.011-1.482,1.011-2.415V35.696C56.358,35.358,56.219,35.038,55.977,34.784L55.977,34.784z
		 M46.549,28.994L46.549,28.994l5.928,5.925h-4.532c-0.382,0-0.739-0.155-0.985-0.401l-0.037-0.034
		c-0.234-0.246-0.373-0.596-0.373-0.94V28.994L46.549,28.994z M53.786,55.075L53.786,55.075c0,0.238-0.099,0.456-0.254,0.6v0.013
		c-0.156,0.155-0.374,0.254-0.612,0.254H30.57c-0.238,0-0.464-0.099-0.62-0.254l0.016-0.013c-0.163-0.144-0.274-0.361-0.274-0.6
		v-26.52c0-0.234,0.111-0.456,0.274-0.608c0.148-0.164,0.366-0.268,0.604-0.268h14.437v5.863c0,0.777,0.328,1.495,0.822,2.005
		l0.037,0.054c0.529,0.55,1.273,0.866,2.078,0.866h5.842V55.075L53.786,55.075z M33.503,39.053L33.503,39.053
		c0,0.428,0.346,0.764,0.765,0.764h14.951c0.418,0,0.769-0.336,0.769-0.764c0-0.432-0.351-0.769-0.769-0.769H34.268
		C33.849,38.284,33.503,38.621,33.503,39.053L33.503,39.053z M49.219,43.72L49.219,43.72H34.268c-0.419,0-0.765,0.324-0.765,0.764
		c0,0.419,0.346,0.765,0.765,0.765h14.951c0.418,0,0.769-0.346,0.769-0.765C49.987,44.044,49.637,43.72,49.219,43.72L49.219,43.72z"
		/>
</g>
</svg>
