<?xml version="1.0" encoding="utf-8"?>
<!-- Generator: Adobe Illustrator 16.0.0, SVG Export Plug-In . SVG Version: 6.00 Build 0)  -->
<!DOCTYPE svg PUBLIC "-//W3C//DTD SVG 1.1//EN" "http://www.w3.org/Graphics/SVG/1.1/DTD/svg11.dtd">
<svg version="1.1" id="图层_1" xmlns="http://www.w3.org/2000/svg" xmlns:xlink="http://www.w3.org/1999/xlink" x="0px" y="0px"
	 width="80px" height="80px" viewBox="0 0 80 80" enable-background="new 0 0 80 80" xml:space="preserve">
<g>
	<circle fill="#E6454A" cx="40" cy="40" r="40"/>
	<path fill="#FFFFFF" d="M25.217,26.175h0.035h29.52c0.682,0,1.232,0.544,1.232,1.221v0.039v29.52c0,0.677-0.551,1.221-1.232,1.221
		h-0.035h-29.52c-0.669,0-1.22-0.544-1.22-1.221v-0.039v-29.52C23.997,26.719,24.547,26.175,25.217,26.175L25.217,26.175z
		 M40.705,38.394L40.705,38.394l1.598,4.981l5.223-0.016c0.725,0,0.996,0.921,0.438,1.323v0.007l-4.231,3.069l1.617,4.944
		c0.236,0.74-0.63,1.26-1.177,0.803l-4.176-3.038l-4.227,3.069c-0.579,0.426-1.338-0.149-1.125-0.834h-0.012l1.637-4.944
		l-4.239-3.069c-0.594-0.433-0.229-1.361,0.48-1.33l5.18,0.016l1.605-4.981C39.523,37.724,40.477,37.739,40.705,38.394
		L40.705,38.394z M41.078,44.32L41.078,44.32l-1.082-3.299L38.93,44.32c-0.096,0.315-0.366,0.527-0.709,0.527h-3.463l2.783,2.008
		h0.012h0.008c0.252,0.188,0.374,0.535,0.288,0.834l-1.103,3.313l2.813-2.055h0.02c0.244-0.172,0.592-0.172,0.854,0l2.81,2.055
		l-1.082-3.313c-0.086-0.283,0-0.622,0.265-0.803l2.825-2.039h-3.439C41.48,44.854,41.164,44.651,41.078,44.32L41.078,44.32z
		 M26.448,34.347L26.448,34.347h27.104v-5.731h-2.429v1.85c0,0.669-0.559,1.236-1.232,1.236c-0.672,0-1.231-0.567-1.231-1.236v-1.85
		h-4.141v1.85c0,0.669-0.54,1.236-1.22,1.236c-0.682,0-1.225-0.567-1.225-1.236v-1.85h-4.141v1.85c0,0.669-0.559,1.236-1.232,1.236
		c-0.669,0-1.231-0.567-1.231-1.236v-1.85h-4.137v1.85c0,0.669-0.543,1.236-1.224,1.236c-0.681,0-1.224-0.567-1.224-1.236v-1.85
		h-2.437V34.347L26.448,34.347z M53.552,35.818L53.552,35.818H26.448v19.907h27.104V35.818L53.552,35.818z"/>
</g>
</svg>
