<?xml version="1.0" encoding="utf-8"?>
<!-- Generator: Adobe Illustrator 16.0.0, SVG Export Plug-In . SVG Version: 6.00 Build 0)  -->
<!DOCTYPE svg PUBLIC "-//W3C//DTD SVG 1.1//EN" "http://www.w3.org/Graphics/SVG/1.1/DTD/svg11.dtd">
<svg version="1.1" id="图层_1" xmlns="http://www.w3.org/2000/svg" xmlns:xlink="http://www.w3.org/1999/xlink" x="0px" y="0px"
	 width="80px" height="80px" viewBox="0 0 80 80" enable-background="new 0 0 80 80" xml:space="preserve">
<g>
	<circle fill="#0DAC67" cx="40" cy="40" r="40"/>
	<path fill="#FFFFFF" d="M49.199,53.799l-10.775-7.172c-0.358-0.239-0.557-0.66-0.557-1.071h-0.02v-0.017h-1.336l2.469,7.072
		c0.24,0.66-0.127,1.401-0.803,1.633l-2.396,0.842l-2.416,0.841c-0.667,0.238-1.389-0.124-1.628-0.792l-3.43-9.778
		c-1.29-0.32-2.444-1.03-3.301-1.994c-1.043-1.146-1.666-2.672-1.666-4.32c0-1.789,0.733-3.43,1.913-4.592v-0.017l0.028-0.017
		c1.188-1.171,2.787-1.896,4.572-1.896h7.993v-0.009c0-0.479,0.275-0.906,0.659-1.113l10.774-7.181
		c0.586-0.396,1.391-0.239,1.773,0.354c0.148,0.215,0.223,0.462,0.223,0.701l0,0v8.764c0.873,0.239,1.674,0.685,2.305,1.302
		l0.053,0.05c0.932,0.923,1.51,2.218,1.51,3.652c0,1.417-0.578,2.695-1.51,3.636c-0.639,0.635-1.463,1.104-2.357,1.344v8.756
		c0,0.716-0.576,1.295-1.281,1.295C49.703,54.072,49.418,53.989,49.199,53.799L49.199,53.799z M38.882,42.975L38.882,42.975v-7.865
		h-9.027c-1.088,0-2.069,0.438-2.782,1.146c-0.713,0.708-1.163,1.707-1.163,2.786c0,0.997,0.388,1.905,1.018,2.613
		c0.623,0.709,1.501,1.179,2.486,1.303c0.478,0.058,0.907,0.354,1.08,0.841l3.24,9.274l1.196-0.42l1.2-0.412l-2.618-7.462
		c-0.07-0.164-0.107-0.337-0.107-0.527c0-0.708,0.578-1.277,1.291-1.277H38.882L38.882,42.975z M40.428,33.84L40.428,33.84v10.379
		v0.033v0.041v0.033v0.544l8.269,5.5V27.689l-8.269,5.508v0.576v0.024V33.84L40.428,33.84z M51.277,35.662L51.277,35.662v6.735
		c0.475-0.182,0.91-0.453,1.262-0.809l0,0c0.654-0.658,1.051-1.558,1.051-2.547c0-0.998-0.396-1.912-1.051-2.556l-0.037-0.033
		C52.15,36.099,51.752,35.843,51.277,35.662L51.277,35.662z"/>
</g>
</svg>
