<?xml version="1.0" encoding="utf-8"?>
<!-- Generator: Adobe Illustrator 16.0.0, SVG Export Plug-In . SVG Version: 6.00 Build 0)  -->
<!DOCTYPE svg PUBLIC "-//W3C//DTD SVG 1.1//EN" "http://www.w3.org/Graphics/SVG/1.1/DTD/svg11.dtd">
<svg version="1.1" id="图层_1" xmlns="http://www.w3.org/2000/svg" xmlns:xlink="http://www.w3.org/1999/xlink" x="0px" y="0px"
	 width="80px" height="80px" viewBox="0 0 80 80" enable-background="new 0 0 80 80" xml:space="preserve">
<g>
	<circle fill="#8DC21F" cx="40" cy="40" r="40"/>
	<path fill="#FFFFFF" d="M22.751,56.002c-0.796,0-1.43-0.63-1.43-1.426c0-0.8,0.634-1.43,1.43-1.43H57.24
		c0.795,0,1.438,0.63,1.438,1.43c0,0.796-0.643,1.426-1.438,1.426H22.751L22.751,56.002z M25.444,31.435L25.444,31.435
		c0-0.785,0.638-1.43,1.433-1.43c0.811,0,1.44,0.645,1.44,1.43v18.734c0,0.795-0.629,1.43-1.44,1.43
		c-0.795,0-1.433-0.635-1.433-1.43V31.435L25.444,31.435z M51.674,28.447L51.674,28.447c0-0.795,0.639-1.448,1.449-1.448
		c0.795,0,1.415,0.653,1.415,1.448v21.722c0,0.795-0.62,1.43-1.415,1.43c-0.811,0-1.449-0.635-1.449-1.43V28.447L51.674,28.447z
		 M45.125,23.938L45.125,23.938c0-0.795,0.634-1.43,1.43-1.43c0.795,0,1.424,0.635,1.424,1.43v26.23c0,0.795-0.629,1.43-1.424,1.43
		c-0.796,0-1.43-0.635-1.43-1.43V23.938L45.125,23.938z M38.558,33.83L38.558,33.83c0-0.792,0.652-1.439,1.448-1.439
		c0.784,0,1.43,0.647,1.43,1.439v16.339c0,0.795-0.646,1.43-1.43,1.43c-0.796,0-1.448-0.635-1.448-1.43V33.83L38.558,33.83z
		 M31.998,40.286L31.998,40.286c0-0.794,0.644-1.438,1.43-1.438c0.805,0,1.448,0.644,1.448,1.438v9.883
		c0,0.795-0.644,1.43-1.448,1.43c-0.786,0-1.43-0.635-1.43-1.43V40.286L31.998,40.286z"/>
</g>
</svg>
