<?xml version="1.0" encoding="utf-8"?>
<!-- Generator: Adobe Illustrator 16.0.0, SVG Export Plug-In . SVG Version: 6.00 Build 0)  -->
<!DOCTYPE svg PUBLIC "-//W3C//DTD SVG 1.1//EN" "http://www.w3.org/Graphics/SVG/1.1/DTD/svg11.dtd">
<svg version="1.1" id="图层_1" xmlns="http://www.w3.org/2000/svg" xmlns:xlink="http://www.w3.org/1999/xlink" x="0px" y="0px"
	 width="33.118px" height="37.849px" viewBox="0 2.152 33.118 37.849" enable-background="new 0 2.152 33.118 37.849"
	 xml:space="preserve">
<path fill="#F29600" d="M25.026,29.356H8.081c-0.476,0-0.865,0.404-0.865,0.898c0,0.457,0.39,0.849,0.865,0.849h16.945
	c0.475,0,0.871-0.392,0.871-0.849C25.897,29.76,25.5,29.356,25.026,29.356L25.026,29.356z M32.684,13.104L32.684,13.104
	L22.155,2.575c-0.271-0.259-0.623-0.423-1.031-0.423H3.889c-1.076,0-2.049,0.433-2.751,1.138C0.434,3.991,0,4.983,0,6.045v30.06
	c0,1.056,0.434,2.043,1.138,2.746l0,0l0,0C1.853,39.568,2.831,40,3.889,40H29.22c1.058,0,2.008-0.434,2.711-1.108l0.041-0.041
	v-0.009c0.699-0.694,1.146-1.682,1.146-2.737V14.139C33.118,13.756,32.959,13.395,32.684,13.104L32.684,13.104z M21.999,6.543
	L21.999,6.543l6.719,6.715h-5.137c-0.435,0-0.838-0.178-1.116-0.457l-0.042-0.036c-0.268-0.279-0.424-0.675-0.424-1.065V6.543
	L21.999,6.543z M30.202,36.105L30.202,36.105c0,0.269-0.109,0.515-0.285,0.679v0.014c-0.178,0.177-0.426,0.287-0.696,0.287H3.889
	c-0.27,0-0.525-0.11-0.704-0.287l0.019-0.014c-0.188-0.164-0.312-0.41-0.312-0.679V6.045c0-0.267,0.125-0.518,0.312-0.689
	C3.37,5.168,3.62,5.051,3.889,5.051h16.363v6.646c0,0.879,0.371,1.695,0.932,2.271l0.042,0.061c0.601,0.624,1.442,0.982,2.354,0.982
	h6.621V36.105L30.202,36.105z M7.215,17.943L7.215,17.943c0,0.485,0.39,0.866,0.865,0.866h16.945c0.475,0,0.871-0.381,0.871-0.866
	c0-0.489-0.396-0.871-0.871-0.871H8.081C7.605,17.072,7.215,17.454,7.215,17.943L7.215,17.943z M25.026,23.233L25.026,23.233H8.081
	c-0.476,0-0.865,0.369-0.865,0.866c0,0.474,0.39,0.864,0.865,0.864h16.945c0.475,0,0.871-0.392,0.871-0.864
	C25.897,23.603,25.5,23.233,25.026,23.233L25.026,23.233z"/>
</svg>
