<?xml version="1.0" encoding="utf-8"?>
<!-- Generator: Adobe Illustrator 16.0.0, SVG Export Plug-In . SVG Version: 6.00 Build 0)  -->
<!DOCTYPE svg PUBLIC "-//W3C//DTD SVG 1.1//EN" "http://www.w3.org/Graphics/SVG/1.1/DTD/svg11.dtd">
<svg version="1.1" id="图层_1" xmlns="http://www.w3.org/2000/svg" xmlns:xlink="http://www.w3.org/1999/xlink" x="0px" y="0px"
	 width="80px" height="80px" viewBox="0 0 80 80" enable-background="new 0 0 80 80" xml:space="preserve">
<circle fill="#009FE8" cx="40" cy="40" r="40"/>
<path fill="#FFFFFF" d="M50.967,42.41c0-0.469,0.393-0.845,0.924-0.845c0.504,0,0.92,0.376,0.92,0.845v5.339
	c0,0.481-0.416,0.874-0.92,0.874h-0.043h-9.215c-0.531,0-0.949-0.393-0.949-0.874v-0.038V42.41c0-0.469,0.418-0.845,0.949-0.845
	c0.502,0,0.908,0.376,0.908,0.845v4.473h7.426V42.41L50.967,42.41z M55.014,41.877L55.014,41.877c0-0.468,0.42-0.847,0.936-0.847
	c0.508,0,0.934,0.379,0.934,0.847v13.612c0,0.47-0.426,0.858-0.934,0.858h-0.023H24.061c-0.505,0-0.932-0.389-0.932-0.858v-0.027
	V41.877c0-0.468,0.427-0.847,0.932-0.847s0.922,0.379,0.922,0.847v12.738h30.031V41.877L55.014,41.877z M24.983,27.28L24.983,27.28
	c0,0.469-0.417,0.846-0.922,0.846s-0.932-0.377-0.932-0.846v-2.75c0-0.497,0.427-0.878,0.932-0.878h0.025h31.863
	c0.508,0,0.934,0.381,0.934,0.878v0.016v2.734c0,0.469-0.426,0.846-0.934,0.846c-0.516,0-0.936-0.377-0.936-0.846v-1.888H24.983
	V27.28L24.983,27.28z M19.837,29.405L19.837,29.405c0-0.782,0.706-1.409,1.563-1.409c0.857,0,1.541,0.627,1.541,1.409v8.847
	c0,0.791-0.684,1.433-1.541,1.433c-0.856,0-1.563-0.642-1.563-1.433V29.405L19.837,29.405z M25.163,29.405L25.163,29.405
	c0-0.782,0.693-1.409,1.562-1.409c0.858,0,1.54,0.627,1.54,1.409v8.847c0,0.791-0.682,1.433-1.54,1.433
	c-0.868,0-1.562-0.642-1.562-1.433V29.405L25.163,29.405z M30.484,29.405L30.484,29.405c0-0.782,0.686-1.409,1.538-1.409
	c0.864,0,1.567,0.627,1.567,1.409v8.847c0,0.791-0.703,1.433-1.567,1.433c-0.853,0-1.538-0.642-1.538-1.433V29.405L30.484,29.405z
	 M35.785,29.405L35.785,29.405c0-0.782,0.704-1.409,1.567-1.409c0.841,0,1.562,0.627,1.562,1.409v8.847
	c0,0.791-0.721,1.433-1.562,1.433c-0.863,0-1.567-0.642-1.567-1.433V29.405L35.785,29.405z M41.109,29.405L41.109,29.405
	c0-0.782,0.701-1.409,1.539-1.409c0.867,0,1.563,0.627,1.563,1.409v8.847c0,0.791-0.695,1.433-1.563,1.433
	c-0.838,0-1.539-0.642-1.539-1.433V29.405L41.109,29.405z M46.434,29.405L46.434,29.405c0-0.782,0.705-1.409,1.541-1.409
	c0.855,0,1.549,0.627,1.549,1.409v8.847c0,0.791-0.693,1.433-1.549,1.433c-0.836,0-1.541-0.642-1.541-1.433V29.405L46.434,29.405z
	 M51.756,29.405L51.756,29.405c0-0.782,0.686-1.409,1.541-1.409c0.857,0,1.539,0.627,1.539,1.409v8.847
	c0,0.791-0.682,1.433-1.539,1.433c-0.855,0-1.541-0.642-1.541-1.433V29.405L51.756,29.405z M57.061,29.405L57.061,29.405
	c0-0.782,0.691-1.409,1.561-1.409c0.838,0,1.541,0.627,1.541,1.409v8.847c0,0.791-0.703,1.433-1.541,1.433
	c-0.869,0-1.561-0.642-1.561-1.433V29.405L57.061,29.405z M36.588,42.41L36.588,42.41c0-0.469,0.432-0.845,0.935-0.845
	c0.507,0,0.939,0.376,0.939,0.845v9.912c0,0.472-0.433,0.849-0.939,0.849h-0.018h-9.241c-0.511,0-0.928-0.377-0.928-0.849v-0.025
	V42.41c0-0.469,0.417-0.845,0.928-0.845c0.507,0,0.924,0.376,0.924,0.845v9.029h7.4V42.41L36.588,42.41z"/>
</svg>
