<?xml version="1.0" encoding="utf-8"?>
<!-- Generator: Adobe Illustrator 16.0.0, SVG Export Plug-In . SVG Version: 6.00 Build 0)  -->
<!DOCTYPE svg PUBLIC "-//W3C//DTD SVG 1.1//EN" "http://www.w3.org/Graphics/SVG/1.1/DTD/svg11.dtd">
<svg version="1.1" id="图层_1" xmlns="http://www.w3.org/2000/svg" xmlns:xlink="http://www.w3.org/1999/xlink" x="0px" y="0px"
	 width="32.391px" height="37.919px" viewBox="20.833 21.248 32.391 37.919" enable-background="new 20.833 21.248 32.391 37.919"
	 xml:space="preserve">
<path fill="#E6454A" d="M28.687,42.193c-0.788,0-1.434,0.62-1.434,1.432c0,0.764,0.646,1.393,1.434,1.393
	c0.78,0,1.417-0.629,1.417-1.393C30.104,42.813,29.466,42.193,28.687,42.193L28.687,42.193z M28.687,48.199L28.687,48.199
	c-0.788,0-1.434,0.637-1.434,1.42c0,0.803,0.646,1.422,1.434,1.422c0.78,0,1.417-0.619,1.417-1.422
	C30.104,48.836,29.466,48.199,28.687,48.199L28.687,48.199z M28.687,36.171L28.687,36.171c-0.788,0-1.434,0.62-1.434,1.43
	c0,0.775,0.646,1.43,1.434,1.43c0.78,0,1.417-0.654,1.417-1.43C30.104,36.791,29.466,36.171,28.687,36.171L28.687,36.171z
	 M45.318,36.745L45.318,36.745H32.942c-0.465,0-0.858,0.393-0.858,0.856c0,0.464,0.393,0.848,0.858,0.848h12.376
	c0.465,0,0.849-0.383,0.849-0.848C46.167,37.138,45.783,36.745,45.318,36.745L45.318,36.745z M51.807,27.169L51.807,27.169h-3.923
	v-0.792c0-0.465-0.384-0.857-0.848-0.857h-4.56c-0.251-1.001-0.778-1.912-1.485-2.623c-1.012-1.011-2.415-1.649-3.962-1.649l0,0
	c-1.545,0-2.953,0.638-3.972,1.649c-0.708,0.711-1.222,1.622-1.477,2.623h-4.561c-0.482,0-0.847,0.392-0.847,0.857v0.792H22.25
	c-0.789,0-1.417,0.629-1.417,1.439v29.147c0,0.773,0.628,1.412,1.417,1.412h29.557c0.788,0,1.417-0.639,1.417-1.412V28.609
	C53.224,27.798,52.595,27.169,51.807,27.169L51.807,27.169z M34.26,24.107L34.26,24.107c0.718-0.709,1.697-1.166,2.769-1.166l0,0
	c1.069,0,2.042,0.456,2.751,1.166c0.404,0.393,0.724,0.894,0.908,1.413h-7.317C33.561,25.001,33.876,24.5,34.26,24.107L34.26,24.107
	z M27.872,27.243L27.872,27.243h18.313v2.688H27.872V27.243L27.872,27.243z M50.39,56.307L50.39,56.307H23.685V30.003h2.487v0.783
	c0,0.482,0.365,0.856,0.847,0.856h20.017c0.464,0,0.848-0.374,0.848-0.856v-0.783h2.506V56.307L50.39,56.307z M45.318,48.781
	L45.318,48.781H32.942c-0.465,0-0.858,0.364-0.858,0.838s0.393,0.855,0.858,0.855h12.376c0.465,0,0.849-0.382,0.849-0.855
	S45.783,48.781,45.318,48.781L45.318,48.781z M45.318,42.75L45.318,42.75H32.942c-0.465,0-0.858,0.392-0.858,0.875
	c0,0.445,0.393,0.838,0.858,0.838h12.376c0.465,0,0.849-0.393,0.849-0.838C46.167,43.142,45.783,42.75,45.318,42.75L45.318,42.75z"
	/>
</svg>
