<?xml version="1.0" encoding="utf-8"?>
<!-- Generator: Adobe Illustrator 16.0.0, SVG Export Plug-In . SVG Version: 6.00 Build 0)  -->
<!DOCTYPE svg PUBLIC "-//W3C//DTD SVG 1.1//EN" "http://www.w3.org/Graphics/SVG/1.1/DTD/svg11.dtd">
<svg version="1.1" id="图层_1" xmlns="http://www.w3.org/2000/svg" xmlns:xlink="http://www.w3.org/1999/xlink" x="0px" y="0px"
	 width="80px" height="80px" viewBox="0 0 80 80" enable-background="new 0 0 80 80" xml:space="preserve">
<g>
	<circle fill="#E6454A" cx="40" cy="40" r="40"/>
	<path fill="#FFFFFF" d="M58.541,56.868H23.9V22.242c0-0.483-0.379-0.9-0.886-0.9c-0.483,0-0.881,0.417-0.881,0.9v35.479v0.019
		c0,0.512,0.398,0.919,0.881,0.919h0.023h35.503c0.492,0,0.904-0.407,0.904-0.919C59.445,57.285,59.033,56.868,58.541,56.868
		L58.541,56.868z M27.306,28.931L27.306,28.931h26.968c0.506,0,0.895-0.389,0.895-0.872v-4.216c0-0.483-0.389-0.871-0.895-0.871
		H27.306c-0.507,0-0.905,0.388-0.905,0.871v4.216C26.401,28.542,26.799,28.931,27.306,28.931L27.306,28.931z M28.177,24.743
		L28.177,24.743h25.214v2.425H28.177V24.743L28.177,24.743z M27.306,46.646L27.306,46.646h22.06c0.492,0,0.896-0.389,0.896-0.872
		v-4.206c0-0.492-0.403-0.872-0.896-0.872h-22.06c-0.507,0-0.905,0.38-0.905,0.872v4.206C26.401,46.258,26.799,46.646,27.306,46.646
		L27.306,46.646z M28.177,42.469L28.177,42.469h20.317v2.406H28.177V42.469L28.177,42.469z M27.306,36.708L27.306,36.708h11.099
		c0.482,0,0.881-0.407,0.881-0.871V31.63c0-0.492-0.398-0.899-0.881-0.899H27.306c-0.507,0-0.905,0.407-0.905,0.899v4.207
		C26.401,36.301,26.799,36.708,27.306,36.708L27.306,36.708z M28.177,32.521L28.177,32.521h9.332v2.416h-9.332V32.521L28.177,32.521
		z M27.306,54.434L27.306,54.434h5.547c0.483,0,0.881-0.389,0.881-0.871v-4.207c0-0.492-0.398-0.881-0.881-0.881h-5.547
		c-0.507,0-0.905,0.389-0.905,0.881v4.207C26.401,54.045,26.799,54.434,27.306,54.434L27.306,54.434z M28.177,50.256L28.177,50.256
		h3.771v2.396h-3.771V50.256L28.177,50.256z"/>
</g>
</svg>
