<?xml version="1.0" encoding="utf-8"?>
<!-- Generator: Adobe Illustrator 16.0.0, SVG Export Plug-In . SVG Version: 6.00 Build 0)  -->
<!DOCTYPE svg PUBLIC "-//W3C//DTD SVG 1.1//EN" "http://www.w3.org/Graphics/SVG/1.1/DTD/svg11.dtd">
<svg version="1.1" id="图层_1" xmlns="http://www.w3.org/2000/svg" xmlns:xlink="http://www.w3.org/1999/xlink" x="0px" y="0px"
	 width="37.723px" height="37.713px" viewBox="0 2.288 37.723 37.713" enable-background="new 0 2.288 37.723 37.713"
	 xml:space="preserve">
<path fill="#8DC21F" d="M36.256,2.288H1.458C0.646,2.288,0,2.938,0,3.741v34.807C0,39.35,0.646,40,1.458,40h28.818
	c0.473,0,0.895-0.229,1.164-0.574h2.162c0.97,0,1.831-0.396,2.49-1.043V38.37c0.642-0.634,1.031-1.529,1.031-2.49V16.282
	c0.356-0.27,0.6-0.705,0.6-1.174V3.741C37.723,2.938,37.081,2.288,36.256,2.288L36.256,2.288z M30.233,15.066L30.233,15.066
	c-0.854,0.854-1.411,2.046-1.411,3.354v18.675H2.892V5.192h31.926v8.463h-1.216C32.284,13.657,31.09,14.189,30.233,15.066
	L30.233,15.066z M35.392,35.879L35.392,35.879c0,0.496-0.203,0.951-0.515,1.267l-0.02,0.009c-0.318,0.336-0.761,0.518-1.257,0.518
	h-1.875v-5.207h1.875c0.649,0,1.257-0.186,1.79-0.504L35.392,35.879L35.392,35.879z M35.392,28.935L35.392,28.935
	c0,0.491-0.214,0.937-0.533,1.253c-0.319,0.318-0.784,0.527-1.257,0.527h-1.875v-5.219h1.875c0.641,0,1.257-0.188,1.79-0.506V28.935
	L35.392,28.935z M35.392,21.983L35.392,21.983c0,0.475-0.214,0.93-0.533,1.234c-0.329,0.328-0.784,0.533-1.257,0.533h-1.875v-5.33
	c0-0.516,0.229-0.989,0.559-1.31c0.327-0.339,0.801-0.552,1.316-0.552h1.79V21.983L35.392,21.983z M22.814,23.386L22.814,23.386
	c-0.422-0.433-0.937-0.784-1.503-1.013l-0.219-0.08l0.154-0.123c0.969-0.989,1.586-2.357,1.586-3.853
	c0-1.513-0.617-2.881-1.586-3.851c-1.008-0.989-2.357-1.606-3.861-1.606c-1.488,0-2.863,0.617-3.838,1.606
	c-0.986,0.969-1.608,2.338-1.608,3.851c0,1.494,0.622,2.863,1.608,3.853l0.123,0.123c-0.651,0.224-1.234,0.619-1.709,1.093
	c-0.445,0.421-0.783,0.937-1.012,1.521c-0.236,0.533-0.348,1.141-0.348,1.772v1.267c0,0.482,0.372,0.854,0.854,0.854h11.858
	c0.487,0,0.854-0.37,0.854-0.854v-1.267c0-0.632-0.111-1.239-0.35-1.772C23.592,24.321,23.247,23.807,22.814,23.386L22.814,23.386z
	 M14.773,15.683L14.773,15.683c0.66-0.659,1.597-1.072,2.612-1.072c1.031,0,1.947,0.413,2.625,1.072
	c0.66,0.677,1.08,1.604,1.08,2.635c0,1.007-0.42,1.943-1.08,2.617c-1.443,1.438-3.799,1.438-5.238,0
	c-0.667-0.674-1.08-1.61-1.08-2.617C13.693,17.29,14.106,16.36,14.773,15.683L14.773,15.683z M22.443,27.068L22.443,27.068h-10.11
	v-0.389c0-0.404,0.08-0.784,0.205-1.124c0.153-0.348,0.371-0.667,0.649-0.954c0.524-0.515,1.244-0.851,2.06-0.851h4.293
	c0.391,0,0.76,0.084,1.104,0.219c0.339,0.152,0.688,0.359,0.938,0.632c0.272,0.287,0.5,0.606,0.654,0.954
	c0.135,0.34,0.209,0.72,0.209,1.124L22.443,27.068L22.443,27.068z"/>
</svg>
