<?xml version="1.0" encoding="utf-8"?>
<!-- Generator: Adobe Illustrator 16.0.0, SVG Export Plug-In . SVG Version: 6.00 Build 0)  -->
<!DOCTYPE svg PUBLIC "-//W3C//DTD SVG 1.1//EN" "http://www.w3.org/Graphics/SVG/1.1/DTD/svg11.dtd">
<svg version="1.1" id="图层_1" xmlns="http://www.w3.org/2000/svg" xmlns:xlink="http://www.w3.org/1999/xlink" x="0px" y="0px"
	 width="80px" height="80px" viewBox="0 0 80 80" enable-background="new 0 0 80 80" xml:space="preserve">
<g>
	<circle fill="#E6454A" cx="40" cy="40" r="40"/>
	<g>
		<path fill="#FFFFFF" d="M15.016,50.647c0,0-3.017,4.609-1.875,4.732c0.287,0.031,1.086-1.115,1.086-1.115
			s-0.094,0.968,0.428,1.315C15.178,55.927,16,53.875,16,53.875s-0.152,0.866,0.272,0.854c0.425-0.015,1.274-1.978,1.274-1.978
			s-0.212,1.575,0.25,1.227c0.462-0.348,1.219-2.148,1.219-2.148s0.194,1.26,0.552,0.962c0.358-0.299,1.778-4.693,1.778-4.693
			L15.016,50.647z"/>
		<path fill="#FFFFFF" d="M15.109,50.644c0,0-4.688-1.542-3.829-2.461c0.216-0.231,1.42,0.117,1.42,0.117s-0.549-0.71-0.299-1.366
			c0.25-0.653,1.917,0.405,1.917,0.405s-0.546-0.59-0.197-0.883c0.348-0.293,1.994,0.679,1.994,0.679s-0.944-1.116-0.4-1.169
			c0.543-0.05,2.034,0.855,2.034,0.855s-0.462-1.154-0.027-1.172s3.732,2.501,3.732,2.501L15.109,50.644z"/>
		
			<line fill="none" stroke="#FFFFFF" stroke-width="2" stroke-linecap="round" stroke-linejoin="round" stroke-miterlimit="10" x1="68.824" y1="29.452" x2="15.972" y2="50.348"/>
	</g>
	<g>
		<path fill="#FFFFFF" d="M56.863,46.546c0,0,7.347-18.745,2.271-21.846c-5.117-3.131-7.389,6.842-7.389,6.842
			s-6.666-5.435-9.241-0.585C38.84,37.863,56.863,46.546,56.863,46.546z"/>
		<path fill="#FFFFFF" d="M43.783,56.704c0,0,9.85-25.133,3.047-29.29c-6.862-4.197-9.906,9.173-9.906,9.173
			s-8.939-7.285-12.391-0.783C19.62,45.063,43.783,56.704,43.783,56.704z"/>
	</g>
</g>
</svg>
