<?xml version="1.0" encoding="utf-8"?>
<!-- Generator: Adobe Illustrator 16.0.0, SVG Export Plug-In . SVG Version: 6.00 Build 0)  -->
<!DOCTYPE svg PUBLIC "-//W3C//DTD SVG 1.1//EN" "http://www.w3.org/Graphics/SVG/1.1/DTD/svg11.dtd">
<svg version="1.1" id="图层_1" xmlns="http://www.w3.org/2000/svg" xmlns:xlink="http://www.w3.org/1999/xlink" x="0px" y="0px"
	 width="80px" height="80px" viewBox="0 0 80 80" enable-background="new 0 0 80 80" xml:space="preserve">
<g>
	<circle fill="#D2A2F1" cx="40" cy="40" r="40"/>
	<path fill="#FFFFFF" d="M40.251,30.104c2.479,0,4.619,1.841,4.996,4.272c0.389-0.118,0.791-0.182,1.191-0.182
		c1.109,0,2.133,0.457,2.85,1.195c0.73,0.718,1.183,1.724,1.183,2.842c0,1.053-0.417,2.021-1.081,2.745l0.951,0.961
		c0.43,0.423,0.744,0.897,0.973,1.433l0,0c0.209,0.51,0.33,1.067,0.33,1.674v1.204c0,0.308-0.113,0.645-0.299,0.904
		c-0.201,0.275-0.488,0.465-0.854,0.513c-0.035,0-0.072,0-0.086,0h-0.926v0.337c0,0.403-0.334,0.725-0.734,0.725H48.71h-8.459
		h-8.474h-0.02c-0.402,0-0.732-0.321-0.732-0.725v-0.337h-0.925c-0.035,0-0.055,0-0.086,0c-0.369-0.048-0.665-0.237-0.874-0.513
		c-0.177-0.26-0.263-0.597-0.263-0.904v-1.204c0-0.606,0.095-1.164,0.314-1.674h0.016c0.394-0.984,1.181-1.67,1.904-2.394
		c-0.673-0.725-1.09-1.692-1.09-2.745c0-1.118,0.46-2.124,1.184-2.842c0.744-0.738,1.739-1.195,2.856-1.195
		c0.402,0,0.803,0.063,1.181,0.182C35.625,31.944,37.765,30.104,40.251,30.104L40.251,30.104z M53.772,41.143L53.772,41.143h-1.642
		c-0.4,0-0.731-0.323-0.731-0.74c0-0.401,0.331-0.74,0.731-0.74h1.642c-0.189-3.43-1.656-6.555-3.946-8.834l0,0
		c-2.285-2.291-5.394-3.753-8.831-3.951v1.644c0,0.401-0.344,0.725-0.744,0.725c-0.41,0-0.74-0.323-0.74-0.725v-1.644
		c-3.45,0.198-6.55,1.66-8.835,3.951l0,0c-2.287,2.279-3.753,5.404-3.946,8.834h1.624c0.418,0,0.752,0.339,0.752,0.74
		c0,0.417-0.334,0.74-0.752,0.74H26.73c0.192,3.445,1.659,6.538,3.946,8.827l0,0c2.285,2.298,5.385,3.77,8.835,3.949V52.29
		c0-0.416,0.33-0.737,0.74-0.737c0.4,0,0.744,0.321,0.744,0.737v1.629c3.438-0.18,6.546-1.651,8.831-3.949l0,0
		C52.116,47.681,53.583,44.588,53.772,41.143L53.772,41.143z M40.251,24.398L40.251,24.398c4.397,0,8.407,1.802,11.307,4.706l0,0
		c2.906,2.895,4.697,6.9,4.697,11.298c0,4.413-1.802,8.41-4.697,11.314l0,0v0.016c-2.899,2.895-6.909,4.666-11.307,4.666
		c-4.426,0-8.415-1.801-11.314-4.682l0,0c-2.896-2.904-4.686-6.901-4.686-11.314c0-4.397,1.79-8.403,4.686-11.298l0,0v-0.017
		C31.836,26.193,35.833,24.398,40.251,24.398L40.251,24.398z M40.251,47.248L40.251,47.248h2.277c0-1.093,0-2.218,0-3.336
		c0-0.237,0.201-0.449,0.438-0.449c0.255,0,0.447,0.212,0.447,0.449v1.951h1.908c0.02-0.031,0.035-0.111,0.035-0.182v-1.565
		c0-2.117-1.396-3.085-2.773-4.47c-0.699,0.371-1.494,0.583-2.332,0.583c-0.846,0-1.641-0.212-2.342-0.583
		c-1.368,1.385-2.765,2.353-2.765,4.47v1.565c0,0.07,0.016,0.15,0.016,0.182h1.924v-1.951c0-0.237,0.192-0.449,0.437-0.449
		c0.252,0,0.443,0.212,0.443,0.449c0,1.118,0,2.243,0,3.336H40.251L40.251,47.248z M40.251,38.742L40.251,38.742
		c1.947,0,3.58-1.581,3.58-3.58c0-1.981-1.598-3.58-3.58-3.58c-1.979,0-3.588,1.599-3.588,3.58
		C36.663,37.161,38.304,38.742,40.251,38.742L40.251,38.742z M32.509,47.248L32.509,47.248h2.147
		c-0.279-0.079-0.508-0.275-0.673-0.503c-0.208-0.308-0.322-0.686-0.322-1.063v-1.565c0-0.653,0.106-1.281,0.307-1.849
		c-0.593-0.032-1.145-0.157-1.652-0.401c-0.617,0.613-1.432,1.244-1.762,2.046c-0.138,0.346-0.208,0.724-0.208,1.132v1.149h1.282
		V44.88c0-0.237,0.201-0.442,0.436-0.442c0.244,0,0.445,0.205,0.445,0.442V47.248L32.509,47.248z M35.251,35.966L35.251,35.966
		c-0.122-0.073-0.28-0.128-0.421-0.173c-0.244-0.08-0.503-0.112-0.768-0.112c-0.708,0-1.353,0.27-1.805,0.757
		c-0.465,0.448-0.744,1.086-0.744,1.794c0,0.699,0.279,1.354,0.744,1.793c0.452,0.474,1.097,0.74,1.805,0.74
		c0.28,0,0.551-0.023,0.822-0.109c0.532-0.67,1.211-1.269,1.822-1.891C35.947,38.002,35.432,37.034,35.251,35.966L35.251,35.966z
		 M47.985,47.248L47.985,47.248V44.88c0-0.237,0.2-0.442,0.436-0.442c0.253,0,0.457,0.205,0.457,0.442v1.313h1.282v-1.149
		c0-0.408-0.079-0.786-0.212-1.132c-0.138-0.331-0.365-0.645-0.654-0.937l-1.108-1.109c-0.508,0.244-1.063,0.369-1.655,0.401
		c0.208,0.567,0.314,1.195,0.314,1.849v1.565c0,0.378-0.123,0.756-0.336,1.063c-0.164,0.228-0.393,0.424-0.66,0.503H47.985
		L47.985,47.248z M45.247,35.966L45.247,35.966c-0.205,1.125-0.658,2.007-1.451,2.799c0.602,0.622,1.273,1.221,1.825,1.891
		c0.071,0.016,0.243,0.077,0.303,0.077c0.161,0.016,0.342,0.032,0.515,0.032c0.701,0,1.346-0.267,1.81-0.74
		c0.462-0.439,0.76-1.094,0.76-1.793c0-0.708-0.298-1.346-0.76-1.794c-0.464-0.487-1.108-0.757-1.81-0.757
		c-0.279,0-0.53,0.032-0.766,0.112C45.515,35.838,45.392,35.893,45.247,35.966L45.247,35.966z"/>
</g>
</svg>
