<?xml version="1.0" encoding="utf-8"?>
<!-- Generator: Adobe Illustrator 16.0.0, SVG Export Plug-In . SVG Version: 6.00 Build 0)  -->
<!DOCTYPE svg PUBLIC "-//W3C//DTD SVG 1.1//EN" "http://www.w3.org/Graphics/SVG/1.1/DTD/svg11.dtd">
<svg version="1.1" id="图层_1" xmlns="http://www.w3.org/2000/svg" xmlns:xlink="http://www.w3.org/1999/xlink" x="0px" y="0px"
	 width="80px" height="80px" viewBox="0 0 80 80" enable-background="new 0 0 80 80" xml:space="preserve">
<circle fill="#F7B52C" cx="40" cy="40" r="40"/>
<path fill="#FFFFFF" d="M47.47,47.305H32.519c-0.419,0-0.765,0.357-0.765,0.793c0,0.402,0.346,0.748,0.765,0.748H47.47
	c0.418,0,0.769-0.346,0.769-0.748C48.238,47.662,47.888,47.305,47.47,47.305L47.47,47.305z M54.228,32.967L54.228,32.967
	l-9.289-9.289c-0.237-0.23-0.551-0.375-0.912-0.375H28.821c-0.949,0-1.808,0.383-2.428,1.003c-0.621,0.62-1.003,1.495-1.003,2.433
	v26.519c0,0.934,0.382,1.805,1.003,2.424l0,0l0,0c0.633,0.633,1.494,1.016,2.428,1.016h22.35c0.934,0,1.771-0.383,2.391-0.979
	l0.037-0.037v-0.008c0.616-0.611,1.011-1.482,1.011-2.416V33.879C54.609,33.542,54.47,33.221,54.228,32.967L54.228,32.967z
	 M44.8,27.177L44.8,27.177l5.928,5.925h-4.532c-0.382,0-0.739-0.155-0.985-0.401l-0.037-0.034c-0.234-0.246-0.373-0.596-0.373-0.94
	V27.177L44.8,27.177z M52.037,53.258L52.037,53.258c0,0.238-0.099,0.457-0.254,0.6v0.014c-0.156,0.154-0.374,0.254-0.612,0.254
	h-22.35c-0.238,0-0.464-0.1-0.62-0.254l0.016-0.014c-0.163-0.143-0.274-0.361-0.274-0.6V26.739c0-0.234,0.111-0.456,0.274-0.608
	c0.148-0.164,0.366-0.268,0.604-0.268h14.437v5.863c0,0.777,0.328,1.495,0.822,2.005l0.037,0.054
	c0.529,0.55,1.273,0.866,2.078,0.866h5.842V53.258L52.037,53.258z M31.754,37.236L31.754,37.236c0,0.428,0.346,0.764,0.765,0.764
	H47.47c0.418,0,0.769-0.336,0.769-0.764c0-0.432-0.351-0.769-0.769-0.769H32.519C32.1,36.467,31.754,36.804,31.754,37.236
	L31.754,37.236z M47.47,41.902L47.47,41.902H32.519c-0.419,0-0.765,0.324-0.765,0.764c0,0.42,0.346,0.766,0.765,0.766H47.47
	c0.418,0,0.769-0.346,0.769-0.766C48.238,42.227,47.888,41.902,47.47,41.902L47.47,41.902z"/>
</svg>
