<?xml version="1.0" encoding="utf-8"?>
<!-- Generator: Adobe Illustrator 16.0.0, SVG Export Plug-In . SVG Version: 6.00 Build 0)  -->
<!DOCTYPE svg PUBLIC "-//W3C//DTD SVG 1.1//EN" "http://www.w3.org/Graphics/SVG/1.1/DTD/svg11.dtd">
<svg version="1.1" id="图层_1" xmlns="http://www.w3.org/2000/svg" xmlns:xlink="http://www.w3.org/1999/xlink" x="0px" y="0px"
	 width="40.001px" height="40.001px" viewBox="20.833 19.166 40.001 40.001" enable-background="new 20.833 19.166 40.001 40.001"
	 xml:space="preserve">
<path fill="#009FE8" d="M57.712,34.787H45.541v21.317h12.171V34.787L57.712,34.787z M43.698,23.463L43.698,23.463H24.143v32.641
	h2.761v-4.602c0-0.83,0.683-1.512,1.511-1.512h0.05h10.962c0.838,0,1.521,0.682,1.521,1.512v0.068v4.533h2.751
	C43.698,45.222,43.698,34.338,43.698,23.463L43.698,23.463z M49.49,39.029L49.49,39.029c-0.517,0-0.918-0.399-0.918-0.897
	c0-0.507,0.401-0.917,0.918-0.917h4.261c0.518,0,0.918,0.411,0.918,0.917c0,0.498-0.4,0.897-0.918,0.897H49.49L49.49,39.029z
	 M49.49,43.923L49.49,43.923c-0.517,0-0.918-0.408-0.918-0.904c0-0.518,0.401-0.938,0.918-0.938h4.261
	c0.518,0,0.918,0.42,0.918,0.938c0,0.496-0.4,0.904-0.918,0.904H49.49L49.49,43.923z M49.49,48.802L49.49,48.802
	c-0.517,0-0.918-0.41-0.918-0.938c0-0.496,0.401-0.896,0.918-0.896h4.261c0.518,0,0.918,0.4,0.918,0.896
	c0,0.527-0.4,0.938-0.918,0.938H49.49L49.49,48.802z M49.49,53.687L49.49,53.687c-0.517,0-0.918-0.42-0.918-0.916
	c0-0.498,0.401-0.918,0.918-0.918h4.261c0.518,0,0.918,0.42,0.918,0.918c0,0.496-0.4,0.916-0.918,0.916H49.49L49.49,53.687z
	 M26.923,27.939L26.923,27.939c-0.488,0-0.917-0.419-0.917-0.917c0-0.526,0.429-0.945,0.917-0.945h4.282
	c0.497,0,0.896,0.419,0.896,0.945c0,0.499-0.399,0.917-0.896,0.917H26.923L26.923,27.939z M36.675,27.939L36.675,27.939
	c-0.518,0-0.927-0.419-0.927-0.917c0-0.526,0.409-0.945,0.927-0.945h4.242c0.508,0,0.928,0.419,0.928,0.945
	c0,0.499-0.42,0.917-0.928,0.917H36.675L36.675,27.939z M26.923,32.807L26.923,32.807c-0.488,0-0.917-0.391-0.917-0.907
	c0-0.506,0.429-0.917,0.917-0.917h4.282c0.497,0,0.896,0.411,0.896,0.917c0,0.516-0.399,0.907-0.896,0.907H26.923L26.923,32.807z
	 M36.675,32.807L36.675,32.807c-0.518,0-0.927-0.391-0.927-0.907c0-0.506,0.409-0.917,0.927-0.917h4.242
	c0.508,0,0.928,0.411,0.928,0.917c0,0.516-0.42,0.907-0.928,0.907H36.675L36.675,32.807z M26.923,37.683L26.923,37.683
	c-0.488,0-0.917-0.399-0.917-0.898c0-0.516,0.429-0.926,0.917-0.926h4.282c0.497,0,0.896,0.41,0.896,0.926
	c0,0.499-0.399,0.898-0.896,0.898H26.923L26.923,37.683z M36.675,37.683L36.675,37.683c-0.518,0-0.927-0.399-0.927-0.898
	c0-0.516,0.409-0.926,0.927-0.926h4.242c0.508,0,0.928,0.41,0.928,0.926c0,0.499-0.42,0.898-0.928,0.898H36.675L36.675,37.683z
	 M26.923,42.579L26.923,42.579c-0.488,0-0.917-0.42-0.917-0.917c0-0.527,0.429-0.928,0.917-0.928h4.282
	c0.497,0,0.896,0.4,0.896,0.928c0,0.497-0.399,0.917-0.896,0.917H26.923L26.923,42.579z M36.675,42.579L36.675,42.579
	c-0.518,0-0.927-0.42-0.927-0.917c0-0.527,0.409-0.928,0.927-0.928h4.242c0.508,0,0.928,0.4,0.928,0.928
	c0,0.497-0.42,0.917-0.928,0.917H36.675L36.675,42.579z M26.923,47.454L26.923,47.454c-0.488,0-0.917-0.408-0.917-0.916
	c0-0.498,0.429-0.896,0.917-0.896h4.282c0.497,0,0.896,0.398,0.896,0.896c0,0.508-0.399,0.916-0.896,0.916H26.923L26.923,47.454z
	 M36.675,47.454L36.675,47.454c-0.518,0-0.927-0.408-0.927-0.916c0-0.498,0.409-0.896,0.927-0.896h4.242
	c0.508,0,0.928,0.398,0.928,0.896c0,0.508-0.42,0.916-0.928,0.916H36.675L36.675,47.454z M46.76,31.733L46.76,31.733h12.442h0.041
	c0.837,0,1.521,0.692,1.521,1.541v24.315v0.029c0,0.848-0.684,1.549-1.521,1.549H45.249h-5.785h-0.038
	c-0.85,0-1.521-0.701-1.521-1.549v-4.564h-7.949v4.535v0.029c0,0.848-0.693,1.549-1.542,1.549H22.66h-0.028
	c-0.85,0-1.541-0.701-1.541-1.549V21.99v-0.068c0-0.83,0.691-1.511,1.541-1.511h22.567h0.051c0.827,0,1.511,0.682,1.511,1.511
	V31.733L46.76,31.733z"/>
</svg>
