<?xml version="1.0" encoding="utf-8"?>
<!-- Generator: Adobe Illustrator 16.0.0, SVG Export Plug-In . SVG Version: 6.00 Build 0)  -->
<!DOCTYPE svg PUBLIC "-//W3C//DTD SVG 1.1//EN" "http://www.w3.org/Graphics/SVG/1.1/DTD/svg11.dtd">
<svg version="1.1" id="图层_1" xmlns="http://www.w3.org/2000/svg" xmlns:xlink="http://www.w3.org/1999/xlink" x="0px" y="0px"
	 width="80px" height="80px" viewBox="0 0 80 80" enable-background="new 0 0 80 80" xml:space="preserve">
<g>
	<circle fill="#52A6EB" cx="40" cy="40" r="40"/>
	<path fill="#FFFFFF" d="M53.253,25.384c-0.186-0.695-0.908-1.13-1.631-0.941l-7.848,2.105c-0.248-0.374-0.646-0.604-1.113-0.604
		H23.347c-0.732,0-1.326,0.604-1.326,1.334v27.783c0,0.74,0.594,1.334,1.326,1.334h19.314c0.721,0,1.316-0.594,1.316-1.334V38.296
		l4.578,17.132c0.195,0.696,0.928,1.112,1.631,0.926l9.311-2.489c0.721-0.194,1.129-0.926,0.941-1.622L53.253,25.384L53.253,25.384z
		 M32.197,53.746L32.197,53.746h-7.525V28.604h7.525V53.746L32.197,53.746z M41.319,53.746L41.319,53.746h-7.517V28.604h7.517
		V53.746L41.319,53.746z M50.78,53.448L50.78,53.448l-6.498-24.276l6.746-1.825L57.55,51.63L50.78,53.448L50.78,53.448z
		 M26.463,50.399L26.463,50.399l0.052,0.051c0.483,0.492,1.163,0.798,1.894,0.798s1.402-0.296,1.876-0.756l0.026-0.042
		c0.492-0.468,0.798-1.146,0.798-1.895s-0.306-1.418-0.798-1.902h-0.008c-0.469-0.476-1.146-0.799-1.895-0.799
		c-0.73,0-1.41,0.323-1.894,0.799c-0.484,0.484-0.782,1.163-0.782,1.902C25.733,49.27,26.004,49.924,26.463,50.399L26.463,50.399z
		 M27.626,47.774L27.626,47.774c0.213-0.194,0.484-0.314,0.782-0.314c0.306,0,0.586,0.12,0.782,0.314l0,0
		c0.186,0.212,0.33,0.476,0.33,0.781c0,0.314-0.145,0.578-0.33,0.782c-0.204,0.212-0.477,0.313-0.782,0.313
		c-0.298,0-0.569-0.119-0.782-0.313l-0.025-0.034c-0.178-0.188-0.28-0.45-0.28-0.748C27.321,48.25,27.431,47.986,27.626,47.774
		L27.626,47.774z M28.187,42.084L28.187,42.084c0.434,0,0.782-0.366,0.782-0.798v-9.608c0-0.432-0.349-0.798-0.782-0.798
		c-0.458,0-0.807,0.366-0.807,0.798v9.608C27.38,41.718,27.729,42.084,28.187,42.084L28.187,42.084z M48.259,30.464L48.259,30.464
		c-0.434,0.103-0.68,0.561-0.578,0.977l2.49,9.268c0.117,0.416,0.533,0.68,0.967,0.56c0.426-0.109,0.672-0.544,0.568-0.976
		l-2.488-9.268C49.099,30.6,48.667,30.345,48.259,30.464L48.259,30.464z M35.441,50.399L35.441,50.399l0.034,0.051
		c0.483,0.492,1.165,0.798,1.903,0.798s1.4-0.296,1.885-0.756l0.025-0.042c0.477-0.468,0.783-1.146,0.783-1.895
		s-0.307-1.418-0.783-1.902c-0.492-0.476-1.154-0.799-1.91-0.799c-0.738,0-1.419,0.323-1.903,0.799h0.01
		c-0.494,0.484-0.782,1.163-0.782,1.902C34.703,49.27,34.991,49.924,35.441,50.399L35.441,50.399z M36.597,47.774L36.597,47.774
		c0.221-0.194,0.477-0.314,0.781-0.314c0.322,0,0.576,0.12,0.773,0.314l0,0c0.211,0.212,0.332,0.476,0.332,0.781
		c0,0.314-0.121,0.578-0.307,0.782h-0.025c-0.197,0.212-0.451,0.313-0.773,0.313c-0.305,0-0.561-0.119-0.781-0.313l-0.025-0.034
		c-0.178-0.188-0.281-0.45-0.281-0.748C36.291,48.25,36.401,47.986,36.597,47.774L36.597,47.774z M37.829,42.084L37.829,42.084
		c0.432,0,0.797-0.366,0.797-0.798v-9.608c0-0.432-0.365-0.798-0.797-0.798c-0.451,0-0.809,0.366-0.809,0.798v9.608
		C37.021,41.718,37.378,42.084,37.829,42.084L37.829,42.084z M51.028,45.616L51.028,45.616c-0.494,0.485-0.799,1.14-0.799,1.912
		c0,0.714,0.289,1.359,0.766,1.844l0.033,0.042c0.492,0.483,1.146,0.798,1.895,0.798c0.711,0,1.375-0.296,1.867-0.764l0.008-0.009
		l0.035-0.033c0.475-0.477,0.773-1.148,0.773-1.878c0-0.772-0.299-1.427-0.773-1.92v0.008v-0.008c-0.5-0.477-1.172-0.79-1.91-0.79
		C52.175,44.818,51.521,45.132,51.028,45.616L51.028,45.616z M52.14,46.729L52.14,46.729c0.205-0.195,0.469-0.306,0.783-0.306
		s0.594,0.11,0.779,0.306c0.188,0.213,0.314,0.484,0.314,0.799c0,0.288-0.127,0.56-0.314,0.764
		c-0.203,0.196-0.465,0.332-0.779,0.332s-0.578-0.136-0.783-0.332l-0.018-0.034c-0.193-0.194-0.303-0.458-0.303-0.729
		C51.819,47.214,51.952,46.942,52.14,46.729L52.14,46.729z"/>
</g>
</svg>
