<?xml version="1.0" encoding="utf-8"?>
<!-- Generator: Adobe Illustrator 16.0.0, SVG Export Plug-In . SVG Version: 6.00 Build 0)  -->
<!DOCTYPE svg PUBLIC "-//W3C//DTD SVG 1.1//EN" "http://www.w3.org/Graphics/SVG/1.1/DTD/svg11.dtd">
<svg version="1.1" id="图层_1" xmlns="http://www.w3.org/2000/svg" xmlns:xlink="http://www.w3.org/1999/xlink" x="0px" y="0px"
	 width="300px" height="300px" viewBox="0 0 300 300" enable-background="new 0 0 300 300" xml:space="preserve">
<g>
	<g>
		<rect x="-0.641" y="0.001" fill="#FFFFFF" stroke="#EDEEF2" width="301.281" height="299.998"/>
		<g>
			<rect x="63.369" y="117.511" fill="#040000" width="10.834" height="10.833"/>
			<rect x="63.369" y="106.684" fill="#040000" width="10.834" height="10.827"/>
			<rect x="20.056" y="85.027" fill="#040000" width="10.822" height="10.826"/>
			<rect x="30.877" y="85.027" fill="#040000" width="10.836" height="10.826"/>
			<rect x="63.369" y="139.17" fill="#040000" width="10.834" height="10.83"/>
			<rect x="52.542" y="85.027" fill="#040000" width="10.828" height="10.826"/>
			<rect x="85.03" y="128.344" fill="#040000" width="10.827" height="10.826"/>
			<rect x="85.03" y="117.511" fill="#040000" width="10.827" height="10.833"/>
			<rect x="85.03" y="139.17" fill="#040000" width="10.827" height="10.83"/>
			<rect x="85.03" y="106.684" fill="#040000" width="10.827" height="10.827"/>
			<rect x="85.03" y="95.853" fill="#040000" width="10.827" height="10.831"/>
			<rect x="63.369" y="52.54" fill="#040000" width="10.834" height="10.827"/>
			<rect x="85.03" y="85.027" fill="#040000" width="10.827" height="10.826"/>
			<rect x="85.03" y="74.195" fill="#040000" width="10.827" height="10.832"/>
			<rect x="85.03" y="63.367" fill="#040000" width="10.827" height="10.829"/>
			<rect x="9.221" y="52.54" fill="#040000" width="10.835" height="10.827"/>
			<rect x="30.877" y="63.367" fill="#040000" width="10.836" height="10.829"/>
			<rect x="20.056" y="63.367" fill="#040000" width="10.822" height="10.829"/>
			<rect x="9.221" y="63.367" fill="#040000" width="10.835" height="10.829"/>
			<rect x="63.369" y="63.367" fill="#040000" width="10.834" height="10.829"/>
			<rect x="41.713" y="63.367" fill="#040000" width="10.828" height="10.829"/>
			<rect x="52.542" y="63.367" fill="#040000" width="10.828" height="10.829"/>
			<rect x="74.203" y="106.684" fill="#040000" width="10.827" height="10.827"/>
			<rect x="74.203" y="85.027" fill="#040000" width="10.827" height="10.826"/>
			<rect x="74.203" y="139.17" fill="#040000" width="10.827" height="10.83"/>
			<rect x="74.203" y="128.344" fill="#040000" width="10.827" height="10.826"/>
			<rect x="9.221" y="139.17" fill="#040000" width="10.835" height="10.83"/>
			<rect x="9.221" y="128.344" fill="#040000" width="10.835" height="10.826"/>
			<rect x="20.056" y="117.511" fill="#040000" width="10.822" height="10.833"/>
			<rect x="20.056" y="139.17" fill="#040000" width="10.822" height="10.83"/>
			<rect x="30.877" y="95.853" fill="#040000" width="10.836" height="10.831"/>
			<rect x="41.713" y="139.17" fill="#040000" width="10.828" height="10.83"/>
			<rect x="9.221" y="95.853" fill="#040000" width="10.835" height="10.831"/>
			<rect x="41.713" y="95.853" fill="#040000" width="10.828" height="10.831"/>
			<rect x="52.542" y="128.344" fill="#040000" width="10.828" height="10.826"/>
			<rect x="52.542" y="117.511" fill="#040000" width="10.828" height="10.833"/>
			<rect x="52.542" y="106.684" fill="#040000" width="10.828" height="10.827"/>
			<rect x="30.877" y="106.684" fill="#040000" width="10.836" height="10.827"/>
			<rect x="20.056" y="106.684" fill="#040000" width="10.822" height="10.827"/>
			<rect x="30.877" y="139.17" fill="#040000" width="10.836" height="10.83"/>
			<rect x="30.877" y="128.344" fill="#040000" width="10.836" height="10.826"/>
			<rect x="128.35" y="139.17" fill="#040000" width="10.823" height="10.83"/>
			<rect x="128.35" y="85.027" fill="#040000" width="10.823" height="10.826"/>
			<rect x="128.35" y="74.195" fill="#040000" width="10.823" height="10.832"/>
			<rect x="128.35" y="63.367" fill="#040000" width="10.823" height="10.829"/>
			<rect x="128.35" y="95.853" fill="#040000" width="10.823" height="10.831"/>
			<rect x="128.35" y="117.511" fill="#040000" width="10.823" height="10.833"/>
			<rect x="128.35" y="106.684" fill="#040000" width="10.823" height="10.827"/>
			<rect x="117.515" y="63.367" fill="#040000" width="10.835" height="10.829"/>
			<rect x="63.369" y="20.054" fill="#040000" width="10.834" height="10.824"/>
			<rect x="9.221" y="20.054" fill="#040000" width="10.835" height="10.824"/>
			<rect x="117.515" y="139.17" fill="#040000" width="10.835" height="10.83"/>
			<rect x="117.515" y="128.344" fill="#040000" width="10.835" height="10.826"/>
			<rect x="117.515" y="117.511" fill="#040000" width="10.835" height="10.833"/>
			<rect x="117.515" y="52.54" fill="#040000" width="10.835" height="10.827"/>
			<rect x="128.35" y="52.54" fill="#040000" width="10.823" height="10.827"/>
			<rect x="117.515" y="106.684" fill="#040000" width="10.835" height="10.827"/>
			<rect x="128.35" y="41.708" fill="#040000" width="10.823" height="10.832"/>
			<path fill="#040000" d="M139.172,139.17H150c0-3.637,0-7.25,0-10.826h-10.827V139.17z"/>
			<path fill="#040000" d="M139.172,117.511H150c0-3.652,0-7.267,0-10.827h-10.827V117.511z"/>
			<path fill="#040000" d="M139.172,52.54H150c0-3.772,0-7.392,0-10.832h-10.827V52.54z"/>
			<path fill="#040000" d="M139.172,85.027H150c0-3.691,0-7.302,0-10.832h-10.827V85.027z"/>
			<path fill="#040000" d="M20.056,20.054V9.222c-3.592,0-7.204,0-10.835,0v10.832H20.056z"/>
			<path fill="#040000" d="M30.877,20.054V9.222c-3.576,0-7.186,0-10.822,0v10.832H30.877z"/>
			<path fill="#040000" d="M128.35,20.054V9.222c-3.383,0-7,0-10.835,0v10.832H128.35z"/>
			<path fill="#040000" d="M117.515,20.054V9.222c-3.442,0-7.059,0-10.83,0v10.832H117.515z"/>
			<rect x="128.35" y="30.877" fill="#040000" width="10.823" height="10.83"/>
			<path fill="#040000" d="M150,20.054c0-4.253,0-7.904,0-10.832c-2.928,0-6.58,0-10.827,0v10.832H150z"/>
			<path fill="#040000" d="M63.369,20.054V9.222c-3.555,0-7.168,0-10.828,0v10.832H63.369z"/>
			<path fill="#040000" d="M52.542,20.054V9.222c-3.564,0-7.174,0-10.828,0v10.832H52.542z"/>
			<path fill="#040000" d="M41.713,20.054V9.222c-3.579,0-7.188,0-10.836,0v10.832H41.713z"/>
			<path fill="#040000" d="M74.203,20.054V9.222c-3.552,0-7.159,0-10.834,0v10.832H74.203z"/>
			<path fill="#040000" d="M95.856,20.054V9.222c-3.508,0-7.126,0-10.827,0v10.832H95.856z"/>
			<path fill="#040000" d="M106.685,20.054V9.222c-3.481,0-7.094,0-10.828,0v10.832H106.685z"/>
			<rect x="95.856" y="41.708" fill="#040000" width="10.828" height="10.832"/>
			<rect x="41.713" y="41.708" fill="#040000" width="10.828" height="10.832"/>
			<rect x="30.877" y="41.708" fill="#040000" width="10.836" height="10.832"/>
			<rect x="63.369" y="41.708" fill="#040000" width="10.834" height="10.832"/>
			<rect x="9.221" y="41.708" fill="#040000" width="10.835" height="10.832"/>
			<rect x="95.856" y="139.17" fill="#040000" width="10.828" height="10.83"/>
			<rect x="95.856" y="74.195" fill="#040000" width="10.828" height="10.832"/>
			<rect x="95.856" y="85.027" fill="#040000" width="10.828" height="10.826"/>
			<rect x="95.856" y="63.367" fill="#040000" width="10.828" height="10.829"/>
			<rect x="95.856" y="117.511" fill="#040000" width="10.828" height="10.833"/>
			<rect x="95.856" y="95.853" fill="#040000" width="10.828" height="10.831"/>
			<rect x="95.856" y="52.54" fill="#040000" width="10.828" height="10.827"/>
			<rect x="106.685" y="106.684" fill="#040000" width="10.83" height="10.827"/>
			<rect x="106.685" y="95.853" fill="#040000" width="10.83" height="10.831"/>
			<rect x="106.685" y="128.344" fill="#040000" width="10.83" height="10.826"/>
			<rect x="106.685" y="30.877" fill="#040000" width="10.83" height="10.83"/>
			<rect x="95.856" y="30.877" fill="#040000" width="10.828" height="10.83"/>
			<rect x="106.685" y="74.195" fill="#040000" width="10.83" height="10.832"/>
			<rect x="106.685" y="52.54" fill="#040000" width="10.83" height="10.827"/>
			<rect x="85.03" y="30.877" fill="#040000" width="10.827" height="10.83"/>
			<rect x="9.221" y="30.877" fill="#040000" width="10.835" height="10.83"/>
			<rect x="63.369" y="30.877" fill="#040000" width="10.834" height="10.83"/>
			<rect x="41.713" y="30.877" fill="#040000" width="10.828" height="10.83"/>
			<rect x="30.877" y="30.877" fill="#040000" width="10.836" height="10.83"/>
			<rect x="204.144" y="117.511" fill="#040000" width="10.833" height="10.833"/>
			<rect x="204.144" y="85.027" fill="#040000" width="10.833" height="10.826"/>
			<rect x="204.144" y="106.684" fill="#040000" width="10.833" height="10.827"/>
			<rect x="160.835" y="74.195" fill="#040000" width="10.819" height="10.832"/>
			<rect x="150" y="74.195" fill="#040000" width="10.835" height="10.832"/>
			<rect x="150" y="85.027" fill="#040000" width="10.835" height="10.826"/>
			<rect x="182.488" y="85.027" fill="#040000" width="10.823" height="10.826"/>
			<rect x="193.312" y="85.027" fill="#040000" width="10.832" height="10.826"/>
			<rect x="204.144" y="128.344" fill="#040000" width="10.833" height="10.826"/>
			<rect x="225.803" y="117.511" fill="#040000" width="10.829" height="10.833"/>
			<rect x="225.803" y="139.17" fill="#040000" width="10.829" height="10.83"/>
			<rect x="225.803" y="95.853" fill="#040000" width="10.829" height="10.831"/>
			<rect x="225.803" y="52.54" fill="#040000" width="10.829" height="10.827"/>
			<rect x="193.312" y="52.54" fill="#040000" width="10.832" height="10.827"/>
			<rect x="204.144" y="52.54" fill="#040000" width="10.833" height="10.827"/>
			<rect x="225.803" y="63.367" fill="#040000" width="10.829" height="10.829"/>
			<rect x="150" y="52.54" fill="#040000" width="10.835" height="10.827"/>
			<rect x="171.654" y="63.367" fill="#040000" width="10.834" height="10.829"/>
			<rect x="150" y="63.367" fill="#040000" width="10.835" height="10.829"/>
			<rect x="204.144" y="63.367" fill="#040000" width="10.833" height="10.829"/>
			<rect x="182.488" y="63.367" fill="#040000" width="10.823" height="10.829"/>
			<rect x="193.312" y="63.367" fill="#040000" width="10.832" height="10.829"/>
			<rect x="214.977" y="106.684" fill="#040000" width="10.826" height="10.827"/>
			<rect x="214.977" y="85.027" fill="#040000" width="10.826" height="10.826"/>
			<rect x="214.977" y="95.853" fill="#040000" width="10.826" height="10.831"/>
			<rect x="214.977" y="139.17" fill="#040000" width="10.826" height="10.83"/>
			<rect x="214.977" y="117.511" fill="#040000" width="10.826" height="10.833"/>
			<rect x="150" y="139.17" fill="#040000" width="10.835" height="10.83"/>
			<rect x="150" y="128.344" fill="#040000" width="10.835" height="10.826"/>
			<rect x="160.835" y="117.511" fill="#040000" width="10.819" height="10.833"/>
			<rect x="150" y="117.511" fill="#040000" width="10.835" height="10.833"/>
			<rect x="160.835" y="139.17" fill="#040000" width="10.819" height="10.83"/>
			<rect x="193.312" y="95.853" fill="#040000" width="10.832" height="10.831"/>
			<rect x="171.654" y="95.853" fill="#040000" width="10.834" height="10.831"/>
			<rect x="182.488" y="106.684" fill="#040000" width="10.823" height="10.827"/>
			<rect x="160.835" y="95.853" fill="#040000" width="10.819" height="10.831"/>
			<rect x="193.312" y="128.344" fill="#040000" width="10.832" height="10.826"/>
			<rect x="193.312" y="117.511" fill="#040000" width="10.832" height="10.833"/>
			<rect x="193.312" y="139.17" fill="#040000" width="10.832" height="10.83"/>
			<rect x="171.654" y="106.684" fill="#040000" width="10.834" height="10.827"/>
			<rect x="150" y="106.684" fill="#040000" width="10.835" height="10.827"/>
			<rect x="171.654" y="139.17" fill="#040000" width="10.834" height="10.83"/>
			<rect x="171.654" y="128.344" fill="#040000" width="10.834" height="10.826"/>
			<rect x="269.118" y="139.17" fill="#040000" width="10.831" height="10.83"/>
			<rect x="269.118" y="128.344" fill="#040000" width="10.831" height="10.826"/>
			<rect x="269.118" y="63.367" fill="#040000" width="10.831" height="10.829"/>
			<rect x="269.118" y="95.853" fill="#040000" width="10.831" height="10.831"/>
			<rect x="269.118" y="117.511" fill="#040000" width="10.831" height="10.833"/>
			<rect x="269.118" y="106.684" fill="#040000" width="10.831" height="10.827"/>
			<rect x="258.29" y="63.367" fill="#040000" width="10.828" height="10.829"/>
			<rect x="204.144" y="20.054" fill="#040000" width="10.833" height="10.824"/>
			<rect x="225.803" y="20.054" fill="#040000" width="10.829" height="10.824"/>
			<rect x="182.488" y="20.054" fill="#040000" width="10.823" height="10.824"/>
			<rect x="150" y="20.054" fill="#040000" width="10.835" height="10.824"/>
			<rect x="160.835" y="20.054" fill="#040000" width="10.819" height="10.824"/>
			<rect x="171.654" y="20.054" fill="#040000" width="10.834" height="10.824"/>
			<rect x="258.29" y="85.027" fill="#040000" width="10.828" height="10.826"/>
			<rect x="258.29" y="128.344" fill="#040000" width="10.828" height="10.826"/>
			<rect x="258.29" y="117.511" fill="#040000" width="10.828" height="10.833"/>
			<rect x="258.29" y="30.877" fill="#040000" width="10.828" height="10.83"/>
			<rect x="258.29" y="41.708" fill="#040000" width="10.828" height="10.832"/>
			<rect x="258.29" y="95.853" fill="#040000" width="10.828" height="10.831"/>
			<path fill="#040000" d="M279.949,150h10.829c0-3.634,0-7.245,0-10.83h-10.829V150z"/>
			<path fill="#040000" d="M279.949,117.511h10.829c0-3.652,0-7.267,0-10.827h-10.829V117.511z"/>
			<path fill="#040000" d="M279.949,63.367h10.829c0-3.731,0-7.344,0-10.827h-10.829V63.367z"/>
			<path fill="#040000" d="M279.949,52.54h10.829c0-3.772,0-7.392,0-10.832h-10.829V52.54z"/>
			<path fill="#040000" d="M279.949,30.877v10.83h10.829c0-3.837,0-7.449,0-10.83H279.949z"/>
			<path fill="#040000" d="M279.949,74.195h10.829c0-3.706,0-7.321,0-10.829h-10.829V74.195z"/>
			<path fill="#040000" d="M160.835,20.054V9.222c-3.594,0-7.206,0-10.835,0v10.832H160.835z"/>
			<path fill="#040000" d="M279.949,20.054V9.222c-3.256,0-6.882,0-10.831,0v10.832H279.949z"/>
			<path fill="#040000" d="M269.118,20.054V9.222c-3.375,0-6.994,0-10.828,0v10.832H269.118z"/>
			<path fill="#040000" d="M258.29,20.054V9.222c-3.438,0-7.063,0-10.826,0v10.832H258.29z"/>
			<path fill="#040000" d="M279.949,30.877h10.829c0-3.947,0-7.567,0-10.824h-10.829V30.877z"/>
			<path fill="#040000" d="M290.778,20.054c0-4.253,0-7.904,0-10.832c-2.933,0-6.581,0-10.829,0v10.832H290.778z"/>
			<path fill="#040000" d="M204.144,20.054V9.222c-3.552,0-7.167,0-10.832,0v10.832H204.144z"/>
			<path fill="#040000" d="M182.488,20.054V9.222c-3.581,0-7.185,0-10.834,0v10.832H182.488z"/>
			<path fill="#040000" d="M214.977,20.054V9.222c-3.547,0-7.159,0-10.833,0v10.832H214.977z"/>
			<path fill="#040000" d="M236.632,20.054V9.222c-3.507,0-7.124,0-10.829,0v10.832H236.632z"/>
			<path fill="#040000" d="M247.464,20.054V9.222c-3.487,0-7.104,0-10.832,0v10.832H247.464z"/>
			<rect x="225.803" y="41.708" fill="#040000" width="10.829" height="10.832"/>
			<rect x="182.488" y="41.708" fill="#040000" width="10.823" height="10.832"/>
			<rect x="171.654" y="41.708" fill="#040000" width="10.834" height="10.832"/>
			<rect x="204.144" y="41.708" fill="#040000" width="10.833" height="10.832"/>
			<rect x="150" y="41.708" fill="#040000" width="10.835" height="10.832"/>
			<rect x="236.632" y="85.027" fill="#040000" width="10.832" height="10.826"/>
			<rect x="236.632" y="63.367" fill="#040000" width="10.832" height="10.829"/>
			<rect x="236.632" y="117.511" fill="#040000" width="10.832" height="10.833"/>
			<rect x="236.632" y="95.853" fill="#040000" width="10.832" height="10.831"/>
			<rect x="247.464" y="85.027" fill="#040000" width="10.826" height="10.826"/>
			<rect x="247.464" y="106.684" fill="#040000" width="10.826" height="10.827"/>
			<rect x="247.464" y="95.853" fill="#040000" width="10.826" height="10.831"/>
			<rect x="247.464" y="128.344" fill="#040000" width="10.826" height="10.826"/>
			<rect x="247.464" y="139.17" fill="#040000" width="10.826" height="10.83"/>
			<rect x="247.464" y="30.877" fill="#040000" width="10.826" height="10.83"/>
			<rect x="247.464" y="63.367" fill="#040000" width="10.826" height="10.829"/>
			<rect x="247.464" y="41.708" fill="#040000" width="10.826" height="10.832"/>
			<rect x="225.803" y="30.877" fill="#040000" width="10.829" height="10.83"/>
			<rect x="150" y="30.877" fill="#040000" width="10.835" height="10.83"/>
			<rect x="160.835" y="30.877" fill="#040000" width="10.819" height="10.83"/>
			<rect x="193.312" y="30.877" fill="#040000" width="10.832" height="10.83"/>
			<rect x="182.488" y="30.877" fill="#040000" width="10.823" height="10.83"/>
			<rect x="63.369" y="258.291" fill="#040000" width="10.834" height="10.83"/>
			<rect x="52.542" y="214.976" fill="#040000" width="10.828" height="10.832"/>
			<rect x="41.713" y="214.976" fill="#040000" width="10.828" height="10.832"/>
			<rect x="63.369" y="247.462" fill="#040000" width="10.834" height="10.829"/>
			<rect x="63.369" y="236.635" fill="#040000" width="10.834" height="10.827"/>
			<rect x="20.056" y="214.976" fill="#040000" width="10.822" height="10.832"/>
			<rect x="9.221" y="214.976" fill="#040000" width="10.835" height="10.832"/>
			<rect x="41.713" y="225.808" fill="#040000" width="10.828" height="10.827"/>
			<rect x="63.369" y="279.949" fill="#040000" width="10.834" height="10.83"/>
			<rect x="52.542" y="225.808" fill="#040000" width="10.828" height="10.827"/>
			<rect x="63.369" y="269.121" fill="#040000" width="10.834" height="10.828"/>
			<rect x="85.03" y="269.121" fill="#040000" width="10.827" height="10.828"/>
			<rect x="85.03" y="247.462" fill="#040000" width="10.827" height="10.829"/>
			<rect x="85.03" y="236.635" fill="#040000" width="10.827" height="10.827"/>
			<rect x="85.03" y="193.318" fill="#040000" width="10.827" height="10.83"/>
			<rect x="52.542" y="193.318" fill="#040000" width="10.828" height="10.83"/>
			<rect x="63.369" y="193.318" fill="#040000" width="10.834" height="10.83"/>
			<rect x="85.03" y="214.976" fill="#040000" width="10.827" height="10.832"/>
			<rect x="85.03" y="204.148" fill="#040000" width="10.827" height="10.827"/>
			<rect x="30.877" y="193.318" fill="#040000" width="10.836" height="10.83"/>
			<rect x="41.713" y="193.318" fill="#040000" width="10.828" height="10.83"/>
			<rect x="20.056" y="193.318" fill="#040000" width="10.822" height="10.83"/>
			<rect x="9.221" y="193.318" fill="#040000" width="10.835" height="10.83"/>
			<rect x="30.877" y="204.148" fill="#040000" width="10.836" height="10.827"/>
			<rect x="20.056" y="204.148" fill="#040000" width="10.822" height="10.827"/>
			<rect x="63.369" y="204.148" fill="#040000" width="10.834" height="10.827"/>
			<rect x="74.203" y="247.462" fill="#040000" width="10.827" height="10.829"/>
			<rect x="74.203" y="225.808" fill="#040000" width="10.827" height="10.827"/>
			<rect x="74.203" y="214.976" fill="#040000" width="10.827" height="10.832"/>
			<rect x="74.203" y="236.635" fill="#040000" width="10.827" height="10.827"/>
			<rect x="74.203" y="279.949" fill="#040000" width="10.827" height="10.83"/>
			<rect x="74.203" y="269.121" fill="#040000" width="10.827" height="10.828"/>
			<rect x="9.221" y="279.949" fill="#040000" width="10.835" height="10.83"/>
			<rect x="9.221" y="269.121" fill="#040000" width="10.835" height="10.828"/>
			<rect x="20.056" y="258.291" fill="#040000" width="10.822" height="10.83"/>
			<rect x="20.056" y="279.949" fill="#040000" width="10.822" height="10.83"/>
			<rect x="41.713" y="279.949" fill="#040000" width="10.828" height="10.83"/>
			<rect x="9.221" y="236.635" fill="#040000" width="10.835" height="10.827"/>
			<rect x="41.713" y="258.291" fill="#040000" width="10.828" height="10.83"/>
			<rect x="41.713" y="247.462" fill="#040000" width="10.828" height="10.829"/>
			<rect x="52.542" y="247.462" fill="#040000" width="10.828" height="10.829"/>
			<rect x="52.542" y="279.949" fill="#040000" width="10.828" height="10.83"/>
			<rect x="30.877" y="258.291" fill="#040000" width="10.836" height="10.83"/>
			<rect x="9.221" y="247.462" fill="#040000" width="10.835" height="10.829"/>
			<rect x="20.056" y="247.462" fill="#040000" width="10.822" height="10.829"/>
			<rect x="30.877" y="269.121" fill="#040000" width="10.836" height="10.828"/>
			<rect x="128.35" y="279.949" fill="#040000" width="10.823" height="10.83"/>
			<rect x="128.35" y="225.808" fill="#040000" width="10.823" height="10.827"/>
			<rect x="128.35" y="214.976" fill="#040000" width="10.823" height="10.832"/>
			<rect x="128.35" y="204.148" fill="#040000" width="10.823" height="10.827"/>
			<rect x="128.35" y="236.635" fill="#040000" width="10.823" height="10.827"/>
			<rect x="128.35" y="258.291" fill="#040000" width="10.823" height="10.83"/>
			<rect x="117.515" y="204.148" fill="#040000" width="10.835" height="10.827"/>
			<rect x="74.203" y="160.831" fill="#040000" width="10.827" height="10.826"/>
			<rect x="63.369" y="160.831" fill="#040000" width="10.834" height="10.826"/>
			<rect x="52.542" y="160.831" fill="#040000" width="10.828" height="10.826"/>
			<rect x="117.515" y="160.831" fill="#040000" width="10.835" height="10.826"/>
			<rect x="41.713" y="160.831" fill="#040000" width="10.828" height="10.826"/>
			<rect x="9.221" y="160.831" fill="#040000" width="10.835" height="10.826"/>
			<rect x="30.877" y="160.831" fill="#040000" width="10.836" height="10.826"/>
			<rect x="117.515" y="225.808" fill="#040000" width="10.835" height="10.827"/>
			<rect x="117.515" y="279.949" fill="#040000" width="10.835" height="10.83"/>
			<rect x="117.515" y="269.121" fill="#040000" width="10.835" height="10.828"/>
			<rect x="117.515" y="258.291" fill="#040000" width="10.835" height="10.83"/>
			<rect x="117.515" y="171.657" fill="#040000" width="10.835" height="10.833"/>
			<rect x="117.515" y="193.318" fill="#040000" width="10.835" height="10.83"/>
			<rect x="128.35" y="193.318" fill="#040000" width="10.823" height="10.83"/>
			<rect x="117.515" y="236.635" fill="#040000" width="10.835" height="10.827"/>
			<rect x="117.515" y="247.462" fill="#040000" width="10.835" height="10.829"/>
			<rect x="128.35" y="182.49" fill="#040000" width="10.823" height="10.828"/>
			<path fill="#040000" d="M139.172,279.949H150c0-3.636,0-7.251,0-10.828h-10.827V279.949z"/>
			<path fill="#040000" d="M139.172,269.121H150c0-3.646,0-7.258,0-10.83h-10.827V269.121z"/>
			<path fill="#040000" d="M139.172,204.148H150c0-3.735,0-7.347,0-10.83h-10.827V204.148z"/>
			<path fill="#040000" d="M139.172,214.976H150c0-3.707,0-7.322,0-10.827h-10.827V214.976z"/>
			<path fill="#040000" d="M20.056,160.831V150c-3.592,0-7.204,0-10.835,0v10.831H20.056z"/>
			<path fill="#040000" d="M30.877,160.831V150c-3.576,0-7.186,0-10.822,0v10.831H30.877z"/>
			<rect x="128.35" y="171.657" fill="#040000" width="10.823" height="10.833"/>
			<rect x="128.35" y="160.831" fill="#040000" width="10.823" height="10.826"/>
			<path fill="#040000" d="M150,160.831c0-4.247,0-7.901,0-10.831c-2.928,0-6.58,0-10.827,0v10.831H150z"/>
			<path fill="#040000" d="M41.713,160.831V150c-3.579,0-7.188,0-10.836,0v10.831H41.713z"/>
			<path fill="#040000" d="M74.203,160.831V150c-3.552,0-7.159,0-10.834,0v10.831H74.203z"/>
			<path fill="#040000" d="M95.856,160.831V150c-3.508,0-7.126,0-10.827,0v10.831H95.856z"/>
			<rect x="85.03" y="182.49" fill="#040000" width="10.827" height="10.828"/>
			<rect x="41.713" y="182.49" fill="#040000" width="10.828" height="10.828"/>
			<rect x="63.369" y="182.49" fill="#040000" width="10.834" height="10.828"/>
			<rect x="74.203" y="182.49" fill="#040000" width="10.827" height="10.828"/>
			<rect x="9.221" y="182.49" fill="#040000" width="10.835" height="10.828"/>
			<rect x="95.856" y="279.949" fill="#040000" width="10.828" height="10.83"/>
			<rect x="95.856" y="225.808" fill="#040000" width="10.828" height="10.827"/>
			<rect x="95.856" y="204.148" fill="#040000" width="10.828" height="10.827"/>
			<rect x="95.856" y="258.291" fill="#040000" width="10.828" height="10.83"/>
			<rect x="95.856" y="236.635" fill="#040000" width="10.828" height="10.827"/>
			<rect x="95.856" y="247.462" fill="#040000" width="10.828" height="10.829"/>
			<rect x="106.685" y="258.291" fill="#040000" width="10.83" height="10.83"/>
			<rect x="106.685" y="279.949" fill="#040000" width="10.83" height="10.83"/>
			<rect x="106.685" y="171.657" fill="#040000" width="10.83" height="10.833"/>
			<rect x="95.856" y="171.657" fill="#040000" width="10.828" height="10.833"/>
			<rect x="74.203" y="171.657" fill="#040000" width="10.827" height="10.833"/>
			<rect x="106.685" y="214.976" fill="#040000" width="10.83" height="10.832"/>
			<rect x="106.685" y="204.148" fill="#040000" width="10.83" height="10.827"/>
			<rect x="106.685" y="193.318" fill="#040000" width="10.83" height="10.83"/>
			<rect x="106.685" y="182.49" fill="#040000" width="10.83" height="10.828"/>
			<rect x="52.542" y="171.657" fill="#040000" width="10.828" height="10.833"/>
			<rect x="30.877" y="171.657" fill="#040000" width="10.836" height="10.833"/>
			<rect x="204.144" y="258.291" fill="#040000" width="10.833" height="10.83"/>
			<rect x="193.312" y="214.976" fill="#040000" width="10.832" height="10.832"/>
			<rect x="182.488" y="214.976" fill="#040000" width="10.823" height="10.832"/>
			<rect x="171.654" y="214.976" fill="#040000" width="10.834" height="10.832"/>
			<rect x="204.144" y="247.462" fill="#040000" width="10.833" height="10.829"/>
			<rect x="204.144" y="236.635" fill="#040000" width="10.833" height="10.827"/>
			<rect x="204.144" y="214.976" fill="#040000" width="10.833" height="10.832"/>
			<rect x="160.835" y="214.976" fill="#040000" width="10.819" height="10.832"/>
			<rect x="150" y="225.808" fill="#040000" width="10.835" height="10.827"/>
			<rect x="171.654" y="225.808" fill="#040000" width="10.834" height="10.827"/>
			<rect x="204.144" y="269.121" fill="#040000" width="10.833" height="10.828"/>
			<rect x="225.803" y="269.121" fill="#040000" width="10.829" height="10.828"/>
			<rect x="225.803" y="258.291" fill="#040000" width="10.829" height="10.83"/>
			<rect x="225.803" y="279.949" fill="#040000" width="10.829" height="10.83"/>
			<rect x="225.803" y="247.462" fill="#040000" width="10.829" height="10.829"/>
			<rect x="225.803" y="236.635" fill="#040000" width="10.829" height="10.827"/>
			<rect x="225.803" y="193.318" fill="#040000" width="10.829" height="10.83"/>
			<rect x="193.312" y="193.318" fill="#040000" width="10.832" height="10.83"/>
			<rect x="204.144" y="193.318" fill="#040000" width="10.833" height="10.83"/>
			<rect x="225.803" y="225.808" fill="#040000" width="10.829" height="10.827"/>
			<rect x="171.654" y="193.318" fill="#040000" width="10.834" height="10.83"/>
			<rect x="150" y="193.318" fill="#040000" width="10.835" height="10.83"/>
			<rect x="160.835" y="204.148" fill="#040000" width="10.819" height="10.827"/>
			<rect x="150" y="204.148" fill="#040000" width="10.835" height="10.827"/>
			<rect x="204.144" y="204.148" fill="#040000" width="10.833" height="10.827"/>
			<rect x="182.488" y="204.148" fill="#040000" width="10.823" height="10.827"/>
			<rect x="214.977" y="204.148" fill="#040000" width="10.826" height="10.827"/>
			<rect x="150" y="269.121" fill="#040000" width="10.835" height="10.828"/>
			<rect x="150" y="258.291" fill="#040000" width="10.835" height="10.83"/>
			<rect x="160.835" y="279.949" fill="#040000" width="10.819" height="10.83"/>
			<rect x="193.312" y="236.635" fill="#040000" width="10.832" height="10.827"/>
			<rect x="150" y="236.635" fill="#040000" width="10.835" height="10.827"/>
			<rect x="182.488" y="236.635" fill="#040000" width="10.823" height="10.827"/>
			<rect x="182.488" y="269.121" fill="#040000" width="10.823" height="10.828"/>
			<rect x="182.488" y="258.291" fill="#040000" width="10.823" height="10.83"/>
			<rect x="160.835" y="236.635" fill="#040000" width="10.819" height="10.827"/>
			<rect x="193.312" y="279.949" fill="#040000" width="10.832" height="10.83"/>
			<rect x="171.654" y="258.291" fill="#040000" width="10.834" height="10.83"/>
			<rect x="171.654" y="247.462" fill="#040000" width="10.834" height="10.829"/>
			<rect x="150" y="247.462" fill="#040000" width="10.835" height="10.829"/>
			<rect x="160.835" y="247.462" fill="#040000" width="10.819" height="10.829"/>
			<rect x="171.654" y="269.121" fill="#040000" width="10.834" height="10.828"/>
			<rect x="269.118" y="279.949" fill="#040000" width="10.831" height="10.83"/>
			<rect x="269.118" y="225.808" fill="#040000" width="10.831" height="10.827"/>
			<rect x="269.118" y="204.148" fill="#040000" width="10.831" height="10.827"/>
			<rect x="204.144" y="160.831" fill="#040000" width="10.833" height="10.826"/>
			<rect x="193.312" y="160.831" fill="#040000" width="10.832" height="10.826"/>
			<rect x="258.29" y="160.831" fill="#040000" width="10.828" height="10.826"/>
			<rect x="225.803" y="160.831" fill="#040000" width="10.829" height="10.826"/>
			<rect x="182.488" y="160.831" fill="#040000" width="10.823" height="10.826"/>
			<rect x="150" y="160.831" fill="#040000" width="10.835" height="10.826"/>
			<rect x="258.29" y="225.808" fill="#040000" width="10.828" height="10.827"/>
			<rect x="258.29" y="279.949" fill="#040000" width="10.828" height="10.83"/>
			<rect x="258.29" y="258.291" fill="#040000" width="10.828" height="10.83"/>
			<rect x="258.29" y="171.657" fill="#040000" width="10.828" height="10.833"/>
			<rect x="258.29" y="193.318" fill="#040000" width="10.828" height="10.83"/>
			<rect x="269.118" y="193.318" fill="#040000" width="10.831" height="10.83"/>
			<rect x="258.29" y="247.462" fill="#040000" width="10.828" height="10.829"/>
			<rect x="236.632" y="160.831" fill="#040000" width="10.832" height="10.826"/>
			<rect x="269.118" y="182.49" fill="#040000" width="10.831" height="10.828"/>
			<path fill="#040000" d="M279.949,290.779h10.829c0-3.629,0-7.244,0-10.83h-10.829V290.779z"/>
			<path fill="#040000" d="M279.949,279.949h10.829c0-3.636,0-7.251,0-10.828h-10.829V279.949z"/>
			<path fill="#040000" d="M279.949,269.121h10.829c0-3.646,0-7.258,0-10.83h-10.829V269.121z"/>
			<path fill="#040000" d="M279.949,258.291h10.829c0-3.654,0-7.264,0-10.829h-10.829V258.291z"/>
			<path fill="#040000" d="M279.949,247.462h10.829c0-3.66,0-7.278,0-10.827h-10.829V247.462z"/>
			<path fill="#040000" d="M279.949,204.148h10.829c0-3.735,0-7.347,0-10.83h-10.829V204.148z"/>
			<path fill="#040000" d="M279.949,171.657v10.833h10.829c0-3.84,0-7.452,0-10.833H279.949z"/>
			<path fill="#040000" d="M279.949,236.635h10.829c0-3.675,0-7.28,0-10.827h-10.829V236.635z"/>
			<path fill="#040000" d="M160.835,160.831V150c-3.594,0-7.206,0-10.835,0v10.831H160.835z"/>
			<path fill="#040000" d="M171.654,160.831V150c-3.576,0-7.19,0-10.819,0v10.831H171.654z"/>
			<path fill="#040000" d="M258.29,160.831V150c-3.438,0-7.063,0-10.826,0v10.831H258.29z"/>
			<path fill="#040000" d="M279.949,171.657h10.829c0-3.943,0-7.564,0-10.826h-10.829V171.657z"/>
			<path fill="#040000" d="M204.144,160.831V150c-3.552,0-7.167,0-10.832,0v10.831H204.144z"/>
			<path fill="#040000" d="M182.488,160.831V150c-3.581,0-7.185,0-10.834,0v10.831H182.488z"/>
			<path fill="#040000" d="M236.632,160.831V150c-3.507,0-7.124,0-10.829,0v10.831H236.632z"/>
			<path fill="#040000" d="M225.803,160.831V150c-3.529,0-7.137,0-10.826,0v10.831H225.803z"/>
			<rect x="225.803" y="182.49" fill="#040000" width="10.829" height="10.828"/>
			<rect x="182.488" y="182.49" fill="#040000" width="10.823" height="10.828"/>
			<rect x="193.312" y="182.49" fill="#040000" width="10.832" height="10.828"/>
			<rect x="160.835" y="182.49" fill="#040000" width="10.819" height="10.828"/>
			<rect x="214.977" y="182.49" fill="#040000" width="10.826" height="10.828"/>
			<rect x="150" y="182.49" fill="#040000" width="10.835" height="10.828"/>
			<rect x="236.632" y="279.949" fill="#040000" width="10.832" height="10.83"/>
			<rect x="236.632" y="225.808" fill="#040000" width="10.832" height="10.827"/>
			<rect x="236.632" y="204.148" fill="#040000" width="10.832" height="10.827"/>
			<rect x="247.464" y="225.808" fill="#040000" width="10.826" height="10.827"/>
			<rect x="247.464" y="247.462" fill="#040000" width="10.826" height="10.829"/>
			<rect x="247.464" y="258.291" fill="#040000" width="10.826" height="10.83"/>
			<rect x="247.464" y="279.949" fill="#040000" width="10.826" height="10.83"/>
			<rect x="236.632" y="171.657" fill="#040000" width="10.832" height="10.833"/>
			<rect x="247.464" y="204.148" fill="#040000" width="10.826" height="10.827"/>
			<rect x="204.144" y="171.657" fill="#040000" width="10.833" height="10.833"/>
			<rect x="182.488" y="171.657" fill="#040000" width="10.823" height="10.833"/>
			<rect x="171.654" y="171.657" fill="#040000" width="10.834" height="10.833"/>
		</g>
	</g>
</g>
<image overflow="visible" width="100" height="100" xlink:href="../../../../../党建APP/icon001.png"  transform="matrix(0.5001 0 0 0.5001 124.9966 124.9966)">
</image>
</svg>
