<?xml version="1.0" encoding="utf-8"?>
<!-- Generator: Adobe Illustrator 16.0.0, SVG Export Plug-In . SVG Version: 6.00 Build 0)  -->
<!DOCTYPE svg PUBLIC "-//W3C//DTD SVG 1.1//EN" "http://www.w3.org/Graphics/SVG/1.1/DTD/svg11.dtd">
<svg version="1.1" id="图层_1" xmlns="http://www.w3.org/2000/svg" xmlns:xlink="http://www.w3.org/1999/xlink" x="0px" y="0px"
	 width="20px" height="20px" viewBox="0 0 20 20" enable-background="new 0 0 20 20" xml:space="preserve">
<path fill="#E6454A" d="M18.657,19.083H0.915V1.343c0-0.246-0.208-0.46-0.456-0.46C0.199,0.883,0,1.097,0,1.343v18.186
	C0,19.792,0.199,20,0.459,20h18.198c0.254,0,0.457-0.208,0.457-0.471C19.114,19.296,18.911,19.083,18.657,19.083L18.657,19.083z
	 M8.411,18.325L8.411,18.325h3.392c0.425,0,0.765-0.345,0.765-0.762V2.674c0-0.418-0.34-0.758-0.765-0.758H8.411
	c-0.419,0-0.752,0.34-0.752,0.758v14.889C7.658,17.98,7.991,18.325,8.411,18.325L8.411,18.325z M9.165,3.436L9.165,3.436h1.883
	v13.371H9.165V3.436L9.165,3.436z M2.584,18.325L2.584,18.325h3.397c0.415,0,0.759-0.345,0.759-0.762v-5.246
	c0-0.429-0.345-0.767-0.759-0.767H2.584c-0.419,0-0.751,0.338-0.751,0.767v5.246C1.833,17.98,2.165,18.325,2.584,18.325
	L2.584,18.325z M3.349,13.068L3.349,13.068h1.876v3.738H3.349V13.068L3.349,13.068z M14.237,18.325L14.237,18.325h3.396
	c0.416,0,0.755-0.345,0.755-0.762V6.726c0-0.412-0.339-0.761-0.755-0.761h-3.396c-0.42,0-0.764,0.349-0.764,0.761v10.838
	C13.474,17.98,13.817,18.325,14.237,18.325L14.237,18.325z M15.003,7.488L15.003,7.488h1.867v9.318h-1.867V7.488L15.003,7.488z"/>
</svg>
