<?xml version="1.0" encoding="utf-8"?>
<!-- Generator: Adobe Illustrator 16.0.0, SVG Export Plug-In . SVG Version: 6.00 Build 0)  -->
<!DOCTYPE svg PUBLIC "-//W3C//DTD SVG 1.1//EN" "http://www.w3.org/Graphics/SVG/1.1/DTD/svg11.dtd">
<svg version="1.1" id="图层_1" xmlns="http://www.w3.org/2000/svg" xmlns:xlink="http://www.w3.org/1999/xlink" x="0px" y="0px"
	 width="20px" height="20px" viewBox="0 0 20 20" enable-background="new 0 0 20 20" xml:space="preserve">
<path fill="#F29600" d="M9.093,7.411c0-0.416,0.337-0.756,0.751-0.756c0.417,0,0.755,0.34,0.755,0.756v8.583
	c0,0.418-0.338,0.752-0.755,0.752c-0.414,0-0.751-0.334-0.751-0.752V7.411L9.093,7.411z M15.963,13.326L15.963,13.326
	c0-0.418,0.332-0.76,0.752-0.76c0.416,0,0.76,0.342,0.76,0.76v1.736h1.736c0.418,0,0.756,0.338,0.756,0.756
	c0,0.412-0.338,0.752-0.756,0.752h-1.736v1.74c0,0.418-0.344,0.748-0.76,0.748c-0.42,0-0.752-0.33-0.752-0.748v-1.74h-1.746
	c-0.412,0-0.75-0.34-0.75-0.752c0-0.418,0.338-0.756,0.75-0.756h1.746V13.326L15.963,13.326z M5.645,10.804L5.645,10.804
	c0-0.418,0.336-0.756,0.757-0.756c0.421,0,0.751,0.338,0.751,0.756v5.19c0,0.418-0.33,0.752-0.751,0.752
	c-0.421,0-0.757-0.334-0.757-0.752V10.804L5.645,10.804z M0.789,19.059L0.789,19.059c-0.418,0-0.756-0.33-0.756-0.748
	c0-0.42,0.337-0.75,0.756-0.75h10.818c0.416,0,0.756,0.33,0.756,0.75c0,0.418-0.34,0.748-0.756,0.748H0.789L0.789,19.059z
	 M2.204,6.153L2.204,6.153c0-0.413,0.343-0.75,0.761-0.75c0.409,0,0.75,0.337,0.75,0.75v9.841c0,0.418-0.341,0.752-0.75,0.752
	c-0.417,0-0.761-0.334-0.761-0.752V6.153L2.204,6.153z M15.984,4.583L15.984,4.583c0-0.417,0.344-0.761,0.748-0.761
	c0.422,0,0.764,0.343,0.764,0.761v6.031c0,0.409-0.342,0.75-0.764,0.75c-0.404,0-0.748-0.342-0.748-0.75V4.583L15.984,4.583z
	 M12.539,2.215L12.539,2.215c0-0.418,0.338-0.751,0.75-0.751c0.424,0,0.756,0.333,0.756,0.751v9.002
	c0,0.418-0.332,0.756-0.756,0.756c-0.412,0-0.75-0.338-0.75-0.756V2.215L12.539,2.215z"/>
</svg>
