<?xml version="1.0" encoding="utf-8"?>
<!-- Generator: Adobe Illustrator 16.0.0, SVG Export Plug-In . SVG Version: 6.00 Build 0)  -->
<!DOCTYPE svg PUBLIC "-//W3C//DTD SVG 1.1//EN" "http://www.w3.org/Graphics/SVG/1.1/DTD/svg11.dtd">
<svg version="1.1" id="图层_1" xmlns="http://www.w3.org/2000/svg" xmlns:xlink="http://www.w3.org/1999/xlink" x="0px" y="0px"
	 width="29px" height="29px" viewBox="0 0 29 29" enable-background="new 0 0 29 29" xml:space="preserve">
<path fill="#8DC21F" d="M6,0h17c3.313,0,6,2.687,6,6v17c0,3.313-2.687,6-6,6H6c-3.313,0-6-2.687-6-6V6C0,2.687,2.687,0,6,0z"/>
<g transform="translate(6.000000, 6.000000)">
	<path fill="#FFFFFF" d="M16.225,12.305c-0.703-0.723-2.701-2.076-4.012-2.076c-0.303,0-0.568,0.068-0.785,0.207
		c-0.641,0.41-1.15,0.728-1.396,0.728c-0.135,0-0.279-0.12-0.598-0.396l-0.053-0.047C8.5,9.955,8.312,9.757,7.97,9.4L7.884,9.309
		c-0.063-0.063-0.116-0.12-0.169-0.173C7.417,8.828,7.2,8.606,6.434,7.739L6.4,7.701C6.034,7.287,5.793,7.017,5.779,6.819
		C5.765,6.626,5.933,6.313,6.362,5.731c0.52-0.703,0.54-1.57,0.063-2.577C6.044,2.36,5.423,1.599,4.874,0.93L4.826,0.872
		C4.354,0.294,3.805,0.005,3.193,0.005c-0.679,0-1.243,0.366-1.541,0.559C1.628,0.578,1.604,0.597,1.58,0.612
		C0.91,1.035,0.424,1.618,0.241,2.21c-0.274,0.891-0.458,2.047,0.857,4.45c1.136,2.081,2.167,3.477,3.804,5.158
		c1.542,1.58,2.225,2.09,3.757,3.197c1.704,1.232,3.342,1.941,4.488,1.941c1.063,0,1.902,0,3.097-1.44
		C17.496,14.004,16.977,13.08,16.225,12.305L16.225,12.305z"/>
</g>
</svg>
