<?xml version="1.0" encoding="utf-8"?>
<!-- Generator: Adobe Illustrator 16.0.0, SVG Export Plug-In . SVG Version: 6.00 Build 0)  -->
<!DOCTYPE svg PUBLIC "-//W3C//DTD SVG 1.1//EN" "http://www.w3.org/Graphics/SVG/1.1/DTD/svg11.dtd">
<svg version="1.1" id="图层_1" xmlns="http://www.w3.org/2000/svg" xmlns:xlink="http://www.w3.org/1999/xlink" x="0px" y="0px"
	 width="29px" height="29px" viewBox="0 0 29 29" enable-background="new 0 0 29 29" xml:space="preserve">
<path display="none" fill="#52A6EB" d="M6,0h17c3.313,0,6,2.688,6,6v17c0,3.314-2.687,6-6,6H6c-3.313,0-6-2.686-6-6V6
	C0,2.688,2.687,0,6,0z"/>
<path display="none" fill="#FFFFFF" d="M7.271,6.668h0.018h14.441c0.333,0,0.599,0.264,0.599,0.605v0.019v14.442
	c0,0.324-0.266,0.598-0.599,0.598h-0.018H7.271c-0.333,0-0.599-0.273-0.599-0.598v-0.025V7.273C6.672,6.932,6.938,6.668,7.271,6.668
	L7.271,6.668z M14.599,18.104L14.599,18.104c0.076,0.586,0.319,1.049,0.726,1.398c0.407,0.342,0.929,0.513,1.575,0.513
	c0.803,0,1.435-0.302,1.884-0.919c0.333-0.449,0.501-0.961,0.501-1.533c0-0.686-0.214-1.24-0.617-1.676
	c-0.41-0.438-0.912-0.648-1.508-0.648c-0.313,0-0.615,0.074-0.912,0.221l0.207-1.179h2.521v-1.242h-3.531l-0.684,3.616l1.082,0.162
	c0.309-0.345,0.646-0.513,1.029-0.513c0.308,0,0.557,0.112,0.753,0.326c0.188,0.208,0.291,0.53,0.291,0.952
	c0,0.458-0.103,0.801-0.291,1.025c-0.196,0.229-0.436,0.338-0.709,0.338c-0.249,0-0.466-0.084-0.651-0.26
	c-0.179-0.176-0.299-0.414-0.337-0.715L14.599,18.104L14.599,18.104z M12.589,19.896L12.589,19.896v-6.986h-1.087
	c-0.152,0.428-0.426,0.796-0.836,1.111c-0.41,0.325-0.793,0.539-1.14,0.651v1.215c0.659-0.225,1.242-0.562,1.729-1.019v5.027H12.589
	L12.589,19.896z M7.878,10.668L7.878,10.668H21.13V7.872h-1.193V8.77c0,0.334-0.268,0.604-0.601,0.604
	c-0.329,0-0.599-0.27-0.599-0.604V7.872h-2.02V8.77c0,0.334-0.273,0.604-0.605,0.604c-0.335,0-0.604-0.27-0.604-0.604V7.872h-2.022
	V8.77c0,0.334-0.266,0.604-0.599,0.604S12.29,9.104,12.29,8.77V7.872h-2.027V8.77c0,0.334-0.27,0.604-0.603,0.604
	c-0.33,0-0.603-0.27-0.603-0.604V7.872h-1.18V10.668L7.878,10.668z M21.13,11.396L21.13,11.396H7.878v9.73H21.13V11.396
	L21.13,11.396z"/>
<path fill="#8DC21F" d="M6,0h17c3.314,0,6,2.688,6,6v17c0,3.314-2.686,6-6,6H6c-3.313,0-6-2.686-6-6V6C0,2.688,2.688,0,6,0z"/>
<path fill="#FFFFFF" d="M23.627,6.051H5.361c-0.42,0-0.756,0.34-0.756,0.754v15.378c0,0.414,0.336,0.766,0.756,0.766h18.266
	c0.422,0,0.768-0.352,0.768-0.766V6.805C24.395,6.391,24.049,6.051,23.627,6.051L23.627,6.051z M22.873,21.422L22.873,21.422H6.129
	v-1.676l3.922-3.926l2.721,2.721v0.01h0.012l1.619,1.617c0.172,0.178,0.465,0.178,0.65,0c0.172-0.172,0.172-0.461,0-0.643
	l-1.309-1.303l3.693-3.687l5.436,5.433V21.422L22.873,21.422z M22.873,18.684L22.873,18.684l-5.109-5.122
	c-0.189-0.178-0.465-0.178-0.65,0l-4.018,4.018l-2.723-2.726c-0.176-0.18-0.465-0.18-0.637,0l-3.607,3.603V7.567h16.744V18.684
	L22.873,18.684z M10.342,13.691L10.342,13.691c1.459,0,2.658-1.193,2.658-2.646c0-1.458-1.199-2.658-2.658-2.658
	c-1.453,0-2.648,1.2-2.648,2.658C7.693,12.499,8.889,13.691,10.342,13.691L10.342,13.691z M10.342,9.295L10.342,9.295
	c0.963,0,1.738,0.779,1.738,1.75c0,0.957-0.775,1.733-1.738,1.733c-0.951,0-1.74-0.777-1.74-1.733
	C8.602,10.074,9.391,9.295,10.342,9.295L10.342,9.295z"/>
</svg>
