<?xml version="1.0" encoding="utf-8"?>
<!-- Generator: Adobe Illustrator 16.0.0, SVG Export Plug-In . SVG Version: 6.00 Build 0)  -->
<!DOCTYPE svg PUBLIC "-//W3C//DTD SVG 1.1//EN" "http://www.w3.org/Graphics/SVG/1.1/DTD/svg11.dtd">
<svg version="1.1" id="图层_1" xmlns="http://www.w3.org/2000/svg" xmlns:xlink="http://www.w3.org/1999/xlink" x="0px" y="0px"
	 width="29px" height="29px" viewBox="0 0 29 29" enable-background="new 0 0 29 29" xml:space="preserve">
<g>
	<path fill="#E6454A" d="M6,0h17c3.314,0,6,2.688,6,6v17c0,3.314-2.686,6-6,6H6c-3.313,0-6-2.686-6-6V6C0,2.688,2.687,0,6,0z"/>
	<path fill="#FFFFFF" d="M7.559,6.477h0.018h14.441c0.334,0,0.6,0.264,0.6,0.605v0.019v14.442c0,0.324-0.266,0.598-0.6,0.598H22
		H7.559c-0.333,0-0.599-0.273-0.599-0.598v-0.025V7.082C6.96,6.74,7.226,6.477,7.559,6.477L7.559,6.477z M14.887,17.912
		L14.887,17.912c0.076,0.586,0.32,1.049,0.727,1.398c0.406,0.342,0.928,0.513,1.574,0.513c0.804,0,1.436-0.302,1.885-0.919
		c0.332-0.449,0.5-0.961,0.5-1.533c0-0.686-0.213-1.24-0.617-1.676c-0.41-0.438-0.912-0.648-1.508-0.648
		c-0.313,0-0.615,0.074-0.911,0.221l0.206-1.179h2.522v-1.242h-3.532l-0.684,3.616l1.083,0.162c0.308-0.345,0.646-0.513,1.028-0.513
		c0.309,0,0.557,0.112,0.754,0.326c0.188,0.208,0.291,0.53,0.291,0.952c0,0.458-0.104,0.801-0.291,1.025
		c-0.197,0.229-0.436,0.338-0.709,0.338c-0.249,0-0.467-0.084-0.652-0.26c-0.178-0.176-0.298-0.414-0.336-0.715L14.887,17.912
		L14.887,17.912z M12.877,19.704L12.877,19.704v-6.986H11.79c-0.152,0.428-0.426,0.796-0.836,1.111
		c-0.41,0.325-0.793,0.539-1.14,0.651v1.215c0.659-0.225,1.242-0.562,1.729-1.019v5.027H12.877L12.877,19.704z M8.166,10.477
		L8.166,10.477h13.252V7.681h-1.192v0.897c0,0.334-0.269,0.604-0.601,0.604c-0.33,0-0.6-0.27-0.6-0.604V7.681h-2.02v0.897
		c0,0.334-0.273,0.604-0.604,0.604c-0.335,0-0.604-0.27-0.604-0.604V7.681h-2.023v0.897c0,0.334-0.266,0.604-0.599,0.604
		s-0.598-0.27-0.598-0.604V7.681h-2.027v0.897c0,0.334-0.27,0.604-0.603,0.604c-0.33,0-0.603-0.27-0.603-0.604V7.681h-1.18V10.477
		L8.166,10.477z M21.418,11.205L21.418,11.205H8.166v9.73h13.252V11.205L21.418,11.205z"/>
</g>
</svg>
