<?xml version="1.0" encoding="utf-8"?>
<!-- Generator: Adobe Illustrator 16.0.0, SVG Export Plug-In . SVG Version: 6.00 Build 0)  -->
<!DOCTYPE svg PUBLIC "-//W3C//DTD SVG 1.1//EN" "http://www.w3.org/Graphics/SVG/1.1/DTD/svg11.dtd">
<svg version="1.1" id="图层_1" xmlns="http://www.w3.org/2000/svg" xmlns:xlink="http://www.w3.org/1999/xlink" x="0px" y="0px"
	 width="29px" height="29px" viewBox="0 0 29 29" enable-background="new 0 0 29 29" xml:space="preserve">
<path display="none" fill="#52A6EB" d="M6,0h17c3.313,0,6,2.688,6,6v17c0,3.314-2.687,6-6,6H6c-3.313,0-6-2.686-6-6V6
	C0,2.688,2.687,0,6,0z"/>
<path display="none" fill="#FFFFFF" d="M7.271,6.668h0.018h14.441c0.333,0,0.599,0.264,0.599,0.605v0.019v14.442
	c0,0.324-0.266,0.598-0.599,0.598h-0.018H7.271c-0.333,0-0.599-0.273-0.599-0.598v-0.025V7.273C6.672,6.932,6.938,6.668,7.271,6.668
	L7.271,6.668z M14.599,18.104L14.599,18.104c0.076,0.586,0.319,1.049,0.726,1.398c0.407,0.342,0.929,0.513,1.575,0.513
	c0.803,0,1.435-0.302,1.884-0.919c0.333-0.449,0.501-0.961,0.501-1.533c0-0.686-0.214-1.24-0.617-1.676
	c-0.41-0.438-0.912-0.648-1.508-0.648c-0.313,0-0.615,0.074-0.912,0.221l0.207-1.179h2.521v-1.242h-3.531l-0.684,3.616l1.082,0.162
	c0.309-0.345,0.646-0.513,1.029-0.513c0.308,0,0.557,0.112,0.753,0.326c0.188,0.208,0.291,0.53,0.291,0.952
	c0,0.458-0.103,0.801-0.291,1.025c-0.196,0.229-0.436,0.338-0.709,0.338c-0.249,0-0.466-0.084-0.651-0.26
	c-0.179-0.176-0.299-0.414-0.337-0.715L14.599,18.104L14.599,18.104z M12.589,19.896L12.589,19.896v-6.986h-1.087
	c-0.152,0.428-0.426,0.796-0.836,1.111c-0.41,0.325-0.793,0.539-1.14,0.651v1.215c0.659-0.225,1.242-0.562,1.729-1.019v5.027H12.589
	L12.589,19.896z M7.878,10.668L7.878,10.668H21.13V7.872h-1.193V8.77c0,0.334-0.268,0.604-0.601,0.604
	c-0.329,0-0.599-0.27-0.599-0.604V7.872h-2.02V8.77c0,0.334-0.273,0.604-0.605,0.604c-0.335,0-0.604-0.27-0.604-0.604V7.872h-2.022
	V8.77c0,0.334-0.266,0.604-0.599,0.604S12.29,9.104,12.29,8.77V7.872h-2.027V8.77c0,0.334-0.27,0.604-0.603,0.604
	c-0.33,0-0.603-0.27-0.603-0.604V7.872h-1.18V10.668L7.878,10.668z M21.13,11.396L21.13,11.396H7.878v9.73H21.13V11.396
	L21.13,11.396z"/>
<path display="none" fill="#8DC21F" d="M6,0h17c3.314,0,6,2.688,6,6v17c0,3.314-2.686,6-6,6H6c-3.313,0-6-2.686-6-6V6
	C0,2.688,2.688,0,6,0z"/>
<path display="none" fill="#FFFFFF" d="M23.627,6.051H5.361c-0.42,0-0.756,0.34-0.756,0.754v15.378c0,0.414,0.336,0.766,0.756,0.766
	h18.266c0.422,0,0.768-0.352,0.768-0.766V6.805C24.395,6.391,24.049,6.051,23.627,6.051L23.627,6.051z M22.873,21.422L22.873,21.422
	H6.129v-1.676l3.922-3.926l2.721,2.721v0.01h0.012l1.619,1.617c0.172,0.178,0.465,0.178,0.65,0c0.172-0.172,0.172-0.461,0-0.643
	l-1.309-1.303l3.693-3.687l5.436,5.433V21.422L22.873,21.422z M22.873,18.684L22.873,18.684l-5.109-5.122
	c-0.189-0.178-0.465-0.178-0.65,0l-4.018,4.018l-2.723-2.726c-0.176-0.18-0.465-0.18-0.637,0l-3.607,3.603V7.567h16.744V18.684
	L22.873,18.684z M10.342,13.691L10.342,13.691c1.459,0,2.658-1.193,2.658-2.646c0-1.458-1.199-2.658-2.658-2.658
	c-1.453,0-2.648,1.2-2.648,2.658C7.693,12.499,8.889,13.691,10.342,13.691L10.342,13.691z M10.342,9.295L10.342,9.295
	c0.963,0,1.738,0.779,1.738,1.75c0,0.957-0.775,1.733-1.738,1.733c-0.951,0-1.74-0.777-1.74-1.733
	C8.602,10.074,9.391,9.295,10.342,9.295L10.342,9.295z"/>
<g id="图层_2" display="none">
	<path fill="#D2A2F1" d="M6,0h17c3.314,0,6,2.688,6,6v17c0,3.314-2.686,6-6,6H6c-3.313,0-6-2.686-6-6V6C0,2.688,2.688,0,6,0z"/>
	<path fill="#FFFFFF" d="M10.543,11.273v6.446l0.035,0.034l4.51,3.459v-2.953v-7.521V7.782L10.543,11.273L10.543,11.273
		L10.543,11.273z M18.709,8.675L18.709,8.675c-0.32-0.187-0.42-0.603-0.232-0.921c0.195-0.316,0.606-0.422,0.92-0.231
		c1.204,0.717,2.211,1.748,2.9,2.971c0.673,1.186,1.064,2.55,1.064,4.003c0,1.45-0.392,2.816-1.064,4
		c-0.689,1.223-1.696,2.257-2.9,2.975c-0.313,0.198-0.725,0.093-0.92-0.232c-0.188-0.316-0.088-0.736,0.232-0.916
		c1.014-0.604,1.844-1.461,2.428-2.484c0.553-0.982,0.878-2.119,0.878-3.341c0-1.214-0.325-2.359-0.878-3.338
		C20.553,10.137,19.723,9.271,18.709,8.675L18.709,8.675z M9.731,11.411L9.731,11.411H6.99v6.17h2.741V11.411L9.731,11.411z
		 M9.908,10.065L9.908,10.065l5.41-4.149c0.125-0.101,0.278-0.159,0.443-0.159c0.379,0,0.674,0.297,0.674,0.669v4.311v0.15
		c0.631,0.256,1.164,0.667,1.576,1.193c0.524,0.667,0.841,1.504,0.841,2.417c0,0.912-0.316,1.751-0.841,2.416
		c-0.4,0.525-0.945,0.935-1.576,1.193v0.152v4.309c0,0.152-0.047,0.291-0.138,0.416c-0.23,0.29-0.649,0.348-0.94,0.117l-5.449-4.172
		H6.331H6.313c-0.373,0-0.674-0.302-0.674-0.67v-7.506v-0.015c0-0.372,0.301-0.672,0.674-0.672H9.908L9.908,10.065z M16.436,11.774
		L16.436,11.774v5.445c0.373-0.203,0.689-0.479,0.945-0.803c0.418-0.525,0.664-1.195,0.664-1.919c0-0.717-0.253-1.391-0.664-1.916
		C17.125,12.252,16.809,11.979,16.436,11.774L16.436,11.774z"/>
	<g>
		<path display="inline" fill="#E6454A" d="M6,0h17c3.314,0,6,2.688,6,6v17c0,3.314-2.686,6-6,6H6c-3.313,0-6-2.686-6-6V6
			C0,2.688,2.688,0,6,0z"/>
		<path display="inline" fill="#FFFFFF" d="M11.607,14.111l-0.017,0.009l-2.907,2.919c-0.36,0.365-0.546,0.842-0.546,1.318
			s0.186,0.953,0.546,1.322l0,0L8.7,19.695c0.36,0.346,0.829,0.525,1.297,0.525c0.478,0,0.963-0.189,1.317-0.541l3.291-3.299
			l0.016-0.01l3.541-3.537c0.154-0.159,0.232-0.365,0.232-0.579c0-0.213-0.078-0.419-0.232-0.574
			c-0.166-0.165-0.381-0.248-0.585-0.248s-0.419,0.083-0.573,0.248l-5.101,5.083c-0.222,0.23-0.593,0.23-0.813,0
			c-0.221-0.221-0.221-0.592,0-0.814l5.092-5.09c0.387-0.39,0.887-0.583,1.396-0.583c0.511,0,1.015,0.193,1.397,0.583
			c0.384,0.381,0.582,0.887,0.582,1.396c0,0.51-0.198,1.011-0.582,1.397l-3.541,3.547h-0.008l-0.009,0.018l-3.284,3.273
			c-0.583,0.59-1.362,0.887-2.136,0.887c-0.759,0-1.519-0.283-2.101-0.852L7.863,20.49c-0.592-0.582-0.883-1.357-0.883-2.133
			c0-0.771,0.291-1.545,0.883-2.135l3.293-3.298l0.016-0.007l4.14-4.142c0.763-0.765,1.772-1.15,2.779-1.15
			c1.011,0,2.015,0.385,2.78,1.15c0.768,0.764,1.148,1.768,1.148,2.778c0,1.015-0.381,2.016-1.148,2.78l-5.699,5.698
			c-0.223,0.23-0.591,0.23-0.816,0c-0.227-0.225-0.227-0.59,0-0.814l5.702-5.7c0.537-0.539,0.806-1.253,0.806-1.964
			c0-0.709-0.269-1.424-0.806-1.966c-0.542-0.534-1.253-0.805-1.967-0.805c-0.71,0-1.425,0.271-1.963,0.805L11.607,14.111
			L11.607,14.111z"/>
	</g>
</g>
<path fill="#8DC21F" d="M6,0h17c3.313,0,6,2.688,6,6v17c0,3.314-2.687,6-6,6H6c-3.313,0-6-2.686-6-6V6C0,2.688,2.687,0,6,0z"/>
<path fill="#FFFFFF" d="M22.484,12.12h-5.789v10.142h5.789V12.12L22.484,12.12z M15.818,6.734L15.818,6.734H6.516v15.528h1.313
	v-2.189c0-0.395,0.324-0.719,0.719-0.719h0.023h5.215c0.398,0,0.724,0.324,0.724,0.719v0.031v2.158h1.309
	C15.818,17.084,15.818,11.907,15.818,6.734L15.818,6.734z M18.574,14.138L18.574,14.138c-0.246,0-0.437-0.19-0.437-0.428
	c0-0.24,0.19-0.436,0.437-0.436h2.027c0.245,0,0.437,0.195,0.437,0.436c0,0.237-0.191,0.428-0.437,0.428H18.574L18.574,14.138z
	 M18.574,16.467L18.574,16.467c-0.246,0-0.437-0.195-0.437-0.432c0-0.246,0.19-0.445,0.437-0.445h2.027
	c0.245,0,0.437,0.199,0.437,0.445c0,0.236-0.191,0.432-0.437,0.432H18.574L18.574,16.467z M18.574,18.787L18.574,18.787
	c-0.246,0-0.437-0.195-0.437-0.445c0-0.236,0.19-0.426,0.437-0.426h2.027c0.245,0,0.437,0.189,0.437,0.426
	c0,0.25-0.191,0.445-0.437,0.445H18.574L18.574,18.787z M18.574,21.111L18.574,21.111c-0.246,0-0.437-0.199-0.437-0.436
	s0.19-0.438,0.437-0.438h2.027c0.245,0,0.437,0.201,0.437,0.438s-0.191,0.436-0.437,0.436H18.574L18.574,21.111z M7.838,8.863
	L7.838,8.863c-0.232,0-0.437-0.199-0.437-0.437c0-0.25,0.204-0.45,0.437-0.45h2.037c0.236,0,0.426,0.2,0.426,0.45
	c0,0.237-0.189,0.437-0.426,0.437H7.838L7.838,8.863z M12.478,8.863L12.478,8.863c-0.246,0-0.441-0.199-0.441-0.437
	c0-0.25,0.195-0.45,0.441-0.45h2.019c0.24,0,0.44,0.2,0.44,0.45c0,0.237-0.2,0.437-0.44,0.437H12.478L12.478,8.863z M7.838,11.178
	L7.838,11.178c-0.232,0-0.437-0.186-0.437-0.432c0-0.241,0.204-0.437,0.437-0.437h2.037c0.236,0,0.426,0.195,0.426,0.437
	c0,0.246-0.189,0.432-0.426,0.432H7.838L7.838,11.178z M12.478,11.178L12.478,11.178c-0.246,0-0.441-0.186-0.441-0.432
	c0-0.241,0.195-0.437,0.441-0.437h2.019c0.24,0,0.44,0.195,0.44,0.437c0,0.246-0.2,0.432-0.44,0.432H12.478L12.478,11.178z
	 M7.838,13.498L7.838,13.498c-0.232,0-0.437-0.189-0.437-0.427c0-0.246,0.204-0.44,0.437-0.44h2.037c0.236,0,0.426,0.194,0.426,0.44
	c0,0.237-0.189,0.427-0.426,0.427H7.838L7.838,13.498z M12.478,13.498L12.478,13.498c-0.246,0-0.441-0.189-0.441-0.427
	c0-0.246,0.195-0.44,0.441-0.44h2.019c0.24,0,0.44,0.194,0.44,0.44c0,0.237-0.2,0.427-0.44,0.427H12.478L12.478,13.498z
	 M7.838,15.828L7.838,15.828c-0.232,0-0.437-0.201-0.437-0.438c0-0.25,0.204-0.441,0.437-0.441h2.037
	c0.236,0,0.426,0.191,0.426,0.441c0,0.236-0.189,0.438-0.426,0.438H7.838L7.838,15.828z M12.478,15.828L12.478,15.828
	c-0.246,0-0.441-0.201-0.441-0.438c0-0.25,0.195-0.441,0.441-0.441h2.019c0.24,0,0.44,0.191,0.44,0.441
	c0,0.236-0.2,0.438-0.44,0.438H12.478L12.478,15.828z M7.838,18.146L7.838,18.146c-0.232,0-0.437-0.195-0.437-0.436
	c0-0.236,0.204-0.428,0.437-0.428h2.037c0.236,0,0.426,0.191,0.426,0.428c0,0.24-0.189,0.436-0.426,0.436H7.838L7.838,18.146z
	 M12.478,18.146L12.478,18.146c-0.246,0-0.441-0.195-0.441-0.436c0-0.236,0.195-0.428,0.441-0.428h2.019
	c0.24,0,0.44,0.191,0.44,0.428c0,0.24-0.2,0.436-0.44,0.436H12.478L12.478,18.146z M17.274,10.667L17.274,10.667h5.92h0.019
	c0.399,0,0.724,0.329,0.724,0.733v11.566v0.014c0,0.404-0.324,0.738-0.724,0.738h-6.657h-2.751h-0.019
	c-0.404,0-0.724-0.334-0.724-0.738v-2.172H9.281v2.158v0.014c0,0.404-0.33,0.738-0.733,0.738H5.811H5.797
	c-0.404,0-0.733-0.334-0.733-0.738V6.033V6c0-0.395,0.329-0.719,0.733-0.719h10.735h0.023c0.395,0,0.719,0.324,0.719,0.719V10.667
	L17.274,10.667z"/>
</svg>
