<?xml version="1.0" encoding="utf-8"?>
<!-- Generator: Adobe Illustrator 16.0.0, SVG Export Plug-In . SVG Version: 6.00 Build 0)  -->
<!DOCTYPE svg PUBLIC "-//W3C//DTD SVG 1.1//EN" "http://www.w3.org/Graphics/SVG/1.1/DTD/svg11.dtd">
<svg version="1.1" id="图层_1" xmlns="http://www.w3.org/2000/svg" xmlns:xlink="http://www.w3.org/1999/xlink" x="0px" y="0px"
	 width="29px" height="29px" viewBox="0 0 29 29" enable-background="new 0 0 29 29" xml:space="preserve">
<path fill="#E6454A" d="M6,0h17c3.313,0,6,2.688,6,6v17c0,3.314-2.688,6-6,6H6c-3.313,0-6-2.686-6-6V6C0,2.688,2.687,0,6,0z"/>
<path fill="#FFFFFF" d="M6.545,5.89h0.019h6.869c0.366,0,0.663,0.297,0.663,0.659v0.019v6.869c0,0.367-0.297,0.661-0.663,0.661
	h-0.016H6.545c-0.356,0-0.657-0.294-0.657-0.661v-0.015V6.549C5.888,6.187,6.188,5.89,6.545,5.89L6.545,5.89z M12.769,7.216
	L12.769,7.216H7.212v5.562h5.557V7.216L12.769,7.216z M21.777,7.216L21.777,7.216h-5.557v5.562h5.557V7.216L21.777,7.216z
	 M15.562,5.89L15.562,5.89h6.864h0.019c0.366,0,0.667,0.297,0.667,0.659v6.873v0.015c0,0.367-0.301,0.661-0.667,0.661h-6.868h-0.015
	c-0.366,0-0.668-0.294-0.668-0.661V6.568V6.549C14.894,6.187,15.195,5.89,15.562,5.89L15.562,5.89z M7.212,21.783L7.212,21.783
	h5.557v-5.555H7.212V21.783L7.212,21.783z M13.433,23.109L13.433,23.109H6.563H6.545c-0.356,0-0.657-0.296-0.657-0.66V15.58v-0.019
	c0-0.358,0.301-0.663,0.657-0.663h6.872h0.016c0.366,0,0.663,0.305,0.663,0.663v6.87v0.018
	C14.096,22.813,13.799,23.109,13.433,23.109L13.433,23.109z M22.444,23.109L22.444,23.109h-0.019h-6.864
	c-0.366,0-0.668-0.296-0.668-0.66v-0.018v-6.87c0-0.358,0.302-0.663,0.668-0.663h0.015h6.868c0.366,0,0.667,0.305,0.667,0.663v0.019
	v6.869C23.111,22.813,22.811,23.109,22.444,23.109L22.444,23.109z M16.221,21.783L16.221,21.783h5.557v-5.555h-5.557V21.783
	L16.221,21.783z"/>
</svg>
