<?xml version="1.0" encoding="utf-8"?>
<!-- Generator: Adobe Illustrator 16.0.0, SVG Export Plug-In . SVG Version: 6.00 Build 0)  -->
<!DOCTYPE svg PUBLIC "-//W3C//DTD SVG 1.1//EN" "http://www.w3.org/Graphics/SVG/1.1/DTD/svg11.dtd">
<svg version="1.1" id="图层_1" xmlns="http://www.w3.org/2000/svg" xmlns:xlink="http://www.w3.org/1999/xlink" x="0px" y="0px"
	 width="29px" height="29px" viewBox="0 0 29 29" enable-background="new 0 0 29 29" xml:space="preserve">
<path fill="#D2A2F1" d="M6,0h17c3.313,0,6,2.687,6,6v17c0,3.313-2.687,6-6,6H6c-3.313,0-6-2.687-6-6V6C0,2.687,2.687,0,6,0z"/>
<g transform="translate(5.000000, 7.000000)">
	<path fill="#FFFFFF" d="M9.505,0C4.252,0,0,3.455,0,7.715C0,9.25,0.555,10.68,1.505,11.88c0.044,0.045,0.144,0.19,0.178,0.245
		c0,0-0.049-0.08-0.054-0.096l0,0l0,0l0,0c0.114,0.166,0.178,0.355,0.178,0.561c0,0.07-0.886,2.9-0.886,2.9l0,0
		c-0.064,0.22,0.104,0.445,0.376,0.5C1.336,16,1.376,16,1.416,16c0.064,0,0.124-0.01,0.183-0.025l0.079-0.029l2.505-1.1
		c0.044-0.021,0.446-0.176,0.495-0.195l0.03-0.01c0,0-0.005,0-0.03,0.01c0.168-0.061,0.356-0.09,0.554-0.09
		c0.179,0,0.352,0.024,0.51,0.074c0.005,0,0.01,0,0.01,0.006c0.025,0.01,0.049,0.014,0.074,0.024
		c1.144,0.396,2.396,0.515,3.718,0.515c5.248,0,9.456-3.205,9.456-7.465C19.01,3.455,14.752,0,9.505,0L9.505,0L9.505,0z"/>
</g>
</svg>
