<?xml version="1.0" encoding="utf-8"?>
<!-- Generator: Adobe Illustrator 16.0.0, SVG Export Plug-In . SVG Version: 6.00 Build 0)  -->
<!DOCTYPE svg PUBLIC "-//W3C//DTD SVG 1.1//EN" "http://www.w3.org/Graphics/SVG/1.1/DTD/svg11.dtd">
<svg version="1.1" xmlns="http://www.w3.org/2000/svg" xmlns:xlink="http://www.w3.org/1999/xlink" x="0px" y="0px" width="29px"
	 height="29px" viewBox="0 0 29 29" enable-background="new 0 0 29 29" xml:space="preserve">
<g id="图层_1">
	<g display="none">
		<path display="inline" fill="#F29600" d="M6,0h17c3.313,0,6,2.688,6,6v17c0,3.314-2.688,6-6,6H6c-3.314,0-6-2.686-6-6V6
			C0,2.688,2.686,0,6,0z"/>
		<path display="inline" fill="#FFFFFF" d="M17.748,14.289c0.178,0.182,0.416,0.287,0.682,0.287c0.268,0,0.51-0.105,0.686-0.287
			c0.174-0.174,0.283-0.414,0.283-0.681c0-0.266-0.109-0.508-0.283-0.686h-0.004c-0.172-0.173-0.414-0.282-0.682-0.282
			c-0.258,0-0.504,0.109-0.682,0.282l0,0c-0.176,0.178-0.285,0.42-0.285,0.686C17.463,13.875,17.572,14.113,17.748,14.289
			L17.748,14.289z M18.229,13.406L18.229,13.406L18.229,13.406c0.049-0.052,0.121-0.084,0.201-0.084s0.152,0.032,0.201,0.084l0,0
			c0.057,0.049,0.086,0.122,0.086,0.202c0,0.081-0.029,0.145-0.086,0.201c-0.049,0.049-0.121,0.09-0.201,0.09
			s-0.152-0.041-0.201-0.09c-0.048-0.046-0.08-0.12-0.08-0.201C18.148,13.528,18.181,13.455,18.229,13.406L18.229,13.406z
			 M15.123,14.289L15.123,14.289c0.177,0.182,0.418,0.287,0.686,0.287c0.266,0,0.509-0.105,0.686-0.287
			c0.172-0.174,0.277-0.414,0.277-0.681c0-0.266-0.105-0.508-0.277-0.686H16.49c-0.173-0.173-0.416-0.282-0.682-0.282
			c-0.268,0-0.5,0.109-0.686,0.282c-0.174,0.178-0.283,0.42-0.283,0.686C14.84,13.875,14.949,14.113,15.123,14.289L15.123,14.289z
			 M15.604,13.406L15.604,13.406h0.004c0.056-0.052,0.125-0.084,0.201-0.084c0.08,0,0.152,0.032,0.201,0.084h0.004
			c0.053,0.049,0.08,0.122,0.08,0.202c0,0.081-0.027,0.145-0.084,0.201c-0.049,0.049-0.121,0.09-0.201,0.09
			c-0.076,0-0.146-0.041-0.205-0.09c-0.053-0.046-0.082-0.12-0.082-0.201C15.521,13.528,15.551,13.455,15.604,13.406L15.604,13.406z
			 M15.123,16.867L15.123,16.867c0.186,0.174,0.418,0.283,0.686,0.283c0.266,0,0.509-0.109,0.682-0.283l0.004-0.008
			c0.172-0.17,0.277-0.412,0.277-0.678s-0.105-0.51-0.277-0.686H16.49c-0.173-0.17-0.416-0.283-0.682-0.283
			c-0.268,0-0.5,0.113-0.686,0.283l0,0c-0.174,0.176-0.283,0.42-0.283,0.686s0.109,0.508,0.283,0.678V16.867L15.123,16.867z
			 M15.604,15.979L15.604,15.979l0.004-0.002c0.056-0.047,0.125-0.086,0.201-0.086c0.08,0,0.152,0.039,0.201,0.086l0.004,0.002
			c0.053,0.051,0.08,0.123,0.08,0.203s-0.027,0.148-0.08,0.201l-0.004,0.008c-0.049,0.045-0.121,0.072-0.201,0.072
			c-0.076,0-0.146-0.027-0.201-0.072l-0.004-0.008c-0.053-0.053-0.082-0.121-0.082-0.201S15.551,16.029,15.604,15.979L15.604,15.979
			z M15.123,19.436L15.123,19.436c0.186,0.178,0.418,0.287,0.686,0.287c0.266,0,0.509-0.109,0.682-0.287h0.004
			c0.172-0.174,0.277-0.416,0.277-0.682c0-0.262-0.105-0.508-0.277-0.682H16.49c-0.173-0.178-0.416-0.287-0.682-0.287
			c-0.268,0-0.5,0.109-0.686,0.287c-0.174,0.174-0.283,0.42-0.283,0.682C14.84,19.02,14.949,19.262,15.123,19.436L15.123,19.436z
			 M15.604,18.553L15.604,18.553h0.004c0.056-0.057,0.125-0.086,0.201-0.086c0.08,0,0.152,0.029,0.201,0.086h0.004
			c0.053,0.049,0.08,0.121,0.08,0.201s-0.027,0.154-0.08,0.203l-0.004,0.004c-0.049,0.053-0.121,0.08-0.201,0.08
			c-0.076,0-0.146-0.027-0.201-0.08l-0.004-0.004c-0.053-0.049-0.082-0.123-0.082-0.203S15.551,18.602,15.604,18.553L15.604,18.553z
			 M9.879,16.867L9.879,16.867c0.178,0.174,0.42,0.283,0.686,0.283c0.268,0,0.506-0.109,0.682-0.283v-0.008
			c0.182-0.17,0.287-0.412,0.287-0.678s-0.105-0.51-0.287-0.686l0,0c-0.176-0.17-0.414-0.283-0.682-0.283
			c-0.266,0-0.508,0.113-0.686,0.283l0,0c-0.172,0.176-0.281,0.42-0.281,0.686s0.109,0.508,0.281,0.678V16.867L9.879,16.867z
			 M10.362,15.979L10.362,15.979v-0.002c0.05-0.047,0.122-0.086,0.202-0.086c0.082,0,0.154,0.039,0.201,0.086v0.002
			c0.057,0.051,0.082,0.123,0.082,0.203s-0.025,0.148-0.082,0.201v0.008c-0.047,0.045-0.119,0.072-0.201,0.072
			c-0.08,0-0.152-0.027-0.202-0.072v-0.008c-0.05-0.053-0.089-0.121-0.089-0.201S10.313,16.029,10.362,15.979L10.362,15.979z
			 M9.879,19.436L9.879,19.436c0.178,0.178,0.42,0.287,0.686,0.287c0.268,0,0.506-0.109,0.682-0.287l0,0
			c0.182-0.174,0.287-0.416,0.287-0.682c0-0.262-0.105-0.508-0.287-0.682l0,0c-0.176-0.178-0.414-0.287-0.682-0.287
			c-0.266,0-0.508,0.109-0.686,0.287l0,0c-0.172,0.174-0.281,0.42-0.281,0.682C9.598,19.02,9.707,19.262,9.879,19.436L9.879,19.436
			L9.879,19.436z M10.362,18.553L10.362,18.553L10.362,18.553c0.05-0.057,0.122-0.086,0.202-0.086c0.082,0,0.154,0.029,0.201,0.086
			l0,0c0.057,0.049,0.082,0.121,0.082,0.201s-0.025,0.154-0.082,0.203v0.004c-0.047,0.053-0.119,0.08-0.201,0.08
			c-0.08,0-0.152-0.027-0.202-0.08v-0.004c-0.05-0.049-0.089-0.123-0.089-0.203S10.313,18.602,10.362,18.553L10.362,18.553z
			 M12.506,14.289L12.506,14.289c0.172,0.182,0.414,0.287,0.682,0.287c0.266,0,0.507-0.105,0.682-0.287
			c0.182-0.174,0.285-0.414,0.285-0.681c0-0.266-0.104-0.508-0.285-0.686c-0.178-0.173-0.416-0.282-0.682-0.282
			c-0.268,0-0.51,0.109-0.682,0.282h-0.004c-0.178,0.178-0.287,0.42-0.287,0.686c0,0.267,0.109,0.505,0.287,0.681H12.506
			L12.506,14.289z M12.985,13.406L12.985,13.406L12.985,13.406c0.048-0.052,0.116-0.084,0.202-0.084c0.08,0,0.152,0.032,0.196,0.084
			h0.005c0.057,0.049,0.084,0.122,0.084,0.202c0,0.081-0.027,0.145-0.089,0.201c-0.044,0.049-0.116,0.09-0.196,0.09
			c-0.086,0-0.154-0.041-0.202-0.09c-0.049-0.046-0.089-0.12-0.089-0.201C12.896,13.528,12.937,13.455,12.985,13.406L12.985,13.406z
			 M21.314,7.114L21.314,7.114H7.678c-0.307,0-0.568,0.252-0.568,0.564v13.632c0,0.324,0.262,0.574,0.568,0.574h13.637
			c0.318,0,0.576-0.25,0.576-0.574V7.678C21.891,7.366,21.633,7.114,21.314,7.114L21.314,7.114z M20.749,20.754L20.749,20.754H8.245
			v-9.188h12.504V20.754L20.749,20.754z M20.749,10.881L20.749,10.881H8.245V8.243h1.118v0.852c0,0.311,0.258,0.568,0.572,0.568
			s0.565-0.258,0.565-0.568V8.243h1.903v0.852c0,0.311,0.258,0.568,0.572,0.568s0.572-0.258,0.572-0.568V8.243h1.905v0.852
			c0,0.311,0.249,0.568,0.563,0.568s0.568-0.258,0.568-0.568V8.243h1.909v0.852c0,0.311,0.259,0.568,0.573,0.568
			c0.305,0,0.563-0.258,0.563-0.568V8.243h1.118V10.881L20.749,10.881z M12.506,19.436L12.506,19.436
			c0.172,0.178,0.414,0.287,0.682,0.287c0.266,0,0.504-0.109,0.682-0.287c0.182-0.174,0.285-0.416,0.285-0.682
			c0-0.262-0.104-0.508-0.285-0.682c-0.178-0.178-0.416-0.287-0.682-0.287c-0.268,0-0.51,0.109-0.682,0.287h-0.004
			c-0.178,0.174-0.287,0.42-0.287,0.682c0,0.266,0.109,0.508,0.287,0.682H12.506L12.506,19.436z M12.985,18.553L12.985,18.553
			L12.985,18.553c0.048-0.057,0.116-0.086,0.202-0.086c0.08,0,0.152,0.029,0.196,0.086h0.005c0.057,0.049,0.084,0.121,0.084,0.201
			s-0.027,0.154-0.084,0.203l-0.005,0.004c-0.044,0.053-0.116,0.08-0.196,0.08c-0.086,0-0.154-0.027-0.202-0.08v-0.004
			c-0.049-0.049-0.089-0.123-0.089-0.203S12.937,18.602,12.985,18.553L12.985,18.553z M12.506,16.867L12.506,16.867
			c0.172,0.174,0.414,0.283,0.682,0.283c0.266,0,0.504-0.109,0.682-0.283v-0.008c0.182-0.17,0.285-0.412,0.285-0.678
			s-0.104-0.51-0.285-0.686l0,0c-0.178-0.17-0.416-0.283-0.682-0.283c-0.268,0-0.51,0.113-0.682,0.283h-0.004
			c-0.178,0.176-0.287,0.42-0.287,0.686s0.109,0.508,0.287,0.678L12.506,16.867L12.506,16.867z M12.985,15.979L12.985,15.979v-0.002
			c0.048-0.047,0.116-0.086,0.202-0.086c0.08,0,0.152,0.039,0.196,0.086l0.005,0.002c0.057,0.051,0.084,0.123,0.084,0.203
			s-0.027,0.148-0.084,0.201l-0.005,0.008c-0.044,0.045-0.116,0.072-0.196,0.072c-0.086,0-0.154-0.027-0.202-0.072v-0.008
			c-0.049-0.053-0.089-0.121-0.089-0.201S12.937,16.029,12.985,15.979L12.985,15.979z M17.748,16.867L17.748,16.867
			c0.178,0.174,0.424,0.283,0.682,0.283c0.268,0,0.51-0.109,0.682-0.283l0.004-0.008c0.174-0.17,0.283-0.412,0.283-0.678
			s-0.109-0.51-0.283-0.686h-0.004c-0.172-0.17-0.414-0.283-0.682-0.283c-0.258,0-0.504,0.113-0.682,0.283l0,0
			c-0.176,0.176-0.285,0.42-0.285,0.686s0.109,0.508,0.285,0.678V16.867L17.748,16.867z M18.229,15.979L18.229,15.979v-0.002
			c0.049-0.047,0.121-0.086,0.201-0.086s0.152,0.039,0.201,0.086v0.002c0.057,0.051,0.086,0.123,0.086,0.203
			s-0.029,0.148-0.086,0.201v0.008c-0.049,0.045-0.121,0.072-0.201,0.072s-0.152-0.027-0.201-0.072v-0.008
			c-0.048-0.053-0.08-0.121-0.08-0.201S18.181,16.029,18.229,15.979L18.229,15.979z"/>
	</g>
	<g display="none">
		<path display="inline" fill="#E6454A" d="M6,0h17c3.313,0,6,2.688,6,6v17c0,3.314-2.688,6-6,6H6c-3.313,0-6-2.686-6-6V6
			C0,2.688,2.687,0,6,0z"/>
		<path display="inline" fill="#FFFFFF" d="M10.54,14.05l-0.019,0.011l-3.36,3.371c-0.417,0.424-0.631,0.975-0.631,1.525
			s0.214,1.102,0.631,1.527l0,0l0.019,0.02c0.417,0.4,0.958,0.607,1.5,0.607c0.552,0,1.112-0.219,1.523-0.627l3.803-3.811
			l0.019-0.014l4.091-4.086c0.18-0.185,0.27-0.421,0.27-0.669c0-0.246-0.09-0.484-0.27-0.664c-0.191-0.189-0.439-0.286-0.676-0.286
			s-0.484,0.097-0.664,0.286l-5.893,5.874c-0.257,0.266-0.685,0.266-0.941,0c-0.254-0.256-0.254-0.684,0-0.939l5.885-5.884
			c0.447-0.451,1.025-0.674,1.613-0.674c0.59,0,1.172,0.223,1.615,0.674c0.443,0.441,0.672,1.024,0.672,1.613
			c0,0.59-0.229,1.168-0.672,1.614l-4.092,4.1h-0.009l-0.01,0.02l-3.796,3.785c-0.674,0.68-1.574,1.021-2.468,1.021
			c-0.877,0-1.756-0.326-2.43-0.984l-0.036-0.037c-0.685-0.674-1.021-1.57-1.021-2.467c0-0.891,0.336-1.785,1.021-2.469l3.805-3.81
			l0.019-0.008l4.784-4.789c0.882-0.883,2.048-1.329,3.212-1.329c1.168,0,2.33,0.446,3.213,1.329
			c0.887,0.883,1.328,2.044,1.328,3.212c0,1.172-0.441,2.329-1.328,3.213l-6.587,6.586c-0.257,0.266-0.683,0.266-0.943,0
			c-0.261-0.262-0.261-0.682,0-0.943l6.59-6.586c0.621-0.622,0.932-1.448,0.932-2.27s-0.311-1.646-0.932-2.272
			c-0.625-0.617-1.447-0.932-2.273-0.932c-0.82,0-1.646,0.314-2.27,0.932L10.54,14.05L10.54,14.05z"/>
	</g>
	<g display="none">
		<path display="inline" fill="#8DC21F" d="M6,0h17c3.313,0,6,2.688,6,6v17c0,3.314-2.688,6-6,6H6c-3.314,0-6-2.686-6-6V6
			C0,2.688,2.686,0,6,0z"/>
		<path display="inline" fill="#FFFFFF" d="M22.5,13.695h-1.676c-0.051-0.149-0.107-0.301-0.162-0.45l-0.02-0.041
			c-0.07-0.165-0.141-0.321-0.219-0.481l1.174-1.175l0.008-0.011c0.271-0.276,0.271-0.722,0-0.998l-1.896-1.903v0.009
			c-0.271-0.276-0.723-0.276-0.994-0.009l-1.184,1.195c-0.164-0.082-0.328-0.156-0.494-0.231c-0.148-0.061-0.32-0.122-0.49-0.176
			V7.747c0-0.387-0.316-0.708-0.703-0.708h-2.682c-0.392,0-0.703,0.321-0.703,0.708v1.677c-0.175,0.054-0.34,0.115-0.503,0.176
			c-0.165,0.075-0.318,0.149-0.482,0.231l-1.146-1.156l-0.036-0.039c-0.272-0.271-0.724-0.271-0.993,0l-1.898,1.903
			c-0.281,0.276-0.281,0.722,0,0.998l1.186,1.19c-0.077,0.137-0.143,0.297-0.201,0.441l-0.021,0.036
			c-0.069,0.161-0.131,0.325-0.186,0.491H6.494c-0.388,0-0.702,0.321-0.702,0.713v2.682c0,0.391,0.314,0.703,0.702,0.703h1.688
			c0.049,0.16,0.105,0.309,0.172,0.462l0.008,0.029c0.07,0.172,0.146,0.333,0.231,0.481l-1.165,1.156l-0.029,0.034
			c-0.271,0.276-0.271,0.724,0,1.001l1.898,1.891c0.27,0.276,0.721,0.276,0.993,0l1.194-1.189c0.141,0.076,0.285,0.151,0.433,0.208
			l0.038,0.019c0.163,0.064,0.328,0.126,0.494,0.186v1.678c0,0.386,0.32,0.713,0.712,0.713h2.682c0.387,0,0.703-0.327,0.703-0.713
			V22.07c0.17-0.06,0.342-0.121,0.502-0.186c0.154-0.064,0.318-0.141,0.471-0.227l1.174,1.181l0.021,0.009
			c0.271,0.276,0.723,0.276,0.994,0l1.889-1.871l0.008-0.02c0.271-0.277,0.271-0.725,0-1.001l-1.182-1.19
			c0.078-0.153,0.148-0.31,0.219-0.481c0.064-0.153,0.119-0.319,0.182-0.491H22.5l0,0c0.387,0,0.703-0.32,0.703-0.713v-2.611
			l0.006-0.064C23.209,14.017,22.891,13.695,22.5,13.695L22.5,13.695z M21.799,16.377L21.799,16.377h-1.508
			c-0.35,0-0.643,0.262-0.703,0.592c-0.059,0.272-0.15,0.527-0.252,0.779c-0.107,0.267-0.24,0.522-0.391,0.762
			c-0.186,0.288-0.131,0.648,0.09,0.879l0,0l1.07,1.065l-0.889,0.894l-1.074-1.063c-0.252-0.251-0.633-0.271-0.914-0.081
			c-0.232,0.149-0.471,0.271-0.729,0.371c-0.262,0.111-0.537,0.201-0.818,0.271c-0.32,0.07-0.547,0.361-0.547,0.684l0,0v1.512h-1.26
			v-1.512c0-0.352-0.265-0.643-0.602-0.693c-0.267-0.069-0.522-0.156-0.778-0.262l-0.036-0.01c-0.249-0.11-0.491-0.23-0.722-0.382
			c-0.293-0.17-0.654-0.126-0.874,0.102l-1.065,1.063l-0.903-0.894l1.071-1.065c0.234-0.24,0.269-0.602,0.104-0.873
			c-0.149-0.245-0.292-0.501-0.4-0.768l-0.012-0.036c-0.1-0.249-0.186-0.512-0.252-0.783c-0.069-0.33-0.361-0.54-0.691-0.54l0,0
			H7.202v-1.271h1.512c0.351,0,0.643-0.261,0.703-0.598c0.055-0.266,0.15-0.523,0.252-0.771l0.009-0.041
			c0.11-0.252,0.242-0.498,0.382-0.733c0.175-0.28,0.132-0.638-0.1-0.869h0.006l-1.071-1.07l0.903-0.894l1.065,1.065
			c0.231,0.24,0.603,0.272,0.874,0.091c0.239-0.143,0.49-0.278,0.762-0.387c0.268-0.11,0.543-0.197,0.824-0.262
			c0.321-0.075,0.552-0.367,0.543-0.686h0.009V8.455h1.26v1.507c0,0.351,0.256,0.643,0.598,0.697
			c0.26,0.065,0.518,0.145,0.768,0.251c0.266,0.109,0.529,0.245,0.768,0.396c0.297,0.181,0.674,0.12,0.898-0.131l1.041-1.034
			l0.895,0.894L19.035,12.1c-0.246,0.244-0.27,0.632-0.078,0.914c0.148,0.231,0.271,0.482,0.379,0.734l0.016,0.033
			c0.107,0.252,0.188,0.512,0.248,0.787c0.07,0.322,0.361,0.543,0.691,0.543h1.508V16.377L21.799,16.377z M14.508,12.761
			L14.508,12.761c-0.824,0-1.577,0.333-2.113,0.876c-0.539,0.536-0.873,1.285-0.873,2.109c0,0.822,0.334,1.564,0.873,2.105
			c0.536,0.539,1.289,0.873,2.113,0.873c0.824,0,1.566-0.334,2.101-0.873c0.539-0.541,0.881-1.283,0.881-2.105
			c0-0.824-0.342-1.573-0.881-2.109C16.074,13.094,15.332,12.761,14.508,12.761L14.508,12.761z M16.008,17.25L16.008,17.25
			c-0.387,0.387-0.918,0.629-1.5,0.629c-0.593,0-1.125-0.242-1.516-0.629c-0.387-0.38-0.623-0.918-0.623-1.504
			c0-0.594,0.236-1.125,0.623-1.508c0.391-0.383,0.923-0.622,1.516-0.622c0.582,0,1.113,0.239,1.5,0.622s0.629,0.914,0.629,1.508
			C16.637,16.332,16.395,16.87,16.008,17.25L16.008,17.25z"/>
	</g>
	<g display="none">
		<path display="inline" fill="#52A6EB" d="M6,0h17c3.313,0,6,2.688,6,6v17c0,3.314-2.688,6-6,6H6c-3.314,0-6-2.686-6-6V6
			C0,2.688,2.686,0,6,0z"/>
		<path display="inline" fill="#FFFFFF" d="M6.545,5.89h0.019h6.868c0.367,0,0.664,0.297,0.664,0.659v0.019v6.868
			c0,0.367-0.297,0.662-0.664,0.662h-0.015H6.545c-0.356,0-0.657-0.295-0.657-0.662v-0.014V6.549C5.888,6.187,6.188,5.89,6.545,5.89
			L6.545,5.89z M12.769,7.216L12.769,7.216H7.212v5.562h5.557V7.216L12.769,7.216z M21.777,7.216L21.777,7.216h-5.557v5.562h5.557
			V7.216L21.777,7.216z M15.563,5.89L15.563,5.89h6.863h0.02c0.365,0,0.666,0.297,0.666,0.659v6.873v0.014
			c0,0.367-0.301,0.662-0.666,0.662h-6.869h-0.014c-0.367,0-0.669-0.295-0.669-0.662V6.567V6.549
			C14.894,6.187,15.195,5.89,15.563,5.89L15.563,5.89z M7.212,21.783L7.212,21.783h5.557v-5.555H7.212V21.783L7.212,21.783z
			 M13.432,23.109L13.432,23.109H6.563H6.545c-0.356,0-0.657-0.297-0.657-0.66V15.58v-0.02c0-0.357,0.301-0.662,0.657-0.662h6.872
			h0.015c0.367,0,0.664,0.305,0.664,0.662v6.871v0.018C14.096,22.813,13.799,23.109,13.432,23.109L13.432,23.109z M22.445,23.109
			L22.445,23.109h-0.02h-6.863c-0.367,0-0.669-0.297-0.669-0.66v-0.018v-6.871c0-0.357,0.302-0.662,0.669-0.662h0.014h6.869
			c0.365,0,0.666,0.305,0.666,0.662v0.02v6.869C23.111,22.813,22.811,23.109,22.445,23.109L22.445,23.109z M16.221,21.783
			L16.221,21.783h5.557v-5.555h-5.557V21.783L16.221,21.783z"/>
	</g>
	<g display="none">
		<path display="inline" fill="#E6454A" d="M6,0h17c3.313,0,6,2.688,6,6v17c0,3.314-2.688,6-6,6H6c-3.314,0-6-2.686-6-6V6
			C0,2.687,2.686,0,6,0z"/>
		<path display="inline" fill="#FFFFFF" d="M6.17,6.529h0.02h16.634c0.38,0,0.694,0.306,0.694,0.692v0.017v14.545
			c0,0.377-0.314,0.688-0.694,0.688h-0.013H6.17c-0.373,0-0.688-0.311-0.688-0.688v-0.021V7.221C5.482,6.834,5.797,6.529,6.17,6.529
			L6.17,6.529z M15.498,13.184L15.498,13.184h0.011h3.649c0.232,0,0.424,0.195,0.424,0.422v0.01v3.648
			c0,0.236-0.191,0.412-0.424,0.412h-0.004h-3.656c-0.23,0-0.413-0.176-0.413-0.412v-0.018v-3.64
			C15.085,13.379,15.268,13.184,15.498,13.184L15.498,13.184z M18.746,14.014L18.746,14.014h-2.825v2.834h2.825V14.014
			L18.746,14.014z M14.061,13.184L14.061,13.184c0.238,0,0.424,0.195,0.424,0.422s-0.186,0.408-0.424,0.408H9.838
			c-0.233,0-0.42-0.181-0.42-0.408s0.187-0.422,0.42-0.422H14.061L14.061,13.184z M14.061,15.02L14.061,15.02
			c0.238,0,0.424,0.182,0.424,0.408c0,0.23-0.186,0.422-0.424,0.422H9.838c-0.233,0-0.42-0.191-0.42-0.422
			c0-0.227,0.187-0.408,0.42-0.408H14.061L14.061,15.02z M14.061,16.848L14.061,16.848c0.238,0,0.424,0.189,0.424,0.416
			c0,0.236-0.186,0.412-0.424,0.412H9.838c-0.233,0-0.42-0.176-0.42-0.412c0-0.227,0.187-0.416,0.42-0.416H14.061L14.061,16.848z
			 M19.158,18.684L19.158,18.684c0.232,0,0.424,0.182,0.424,0.408c0,0.234-0.191,0.426-0.424,0.426h-9.32
			c-0.233,0-0.42-0.191-0.42-0.426c0-0.227,0.187-0.408,0.42-0.408H19.158L19.158,18.684z M21.039,8.657L21.039,8.657
			c0.383,0,0.698,0.306,0.698,0.696c0,0.386-0.315,0.678-0.698,0.678c-0.384,0-0.699-0.292-0.699-0.678
			C20.34,8.963,20.655,8.657,21.039,8.657L21.039,8.657z M19.348,8.657L19.348,8.657c0.371,0,0.687,0.306,0.687,0.696
			c0,0.386-0.315,0.678-0.687,0.678c-0.391,0-0.701-0.292-0.701-0.678C18.646,8.963,18.957,8.657,19.348,8.657L19.348,8.657z
			 M17.64,8.657L17.64,8.657c0.377,0,0.694,0.306,0.694,0.696c0,0.386-0.317,0.678-0.694,0.678c-0.379,0-0.694-0.292-0.694-0.678
			C16.945,8.963,17.261,8.657,17.64,8.657L17.64,8.657z M6.868,10.781L6.868,10.781h15.261V7.908H6.868V10.781L6.868,10.781z
			 M22.129,11.615L22.129,11.615H6.868v9.467h15.261V11.615L22.129,11.615z"/>
	</g>
	<g display="none">
		<path display="inline" fill="#F29600" d="M6,0h17c3.313,0,6,2.688,6,6v17c0,3.314-2.688,6-6,6H6c-3.314,0-6-2.686-6-6V6
			C0,2.687,2.685,0,6,0z"/>
		<path display="inline" fill="#FFFFFF" d="M10.451,8.464c-0.246-0.236-0.588-0.396-0.957-0.396S8.783,8.228,8.537,8.464
			C8.289,8.709,8.14,9.056,8.14,9.433c0,0.371,0.148,0.698,0.396,0.944v0.015c0.246,0.236,0.588,0.395,0.957,0.395
			s0.711-0.159,0.957-0.395v-0.015c0.245-0.246,0.406-0.573,0.406-0.944C10.857,9.056,10.696,8.709,10.451,8.464L10.451,8.464
			L10.451,8.464z M9.819,9.746L9.819,9.746C9.735,9.833,9.617,9.875,9.494,9.875c-0.13,0-0.24-0.042-0.328-0.129
			C9.086,9.673,9.039,9.558,9.039,9.433c0-0.131,0.048-0.246,0.127-0.328v-0.01c0.088-0.063,0.198-0.126,0.328-0.126
			c0.123,0,0.241,0.063,0.325,0.126v0.01c0.075,0.082,0.128,0.197,0.128,0.328C9.947,9.558,9.894,9.673,9.819,9.746L9.819,9.746z
			 M25.096,8.112L25.096,8.112c0-0.64-0.268-1.233-0.684-1.657H24.4c-0.422-0.429-1.004-0.693-1.645-0.693H7.863
			c-0.641,0-1.236,0.264-1.657,0.693l0,0C5.779,6.879,5.517,7.472,5.517,8.112v2.636c0,0.607,0.235,1.17,0.619,1.6
			c-0.384,0.408-0.619,0.963-0.619,1.574v2.646c0,0.612,0.235,1.175,0.619,1.59c-0.384,0.414-0.619,0.978-0.619,1.585v2.645
			c0,0.641,0.262,1.239,0.688,1.652v0.006c0.421,0.419,1.017,0.684,1.657,0.684h14.893c0.641,0,1.223-0.265,1.645-0.684l0.012-0.006
			c0.416-0.413,0.684-1.012,0.684-1.652v-2.645c0-0.607-0.24-1.171-0.631-1.585c0.391-0.415,0.631-0.978,0.631-1.59v-2.646
			c0-0.611-0.24-1.166-0.631-1.574c0.391-0.43,0.631-0.993,0.631-1.6V8.112L25.096,8.112z M23.588,22.387L23.588,22.387
			c0,0.232-0.096,0.434-0.246,0.593l0,0l-0.008,0.015c-0.152,0.149-0.355,0.222-0.578,0.222H7.863c-0.236,0-0.448-0.082-0.6-0.236
			l0,0l-0.01-0.019c-0.141-0.145-0.229-0.342-0.229-0.574v-2.645c0-0.222,0.088-0.438,0.238-0.588l0.012-0.01
			c0.149-0.139,0.342-0.23,0.566-0.236h14.936c0.223,0.006,0.422,0.107,0.564,0.246l0.01,0.01c0.15,0.15,0.236,0.356,0.236,0.578
			V22.387L23.588,22.387z M23.588,16.567L23.588,16.567c0,0.226-0.096,0.442-0.246,0.593l-0.008,0.015
			c-0.145,0.13-0.344,0.222-0.557,0.231H7.841c-0.225-0.01-0.427-0.102-0.578-0.246l-0.01-0.01
			c-0.141-0.149-0.229-0.357-0.229-0.583v-2.646c0-0.227,0.088-0.434,0.238-0.592l0,0l0.012-0.006
			c0.149-0.139,0.342-0.221,0.566-0.24h14.936c0.223,0.02,0.422,0.102,0.564,0.246l0.01,0.01c0.15,0.159,0.236,0.355,0.236,0.582
			V16.567L23.588,16.567z M23.588,10.748L23.588,10.748c0,0.236-0.096,0.443-0.246,0.592l-0.008,0.01
			c-0.145,0.141-0.344,0.236-0.557,0.236H7.841c-0.225,0-0.427-0.102-0.578-0.246l0,0l-0.01-0.01
			c-0.141-0.149-0.229-0.356-0.229-0.583V8.112c0-0.236,0.088-0.443,0.238-0.592l0.012-0.01c0.149-0.145,0.352-0.236,0.588-0.236
			h14.893c0.234,0,0.438,0.092,0.586,0.246l0.01,0.009c0.15,0.149,0.236,0.352,0.236,0.583V10.748L23.588,10.748z M10.451,14.288
			L10.451,14.288c-0.246-0.251-0.588-0.395-0.957-0.395s-0.711,0.144-0.957,0.395c-0.248,0.251-0.396,0.578-0.396,0.96
			c0,0.375,0.148,0.713,0.396,0.958v0.009c0.246,0.246,0.588,0.391,0.957,0.391s0.711-0.145,0.957-0.391v-0.009
			c0.245-0.245,0.406-0.583,0.406-0.958C10.857,14.866,10.696,14.539,10.451,14.288L10.451,14.288L10.451,14.288z M9.819,15.574
			L9.819,15.574c-0.084,0.073-0.202,0.127-0.325,0.127c-0.13,0-0.24-0.054-0.328-0.127c-0.079-0.091-0.127-0.197-0.127-0.326
			c0-0.131,0.048-0.241,0.127-0.314c0.088-0.092,0.198-0.139,0.328-0.139c0.123,0,0.241,0.047,0.325,0.139
			c0.075,0.073,0.128,0.184,0.128,0.314C9.947,15.377,9.894,15.483,9.819,15.574L9.819,15.574z M10.451,20.109L10.451,20.109
			c-0.246-0.252-0.588-0.406-0.957-0.406s-0.711,0.154-0.957,0.406c-0.248,0.25-0.396,0.597-0.396,0.958
			c0,0.376,0.148,0.712,0.396,0.958c0.246,0.246,0.588,0.396,0.957,0.396s0.711-0.149,0.957-0.396l0,0
			c0.245-0.246,0.406-0.582,0.406-0.958C10.857,20.706,10.696,20.359,10.451,20.109L10.451,20.109L10.451,20.109z M9.819,21.385
			L9.819,21.385v0.005c-0.084,0.087-0.202,0.136-0.325,0.136c-0.13,0-0.24-0.049-0.328-0.136v-0.005
			c-0.079-0.072-0.127-0.188-0.127-0.317c0-0.116,0.048-0.245,0.127-0.323c0.088-0.092,0.198-0.13,0.328-0.13
			c0.123,0,0.241,0.038,0.325,0.13c0.075,0.078,0.128,0.207,0.128,0.323C9.947,21.197,9.894,21.313,9.819,21.385L9.819,21.385z"/>
	</g>
	<g>
		<path fill="#D2A2F1" d="M6,0h17c3.313,0,6,2.688,6,6v17c0,3.314-2.688,6-6,6H6c-3.314,0-6-2.686-6-6V6C0,2.688,2.686,0,6,0z"/>
		<path fill="#FFFFFF" d="M6.791,15.388h0.906v-1.573L6.791,15.388L6.791,15.388z M20.49,5.595L20.49,5.595
			c0.236,0,0.426,0.185,0.426,0.425c0,0.235-0.189,0.438-0.426,0.438H8.127c-0.235,0-0.43-0.203-0.43-0.438
			c0-0.24,0.194-0.425,0.43-0.425H20.49L20.49,5.595z M20.49,7.325L20.49,7.325c0.236,0,0.426,0.188,0.426,0.424
			c0,0.24-0.189,0.438-0.426,0.438H8.127c-0.235,0-0.43-0.198-0.43-0.438c0-0.235,0.194-0.424,0.43-0.424H20.49L20.49,7.325z
			 M8.567,15.388L8.567,15.388h1.31h0.021c0.378,0.004,0.676,0.3,0.701,0.669c0.146,0.876,0.608,1.65,1.264,2.209
			c0.654,0.558,1.516,0.895,2.447,0.895c0.93,0,1.789-0.337,2.436-0.895c0.676-0.567,1.135-1.36,1.277-2.265
			c0.053-0.364,0.359-0.613,0.713-0.613h1.314V9.927H8.567V15.388L8.567,15.388z M20.916,15.388L20.916,15.388h0.906l-0.906-1.573
			V15.388L20.916,15.388z M20.916,10.945L20.916,10.945l2.676,4.631c0.082,0.139,0.102,0.291,0.094,0.438c0,0.032,0,0.06,0,0.088
			v0.019v6.567c0,0.388-0.324,0.716-0.719,0.716h-0.02H5.65c-0.399,0-0.715-0.328-0.715-0.716v-0.022v-6.563
			c0-0.028,0-0.056,0-0.088c-0.023-0.147,0.004-0.3,0.09-0.438l2.672-4.631V9.497V9.479c0-0.235,0.194-0.424,0.43-0.424h12.352
			h0.012c0.236,0,0.426,0.188,0.426,0.424V10.945L20.916,10.945z M9.303,16.826L9.303,16.826H6.377v5.134h15.865v-5.134h-2.934
			c-0.279,1.006-0.859,1.882-1.623,2.547c-0.914,0.766-2.098,1.235-3.375,1.235c-1.292,0-2.473-0.47-3.379-1.235
			C10.163,18.708,9.592,17.832,9.303,16.826L9.303,16.826z"/>
	</g>
	<g>
		<path fill="#E6454A" d="M6,0h17c3.313,0,6,2.688,6,6v17c0,3.314-2.688,6-6,6H6c-3.314,0-6-2.686-6-6V6C0,2.688,2.686,0,6,0z"/>
		<path fill="#FFFFFF" d="M7.694,18.511c-1.292-2.183-0.763-5.439,0.593-7.475c0.199-0.287,0.599-0.36,0.888-0.172
			c0.141,0.09,0.232,0.238,0.268,0.386l0,0c0.028,0.114,0.055,0.222,0.082,0.328c0.137-0.468,0.336-0.923,0.574-1.342
			c0.729-1.292,1.911-2.358,3.186-2.851c0.328-0.123,0.701,0.041,0.824,0.377c0.057,0.164,0.049,0.328-0.015,0.48
			c-0.128,0.287-0.231,0.574-0.328,0.849c0.947-0.849,2.139-1.591,3.36-2.051c2.523-0.956,5.406-0.673,6.498,2.207
			c0.117,0.336-0.051,0.697-0.379,0.82l-0.057,0.024c-2.15,0.574-2.949,1.974-3.715,3.294c-1.047,1.851-2.039,3.569-5.552,3.516
			c0.236,0.106,0.546,0.222,0.945,0.345c0.337,0.103,0.529,0.463,0.425,0.8c-0.051,0.172-0.168,0.308-0.32,0.382
			c-1.614,0.91-4.447,1.559-6.266,0.845c-0.255,0.36-0.646,1.156-0.373,2.403l0,0h1.766c0.209,0,0.381,0.173,0.381,0.386
			c0,0.214-0.172,0.39-0.381,0.39H8.186H7.821L7.768,22.44c-0.32,0.041-0.628-0.173-0.691-0.501
			C6.711,20.274,7.276,19.101,7.694,18.511L7.694,18.511z M12.391,22.452L12.391,22.452h6.664c0.217,0,0.385-0.176,0.385-0.39
			c0-0.213-0.168-0.386-0.385-0.386h-6.664c-0.218,0-0.393,0.173-0.393,0.386C11.999,22.276,12.173,22.452,12.391,22.452
			L12.391,22.452z M8.777,17.829L8.777,17.829c0.829,0.902,3.278,0.308,4.271,0.009c-0.548-0.341-0.839-0.702-0.992-1.01
			c-0.236-0.451-0.363-1.427,0.537-1.313c3.9,0.509,4.804-1.074,5.769-2.765c0.801-1.402,1.645-2.871,3.76-3.667
			c-2.025-3.323-7.873,0.427-8.883,2.72c-0.082,0.254-0.328,0.438-0.608,0.438c-0.348,0-0.639-0.287-0.639-0.64
			c0,0,0.037-0.927,0.336-2.129c-0.436,0.39-0.818,0.874-1.109,1.391c-0.537,0.927-0.775,1.993-0.51,2.949
			c0.073,0.259-0.027,0.546-0.266,0.701c-0.295,0.189-0.69,0.115-0.881-0.181c-0.287-0.438-0.605-0.856-0.848-1.316
			C8.168,14.49,7.963,16.435,8.777,17.829L8.777,17.829z"/>
	</g>
</g>
<g id="图层_2" display="none">
	<g display="inline">
		<path fill="#D2A2F1" d="M6,31.922h17c3.313,0,6,2.688,6,6v17c0,3.314-2.688,6-6,6H6c-3.314,0-6-2.686-6-6v-17
			C0,34.609,2.685,31.922,6,31.922z"/>
		<path fill="#FFFFFF" d="M24.818,43.296c0-0.714-0.268-1.439-0.814-1.978l-3.186-3.189c-0.545-0.549-1.262-0.817-1.986-0.817h0.008
			h-0.008c-0.713,0-1.434,0.269-1.975,0.817L6.828,48.157L6.81,48.176l0,0L6.8,48.182l-0.017,0.018v0.012l-0.01,0.004l-0.009,0.01
			l0,0l-0.013,0.01v0.01v0.01l-0.022,0.02l-0.01,0.01v0.014l-0.016,0.012v0.004l-0.006,0.01l-0.005,0.01l-0.007,0.014l-0.01,0.02
			l-0.006,0.016H6.665l-0.009,0.033l0,0v0.01l-0.011,0.01v0.01l-0.013,0.039v0.015v0.005h-0.01v0.01v0.044v0.01H6.614v0.009v0.006
			v0.014v0.024v0.01v6.149c0,0.412,0.333,0.754,0.753,0.754h6.115h0.021h0.013h0.015l0.018-0.01h0.016h0.027l0.01-0.01l0.021-0.01
			h0.023l0.063-0.02l0.021-0.01l0.012-0.01h0.022l0.014-0.01l0.018-0.01l0.016-0.015l0.016-0.005l0.021-0.01l0.012-0.01l0.023-0.01
			l0.01-0.014l0.014-0.021l0.029-0.015l0.01-0.014l0.021-0.01l10.036-10.049c0.547-0.544,0.822-1.248,0.822-1.978H24.818
			L24.818,43.296z M15.588,41.546L15.588,41.546l0.904,0.914L9.353,49.6l-0.906-0.904L15.588,41.546L15.588,41.546z M8.123,54.005
			L8.123,54.005v-3.481l3.483,3.481H8.123L8.123,54.005z M9.988,50.246L9.988,50.246l7.153-7.141l1.898,1.893l-7.153,7.135
			L9.988,50.246L9.988,50.246z M13.441,53.688L13.441,53.688l-0.906-0.903l7.151-7.146l0.906,0.909L13.441,53.688L13.441,53.688z
			 M23.309,43.296L23.309,43.296L23.309,43.296c0,0.341-0.129,0.656-0.377,0.904l-1.262,1.273l-5.01-5.002l0.578-0.573l0.689-0.695
			c0.252-0.248,0.58-0.38,0.904-0.38v0.015c0.336,0,0.664,0.117,0.914,0.365l3.186,3.188C23.18,42.64,23.309,42.966,23.309,43.296
			L23.309,43.296z"/>
	</g>
</g>
</svg>
