<?xml version="1.0" encoding="utf-8"?>
<!-- Generator: Adobe Illustrator 16.0.0, SVG Export Plug-In . SVG Version: 6.00 Build 0)  -->
<!DOCTYPE svg PUBLIC "-//W3C//DTD SVG 1.1//EN" "http://www.w3.org/Graphics/SVG/1.1/DTD/svg11.dtd">
<svg version="1.1" id="图层_1" xmlns="http://www.w3.org/2000/svg" xmlns:xlink="http://www.w3.org/1999/xlink" x="0px" y="0px"
	 width="29px" height="29px" viewBox="0 0 29 29" enable-background="new 0 0 29 29" xml:space="preserve">
<g display="none">
	<path display="inline" fill="#F29600" d="M6,0h17c3.313,0,6,2.688,6,6v17c0,3.314-2.688,6-6,6H6c-3.314,0-6-2.686-6-6V6
		C0,2.688,2.686,0,6,0z"/>
	<path display="inline" fill="#FFFFFF" d="M17.748,14.289c0.178,0.182,0.416,0.287,0.682,0.287c0.268,0,0.51-0.105,0.686-0.287
		c0.174-0.174,0.283-0.414,0.283-0.681c0-0.266-0.109-0.508-0.283-0.686h-0.004c-0.172-0.173-0.414-0.282-0.682-0.282
		c-0.258,0-0.504,0.109-0.682,0.282l0,0c-0.176,0.178-0.285,0.42-0.285,0.686C17.463,13.875,17.572,14.113,17.748,14.289
		L17.748,14.289z M18.229,13.406L18.229,13.406L18.229,13.406c0.049-0.052,0.121-0.084,0.201-0.084s0.152,0.032,0.201,0.084l0,0
		c0.057,0.049,0.086,0.122,0.086,0.202c0,0.081-0.029,0.145-0.086,0.201c-0.049,0.049-0.121,0.09-0.201,0.09
		s-0.152-0.041-0.201-0.09c-0.048-0.046-0.08-0.12-0.08-0.201C18.148,13.528,18.181,13.455,18.229,13.406L18.229,13.406z
		 M15.123,14.289L15.123,14.289c0.177,0.182,0.418,0.287,0.686,0.287c0.266,0,0.509-0.105,0.686-0.287
		c0.172-0.174,0.277-0.414,0.277-0.681c0-0.266-0.105-0.508-0.277-0.686H16.49c-0.173-0.173-0.416-0.282-0.682-0.282
		c-0.268,0-0.5,0.109-0.686,0.282c-0.174,0.178-0.283,0.42-0.283,0.686C14.84,13.875,14.949,14.113,15.123,14.289L15.123,14.289z
		 M15.604,13.406L15.604,13.406h0.004c0.056-0.052,0.125-0.084,0.201-0.084c0.08,0,0.152,0.032,0.201,0.084h0.004
		c0.053,0.049,0.08,0.122,0.08,0.202c0,0.081-0.027,0.145-0.084,0.201c-0.049,0.049-0.121,0.09-0.201,0.09
		c-0.076,0-0.146-0.041-0.205-0.09c-0.053-0.046-0.082-0.12-0.082-0.201C15.521,13.528,15.551,13.455,15.604,13.406L15.604,13.406z
		 M15.123,16.867L15.123,16.867c0.186,0.174,0.418,0.283,0.686,0.283c0.266,0,0.509-0.109,0.682-0.283l0.004-0.008
		c0.172-0.17,0.277-0.412,0.277-0.678s-0.105-0.51-0.277-0.686H16.49c-0.173-0.17-0.416-0.283-0.682-0.283
		c-0.268,0-0.5,0.113-0.686,0.283l0,0c-0.174,0.176-0.283,0.42-0.283,0.686s0.109,0.508,0.283,0.678V16.867L15.123,16.867z
		 M15.604,15.979L15.604,15.979l0.004-0.002c0.056-0.047,0.125-0.086,0.201-0.086c0.08,0,0.152,0.039,0.201,0.086l0.004,0.002
		c0.053,0.051,0.08,0.123,0.08,0.203s-0.027,0.148-0.08,0.201l-0.004,0.008c-0.049,0.045-0.121,0.072-0.201,0.072
		c-0.076,0-0.146-0.027-0.201-0.072l-0.004-0.008c-0.053-0.053-0.082-0.121-0.082-0.201S15.551,16.029,15.604,15.979L15.604,15.979z
		 M15.123,19.436L15.123,19.436c0.186,0.178,0.418,0.287,0.686,0.287c0.266,0,0.509-0.109,0.682-0.287h0.004
		c0.172-0.174,0.277-0.416,0.277-0.682c0-0.262-0.105-0.508-0.277-0.682H16.49c-0.173-0.178-0.416-0.287-0.682-0.287
		c-0.268,0-0.5,0.109-0.686,0.287c-0.174,0.174-0.283,0.42-0.283,0.682C14.84,19.02,14.949,19.262,15.123,19.436L15.123,19.436z
		 M15.604,18.553L15.604,18.553h0.004c0.056-0.057,0.125-0.086,0.201-0.086c0.08,0,0.152,0.029,0.201,0.086h0.004
		c0.053,0.049,0.08,0.121,0.08,0.201s-0.027,0.154-0.08,0.203l-0.004,0.004c-0.049,0.053-0.121,0.08-0.201,0.08
		c-0.076,0-0.146-0.027-0.201-0.08l-0.004-0.004c-0.053-0.049-0.082-0.123-0.082-0.203S15.551,18.602,15.604,18.553L15.604,18.553z
		 M9.879,16.867L9.879,16.867c0.178,0.174,0.42,0.283,0.686,0.283c0.268,0,0.506-0.109,0.682-0.283v-0.008
		c0.182-0.17,0.287-0.412,0.287-0.678s-0.105-0.51-0.287-0.686l0,0c-0.176-0.17-0.414-0.283-0.682-0.283
		c-0.266,0-0.508,0.113-0.686,0.283l0,0c-0.172,0.176-0.281,0.42-0.281,0.686s0.109,0.508,0.281,0.678V16.867L9.879,16.867z
		 M10.362,15.979L10.362,15.979v-0.002c0.05-0.047,0.122-0.086,0.202-0.086c0.082,0,0.154,0.039,0.201,0.086v0.002
		c0.057,0.051,0.082,0.123,0.082,0.203s-0.025,0.148-0.082,0.201v0.008c-0.047,0.045-0.119,0.072-0.201,0.072
		c-0.08,0-0.152-0.027-0.202-0.072v-0.008c-0.05-0.053-0.089-0.121-0.089-0.201S10.313,16.029,10.362,15.979L10.362,15.979z
		 M9.879,19.436L9.879,19.436c0.178,0.178,0.42,0.287,0.686,0.287c0.268,0,0.506-0.109,0.682-0.287l0,0
		c0.182-0.174,0.287-0.416,0.287-0.682c0-0.262-0.105-0.508-0.287-0.682l0,0c-0.176-0.178-0.414-0.287-0.682-0.287
		c-0.266,0-0.508,0.109-0.686,0.287l0,0c-0.172,0.174-0.281,0.42-0.281,0.682C9.598,19.02,9.707,19.262,9.879,19.436L9.879,19.436
		L9.879,19.436z M10.362,18.553L10.362,18.553L10.362,18.553c0.05-0.057,0.122-0.086,0.202-0.086c0.082,0,0.154,0.029,0.201,0.086
		l0,0c0.057,0.049,0.082,0.121,0.082,0.201s-0.025,0.154-0.082,0.203v0.004c-0.047,0.053-0.119,0.08-0.201,0.08
		c-0.08,0-0.152-0.027-0.202-0.08v-0.004c-0.05-0.049-0.089-0.123-0.089-0.203S10.313,18.602,10.362,18.553L10.362,18.553z
		 M12.506,14.289L12.506,14.289c0.172,0.182,0.414,0.287,0.682,0.287c0.266,0,0.507-0.105,0.682-0.287
		c0.182-0.174,0.285-0.414,0.285-0.681c0-0.266-0.104-0.508-0.285-0.686c-0.178-0.173-0.416-0.282-0.682-0.282
		c-0.268,0-0.51,0.109-0.682,0.282h-0.004c-0.178,0.178-0.287,0.42-0.287,0.686c0,0.267,0.109,0.505,0.287,0.681H12.506
		L12.506,14.289z M12.985,13.406L12.985,13.406L12.985,13.406c0.048-0.052,0.116-0.084,0.202-0.084c0.08,0,0.152,0.032,0.196,0.084
		h0.005c0.057,0.049,0.084,0.122,0.084,0.202c0,0.081-0.027,0.145-0.089,0.201c-0.044,0.049-0.116,0.09-0.196,0.09
		c-0.086,0-0.154-0.041-0.202-0.09c-0.049-0.046-0.089-0.12-0.089-0.201C12.896,13.528,12.937,13.455,12.985,13.406L12.985,13.406z
		 M21.314,7.114L21.314,7.114H7.678c-0.307,0-0.568,0.252-0.568,0.564v13.632c0,0.324,0.262,0.574,0.568,0.574h13.637
		c0.318,0,0.576-0.25,0.576-0.574V7.678C21.891,7.366,21.633,7.114,21.314,7.114L21.314,7.114z M20.749,20.754L20.749,20.754H8.245
		v-9.188h12.504V20.754L20.749,20.754z M20.749,10.881L20.749,10.881H8.245V8.243h1.118v0.852c0,0.311,0.258,0.568,0.572,0.568
		s0.565-0.258,0.565-0.568V8.243h1.903v0.852c0,0.311,0.258,0.568,0.572,0.568s0.572-0.258,0.572-0.568V8.243h1.905v0.852
		c0,0.311,0.249,0.568,0.563,0.568s0.568-0.258,0.568-0.568V8.243h1.909v0.852c0,0.311,0.259,0.568,0.573,0.568
		c0.305,0,0.563-0.258,0.563-0.568V8.243h1.118V10.881L20.749,10.881z M12.506,19.436L12.506,19.436
		c0.172,0.178,0.414,0.287,0.682,0.287c0.266,0,0.504-0.109,0.682-0.287c0.182-0.174,0.285-0.416,0.285-0.682
		c0-0.262-0.104-0.508-0.285-0.682c-0.178-0.178-0.416-0.287-0.682-0.287c-0.268,0-0.51,0.109-0.682,0.287h-0.004
		c-0.178,0.174-0.287,0.42-0.287,0.682c0,0.266,0.109,0.508,0.287,0.682H12.506L12.506,19.436z M12.985,18.553L12.985,18.553
		L12.985,18.553c0.048-0.057,0.116-0.086,0.202-0.086c0.08,0,0.152,0.029,0.196,0.086h0.005c0.057,0.049,0.084,0.121,0.084,0.201
		s-0.027,0.154-0.084,0.203l-0.005,0.004c-0.044,0.053-0.116,0.08-0.196,0.08c-0.086,0-0.154-0.027-0.202-0.08v-0.004
		c-0.049-0.049-0.089-0.123-0.089-0.203S12.937,18.602,12.985,18.553L12.985,18.553z M12.506,16.867L12.506,16.867
		c0.172,0.174,0.414,0.283,0.682,0.283c0.266,0,0.504-0.109,0.682-0.283v-0.008c0.182-0.17,0.285-0.412,0.285-0.678
		s-0.104-0.51-0.285-0.686l0,0c-0.178-0.17-0.416-0.283-0.682-0.283c-0.268,0-0.51,0.113-0.682,0.283h-0.004
		c-0.178,0.176-0.287,0.42-0.287,0.686s0.109,0.508,0.287,0.678L12.506,16.867L12.506,16.867z M12.985,15.979L12.985,15.979v-0.002
		c0.048-0.047,0.116-0.086,0.202-0.086c0.08,0,0.152,0.039,0.196,0.086l0.005,0.002c0.057,0.051,0.084,0.123,0.084,0.203
		s-0.027,0.148-0.084,0.201l-0.005,0.008c-0.044,0.045-0.116,0.072-0.196,0.072c-0.086,0-0.154-0.027-0.202-0.072v-0.008
		c-0.049-0.053-0.089-0.121-0.089-0.201S12.937,16.029,12.985,15.979L12.985,15.979z M17.748,16.867L17.748,16.867
		c0.178,0.174,0.424,0.283,0.682,0.283c0.268,0,0.51-0.109,0.682-0.283l0.004-0.008c0.174-0.17,0.283-0.412,0.283-0.678
		s-0.109-0.51-0.283-0.686h-0.004c-0.172-0.17-0.414-0.283-0.682-0.283c-0.258,0-0.504,0.113-0.682,0.283l0,0
		c-0.176,0.176-0.285,0.42-0.285,0.686s0.109,0.508,0.285,0.678V16.867L17.748,16.867z M18.229,15.979L18.229,15.979v-0.002
		c0.049-0.047,0.121-0.086,0.201-0.086s0.152,0.039,0.201,0.086v0.002c0.057,0.051,0.086,0.123,0.086,0.203
		s-0.029,0.148-0.086,0.201v0.008c-0.049,0.045-0.121,0.072-0.201,0.072s-0.152-0.027-0.201-0.072v-0.008
		c-0.048-0.053-0.08-0.121-0.08-0.201S18.181,16.029,18.229,15.979L18.229,15.979z"/>
</g>
<g>
	<path fill="#E6454A" d="M6,0h17c3.313,0,6,2.688,6,6v17c0,3.314-2.688,6-6,6H6c-3.313,0-6-2.686-6-6V6C0,2.688,2.687,0,6,0z"/>
	<path fill="#FFFFFF" d="M10.54,14.05l-0.019,0.011l-3.36,3.371c-0.417,0.424-0.631,0.975-0.631,1.525s0.214,1.102,0.631,1.527l0,0
		l0.019,0.02c0.417,0.4,0.958,0.607,1.5,0.607c0.552,0,1.112-0.219,1.523-0.627l3.803-3.811l0.019-0.014l4.091-4.086
		c0.18-0.185,0.27-0.421,0.27-0.669c0-0.246-0.09-0.484-0.27-0.664c-0.191-0.189-0.439-0.286-0.676-0.286s-0.484,0.097-0.664,0.286
		l-5.893,5.874c-0.257,0.266-0.685,0.266-0.941,0c-0.254-0.256-0.254-0.684,0-0.939l5.885-5.884
		c0.447-0.451,1.025-0.674,1.613-0.674c0.59,0,1.172,0.223,1.615,0.674c0.443,0.441,0.672,1.024,0.672,1.613
		c0,0.59-0.229,1.168-0.672,1.614l-4.092,4.1h-0.009l-0.01,0.02l-3.796,3.785c-0.674,0.68-1.574,1.021-2.468,1.021
		c-0.877,0-1.756-0.326-2.43-0.984l-0.036-0.037c-0.685-0.674-1.021-1.57-1.021-2.467c0-0.891,0.336-1.785,1.021-2.469l3.805-3.81
		l0.019-0.008l4.784-4.789c0.882-0.883,2.048-1.329,3.212-1.329c1.168,0,2.33,0.446,3.213,1.329
		c0.887,0.883,1.328,2.044,1.328,3.212c0,1.172-0.441,2.329-1.328,3.213l-6.587,6.586c-0.257,0.266-0.683,0.266-0.943,0
		c-0.261-0.262-0.261-0.682,0-0.943l6.59-6.586c0.621-0.622,0.932-1.448,0.932-2.27s-0.311-1.646-0.932-2.272
		c-0.625-0.617-1.447-0.932-2.273-0.932c-0.82,0-1.646,0.314-2.27,0.932L10.54,14.05L10.54,14.05z"/>
</g>
</svg>
