<?xml version="1.0" encoding="utf-8"?>
<!-- Generator: Adobe Illustrator 16.0.0, SVG Export Plug-In . SVG Version: 6.00 Build 0)  -->
<!DOCTYPE svg PUBLIC "-//W3C//DTD SVG 1.1//EN" "http://www.w3.org/Graphics/SVG/1.1/DTD/svg11.dtd">
<svg version="1.1" id="图层_1" xmlns="http://www.w3.org/2000/svg" xmlns:xlink="http://www.w3.org/1999/xlink" x="0px" y="0px"
	 width="29px" height="29px" viewBox="0 0 29 29" enable-background="new 0 0 29 29" xml:space="preserve">
<g display="none">
	<path display="inline" fill="#F29600" d="M6,0h17c3.313,0,6,2.688,6,6v17c0,3.314-2.688,6-6,6H6c-3.314,0-6-2.686-6-6V6
		C0,2.688,2.686,0,6,0z"/>
	<path display="inline" fill="#FFFFFF" d="M17.748,14.289c0.178,0.182,0.416,0.287,0.682,0.287c0.27,0,0.51-0.105,0.688-0.287
		c0.174-0.174,0.281-0.414,0.281-0.681c0-0.266-0.107-0.508-0.281-0.686h-0.006c-0.172-0.173-0.412-0.282-0.682-0.282
		c-0.258,0-0.504,0.109-0.682,0.282l0,0c-0.176,0.178-0.285,0.42-0.285,0.686C17.463,13.875,17.572,14.113,17.748,14.289
		L17.748,14.289z M18.229,13.406L18.229,13.406L18.229,13.406c0.049-0.052,0.121-0.084,0.201-0.084s0.152,0.032,0.201,0.084l0,0
		c0.057,0.049,0.086,0.122,0.086,0.202c0,0.081-0.029,0.145-0.086,0.201c-0.049,0.049-0.121,0.09-0.201,0.09
		s-0.152-0.041-0.201-0.09c-0.047-0.046-0.08-0.12-0.08-0.201C18.148,13.528,18.182,13.455,18.229,13.406L18.229,13.406z
		 M15.123,14.289L15.123,14.289c0.177,0.182,0.418,0.287,0.686,0.287s0.51-0.105,0.688-0.287c0.172-0.174,0.275-0.414,0.275-0.681
		c0-0.266-0.104-0.508-0.275-0.686H16.49c-0.174-0.173-0.416-0.282-0.682-0.282c-0.27,0-0.5,0.109-0.688,0.282
		c-0.174,0.178-0.283,0.42-0.283,0.686C14.84,13.875,14.949,14.113,15.123,14.289L15.123,14.289z M15.604,13.406L15.604,13.406
		h0.004c0.058-0.052,0.125-0.084,0.201-0.084c0.08,0,0.152,0.032,0.201,0.084h0.004c0.053,0.049,0.08,0.122,0.08,0.202
		c0,0.081-0.027,0.145-0.084,0.201c-0.049,0.049-0.121,0.09-0.201,0.09c-0.076,0-0.146-0.041-0.205-0.09
		c-0.053-0.046-0.082-0.12-0.082-0.201C15.521,13.528,15.551,13.455,15.604,13.406L15.604,13.406z M15.123,16.867L15.123,16.867
		c0.186,0.174,0.418,0.283,0.686,0.283s0.51-0.109,0.684-0.283l0.004-0.008c0.172-0.17,0.275-0.412,0.275-0.678
		c0-0.268-0.104-0.512-0.275-0.688H16.49c-0.174-0.17-0.416-0.283-0.682-0.283c-0.27,0-0.5,0.113-0.688,0.283l0,0
		c-0.174,0.176-0.283,0.42-0.283,0.688c0,0.266,0.109,0.508,0.283,0.678L15.123,16.867L15.123,16.867z M15.604,15.979L15.604,15.979
		l0.004-0.002c0.058-0.047,0.125-0.086,0.201-0.086c0.08,0,0.152,0.039,0.201,0.086l0.004,0.002c0.053,0.053,0.08,0.123,0.08,0.203
		s-0.027,0.148-0.08,0.201l-0.004,0.008c-0.049,0.045-0.121,0.072-0.201,0.072c-0.076,0-0.146-0.027-0.201-0.072l-0.004-0.008
		c-0.053-0.053-0.082-0.121-0.082-0.201S15.551,16.029,15.604,15.979L15.604,15.979z M15.123,19.436L15.123,19.436
		c0.186,0.18,0.418,0.287,0.686,0.287s0.51-0.107,0.684-0.287h0.004c0.172-0.174,0.275-0.416,0.275-0.682
		c0-0.262-0.104-0.508-0.275-0.682H16.49c-0.174-0.178-0.416-0.287-0.682-0.287c-0.27,0-0.5,0.109-0.688,0.287
		c-0.174,0.174-0.283,0.42-0.283,0.682C14.84,19.02,14.949,19.262,15.123,19.436L15.123,19.436z M15.604,18.553L15.604,18.553h0.004
		c0.058-0.057,0.125-0.086,0.201-0.086c0.08,0,0.152,0.029,0.201,0.086h0.004c0.053,0.049,0.08,0.121,0.08,0.201
		s-0.027,0.154-0.08,0.203l-0.004,0.004c-0.049,0.053-0.121,0.08-0.201,0.08c-0.076,0-0.146-0.027-0.201-0.08l-0.004-0.004
		c-0.053-0.049-0.082-0.123-0.082-0.203S15.551,18.602,15.604,18.553L15.604,18.553z M9.879,16.867L9.879,16.867
		c0.178,0.174,0.42,0.283,0.686,0.283c0.268,0,0.506-0.109,0.682-0.283v-0.008c0.182-0.17,0.287-0.412,0.287-0.678
		c0-0.268-0.105-0.512-0.287-0.688l0,0c-0.176-0.17-0.414-0.283-0.682-0.283c-0.266,0-0.508,0.113-0.686,0.283l0,0
		c-0.172,0.176-0.281,0.42-0.281,0.688c0,0.266,0.109,0.508,0.281,0.678V16.867L9.879,16.867z M10.362,15.979L10.362,15.979v-0.002
		c0.05-0.047,0.122-0.086,0.202-0.086c0.082,0,0.154,0.039,0.201,0.086v0.002c0.057,0.053,0.082,0.123,0.082,0.203
		s-0.025,0.148-0.082,0.201v0.008c-0.047,0.045-0.119,0.072-0.201,0.072c-0.08,0-0.152-0.027-0.202-0.072v-0.008
		c-0.05-0.053-0.089-0.121-0.089-0.201S10.313,16.029,10.362,15.979L10.362,15.979z M9.879,19.436L9.879,19.436
		c0.178,0.18,0.42,0.287,0.686,0.287c0.268,0,0.506-0.107,0.682-0.287l0,0c0.182-0.174,0.287-0.416,0.287-0.682
		c0-0.262-0.105-0.508-0.287-0.682l0,0c-0.176-0.178-0.414-0.287-0.682-0.287c-0.266,0-0.508,0.109-0.686,0.287l0,0
		c-0.172,0.174-0.281,0.42-0.281,0.682C9.598,19.02,9.707,19.262,9.879,19.436L9.879,19.436L9.879,19.436z M10.362,18.553
		L10.362,18.553L10.362,18.553c0.05-0.057,0.122-0.086,0.202-0.086c0.082,0,0.154,0.029,0.201,0.086l0,0
		c0.057,0.049,0.082,0.121,0.082,0.201s-0.025,0.154-0.082,0.203v0.004c-0.047,0.053-0.119,0.08-0.201,0.08
		c-0.08,0-0.152-0.027-0.202-0.08v-0.004c-0.05-0.049-0.089-0.123-0.089-0.203S10.313,18.602,10.362,18.553L10.362,18.553z
		 M12.506,14.289L12.506,14.289c0.172,0.182,0.414,0.287,0.682,0.287c0.266,0,0.507-0.105,0.682-0.287
		c0.182-0.174,0.285-0.414,0.285-0.681c0-0.266-0.104-0.508-0.285-0.686c-0.178-0.173-0.416-0.282-0.682-0.282
		c-0.268,0-0.51,0.109-0.682,0.282h-0.004c-0.178,0.178-0.287,0.42-0.287,0.686c0,0.267,0.109,0.505,0.287,0.681H12.506
		L12.506,14.289z M12.985,13.406L12.985,13.406L12.985,13.406c0.048-0.052,0.116-0.084,0.202-0.084c0.08,0,0.152,0.032,0.196,0.084
		h0.005c0.057,0.049,0.084,0.122,0.084,0.202c0,0.081-0.027,0.145-0.089,0.201c-0.044,0.049-0.116,0.09-0.196,0.09
		c-0.086,0-0.154-0.041-0.202-0.09c-0.049-0.046-0.089-0.12-0.089-0.201C12.896,13.528,12.937,13.455,12.985,13.406L12.985,13.406z
		 M21.314,7.114L21.314,7.114H7.678c-0.307,0-0.568,0.252-0.568,0.563v13.634c0,0.322,0.262,0.572,0.568,0.572h13.636
		c0.317,0,0.576-0.25,0.576-0.572V7.678C21.891,7.366,21.633,7.114,21.314,7.114L21.314,7.114z M20.749,20.754L20.749,20.754H8.245
		v-9.188h12.504V20.754L20.749,20.754z M20.749,10.881L20.749,10.881H8.245V8.243h1.118v0.852c0,0.312,0.258,0.568,0.572,0.568
		S10.5,9.405,10.5,9.095V8.243h1.903v0.852c0,0.312,0.258,0.568,0.572,0.568s0.572-0.258,0.572-0.568V8.243h1.905v0.852
		c0,0.312,0.249,0.568,0.563,0.568c0.313,0,0.566-0.258,0.566-0.568V8.243h1.909v0.852c0,0.312,0.259,0.568,0.571,0.568
		c0.307,0,0.563-0.258,0.563-0.568V8.243h1.118v2.638H20.749z M12.506,19.436L12.506,19.436c0.172,0.18,0.414,0.287,0.682,0.287
		c0.266,0,0.504-0.107,0.682-0.287c0.182-0.174,0.285-0.416,0.285-0.682c0-0.262-0.104-0.508-0.285-0.682
		c-0.178-0.178-0.416-0.287-0.682-0.287c-0.268,0-0.51,0.109-0.682,0.287h-0.004c-0.178,0.174-0.287,0.42-0.287,0.682
		c0,0.266,0.109,0.508,0.287,0.682H12.506L12.506,19.436z M12.985,18.553L12.985,18.553L12.985,18.553
		c0.048-0.057,0.116-0.086,0.202-0.086c0.08,0,0.152,0.029,0.196,0.086h0.005c0.057,0.049,0.084,0.121,0.084,0.201
		s-0.027,0.154-0.084,0.203l-0.005,0.004c-0.044,0.053-0.116,0.08-0.196,0.08c-0.086,0-0.154-0.027-0.202-0.08v-0.004
		c-0.049-0.049-0.089-0.123-0.089-0.203S12.937,18.602,12.985,18.553L12.985,18.553z M12.506,16.867L12.506,16.867
		c0.172,0.174,0.414,0.283,0.682,0.283c0.266,0,0.504-0.109,0.682-0.283v-0.008c0.182-0.17,0.285-0.412,0.285-0.678
		c0-0.268-0.104-0.512-0.285-0.688l0,0c-0.178-0.17-0.416-0.283-0.682-0.283c-0.268,0-0.51,0.113-0.682,0.283h-0.004
		c-0.178,0.176-0.287,0.42-0.287,0.688c0,0.266,0.109,0.508,0.287,0.678L12.506,16.867L12.506,16.867z M12.985,15.979L12.985,15.979
		v-0.002c0.048-0.047,0.116-0.086,0.202-0.086c0.08,0,0.152,0.039,0.196,0.086l0.005,0.002c0.057,0.053,0.084,0.123,0.084,0.203
		s-0.027,0.148-0.084,0.201l-0.005,0.008c-0.044,0.045-0.116,0.072-0.196,0.072c-0.086,0-0.154-0.027-0.202-0.072v-0.008
		c-0.049-0.053-0.089-0.121-0.089-0.201S12.937,16.029,12.985,15.979L12.985,15.979z M17.748,16.867L17.748,16.867
		c0.178,0.174,0.424,0.283,0.682,0.283c0.27,0,0.51-0.109,0.682-0.283l0.006-0.008c0.174-0.17,0.281-0.412,0.281-0.678
		c0-0.268-0.107-0.512-0.281-0.688h-0.006c-0.172-0.17-0.412-0.283-0.682-0.283c-0.258,0-0.504,0.113-0.682,0.283l0,0
		c-0.176,0.176-0.285,0.42-0.285,0.688c0,0.266,0.109,0.508,0.285,0.678V16.867L17.748,16.867z M18.229,15.979L18.229,15.979v-0.002
		c0.049-0.047,0.121-0.086,0.201-0.086s0.152,0.039,0.201,0.086v0.002c0.057,0.053,0.086,0.123,0.086,0.203
		s-0.029,0.148-0.086,0.201v0.008c-0.049,0.045-0.121,0.072-0.201,0.072s-0.152-0.027-0.201-0.072v-0.008
		c-0.047-0.053-0.08-0.121-0.08-0.201S18.182,16.029,18.229,15.979L18.229,15.979z"/>
</g>
<g display="none">
	<path display="inline" fill="#E6454A" d="M6,0h17c3.313,0,6,2.688,6,6v17c0,3.314-2.688,6-6,6H6c-3.313,0-6-2.686-6-6V6
		C0,2.688,2.687,0,6,0z"/>
	<path display="inline" fill="#FFFFFF" d="M10.54,14.05l-0.019,0.011l-3.36,3.371c-0.417,0.424-0.631,0.977-0.631,1.525
		s0.214,1.102,0.631,1.527l0,0l0.019,0.02c0.417,0.4,0.958,0.607,1.5,0.607c0.552,0,1.112-0.219,1.523-0.627l3.803-3.813
		l0.019-0.014l4.091-4.086c0.18-0.185,0.271-0.421,0.271-0.669c0-0.246-0.091-0.484-0.271-0.664
		c-0.191-0.189-0.439-0.286-0.677-0.286c-0.236,0-0.483,0.097-0.664,0.286l-5.894,5.874c-0.257,0.266-0.685,0.266-0.941,0
		c-0.254-0.258-0.254-0.686,0-0.939l5.885-5.884c0.445-0.451,1.023-0.674,1.611-0.674c0.59,0,1.172,0.223,1.615,0.674
		c0.443,0.441,0.672,1.024,0.672,1.613c0,0.59-0.229,1.168-0.672,1.614l-4.092,4.1h-0.009l-0.01,0.021l-3.796,3.783
		c-0.674,0.682-1.574,1.021-2.468,1.021c-0.877,0-1.756-0.325-2.43-0.983l-0.036-0.037c-0.685-0.674-1.021-1.569-1.021-2.467
		c0-0.892,0.336-1.785,1.021-2.47l3.805-3.811l0.019-0.008l4.784-4.789c0.882-0.883,2.048-1.329,3.212-1.329
		c1.168,0,2.329,0.446,3.213,1.329c0.887,0.883,1.328,2.044,1.328,3.212c0,1.172-0.441,2.329-1.328,3.213l-6.587,6.584
		c-0.257,0.268-0.683,0.268-0.943,0c-0.261-0.262-0.261-0.682,0-0.941l6.59-6.586c0.621-0.622,0.932-1.448,0.932-2.27
		c0-0.822-0.311-1.646-0.932-2.272c-0.625-0.617-1.447-0.932-2.271-0.932c-0.82,0-1.646,0.314-2.271,0.932L10.54,14.05L10.54,14.05z
		"/>
</g>
<g display="none">
	<path display="inline" fill="#8DC21F" d="M6,0h17c3.313,0,6,2.688,6,6v17c0,3.314-2.688,6-6,6H6c-3.314,0-6-2.686-6-6V6
		C0,2.688,2.686,0,6,0z"/>
	<path display="inline" fill="#FFFFFF" d="M22.5,13.695h-1.676c-0.051-0.149-0.107-0.301-0.162-0.45l-0.02-0.041
		c-0.07-0.165-0.143-0.321-0.221-0.481l1.176-1.175l0.008-0.011c0.271-0.276,0.271-0.722,0-0.998l-1.896-1.903v0.009
		c-0.271-0.276-0.723-0.276-0.994-0.009l-1.184,1.195c-0.164-0.082-0.328-0.156-0.494-0.231c-0.148-0.061-0.32-0.122-0.49-0.176
		V7.747c0-0.387-0.316-0.708-0.703-0.708h-2.682c-0.392,0-0.703,0.321-0.703,0.708v1.677c-0.175,0.054-0.34,0.115-0.503,0.176
		c-0.165,0.075-0.318,0.149-0.482,0.231l-1.146-1.156l-0.036-0.039c-0.272-0.271-0.724-0.271-0.993,0l-1.898,1.903
		c-0.281,0.276-0.281,0.722,0,0.998l1.186,1.19c-0.077,0.137-0.143,0.297-0.201,0.441l-0.021,0.036
		c-0.069,0.161-0.131,0.325-0.186,0.491H6.494c-0.388,0-0.702,0.321-0.702,0.713v2.682c0,0.391,0.314,0.703,0.702,0.703h1.688
		c0.049,0.16,0.105,0.309,0.172,0.462l0.008,0.029c0.07,0.172,0.146,0.333,0.231,0.481L7.428,19.92l-0.029,0.034
		c-0.271,0.274-0.271,0.726,0,1.001l1.898,1.893c0.27,0.274,0.721,0.274,0.993,0l1.194-1.189c0.141,0.076,0.285,0.15,0.433,0.208
		l0.038,0.019c0.163,0.064,0.328,0.126,0.494,0.186v1.68c0,0.386,0.32,0.713,0.712,0.713h2.682c0.388,0,0.703-0.327,0.703-0.713
		v-1.68c0.17-0.062,0.343-0.121,0.502-0.188c0.154-0.063,0.318-0.141,0.472-0.227l1.174,1.181l0.021,0.011
		c0.271,0.274,0.725,0.274,0.994,0l1.891-1.871l0.008-0.021c0.271-0.275,0.271-0.727,0-1.001l-1.184-1.188
		c0.078-0.154,0.146-0.312,0.221-0.481c0.063-0.153,0.119-0.319,0.182-0.491H22.5l0,0c0.387,0,0.703-0.32,0.703-0.713v-2.611
		l0.006-0.063C23.209,14.017,22.891,13.695,22.5,13.695L22.5,13.695z M21.799,16.377L21.799,16.377h-1.508
		c-0.35,0-0.643,0.262-0.703,0.592c-0.059,0.272-0.15,0.527-0.252,0.779c-0.107,0.268-0.24,0.521-0.391,0.762
		c-0.188,0.288-0.131,0.648,0.09,0.879l0,0l1.07,1.065l-0.891,0.894l-1.072-1.063c-0.252-0.251-0.635-0.271-0.914-0.081
		c-0.232,0.149-0.473,0.271-0.729,0.371c-0.263,0.11-0.537,0.2-0.817,0.271c-0.32,0.07-0.548,0.361-0.548,0.686l0,0v1.512h-1.26
		v-1.514c0-0.353-0.265-0.644-0.602-0.692c-0.267-0.069-0.522-0.155-0.778-0.262l-0.036-0.011c-0.249-0.109-0.491-0.229-0.722-0.381
		c-0.293-0.17-0.654-0.127-0.874,0.102l-1.065,1.063l-0.903-0.894l1.071-1.065c0.234-0.24,0.269-0.602,0.104-0.873
		c-0.149-0.244-0.292-0.5-0.4-0.768l-0.012-0.036c-0.1-0.249-0.186-0.512-0.252-0.782c-0.069-0.33-0.361-0.541-0.691-0.541l0,0
		H7.202v-1.271h1.512c0.351,0,0.643-0.261,0.703-0.598c0.055-0.266,0.15-0.523,0.252-0.771l0.009-0.041
		c0.11-0.252,0.242-0.498,0.382-0.733c0.175-0.28,0.132-0.638-0.1-0.869h0.006l-1.071-1.07l0.903-0.894l1.065,1.065
		c0.231,0.24,0.603,0.272,0.874,0.091c0.239-0.143,0.49-0.278,0.762-0.387c0.268-0.11,0.543-0.197,0.824-0.262
		c0.321-0.075,0.552-0.367,0.543-0.686h0.009V8.455h1.26v1.507c0,0.351,0.256,0.643,0.598,0.697c0.262,0.065,0.52,0.145,0.77,0.251
		c0.268,0.109,0.527,0.245,0.77,0.396c0.297,0.181,0.674,0.12,0.896-0.131l1.041-1.034l0.896,0.894l-1.07,1.065
		c-0.246,0.244-0.27,0.632-0.078,0.914c0.148,0.231,0.271,0.482,0.379,0.734l0.016,0.033c0.107,0.252,0.188,0.512,0.248,0.787
		c0.07,0.322,0.361,0.543,0.691,0.543h1.508V16.377L21.799,16.377z M14.508,12.761L14.508,12.761c-0.824,0-1.577,0.333-2.113,0.876
		c-0.539,0.536-0.873,1.285-0.873,2.109c0,0.822,0.334,1.564,0.873,2.105c0.536,0.539,1.289,0.873,2.113,0.873
		c0.824,0,1.566-0.334,2.102-0.873c0.539-0.541,0.882-1.283,0.882-2.105c0-0.824-0.343-1.573-0.882-2.109
		C16.074,13.094,15.332,12.761,14.508,12.761L14.508,12.761z M16.008,17.25L16.008,17.25c-0.387,0.387-0.918,0.629-1.5,0.629
		c-0.593,0-1.125-0.242-1.516-0.629c-0.387-0.38-0.623-0.918-0.623-1.504c0-0.594,0.236-1.125,0.623-1.508
		c0.391-0.383,0.923-0.622,1.516-0.622c0.582,0,1.113,0.239,1.5,0.622c0.387,0.383,0.629,0.915,0.629,1.508
		C16.637,16.332,16.395,16.87,16.008,17.25L16.008,17.25z"/>
</g>
<g display="none">
	<path display="inline" fill="#52A6EB" d="M6,0h17c3.313,0,6,2.688,6,6v17c0,3.314-2.688,6-6,6H6c-3.314,0-6-2.686-6-6V6
		C0,2.688,2.686,0,6,0z"/>
	<path display="inline" fill="#FFFFFF" d="M6.545,5.89h0.019h6.868c0.367,0,0.664,0.297,0.664,0.659v0.019v6.868
		c0,0.367-0.297,0.662-0.664,0.662h-0.015H6.545c-0.356,0-0.657-0.295-0.657-0.662v-0.014V6.549C5.888,6.187,6.188,5.89,6.545,5.89
		L6.545,5.89z M12.769,7.216L12.769,7.216H7.212v5.562h5.557V7.216L12.769,7.216z M21.777,7.216L21.777,7.216h-5.557v5.562h5.557
		V7.216L21.777,7.216z M15.563,5.89L15.563,5.89h6.863h0.02c0.365,0,0.666,0.297,0.666,0.659v6.873v0.014
		c0,0.367-0.301,0.662-0.666,0.662h-6.867h-0.016c-0.367,0-0.667-0.295-0.667-0.662V6.567V6.549
		C14.894,6.187,15.195,5.89,15.563,5.89L15.563,5.89z M7.212,21.783L7.212,21.783h5.557v-5.555H7.212V21.783L7.212,21.783z
		 M13.432,23.109L13.432,23.109H6.563H6.545c-0.356,0-0.657-0.297-0.657-0.66V15.58v-0.02c0-0.357,0.301-0.664,0.657-0.664h6.872
		h0.015c0.367,0,0.664,0.305,0.664,0.664v6.871v0.018C14.096,22.813,13.799,23.109,13.432,23.109L13.432,23.109z M22.445,23.109
		L22.445,23.109h-0.021h-6.861c-0.367,0-0.669-0.297-0.669-0.66v-0.018v-6.871c0-0.357,0.302-0.664,0.669-0.664h0.014h6.869
		c0.365,0,0.666,0.305,0.666,0.664v0.02v6.869C23.111,22.813,22.811,23.109,22.445,23.109L22.445,23.109z M16.221,21.783
		L16.221,21.783h5.557v-5.555h-5.557V21.783L16.221,21.783z"/>
</g>
<g display="none">
	<g display="inline">
		<path fill="#52A6EB" d="M6,0h17c3.313,0,6,2.687,6,6v17c0,3.313-2.688,6-6,6H6c-3.313,0-6-2.688-6-6V6C0,2.687,2.687,0,6,0z"/>
		<g transform="translate(5.000000, 5.000000)">
			<path fill="#FFFFFF" d="M15.871,15.906c-0.766-0.273-1.865-0.367-2.564-0.522c-0.404-0.089-0.992-0.313-1.188-0.546
				c-0.197-0.236-0.078-2.429-0.078-2.429s0.361-0.569,0.559-1.068c0.195-0.499,0.41-1.865,0.41-1.865s0.402,0,0.545-0.706
				c0.154-0.771,0.394-1.092,0.363-1.668c-0.031-0.534-0.309-0.564-0.34-0.564l0,0c0,0,0.291-0.808,0.334-2.518
				C13.959,1.995,12.408,0,9.5,0C6.591,0,5.047,1.989,5.088,4.014c0.036,1.704,0.333,2.518,0.333,2.518l0,0
				c-0.03,0-0.309,0.03-0.338,0.564C5.053,7.671,5.296,7.98,5.445,8.752c0.143,0.706,0.546,0.712,0.546,0.712
				s0.214,1.372,0.41,1.871c0.196,0.505,0.559,1.067,0.559,1.067s0.119,2.19-0.078,2.43c-0.196,0.236-0.784,0.457-1.188,0.546
				c-0.707,0.154-1.799,0.255-2.565,0.528S0,17.1,0,19h9.5H19C19,17.1,16.637,16.18,15.871,15.906L15.871,15.906z"/>
		</g>
	</g>
</g>
<g display="none">
	<path display="inline" fill="#E6454A" d="M6,0h17c3.313,0,6,2.687,6,6v17c0,3.313-2.688,6-6,6H6c-3.313,0-6-2.688-6-6V6
		C0,2.687,2.687,0,6,0z"/>
	<path display="inline" fill="#FFFFFF" d="M22.039,10.873c-0.078-0.593-0.189-1.161-0.334-1.721
		c-0.057-0.294-0.309-0.519-0.629-0.519H7.92l0,0c-0.276,0-0.54,0.192-0.611,0.474c-0.155,0.56-0.272,1.165-0.346,1.766
		c-0.082,0.613-0.123,1.226-0.123,1.819c0,2.666,0.744,5.139,2.009,7.203c1.306,2.125,3.184,3.81,5.388,4.795
		c0.163,0.078,0.353,0.086,0.521,0c2.209-0.985,4.086-2.67,5.393-4.795c1.267-2.063,2.007-4.529,2.007-7.203
		C22.158,12.099,22.121,11.485,22.039,10.873L22.039,10.873z M19.064,19.225L19.064,19.225c-1.121,1.83-2.703,3.285-4.563,4.193
		c-1.86-0.908-3.442-2.363-4.562-4.193C8.79,17.359,8.12,15.111,8.12,12.692c0-0.568,0.037-1.12,0.104-1.647
		c0.056-0.388,0.119-0.765,0.201-1.132h12.153c0.082,0.368,0.154,0.744,0.199,1.132c0.063,0.527,0.102,1.079,0.102,1.647
		C20.879,15.111,20.213,17.359,19.064,19.225L19.064,19.225z M17.992,13.538L17.992,13.538c-0.242,0-0.461,0.085-0.645,0.216
		l-0.019,0.013c-0.08,0.065-0.156,0.143-0.218,0.233l-1.151-0.278l-0.614-1.009c0.026-0.037,0.053-0.078,0.081-0.123v-0.004
		c0.091-0.151,0.136-0.331,0.136-0.523c0-0.282-0.123-0.551-0.31-0.752l0,0c-0.198-0.18-0.462-0.298-0.752-0.298
		c-0.291,0-0.554,0.118-0.744,0.298H13.75c-0.192,0.201-0.309,0.47-0.309,0.752c0,0.192,0.045,0.372,0.131,0.523l0.004,0.004
		c0.022,0.045,0.055,0.086,0.082,0.123l-0.622,1.009L11.89,14c-0.063-0.09-0.137-0.167-0.218-0.233
		c-0.183-0.135-0.407-0.229-0.652-0.229c-0.291,0-0.562,0.118-0.754,0.311c-0.19,0.2-0.307,0.458-0.307,0.752
		s0.116,0.564,0.307,0.756c0.192,0.188,0.464,0.307,0.754,0.307c0.116,0,0.235-0.023,0.345-0.059h0.008l0.762,0.896l-0.096,1.182
		c-0.168,0.049-0.321,0.144-0.439,0.266l0,0c-0.196,0.195-0.317,0.462-0.317,0.748c0,0.597,0.48,1.07,1.061,1.07
		c0.589,0,1.071-0.475,1.071-1.07v-0.021l1.087-0.449l1.098,0.449v0.021c0,0.597,0.471,1.07,1.062,1.07
		c0.28,0,0.543-0.119,0.735-0.303v-0.004l0.008-0.004l0.005-0.008c0.188-0.193,0.309-0.454,0.309-0.754
		c0-0.285-0.118-0.551-0.309-0.747h-0.005c-0.116-0.122-0.271-0.218-0.444-0.267l-0.09-1.181l0.771-0.896
		c0.11,0.033,0.227,0.058,0.354,0.058c0.287,0,0.555-0.118,0.746-0.306c0.193-0.192,0.316-0.463,0.316-0.757
		c0-0.295-0.123-0.552-0.316-0.752C18.547,13.656,18.279,13.538,17.992,13.538L17.992,13.538z M11.209,14.83L11.209,14.83
		c-0.027,0.02-0.055,0.04-0.09,0.049l0,0c-0.037,0.008-0.063,0.016-0.1,0.016c-0.092,0-0.164-0.032-0.208-0.086
		c-0.059-0.053-0.092-0.135-0.092-0.208c0-0.086,0.033-0.156,0.092-0.208c0.045-0.054,0.117-0.086,0.208-0.086
		c0.063,0,0.135,0.025,0.182,0.062c0.053,0.041,0.09,0.098,0.104,0.159c0.022,0.094,0.067,0.155,0.13,0.208
		C11.354,14.743,11.272,14.772,11.209,14.83L11.209,14.83z M14.293,11.854L14.293,11.854L14.293,11.854
		c0.049-0.049,0.127-0.082,0.209-0.082s0.159,0.033,0.208,0.082c0.055,0.062,0.086,0.134,0.086,0.208
		c0,0.062-0.015,0.106-0.037,0.156c-0.022,0.041-0.057,0.073-0.102,0.106c-0.074,0.041-0.119,0.11-0.155,0.184
		c-0.027-0.074-0.082-0.143-0.156-0.184l-0.016-0.008c-0.037-0.037-0.063-0.065-0.092-0.098c-0.022-0.049-0.027-0.094-0.027-0.156
		C14.211,11.988,14.238,11.915,14.293,11.854L14.293,11.854z M12.56,18.908L12.56,18.908L12.56,18.908
		c-0.057,0.059-0.135,0.087-0.217,0.087c-0.082,0-0.155-0.028-0.208-0.087c-0.047-0.053-0.086-0.131-0.086-0.213
		c0-0.076,0.039-0.15,0.086-0.211c0.053-0.049,0.127-0.074,0.208-0.074h0.045c0.082,0,0.153-0.025,0.217-0.064
		c-0.022,0.086-0.016,0.166,0.014,0.24v0.004c0.015,0.014,0.015,0.029,0.023,0.051c0,0.01,0,0.035,0,0.057
		C12.642,18.777,12.611,18.855,12.56,18.908L12.56,18.908z M16.951,18.695L16.951,18.695c0,0.082-0.027,0.16-0.082,0.213h-0.004
		c-0.051,0.059-0.127,0.087-0.205,0.087c-0.082,0-0.164-0.028-0.209-0.087h-0.008c-0.055-0.053-0.082-0.131-0.082-0.213
		c0-0.016,0-0.035,0-0.057c0.008-0.021,0.02-0.037,0.02-0.054c0.029-0.074,0.033-0.155,0.018-0.241
		c0.062,0.04,0.144,0.065,0.234,0.065h0.027c0.078,0,0.154,0.024,0.205,0.073C16.924,18.545,16.951,18.619,16.951,18.695
		L16.951,18.695z M17.258,14.87L17.258,14.87l-1.074,1.255c-0.065,0.082-0.096,0.184-0.09,0.277l0.131,1.647
		c0,0.024,0,0.046,0.01,0.064c-0.018-0.009-0.041-0.021-0.059-0.021l-1.529-0.639c-0.1-0.036-0.204-0.036-0.29,0l-1.529,0.639
		c-0.019,0-0.041,0.012-0.059,0.021c0.01-0.021,0.01-0.04,0.01-0.064h0.008l0.119-1.647c0.008-0.109-0.029-0.209-0.101-0.285
		l-1.061-1.248c-0.015-0.02-0.027-0.033-0.045-0.04c0.023,0,0.042-0.009,0.063-0.021l1.609-0.384c0.1-0.02,0.186-0.086,0.241-0.176
		l0.862-1.398c0.008-0.029,0.019-0.041,0.027-0.057c0.008,0.017,0.018,0.028,0.037,0.057h-0.01l0.871,1.398
		c0.055,0.098,0.156,0.167,0.26,0.184l1.582,0.376c0.018,0.012,0.041,0.021,0.063,0.021C17.287,14.837,17.27,14.85,17.258,14.87
		L17.258,14.87z M18.201,14.809L18.201,14.809c-0.057,0.054-0.127,0.086-0.209,0.086c-0.045,0-0.076-0.008-0.107-0.016
		c-0.027-0.009-0.064-0.029-0.09-0.049c-0.064-0.058-0.146-0.086-0.219-0.094c0.055-0.053,0.109-0.115,0.121-0.2v-0.017
		c0.016-0.061,0.061-0.11,0.104-0.151l0.011-0.013c0.045-0.029,0.108-0.049,0.18-0.049c0.082,0,0.152,0.033,0.209,0.086
		c0.051,0.053,0.084,0.123,0.084,0.208C18.285,14.674,18.252,14.756,18.201,14.809L18.201,14.809z"/>
</g>
<g display="none">
	<g display="inline">
		<path fill="#8DC21F" d="M6,0h17c3.313,0,6,2.687,6,6v17c0,3.313-2.688,6-6,6H6c-3.313,0-6-2.688-6-6V6C0,2.687,2.687,0,6,0z"/>
		<g transform="translate(6.000000, 5.000000)">
			<g>
				<path fill="none" stroke="#FFFFFF" d="M0.5,6h16v6.456V19h-16V6z"/>
				<path fill="#FFFFFF" d="M17,1.433h-4.25v2.149h-0.709V1.433H4.958v2.149H4.25V1.433H0v3.581h17V1.433z"/>
				<rect x="4.25" fill="#FFFFFF" width="0.708" height="1.433"/>
				<rect x="12.041" fill="#FFFFFF" width="0.709" height="1.433"/>
			</g>
			<rect x="9" y="11" fill="#FFFFFF" width="5" height="5"/>
		</g>
	</g>
</g>
<g display="none">
	<g display="inline">
		<path fill="#009FE8" d="M6,0h17c3.313,0,6,2.687,6,6v17c0,3.313-2.688,6-6,6H6c-3.313,0-6-2.688-6-6V6C0,2.687,2.687,0,6,0z"/>
		<g transform="translate(6.000000, 5.000000)">
			<g>
				<path fill="none" stroke="#FFFFFF" d="M0.5,6h16v6.456V19h-16V6z"/>
				<path fill="#FFFFFF" d="M17,1.433h-4.25v2.149h-0.709V1.433H4.958v2.149H4.25V1.433H0v3.581h17V1.433z"/>
				<rect x="4.25" fill="#FFFFFF" width="0.708" height="1.433"/>
				<rect x="12.041" fill="#FFFFFF" width="0.709" height="1.433"/>
			</g>
			<rect x="9" y="11" fill="#FFFFFF" width="5" height="5"/>
		</g>
	</g>
</g>
<g display="none">
	<g display="inline">
		<path fill="#D2A2F1" d="M6.04-0.078h17c3.313,0,6,2.687,6,6v17c0,3.313-2.687,6-6,6h-17c-3.313,0-6-2.688-6-6v-17
			C0.04,2.608,2.727-0.078,6.04-0.078z"/>
		<g transform="translate(6.000000, 6.000000)">
			<path fill="#FFFFFF" d="M16.266,12.227c-0.703-0.723-2.701-2.076-4.013-2.076c-0.303,0-0.567,0.068-0.785,0.207
				c-0.641,0.41-1.149,0.729-1.396,0.729c-0.135,0-0.279-0.12-0.598-0.396l-0.054-0.047C8.54,9.877,8.352,9.68,8.01,9.322
				L7.924,9.23C7.861,9.168,7.808,9.109,7.755,9.059C7.457,8.75,7.24,8.528,6.474,7.661L6.44,7.623
				C6.074,7.208,5.833,6.938,5.819,6.741C5.805,6.548,5.973,6.235,6.402,5.653c0.52-0.703,0.54-1.57,0.063-2.577
				C6.085,2.282,5.464,1.52,4.914,0.851L4.866,0.793C4.394,0.216,3.845-0.073,3.233-0.073c-0.679,0-1.243,0.366-1.541,0.559
				C1.668,0.5,1.644,0.519,1.62,0.534C0.95,0.957,0.464,1.54,0.281,2.132c-0.274,0.891-0.458,2.047,0.857,4.45
				c1.136,2.081,2.167,3.477,3.804,5.158c1.542,1.578,2.225,2.09,3.756,3.197c1.704,1.231,3.342,1.94,4.489,1.94
				c1.063,0,1.901,0,3.097-1.44C17.536,13.926,17.018,13.002,16.266,12.227L16.266,12.227z"/>
		</g>
	</g>
</g>
<path display="none" fill="#E95513" d="M6,0h17c3.313,0,6,2.687,6,6v17c0,3.313-2.688,6-6,6H6c-3.313,0-6-2.688-6-6V6
	C0,2.687,2.687,0,6,0z"/>
<path display="none" fill="#FFFFFF" d="M21.932,19.02c0.008-0.17-0.045-0.343-0.173-0.467l-3.471-3.474l0.229-0.237l0.014-0.007
	c0.492-0.496,0.738-1.139,0.738-1.785c0-0.635-0.236-1.268-0.701-1.749l-0.037-0.034L14.819,7.55
	c-0.489-0.491-1.132-0.735-1.784-0.735c-0.629,0-1.263,0.231-1.75,0.702L11.25,7.549l-3.707,3.717h-0.01
	c-0.488,0.488-0.735,1.135-0.735,1.783c0,0.646,0.248,1.297,0.735,1.785h0.01l3.707,3.709c0.488,0.49,1.136,0.743,1.785,0.743
	c0.641,0,1.288-0.248,1.777-0.731l0.007-0.012v-0.006l0.25-0.242l3.443,3.443c0.107,0.123,0.266,0.197,0.446,0.197h2.396
	c0.313,0,0.578-0.254,0.578-0.578V19.02L21.932,19.02z M14.002,17.725L14.002,17.725c-0.265,0.258-0.611,0.396-0.967,0.396
	c-0.351,0-0.703-0.139-0.961-0.396L8.36,14.008l0,0c-0.269-0.265-0.397-0.61-0.397-0.958c0-0.349,0.128-0.702,0.397-0.966l0,0
	l3.713-3.716l0.016-0.018c0.259-0.248,0.607-0.38,0.945-0.38c0.356,0,0.703,0.142,0.967,0.397h-0.008l3.712,3.716l0.025,0.021
	c0.252,0.26,0.369,0.603,0.369,0.945c0,0.348-0.127,0.702-0.396,0.958l-0.244,0.254l-1.428-1.434l-0.019-0.013
	c-0.222-0.227-0.595-0.227-0.816,0l-2.388,2.393c-0.236,0.229-0.236,0.595,0,0.825l0.024,0.028l1.41,1.412L14.002,17.725
	L14.002,17.725z M20.77,20.286L20.77,20.286l-4.199-4.201c-0.137-0.135-0.354-0.135-0.494,0c-0.139,0.138-0.139,0.358,0,0.495
	l4.195,4.202h-1.082l-5.149-5.155l1.571-1.578l5.158,5.163V20.286L20.77,20.286z M12.92,12.927L12.92,12.927
	c0.305-0.314,0.47-0.724,0.47-1.133c0-0.408-0.166-0.816-0.47-1.13h-0.01c-0.305-0.315-0.718-0.467-1.127-0.471
	c-0.408,0-0.821,0.156-1.126,0.471c-0.314,0.314-0.476,0.722-0.476,1.13l0,0c0,0.401,0.154,0.801,0.449,1.112l0.027,0.021
	c0.305,0.314,0.719,0.471,1.126,0.471c0.405,0,0.822-0.156,1.127-0.471H12.92L12.92,12.927z M12.423,12.429L12.423,12.429
	L12.423,12.429c-0.173,0.179-0.403,0.265-0.64,0.265c-0.227,0-0.459-0.086-0.639-0.265l-0.016-0.011
	c-0.166-0.169-0.254-0.4-0.254-0.625c0-0.229,0.095-0.462,0.27-0.636c0.173-0.174,0.412-0.268,0.639-0.268l0,0
	c0.229,0,0.467,0.088,0.64,0.268c0.173,0.173,0.261,0.406,0.261,0.636C12.684,12.025,12.596,12.256,12.423,12.429L12.423,12.429z"/>
<path display="none" fill="#FFFFFF" d="M21.543,10.972l-4.382-4.387l-0.007-0.007c-0.221-0.215-0.569-0.215-0.783,0l-8.795,8.795
	l-0.02,0.021l0,0l-0.008,0.008l0,0L7.54,15.41v0.008l-0.007,0.006v0.004l-0.008,0.006v0.004l-0.007,0.004l-0.009,0.013v0.004
	l-0.008,0.008H7.499l-0.003,0.009L7.49,15.48v0.008l-0.009,0.01v0.006H7.476v0.008L7.471,15.52l-0.004,0.006v0.009l-0.004,0.002
	v0.004v0.008l-0.006,0.009v0.004v0.006l-0.009,0.01v0.008v0.008L7.44,15.6l0,0v0.008v0.007L7.432,15.62v0.008v0.004v0.011v0.006
	l-0.008,0.008l0,0v0.01v0.006v0.008v0.008v0.006v0.013v0.006v0.004l-0.008,0.009v0.004v0.01l0,0v4.422
	c0,0.313,0.247,0.555,0.55,0.555h4.414h0.017h0.005l0.017-0.004h0.011l0.009-0.004h0.015l0.02-0.004l0.007-0.004h0.017l0.015-0.004
	l0.008-0.006l0.024-0.006l0.03-0.009l0.008-0.008h0.016l0.006-0.008l0.011-0.007l0.014-0.01l0.009-0.008l0.013-0.008l0.017-0.008
	l0.005-0.004l0.017-0.008l0.008-0.006l0.011-0.013l0.008-0.008l0.013-0.011l0.01-0.006l0.014-0.01l8.789-8.8
	C21.766,11.532,21.766,11.189,21.543,10.972L21.543,10.972z M16.76,7.745L16.76,7.745l0.654,0.654l-8.009,8.027l-0.662-0.664
	L16.76,7.745L16.76,7.745z M8.516,19.609L8.516,19.609v-2.521l2.517,2.521H8.516L8.516,19.609z M9.866,16.887L9.866,16.887
	l8.018-8.018l1.378,1.377l-8.028,8.016L9.866,16.887L9.866,16.887z M12.363,19.383L12.363,19.383l-0.659-0.658l8.019-8.018
	l0.662,0.663L12.363,19.383L12.363,19.383z"/>
<g display="none">
	<path display="inline" fill="#F29600" d="M6,0h17c3.313,0,6,2.687,6,6v17c0,3.313-2.688,6-6,6H6c-3.313,0-6-2.688-6-6V6
		C0,2.687,2.687,0,6,0z"/>
	<path display="inline" fill="#FFFFFF" d="M6.796,7.235h0.019h15.383c0.354,0,0.643,0.283,0.643,0.636v0.021v15.383
		c0,0.354-0.286,0.637-0.643,0.637H22.18H6.796c-0.349,0-0.636-0.283-0.636-0.637v-0.021V7.871C6.16,7.518,6.447,7.235,6.796,7.235
		L6.796,7.235z M14.867,13.602L14.867,13.602l0.833,2.596l2.722-0.009c0.377,0,0.52,0.479,0.229,0.689v0.004l-2.205,1.6l0.843,2.576
		c0.123,0.387-0.328,0.656-0.613,0.418L14.5,19.895l-2.203,1.6c-0.302,0.222-0.698-0.077-0.587-0.436h-0.006l0.853-2.576l-2.209-1.6
		c-0.309-0.227-0.119-0.71,0.25-0.693l2.699,0.009l0.837-2.596C14.251,13.253,14.749,13.261,14.867,13.602L14.867,13.602z
		 M15.063,16.689L15.063,16.689l-0.563-1.717l-0.556,1.717c-0.049,0.164-0.191,0.275-0.37,0.275h-1.805l1.45,1.046h0.006h0.004
		c0.131,0.099,0.195,0.278,0.15,0.435l-0.575,1.728l1.467-1.069h0.01c0.127-0.09,0.308-0.09,0.445,0l1.464,1.069l-0.564-1.728
		c-0.045-0.146,0-0.323,0.139-0.418l1.473-1.063h-1.793C15.271,16.971,15.107,16.863,15.063,16.689L15.063,16.689z M7.438,11.493
		L7.438,11.493h14.125V8.507h-1.266v0.964c0,0.349-0.291,0.644-0.643,0.644c-0.35,0-0.643-0.295-0.643-0.644V8.507h-2.156v0.964
		c0,0.349-0.281,0.644-0.638,0.644c-0.354,0-0.638-0.295-0.638-0.644V8.507h-2.158v0.964c0,0.349-0.292,0.644-0.642,0.644
		c-0.349,0-0.642-0.295-0.642-0.644V8.507H9.983v0.964c0,0.349-0.283,0.644-0.638,0.644S8.707,9.82,8.707,9.471V8.507h-1.27
		L7.438,11.493L7.438,11.493z M21.563,12.26L21.563,12.26H7.438v10.375h14.125V12.26L21.563,12.26z"/>
</g>
<g display="none">
	<path display="inline" fill="#E6454A" d="M6,0h17c3.313,0,6,2.687,6,6v17c0,3.313-2.688,6-6,6H6c-3.313,0-6-2.688-6-6V6
		C0,2.687,2.687,0,6,0z"/>
	<path display="inline" fill="#FFFFFF" d="M22.039,10.873c-0.078-0.593-0.189-1.161-0.334-1.721
		c-0.057-0.294-0.309-0.519-0.629-0.519H7.92l0,0c-0.276,0-0.54,0.192-0.611,0.474c-0.155,0.56-0.272,1.165-0.346,1.766
		c-0.082,0.613-0.123,1.226-0.123,1.819c0,2.666,0.744,5.139,2.009,7.203c1.306,2.125,3.184,3.81,5.388,4.795
		c0.163,0.078,0.353,0.086,0.521,0c2.209-0.985,4.086-2.67,5.393-4.795c1.267-2.063,2.007-4.529,2.007-7.203
		C22.158,12.099,22.121,11.485,22.039,10.873L22.039,10.873z M19.064,19.225L19.064,19.225c-1.121,1.83-2.703,3.285-4.563,4.193
		c-1.86-0.908-3.442-2.363-4.562-4.193C8.79,17.359,8.12,15.111,8.12,12.692c0-0.568,0.037-1.12,0.104-1.647
		c0.056-0.388,0.119-0.765,0.201-1.132h12.153c0.082,0.368,0.154,0.744,0.199,1.132c0.063,0.527,0.102,1.079,0.102,1.647
		C20.879,15.111,20.213,17.359,19.064,19.225L19.064,19.225z M17.992,13.538L17.992,13.538c-0.242,0-0.461,0.085-0.645,0.216
		l-0.019,0.013c-0.08,0.065-0.156,0.143-0.218,0.233l-1.151-0.278l-0.614-1.009c0.026-0.037,0.053-0.078,0.081-0.123v-0.004
		c0.091-0.151,0.136-0.331,0.136-0.523c0-0.282-0.123-0.551-0.31-0.752l0,0c-0.198-0.18-0.462-0.298-0.752-0.298
		c-0.291,0-0.554,0.118-0.744,0.298H13.75c-0.192,0.201-0.309,0.47-0.309,0.752c0,0.192,0.045,0.372,0.131,0.523l0.004,0.004
		c0.022,0.045,0.055,0.086,0.082,0.123l-0.622,1.009L11.89,14c-0.063-0.09-0.137-0.167-0.218-0.233
		c-0.183-0.135-0.407-0.229-0.652-0.229c-0.291,0-0.562,0.118-0.754,0.311c-0.19,0.2-0.307,0.458-0.307,0.752
		s0.116,0.564,0.307,0.756c0.192,0.188,0.464,0.307,0.754,0.307c0.116,0,0.235-0.023,0.345-0.059h0.008l0.762,0.896l-0.096,1.182
		c-0.168,0.049-0.321,0.144-0.439,0.266l0,0c-0.196,0.195-0.317,0.462-0.317,0.748c0,0.597,0.48,1.07,1.061,1.07
		c0.589,0,1.071-0.475,1.071-1.07v-0.021l1.087-0.449l1.098,0.449v0.021c0,0.597,0.471,1.07,1.062,1.07
		c0.28,0,0.543-0.119,0.735-0.303v-0.004l0.008-0.004l0.005-0.008c0.188-0.193,0.309-0.454,0.309-0.754
		c0-0.285-0.118-0.551-0.309-0.747h-0.005c-0.116-0.122-0.271-0.218-0.444-0.267l-0.09-1.181l0.771-0.896
		c0.11,0.033,0.227,0.058,0.354,0.058c0.287,0,0.555-0.118,0.746-0.306c0.193-0.192,0.316-0.463,0.316-0.757
		c0-0.295-0.123-0.552-0.316-0.752C18.547,13.656,18.279,13.538,17.992,13.538L17.992,13.538z M11.209,14.83L11.209,14.83
		c-0.027,0.02-0.055,0.04-0.09,0.049l0,0c-0.037,0.008-0.063,0.016-0.1,0.016c-0.092,0-0.164-0.032-0.208-0.086
		c-0.059-0.053-0.092-0.135-0.092-0.208c0-0.086,0.033-0.156,0.092-0.208c0.045-0.054,0.117-0.086,0.208-0.086
		c0.063,0,0.135,0.025,0.182,0.062c0.053,0.041,0.09,0.098,0.104,0.159c0.022,0.094,0.067,0.155,0.13,0.208
		C11.354,14.743,11.272,14.772,11.209,14.83L11.209,14.83z M14.293,11.854L14.293,11.854L14.293,11.854
		c0.049-0.049,0.127-0.082,0.209-0.082s0.159,0.033,0.208,0.082c0.055,0.062,0.086,0.134,0.086,0.208
		c0,0.062-0.015,0.106-0.037,0.156c-0.022,0.041-0.057,0.073-0.102,0.106c-0.074,0.041-0.119,0.11-0.155,0.184
		c-0.027-0.074-0.082-0.143-0.156-0.184l-0.016-0.008c-0.037-0.037-0.063-0.065-0.092-0.098c-0.022-0.049-0.027-0.094-0.027-0.156
		C14.211,11.988,14.238,11.915,14.293,11.854L14.293,11.854z M12.56,18.908L12.56,18.908L12.56,18.908
		c-0.057,0.059-0.135,0.087-0.217,0.087c-0.082,0-0.155-0.028-0.208-0.087c-0.047-0.053-0.086-0.131-0.086-0.213
		c0-0.076,0.039-0.15,0.086-0.211c0.053-0.049,0.127-0.074,0.208-0.074h0.045c0.082,0,0.153-0.025,0.217-0.064
		c-0.022,0.086-0.016,0.166,0.014,0.24v0.004c0.015,0.014,0.015,0.029,0.023,0.051c0,0.01,0,0.035,0,0.057
		C12.642,18.777,12.611,18.855,12.56,18.908L12.56,18.908z M16.951,18.695L16.951,18.695c0,0.082-0.027,0.16-0.082,0.213h-0.004
		c-0.051,0.059-0.127,0.087-0.205,0.087c-0.082,0-0.164-0.028-0.209-0.087h-0.008c-0.055-0.053-0.082-0.131-0.082-0.213
		c0-0.016,0-0.035,0-0.057c0.008-0.021,0.02-0.037,0.02-0.054c0.029-0.074,0.033-0.155,0.018-0.241
		c0.062,0.04,0.144,0.065,0.234,0.065h0.027c0.078,0,0.154,0.024,0.205,0.073C16.924,18.545,16.951,18.619,16.951,18.695
		L16.951,18.695z M17.258,14.87L17.258,14.87l-1.074,1.255c-0.065,0.082-0.096,0.184-0.09,0.277l0.131,1.647
		c0,0.024,0,0.046,0.01,0.064c-0.018-0.009-0.041-0.021-0.059-0.021l-1.529-0.639c-0.1-0.036-0.204-0.036-0.29,0l-1.529,0.639
		c-0.019,0-0.041,0.012-0.059,0.021c0.01-0.021,0.01-0.04,0.01-0.064h0.008l0.119-1.647c0.008-0.109-0.029-0.209-0.101-0.285
		l-1.061-1.248c-0.015-0.02-0.027-0.033-0.045-0.04c0.023,0,0.042-0.009,0.063-0.021l1.609-0.384c0.1-0.02,0.186-0.086,0.241-0.176
		l0.862-1.398c0.008-0.029,0.019-0.041,0.027-0.057c0.008,0.017,0.018,0.028,0.037,0.057h-0.01l0.871,1.398
		c0.055,0.098,0.156,0.167,0.26,0.184l1.582,0.376c0.018,0.012,0.041,0.021,0.063,0.021C17.287,14.837,17.27,14.85,17.258,14.87
		L17.258,14.87z M18.201,14.809L18.201,14.809c-0.057,0.054-0.127,0.086-0.209,0.086c-0.045,0-0.076-0.008-0.107-0.016
		c-0.027-0.009-0.064-0.029-0.09-0.049c-0.064-0.058-0.146-0.086-0.219-0.094c0.055-0.053,0.109-0.115,0.121-0.2v-0.017
		c0.016-0.061,0.061-0.11,0.104-0.151l0.011-0.013c0.045-0.029,0.108-0.049,0.18-0.049c0.082,0,0.152,0.033,0.209,0.086
		c0.051,0.053,0.084,0.123,0.084,0.208C18.285,14.674,18.252,14.756,18.201,14.809L18.201,14.809z"/>
</g>
<g display="none">
	<g display="inline">
		<path fill="#52A6EB" d="M6,0h17c3.313,0,6,2.687,6,6v17c0,3.313-2.688,6-6,6H6c-3.313,0-6-2.688-6-6V6C0,2.687,2.687,0,6,0z"/>
		<g transform="translate(6.000000, 5.000000)">
			<g>
				<path fill="none" stroke="#FFFFFF" d="M0.5,6h16v6.456V19h-16V6z"/>
				<path fill="#FFFFFF" d="M17,1.433h-4.25v2.149h-0.709V1.433H4.958v2.149H4.25V1.433H0v3.581h17V1.433z"/>
				<rect x="4.25" fill="#FFFFFF" width="0.708" height="1.433"/>
				<rect x="12.041" fill="#FFFFFF" width="0.709" height="1.433"/>
			</g>
			<rect x="9" y="11" fill="#FFFFFF" width="5" height="5"/>
		</g>
	</g>
</g>
<g display="none">
	<g display="inline">
		<path fill="#009FE8" d="M6,0h17c3.313,0,6,2.687,6,6v17c0,3.313-2.688,6-6,6H6c-3.313,0-6-2.688-6-6V6C0,2.687,2.687,0,6,0z"/>
		<g transform="translate(6.000000, 5.000000)">
			<g>
				<path fill="none" stroke="#FFFFFF" d="M0.5,6h16v6.456V19h-16V6z"/>
				<path fill="#FFFFFF" d="M17,1.433h-4.25v2.149h-0.709V1.433H4.958v2.149H4.25V1.433H0v3.581h17V1.433z"/>
				<rect x="4.25" fill="#FFFFFF" width="0.708" height="1.433"/>
				<rect x="12.041" fill="#FFFFFF" width="0.709" height="1.433"/>
			</g>
			<rect x="9" y="11" fill="#FFFFFF" width="5" height="5"/>
		</g>
	</g>
</g>
<g display="none">
	<path display="inline" fill="#F29600" d="M6,0h17c3.313,0,6,2.687,6,6v17c0,3.313-2.688,6-6,6H6c-3.313,0-6-2.688-6-6V6
		C0,2.687,2.687,0,6,0z"/>
	<path display="inline" fill="#FFFFFF" d="M22.044,6.615H7.956c-0.325,0-0.592,0.263-0.592,0.589v14.092
		c0,0.323,0.267,0.586,0.592,0.586h14.088c0.325,0,0.593-0.263,0.593-0.586V7.204C22.637,6.877,22.369,6.615,22.044,6.615
		L22.044,6.615z M11.266,20.708L11.266,20.708H8.54v-1.149h0.875c0.325,0,0.588-0.269,0.588-0.593c0-0.325-0.263-0.588-0.588-0.588
		H8.54v-1.967h0.875c0.325,0,0.588-0.265,0.588-0.593c0-0.321-0.263-0.588-0.588-0.588H8.54v-1.966h0.875
		c0.325,0,0.588-0.263,0.588-0.588c0-0.321-0.263-0.588-0.588-0.588H8.54v-1.967h0.875c0.325,0,0.588-0.259,0.588-0.592
		c0-0.321-0.263-0.584-0.588-0.584H8.54V7.791h2.726V20.708L11.266,20.708z M21.46,20.708L21.46,20.708h-9.494V7.791h9.494V20.708
		L21.46,20.708z M14.313,17.665L14.313,17.665h4.796c0.195,0,0.359-0.163,0.359-0.358V16.79c0-0.25-0.055-0.496-0.15-0.718
		c-0.096-0.225-0.231-0.441-0.408-0.608c-0.165-0.175-0.385-0.315-0.612-0.407l-0.083-0.037l0.063-0.055
		c0.393-0.393,0.639-0.951,0.639-1.559c0-0.605-0.246-1.159-0.639-1.55c-0.399-0.4-0.957-0.65-1.566-0.65
		c-0.607,0-1.158,0.25-1.551,0.65c-0.4,0.391-0.65,0.945-0.65,1.55c0,0.608,0.25,1.167,0.65,1.559l0.051,0.055
		c-0.267,0.096-0.5,0.246-0.697,0.444c-0.171,0.167-0.312,0.386-0.408,0.608c-0.092,0.222-0.146,0.468-0.146,0.718v0.517
		C13.958,17.502,14.117,17.665,14.313,17.665L14.313,17.665z M15.65,12.348L15.65,12.348c0.27-0.272,0.648-0.438,1.059-0.438
		c0.418,0,0.793,0.166,1.066,0.438c0.268,0.271,0.436,0.644,0.436,1.058c0,0.417-0.168,0.792-0.436,1.067
		c-0.271,0.259-0.633,0.43-1.041,0.434h-0.043c-0.406-0.003-0.775-0.174-1.041-0.434c-0.269-0.274-0.438-0.65-0.438-1.067
		C15.213,12.992,15.383,12.618,15.65,12.348L15.65,12.348z M14.667,16.79L14.667,16.79c0-0.158,0.028-0.313,0.09-0.44
		c0.051-0.15,0.143-0.276,0.257-0.394c0.207-0.209,0.506-0.347,0.838-0.347h1.732c0.157,0,0.309,0.037,0.45,0.093
		c0.141,0.063,0.268,0.146,0.378,0.254c0.107,0.116,0.197,0.242,0.255,0.394c0.06,0.127,0.093,0.282,0.093,0.44v0.167h-4.093V16.79
		L14.667,16.79z"/>
</g>
<path fill="#E6454A" d="M6,0h17c3.313,0,6,2.687,6,6v17c0,3.313-2.688,6-6,6H6c-3.313,0-6-2.687-6-6V6C0,2.687,2.687,0,6,0z"/>
<path fill="#FFFFFF" d="M12.111,21.879c-1.237-0.969-2.215-2.316-2.722-3.811C9.34,18.09,9.3,18.09,9.251,18.09
	c-0.92,0-1.343-1.059-1.343-1.822c0-0.504,0.16-1.051,0.502-1.419c-0.009-0.036-0.013-0.067-0.009-0.106l-0.004-1.82l-2.78-1.067
	v1.534c0.529,0.169,0.898,0.685,0.898,1.237c0,0.338-0.125,0.65-0.324,0.876l0.755,1.32c0.112,0.201,0.045,0.459-0.142,0.574
	c-0.209,0.111-0.463,0.035-0.579-0.164l-0.609-1.037v1.215c0,0.227-0.191,0.41-0.417,0.41c-0.228,0-0.418-0.184-0.418-0.41v-1.215
	l-0.605,1.037c-0.107,0.199-0.365,0.275-0.56,0.164c-0.209-0.115-0.267-0.373-0.161-0.574l0.756-1.32
	c-0.2-0.227-0.329-0.539-0.329-0.876c0-0.552,0.369-1.067,0.898-1.237v-1.876c-0.241-0.182-0.338-0.498-0.227-0.805
	c0.063-0.178,0.205-0.316,0.369-0.391h0.009l9.851-4.252c0.089-0.036,0.183-0.054,0.271-0.054c0.094,0,0.183,0.018,0.275,0.054
	l9.843,4.252c0.169,0.075,0.312,0.213,0.373,0.391c0.143,0.36-0.03,0.77-0.387,0.898l-3.455,1.316v1.82c0,0.039,0,0.07-0.009,0.106
	c0.355,0.369,0.502,0.916,0.502,1.419c0,0.764-0.423,1.822-1.343,1.822c-0.049,0-0.089,0-0.138-0.021
	c-0.512,1.494-1.49,2.842-2.718,3.811C16.108,23.359,13.997,23.359,12.111,21.879L12.111,21.879z M4.857,14.287L4.857,14.287v0.015
	c-0.089,0.07-0.143,0.196-0.143,0.324c0,0.275,0.213,0.47,0.476,0.486h0.004H5.2h0.008c0.263-0.016,0.476-0.21,0.476-0.486
	c0-0.128-0.054-0.254-0.138-0.324l-0.005-0.015C5.365,14.11,5.04,14.11,4.857,14.287L4.857,14.287z M15.055,7.461L15.055,7.461
	l-8.013,3.46l1.983,0.751v-0.315c0-0.574,0.748-1.037,1.966-1.313c2.535-0.569,5.604-0.569,8.13,0
	c1.209,0.276,1.961,0.739,1.961,1.313v0.315l1.979-0.751L15.055,7.461L15.055,7.461z M11.186,10.845L11.186,10.845
	c-0.818,0.191-1.325,0.387-1.325,0.512V13.5c0.285-0.093,0.604-0.183,0.947-0.245c2.682-0.561,5.813-0.561,8.485,0
	c0.352,0.062,0.672,0.151,0.957,0.245v-2.144c0-0.125-0.503-0.321-1.321-0.512C16.527,10.307,13.579,10.307,11.186,10.845
	L11.186,10.845z M11.088,14.608L11.088,14.608c-0.987,0.2-2.344,0.383-2.344,1.66c0,0.24,0.116,0.982,0.507,0.982
	c0.027,0,0.054-0.01,0.071-0.018c0.031,0,0.057-0.01,0.076-0.027c0.035-0.027,0.089-0.053,0.138-0.063
	c0.227-0.076,0.454,0.059,0.516,0.281c0.432,1.494,1.353,2.842,2.571,3.797c1.578,1.25,3.291,1.25,4.865,0
	c1.21-0.955,2.14-2.303,2.571-3.797c0.058-0.223,0.289-0.357,0.507-0.281c0.063,0.01,0.103,0.035,0.146,0.063
	c0.026,0.018,0.044,0.027,0.066,0.027c0.022,0.008,0.049,0.018,0.076,0.018c0.387,0,0.516-0.742,0.516-0.982
	c0-1.277-1.37-1.459-2.353-1.66C16.527,14.096,13.579,14.096,11.088,14.608L11.088,14.608z"/>
</svg>
