<?xml version="1.0" encoding="utf-8"?>
<!-- Generator: Adobe Illustrator 16.0.0, SVG Export Plug-In . SVG Version: 6.00 Build 0)  -->
<!DOCTYPE svg PUBLIC "-//W3C//DTD SVG 1.1//EN" "http://www.w3.org/Graphics/SVG/1.1/DTD/svg11.dtd">
<svg version="1.1" id="图层_1" xmlns="http://www.w3.org/2000/svg" xmlns:xlink="http://www.w3.org/1999/xlink" x="0px" y="0px"
	 width="40px" height="40px" viewBox="0 0 40 40" enable-background="new 0 0 40 40" xml:space="preserve">
<path display="none" fill="#D94649" d="M29.229,28.732H12.171c-0.489,0-0.883,0.39-0.883,0.896s0.394,0.917,0.883,0.917h17.059
	c0.489,0,0.896-0.41,0.896-0.917S29.719,28.732,29.229,28.732L29.229,28.732z M11.288,16.782L11.288,16.782
	c0,0.497,0.394,0.906,0.883,0.906h17.059c0.489,0,0.896-0.409,0.896-0.906s-0.407-0.916-0.896-0.916H12.171
	C11.682,15.866,11.288,16.285,11.288,16.782L11.288,16.782z M36.968,11.717L36.968,11.717L26.352,0.702
	c-0.268-0.283-0.635-0.439-1.042-0.439H7.921c-1.075,0-2.052,0.458-2.771,1.198C4.441,2.172,3.991,3.185,3.991,4.334v31.42
	c0,1.12,0.45,2.153,1.159,2.884H5.16c0.709,0.74,1.687,1.198,2.761,1.198H33.47c1.07,0,2.029-0.438,2.728-1.159l0.053-0.049
	c0.699-0.721,1.145-1.763,1.145-2.874V12.779C37.395,12.391,37.25,12.009,36.968,11.717L36.968,11.717z M26.197,4.851L26.197,4.851
	l6.77,7.023H27.77c-0.438,0-0.823-0.185-1.104-0.487l-0.041-0.029c-0.251-0.302-0.428-0.701-0.428-1.12V4.851L26.197,4.851z
	 M34.456,35.755L34.456,35.755c0,0.283-0.103,0.526-0.277,0.741l0,0c-0.178,0.165-0.428,0.283-0.709,0.283H7.921
	c-0.263,0-0.512-0.118-0.7-0.283h0.024c-0.188-0.215-0.305-0.458-0.305-0.741V4.334c0-0.282,0.118-0.546,0.305-0.73
	c0.165-0.185,0.414-0.292,0.676-0.292h16.505v6.925c0,0.916,0.366,1.772,0.948,2.396l0.042,0.049
	c0.602,0.622,1.457,1.022,2.354,1.022h6.687V35.755L34.456,35.755z M29.229,22.286L29.229,22.286H12.171
	c-0.489,0-0.883,0.418-0.883,0.935c0,0.478,0.394,0.895,0.883,0.895h17.059c0.489,0,0.896-0.417,0.896-0.895
	C30.126,22.704,29.719,22.286,29.229,22.286L29.229,22.286z"/>
<path fill="#8FC31F" d="M1.671,6.106h0.02h36.7c0.843,0,1.54,0.685,1.54,1.518v0.048v27.948c0,0.872-0.697,1.537-1.54,1.537h-0.048
	H1.671c-0.852,0-1.549-0.665-1.549-1.537v-0.027V7.624C0.122,6.791,0.819,6.106,1.671,6.106L1.671,6.106z M36.863,10.492
	L36.863,10.492L20.677,26.679c-0.371,0.343-0.94,0.343-1.302,0L3.188,10.492v23.629h33.675V10.492L36.863,10.492z M35.604,9.16
	L35.604,9.16H4.451l15.571,15.582L35.604,9.16L35.604,9.16z"/>
</svg>
