<?xml version="1.0" encoding="utf-8"?>
<!-- Generator: Adobe Illustrator 16.0.0, SVG Export Plug-In . SVG Version: 6.00 Build 0)  -->
<!DOCTYPE svg PUBLIC "-//W3C//DTD SVG 1.1//EN" "http://www.w3.org/Graphics/SVG/1.1/DTD/svg11.dtd">
<svg version="1.1" id="图层_1" xmlns="http://www.w3.org/2000/svg" xmlns:xlink="http://www.w3.org/1999/xlink" x="0px" y="0px"
	 width="40px" height="40px" viewBox="0 0 40 40" enable-background="new 0 0 40 40" xml:space="preserve">
<path fill="#F39800" d="M29.229,28.732H12.171c-0.489,0-0.883,0.39-0.883,0.896s0.394,0.917,0.883,0.917h17.059
	c0.489,0,0.896-0.41,0.896-0.917S29.719,28.732,29.229,28.732L29.229,28.732z M11.288,16.782L11.288,16.782
	c0,0.497,0.394,0.906,0.883,0.906h17.059c0.489,0,0.896-0.409,0.896-0.906s-0.407-0.916-0.896-0.916H12.171
	C11.682,15.866,11.288,16.285,11.288,16.782L11.288,16.782z M36.968,11.717L36.968,11.717L26.352,0.702
	c-0.268-0.283-0.635-0.439-1.042-0.439H7.921c-1.075,0-2.052,0.458-2.771,1.198C4.441,2.172,3.991,3.185,3.991,4.334v31.42
	c0,1.12,0.45,2.153,1.159,2.884H5.16c0.709,0.74,1.687,1.198,2.761,1.198H33.47c1.07,0,2.029-0.438,2.728-1.159l0.053-0.049
	c0.699-0.721,1.145-1.763,1.145-2.874V12.779C37.395,12.391,37.25,12.009,36.968,11.717L36.968,11.717z M26.197,4.851L26.197,4.851
	l6.77,7.023H27.77c-0.438,0-0.823-0.185-1.104-0.487l-0.041-0.029c-0.251-0.302-0.428-0.701-0.428-1.12V4.851L26.197,4.851z
	 M34.456,35.755L34.456,35.755c0,0.283-0.103,0.526-0.277,0.741l0,0c-0.178,0.165-0.428,0.283-0.709,0.283H7.921
	c-0.263,0-0.512-0.118-0.7-0.283h0.024c-0.188-0.215-0.305-0.458-0.305-0.741V4.334c0-0.282,0.118-0.546,0.305-0.73
	c0.165-0.185,0.414-0.292,0.676-0.292h16.505v6.925c0,0.916,0.366,1.772,0.948,2.396l0.042,0.049
	c0.602,0.622,1.457,1.022,2.354,1.022h6.687V35.755L34.456,35.755z M29.229,22.286L29.229,22.286H12.171
	c-0.489,0-0.883,0.418-0.883,0.935c0,0.478,0.394,0.895,0.883,0.895h17.059c0.489,0,0.896-0.417,0.896-0.895
	C30.126,22.704,29.719,22.286,29.229,22.286L29.229,22.286z"/>
<path display="none" fill="#00A0E9" d="M19.823,5.628c4.269,0,7.944,3.135,8.593,7.354c0.644-0.211,1.332-0.326,2.052-0.326
	c1.898,0,3.633,0.782,4.891,2.044c1.255,1.23,2.031,2.965,2.031,4.887c0,1.84-0.724,3.486-1.882,4.725l1.664,1.651
	c0.724,0.717,1.273,1.549,1.636,2.436c0.391,0.904,0.57,1.866,0.57,2.899v2.069c0,0.521-0.163,1.107-0.488,1.538
	c-0.327,0.481-0.831,0.831-1.483,0.896c-0.044,0.009-0.098,0.009-0.141,0.009h-1.592v0.578c0,0.684-0.559,1.245-1.268,1.245H19.823
	H5.267c-0.712,0-1.299-0.536-1.299-1.245v-0.578H2.376c-0.045,0-0.098,0-0.151-0.009c-0.644-0.065-1.141-0.415-1.482-0.896
	c-0.31-0.431-0.48-1.018-0.48-1.538v-2.069c0-1.033,0.191-1.995,0.57-2.899l0,0c0.684-1.669,2.04-2.833,3.29-4.087
	c-1.157-1.238-1.86-2.885-1.86-4.725c0-1.921,0.773-3.657,2.023-4.887c1.262-1.262,2.997-2.044,4.894-2.044
	c0.705,0,1.393,0.115,2.044,0.326C11.872,8.763,15.544,5.628,19.823,5.628L19.823,5.628z M19.823,35.102L19.823,35.102h3.922
	c0-1.913,0-3.836,0-5.75c0-0.415,0.325-0.75,0.75-0.75c0.427,0,0.769,0.335,0.769,0.75v3.363h3.271
	c0.053-0.098,0.072-0.195,0.072-0.309V29.71c0-3.632-2.422-5.317-4.771-7.688c-1.211,0.637-2.574,0.993-4.013,0.993
	c-1.444,0-2.817-0.356-4.01-0.993c-2.366,2.371-4.772,4.057-4.772,7.688v2.696c0,0.113,0.02,0.211,0.057,0.309h3.27v-3.363
	c0-0.415,0.342-0.75,0.778-0.75c0.416,0,0.749,0.335,0.749,0.75c0,1.914,0.008,3.837,0.008,5.75H19.823L19.823,35.102z
	 M19.823,20.475L19.823,20.475c3.364,0,6.166-2.704,6.166-6.165c0-3.396-2.777-6.166-6.166-6.166c-3.396,0-6.168,2.77-6.168,6.166
	C13.655,17.771,16.473,20.475,19.823,20.475L19.823,20.475z M6.525,35.102L6.525,35.102h3.677c-0.459-0.171-0.859-0.488-1.127-0.879
	c-0.383-0.522-0.578-1.19-0.578-1.816V29.71c0-1.132,0.179-2.198,0.541-3.208c-1.022-0.018-1.987-0.261-2.854-0.676
	c-1.05,1.059-2.443,2.142-3.017,3.541l0,0l0,0c-0.236,0.586-0.362,1.229-0.362,1.931v1.972h2.195v-2.24
	c0-0.415,0.354-0.765,0.77-0.765s0.757,0.35,0.757,0.765V35.102L6.525,35.102z M11.24,15.702L11.24,15.702
	c-0.236-0.113-0.489-0.237-0.741-0.301c-0.415-0.13-0.847-0.204-1.319-0.204c-1.209,0-2.292,0.489-3.098,1.286
	c-0.787,0.798-1.283,1.905-1.283,3.103c0,1.223,0.497,2.305,1.283,3.087c0.806,0.806,1.889,1.278,3.098,1.278
	c0.505,0,0.957-0.049,1.409-0.212c0.941-1.147,2.098-2.175,3.147-3.2C12.417,19.204,11.55,17.519,11.24,15.702L11.24,15.702z
	 M33.123,35.102L33.123,35.102v-4.072c0-0.415,0.325-0.765,0.75-0.765c0.427,0,0.77,0.35,0.77,0.765v2.24h2.206v-1.972
	c0-0.701-0.13-1.345-0.373-1.931c-0.233-0.585-0.604-1.132-1.108-1.621l-1.919-1.92c-0.858,0.415-1.824,0.658-2.846,0.676
	c0.369,1.01,0.555,2.076,0.555,3.208v2.696c0,0.626-0.201,1.294-0.578,1.816c-0.289,0.391-0.672,0.708-1.141,0.879H33.123
	L33.123,35.102z M28.408,15.702L28.408,15.702c-0.325,1.938-1.119,3.454-2.513,4.838c1.06,1.025,2.224,2.053,3.156,3.2
	c0.133,0.05,0.407,0.147,0.529,0.147c0.272,0.057,0.562,0.064,0.887,0.064c1.193,0,2.298-0.473,3.092-1.278
	c0.794-0.782,1.282-1.864,1.282-3.087c0-1.198-0.488-2.305-1.282-3.103c-0.794-0.797-1.898-1.286-3.092-1.286
	c-0.477,0-0.92,0.074-1.334,0.204C28.88,15.465,28.635,15.589,28.408,15.702L28.408,15.702z"/>
</svg>
