<?xml version="1.0" encoding="utf-8"?>
<!-- Generator: Adobe Illustrator 16.0.0, SVG Export Plug-In . SVG Version: 6.00 Build 0)  -->
<!DOCTYPE svg PUBLIC "-//W3C//DTD SVG 1.1//EN" "http://www.w3.org/Graphics/SVG/1.1/DTD/svg11.dtd">
<svg version="1.1" id="图层_1" xmlns="http://www.w3.org/2000/svg" xmlns:xlink="http://www.w3.org/1999/xlink" x="0px" y="0px"
	 width="40px" height="40px" viewBox="0 0 40 40" enable-background="new 0 0 40 40" xml:space="preserve">
<path display="none" fill="#00A0E9" d="M19.823,5.628c4.269,0,7.944,3.135,8.593,7.354c0.645-0.211,1.332-0.326,2.052-0.326
	c1.898,0,3.634,0.782,4.892,2.044c1.254,1.23,2.031,2.965,2.031,4.887c0,1.84-0.725,3.486-1.883,4.726l1.664,1.65
	c0.725,0.717,1.273,1.549,1.637,2.436c0.391,0.904,0.569,1.867,0.569,2.899v2.069c0,0.521-0.163,1.107-0.487,1.538
	c-0.328,0.48-0.832,0.831-1.483,0.896c-0.044,0.01-0.099,0.01-0.142,0.01h-1.592v0.578c0,0.684-0.559,1.244-1.268,1.244H19.823
	H5.267c-0.712,0-1.299-0.535-1.299-1.244v-0.578H2.376c-0.045,0-0.098,0-0.151-0.01c-0.644-0.064-1.141-0.415-1.482-0.896
	c-0.31-0.431-0.48-1.019-0.48-1.538v-2.069c0-1.032,0.191-1.995,0.57-2.899l0,0c0.684-1.668,2.04-2.832,3.29-4.086
	c-1.157-1.238-1.86-2.886-1.86-4.726c0-1.921,0.773-3.657,2.023-4.887c1.262-1.262,2.997-2.044,4.894-2.044
	c0.705,0,1.393,0.115,2.044,0.326C11.872,8.763,15.544,5.628,19.823,5.628L19.823,5.628z M19.823,35.102L19.823,35.102h3.922
	c0-1.912,0-3.836,0-5.75c0-0.414,0.325-0.75,0.75-0.75c0.427,0,0.769,0.336,0.769,0.75v3.363h3.271
	c0.053-0.098,0.072-0.195,0.072-0.309V29.71c0-3.632-2.422-5.317-4.771-7.688c-1.211,0.638-2.574,0.994-4.013,0.994
	c-1.444,0-2.817-0.356-4.01-0.994c-2.366,2.371-4.772,4.058-4.772,7.688v2.696c0,0.113,0.02,0.211,0.057,0.309h3.27v-3.363
	c0-0.414,0.342-0.75,0.778-0.75c0.416,0,0.749,0.336,0.749,0.75c0,1.914,0.008,3.838,0.008,5.75H19.823L19.823,35.102z
	 M19.823,20.475L19.823,20.475c3.364,0,6.165-2.704,6.165-6.165c0-3.396-2.776-6.166-6.165-6.166c-3.396,0-6.168,2.77-6.168,6.166
	C13.655,17.771,16.473,20.475,19.823,20.475L19.823,20.475z M6.525,35.102L6.525,35.102h3.677c-0.459-0.17-0.859-0.487-1.127-0.879
	c-0.383-0.521-0.578-1.189-0.578-1.815V29.71c0-1.132,0.179-2.198,0.541-3.208c-1.022-0.018-1.987-0.261-2.854-0.676
	c-1.05,1.059-2.443,2.142-3.017,3.541l0,0l0,0c-0.236,0.586-0.362,1.229-0.362,1.931v1.972H5v-2.24c0-0.414,0.354-0.764,0.77-0.764
	s0.757,0.35,0.757,0.764v4.072H6.525z M11.24,15.702L11.24,15.702c-0.236-0.113-0.489-0.237-0.741-0.301
	c-0.415-0.13-0.847-0.204-1.319-0.204c-1.209,0-2.292,0.489-3.098,1.286c-0.787,0.798-1.283,1.905-1.283,3.103
	c0,1.223,0.497,2.305,1.283,3.087c0.806,0.806,1.889,1.278,3.098,1.278c0.505,0,0.957-0.049,1.409-0.212
	c0.941-1.147,2.098-2.175,3.147-3.2C12.417,19.204,11.55,17.519,11.24,15.702L11.24,15.702z M33.123,35.102L33.123,35.102V31.03
	c0-0.415,0.325-0.765,0.75-0.765c0.427,0,0.77,0.35,0.77,0.765v2.239h2.207v-1.972c0-0.7-0.131-1.345-0.373-1.931
	c-0.233-0.585-0.604-1.133-1.108-1.621l-1.919-1.92c-0.858,0.415-1.824,0.658-2.846,0.676c0.369,1.01,0.555,2.076,0.555,3.208v2.696
	c0,0.626-0.201,1.294-0.578,1.816c-0.289,0.391-0.672,0.707-1.141,0.879H33.123L33.123,35.102z M28.408,15.702L28.408,15.702
	c-0.325,1.938-1.119,3.454-2.514,4.838c1.061,1.024,2.225,2.053,3.156,3.2c0.133,0.05,0.407,0.146,0.529,0.146
	c0.271,0.057,0.563,0.064,0.887,0.064c1.193,0,2.299-0.473,3.092-1.278c0.795-0.782,1.282-1.864,1.282-3.087
	c0-1.198-0.487-2.305-1.282-3.103c-0.793-0.797-1.897-1.286-3.092-1.286c-0.477,0-0.92,0.074-1.334,0.204
	C28.88,15.465,28.635,15.589,28.408,15.702L28.408,15.702z"/>
<path fill-rule="evenodd" clip-rule="evenodd" fill="#E6454A" d="M18.534,23.563c1.57,1.537,3.249,3.014,4.108,5.085
	c0.485,1.145,0.701,2.337,0.701,3.567v2.538c0,0.649-0.216,1.326-0.597,1.861c-0.42,0.619-1.035,0.991-1.775,1.097
	c-0.065,0.02-0.108,0.02-0.181,0.02h-2.032v0.762c0,0.813-0.668,1.508-1.503,1.508h-9.75c-0.825,0-1.503-0.695-1.503-1.508V37.73
	H3.97c-0.105,0-0.201-0.02-0.295-0.039C2.974,37.567,2.406,37.204,2,36.614c-0.381-0.535-0.582-1.212-0.582-1.861v-2.538
	c0-1.23,0.225-2.423,0.711-3.558c0.845-2.071,2.538-3.558,4.107-5.095c-1.503-1.574-2.329-3.655-2.329-5.83
	c0-4.664,3.811-8.473,8.477-8.473s8.478,3.809,8.478,8.473C20.862,19.926,20.027,21.988,18.534,23.563L18.534,23.563z M7.209,31.711
	L7.209,31.711c0-0.497,0.401-0.879,0.888-0.879c0.5,0,0.912,0.382,0.912,0.879v4.502v0.765h6.753v-0.765v-4.502
	c0-0.497,0.392-0.879,0.888-0.879c0.51,0,0.912,0.382,0.912,0.879v3.013h0.252h0.868h1.655v-2.509c0-0.829-0.128-1.642-0.448-2.423
	c-0.697-1.66-2.476-3.158-3.788-4.437c-1.164,0.563-2.423,0.859-3.717,0.859c-1.302,0-2.562-0.296-3.715-0.859
	c-1.321,1.287-3.101,2.757-3.788,4.437c-0.33,0.781-0.468,1.594-0.468,2.423v2.509h1.589h0.955h0.252V31.711L7.209,31.711z
	 M25.141,3.843L25.141,3.843c-1.278,1.097-2.085,2.538-2.085,4.167c0,1.384,0.601,2.662,1.565,3.675
	c0.172,0.162,0.253,0.399,0.243,0.638l0.043,2.757l3.11-1.25c0.191-0.105,0.371-0.105,0.553-0.038
	c0.592,0.105,1.183,0.153,1.799,0.153c3.344,0,7.303-2.146,7.303-5.936c0-1.629-0.807-3.07-2.075-4.167
	C32.707,1.456,28.018,1.456,25.141,3.843L25.141,3.843z M23.996,2.469L23.996,2.469c3.535-2.949,9.188-2.949,12.723,0
	c1.692,1.412,2.733,3.367,2.733,5.541c0,4.781-4.732,7.74-9.083,7.74c-0.635,0-1.293-0.067-1.928-0.163l-4.064,1.629
	c-0.104,0.029-0.209,0.067-0.328,0.067c-0.496,0-0.897-0.38-0.897-0.877l-0.063-3.749c-1.125-1.297-1.821-2.91-1.821-4.647
	C21.268,5.835,22.316,3.881,23.996,2.469L23.996,2.469z M6.89,17.732L6.89,17.732c0,3.035,2.457,5.496,5.495,5.496
	c3.03,0,5.496-2.461,5.496-5.496c0-3.044-2.466-5.515-5.496-5.515C9.356,12.218,6.89,14.698,6.89,17.732L6.89,17.732z"/>
</svg>
