<?xml version="1.0" encoding="utf-8"?>
<!-- Generator: Adobe Illustrator 16.0.0, SVG Export Plug-In . SVG Version: 6.00 Build 0)  -->
<!DOCTYPE svg PUBLIC "-//W3C//DTD SVG 1.1//EN" "http://www.w3.org/Graphics/SVG/1.1/DTD/svg11.dtd">
<svg version="1.1" id="图层_1" xmlns="http://www.w3.org/2000/svg" xmlns:xlink="http://www.w3.org/1999/xlink" x="0px" y="0px"
	 width="40px" height="40px" viewBox="0 0 40 40" enable-background="new 0 0 40 40" xml:space="preserve">
<path display="none" fill="#00A0E9" d="M19.823,5.628c4.269,0,7.944,3.135,8.593,7.354c0.645-0.211,1.332-0.326,2.052-0.326
	c1.898,0,3.634,0.782,4.892,2.044c1.254,1.23,2.031,2.965,2.031,4.887c0,1.84-0.725,3.486-1.883,4.726l1.664,1.65
	c0.725,0.717,1.273,1.549,1.637,2.436c0.393,0.904,0.569,1.867,0.569,2.899v2.069c0,0.521-0.163,1.107-0.487,1.538
	c-0.328,0.479-0.832,0.831-1.481,0.896c-0.046,0.01-0.101,0.01-0.144,0.01h-1.592v0.578c0,0.686-0.559,1.244-1.268,1.244H19.823
	H5.267c-0.712,0-1.299-0.535-1.299-1.244v-0.578H2.376c-0.045,0-0.098,0-0.151-0.01c-0.644-0.064-1.141-0.415-1.482-0.896
	c-0.31-0.431-0.48-1.021-0.48-1.538v-2.069c0-1.032,0.191-1.995,0.57-2.899l0,0c0.684-1.668,2.04-2.832,3.29-4.086
	c-1.157-1.236-1.86-2.886-1.86-4.726c0-1.921,0.773-3.657,2.023-4.887c1.262-1.262,2.997-2.044,4.894-2.044
	c0.705,0,1.393,0.115,2.044,0.326C11.872,8.763,15.544,5.628,19.823,5.628L19.823,5.628z M19.823,35.102L19.823,35.102h3.922
	c0-1.912,0-3.836,0-5.75c0-0.414,0.325-0.75,0.75-0.75c0.427,0,0.769,0.336,0.769,0.75v3.363h3.271
	c0.053-0.098,0.072-0.195,0.072-0.309V29.71c0-3.632-2.422-5.317-4.771-7.688c-1.211,0.64-2.574,0.994-4.013,0.994
	c-1.444,0-2.817-0.354-4.01-0.994c-2.366,2.371-4.772,4.06-4.772,7.688v2.696c0,0.113,0.02,0.211,0.057,0.309h3.27v-3.363
	c0-0.414,0.342-0.75,0.778-0.75c0.416,0,0.749,0.336,0.749,0.75c0,1.914,0.008,3.838,0.008,5.75H19.823L19.823,35.102z
	 M19.823,20.475L19.823,20.475c3.364,0,6.165-2.704,6.165-6.165c0-3.396-2.776-6.166-6.165-6.166c-3.396,0-6.168,2.77-6.168,6.166
	C13.655,17.771,16.473,20.475,19.823,20.475L19.823,20.475z M6.525,35.102L6.525,35.102h3.677c-0.459-0.17-0.859-0.485-1.127-0.879
	c-0.383-0.521-0.578-1.188-0.578-1.813V29.71c0-1.132,0.179-2.198,0.541-3.208c-1.022-0.018-1.987-0.261-2.854-0.676
	c-1.05,1.059-2.443,2.142-3.017,3.541l0,0l0,0c-0.236,0.586-0.362,1.229-0.362,1.931v1.972H5v-2.24c0-0.412,0.354-0.764,0.77-0.764
	s0.757,0.352,0.757,0.764v4.072H6.525z M11.24,15.702L11.24,15.702c-0.236-0.113-0.489-0.237-0.741-0.301
	c-0.415-0.13-0.847-0.204-1.319-0.204c-1.209,0-2.292,0.489-3.098,1.286c-0.787,0.798-1.283,1.905-1.283,3.103
	c0,1.223,0.497,2.305,1.283,3.087c0.806,0.806,1.889,1.278,3.098,1.278c0.505,0,0.957-0.049,1.409-0.212
	c0.941-1.147,2.098-2.175,3.147-3.2C12.417,19.204,11.55,17.519,11.24,15.702L11.24,15.702z M33.123,35.102L33.123,35.102V31.03
	c0-0.415,0.325-0.765,0.75-0.765c0.427,0,0.77,0.35,0.77,0.765v2.239h2.207v-1.974c0-0.698-0.131-1.345-0.373-1.931
	c-0.231-0.585-0.604-1.135-1.106-1.621l-1.919-1.92c-0.858,0.415-1.824,0.656-2.848,0.676c0.369,1.01,0.557,2.076,0.557,3.208v2.696
	c0,0.626-0.201,1.294-0.578,1.814c-0.289,0.391-0.672,0.707-1.143,0.879h3.685L33.123,35.102L33.123,35.102z M28.408,15.702
	L28.408,15.702c-0.325,1.938-1.119,3.454-2.514,4.838c1.061,1.024,2.225,2.053,3.154,3.2c0.135,0.05,0.407,0.146,0.529,0.146
	c0.271,0.058,0.563,0.064,0.887,0.064c1.193,0,2.301-0.474,3.094-1.278c0.795-0.781,1.28-1.863,1.28-3.087
	c0-1.198-0.485-2.305-1.28-3.103c-0.793-0.797-1.897-1.286-3.094-1.286c-0.479,0-0.92,0.074-1.334,0.204
	C28.88,15.465,28.635,15.589,28.408,15.702L28.408,15.702z"/>
<path fill="#F7B52C" d="M17.882,32.646c-0.503,0-0.932,0.418-0.932,0.931v1.717c0,0.524,0.429,0.933,0.932,0.933
	c0.522,0,0.917-0.406,0.917-0.933v-1.717C18.799,33.064,18.405,32.646,17.882,32.646L17.882,32.646z M12.73,32.646L12.73,32.646
	c-0.517,0-0.906,0.418-0.906,0.931v1.717c0,0.524,0.39,0.933,0.906,0.933c0.514,0,0.927-0.406,0.927-0.933v-1.717
	C13.657,33.064,13.244,32.646,12.73,32.646L12.73,32.646z M15.324,32.646L15.324,32.646c-0.529,0-0.942,0.418-0.942,0.931v1.717
	c0,0.524,0.414,0.933,0.942,0.933c0.502,0,0.916-0.406,0.916-0.933v-1.717C16.24,33.064,15.826,32.646,15.324,32.646L15.324,32.646z
	 M32.824,32.646L32.824,32.646c-0.527,0-0.941,0.418-0.941,0.931v1.717c0,0.524,0.414,0.933,0.941,0.933
	c0.503,0,0.917-0.406,0.917-0.933v-1.717C33.741,33.064,33.327,32.646,32.824,32.646L32.824,32.646z M30.24,32.646L30.24,32.646
	c-0.504,0-0.928,0.418-0.928,0.931v1.717c0,0.524,0.424,0.933,0.928,0.933c0.503,0,0.923-0.406,0.923-0.933v-1.717
	C31.163,33.064,30.743,32.646,30.24,32.646L30.24,32.646z M35.383,32.646L35.383,32.646c-0.503,0-0.917,0.418-0.917,0.931v1.717
	c0,0.524,0.414,0.933,0.917,0.933c0.514,0,0.942-0.406,0.942-0.933v-1.717C36.325,33.064,35.896,32.646,35.383,32.646L35.383,32.646
	z M39.214,16.417L39.214,16.417L39.214,16.417c-0.573-0.634-1.381-1.004-2.254-1.004h-1.972L28.6,4.36
	c-0.045-0.119-0.106-0.218-0.173-0.307c-0.438-0.665-1.075-1.134-1.76-1.357C25.923,2.458,25.09,2.5,24.354,2.877
	c-0.098,0.042-0.172,0.083-0.261,0.153L1.604,16.013l-0.109,0.055c-0.744,0.431-1.246,1.178-1.418,1.984v0.017
	c-0.178,0.754-0.045,1.616,0.379,2.372l7.163,12.417v3.882c0,0.878,0.331,1.666,0.857,2.252C9.044,39.614,9.832,40,10.729,40h26.23
	c0.898,0,1.682-0.386,2.254-1.01c0.521-0.586,0.842-1.374,0.842-2.252v-18.08C40.057,17.781,39.734,16.994,39.214,16.417
	L39.214,16.417z M7.619,18.658L7.619,18.658v8.052l-4.506-7.807c-0.044-0.072-0.044-0.125-0.044-0.189h-0.02l0.02-0.022l0,0
	l0.044-0.024L25.734,5.63l0,0c0.043,0.021,0.1,0.064,0.144,0.119l0.021,0.044l5.545,9.619H10.729
	C8.999,15.413,7.619,16.895,7.619,18.658L7.619,18.658z M36.98,36.738L36.98,36.738c0,0.087-0.021,0.152-0.057,0.197H10.77
	c-0.04-0.045-0.066-0.11-0.066-0.197V18.625v-0.008l0.026-0.024v-0.008v-0.029l0,0l0,0v-0.017l0,0l0,0v-0.022h0.02l0,0v-0.022l0,0
	l0.021-0.021h26.156l0,0c0.034,0.042,0.056,0.111,0.056,0.184v18.08H36.98z M26.632,32.646L26.632,32.646
	c-0.513,0-0.921,0.418-0.921,0.931v1.717c0,0.524,0.408,0.933,0.921,0.933c0.515,0,0.941-0.406,0.941-0.933v-1.717
	C27.573,33.064,27.146,32.646,26.632,32.646L26.632,32.646z M24.063,32.646L24.063,32.646c-0.517,0-0.931,0.418-0.931,0.931v1.717
	c0,0.524,0.414,0.933,0.931,0.933c0.516,0,0.93-0.406,0.93-0.933v-1.717C24.991,33.064,24.577,32.646,24.063,32.646L24.063,32.646z
	 M21.491,32.646L21.491,32.646c-0.503,0-0.918,0.418-0.918,0.931v1.717c0,0.524,0.415,0.933,0.918,0.933s0.916-0.406,0.916-0.933
	v-1.717C22.407,33.064,21.994,32.646,21.491,32.646L21.491,32.646z M3.068,18.692L3.068,18.692v0.022V18.692L3.068,18.692z"/>
<path fill="#F7B52C" d="M13.936,23.198l0.725,3.184l0.022,0.011l2.622,1.203l-0.333-1.46l-0.846-3.715l-0.333-1.463L13.936,23.198
	L13.936,23.198L13.936,23.198z M17.68,20.992L17.68,20.992c-0.176-0.057-0.279-0.251-0.216-0.428
	c0.055-0.178,0.248-0.272,0.429-0.22c0.676,0.224,1.286,0.615,1.762,1.144c0.465,0.508,0.811,1.14,0.975,1.858
	c0.164,0.719,0.126,1.439-0.073,2.097c-0.201,0.683-0.582,1.301-1.097,1.792c-0.136,0.134-0.352,0.127-0.478-0.009
	c-0.134-0.137-0.125-0.352,0.007-0.48c0.431-0.411,0.749-0.93,0.921-1.499c0.164-0.549,0.192-1.148,0.056-1.749
	s-0.422-1.126-0.807-1.551C18.755,21.506,18.245,21.178,17.68,20.992L17.68,20.992z M13.555,23.356L13.555,23.356l-1.359,0.31
	l0.694,3.048l1.359-0.31L13.555,23.356L13.555,23.356z M13.487,22.668L13.487,22.668l2.209-2.657
	c0.044-0.065,0.114-0.11,0.199-0.129c0.184-0.042,0.366,0.07,0.408,0.253l0.486,2.133l0.017,0.071
	c0.339,0.062,0.651,0.203,0.915,0.415c0.334,0.269,0.581,0.648,0.683,1.1s0.045,0.897-0.14,1.286
	c-0.146,0.305-0.365,0.57-0.645,0.771l0.017,0.072l0.485,2.131h-0.002c0.017,0.071,0.007,0.146-0.02,0.217
	c-0.08,0.174-0.281,0.246-0.454,0.167l-3.158-1.446l-1.766,0.402l-0.008,0.002c-0.185,0.042-0.369-0.075-0.411-0.258l-0.845-3.709
	l-0.001-0.005c-0.042-0.186,0.074-0.369,0.259-0.411L13.487,22.668L13.487,22.668z M16.906,22.781L16.906,22.781l0.613,2.692
	c0.155-0.145,0.285-0.313,0.374-0.502c0.145-0.313,0.192-0.671,0.112-1.025c-0.081-0.356-0.279-0.659-0.544-0.873
	C17.298,22.938,17.108,22.841,16.906,22.781L16.906,22.781z"/>
</svg>
