<?xml version="1.0" encoding="utf-8"?>
<!-- Generator: Adobe Illustrator 16.0.0, SVG Export Plug-In . SVG Version: 6.00 Build 0)  -->
<!DOCTYPE svg PUBLIC "-//W3C//DTD SVG 1.1//EN" "http://www.w3.org/Graphics/SVG/1.1/DTD/svg11.dtd">
<svg version="1.1" id="图层_1" xmlns="http://www.w3.org/2000/svg" xmlns:xlink="http://www.w3.org/1999/xlink" x="0px" y="0px"
	 width="40px" height="40px" viewBox="0 0 40 40" enable-background="new 0 0 40 40" xml:space="preserve">
<path display="none" fill="#00A0E9" d="M19.823,5.628c4.269,0,7.944,3.135,8.593,7.354c0.645-0.211,1.332-0.326,2.052-0.326
	c1.898,0,3.634,0.782,4.892,2.044c1.254,1.23,2.031,2.965,2.031,4.887c0,1.84-0.725,3.486-1.883,4.726l1.664,1.65
	c0.725,0.717,1.273,1.549,1.637,2.436c0.392,0.904,0.569,1.867,0.569,2.899v2.069c0,0.521-0.163,1.107-0.487,1.538
	c-0.328,0.479-0.832,0.831-1.482,0.896c-0.045,0.01-0.1,0.01-0.143,0.01h-1.592v0.578c0,0.685-0.559,1.244-1.268,1.244H19.823H5.267
	c-0.712,0-1.299-0.535-1.299-1.244v-0.578H2.376c-0.045,0-0.098,0-0.151-0.01c-0.644-0.064-1.141-0.415-1.482-0.896
	c-0.31-0.431-0.48-1.02-0.48-1.538v-2.069c0-1.032,0.191-1.995,0.57-2.899l0,0c0.684-1.668,2.04-2.832,3.29-4.086
	c-1.157-1.237-1.86-2.886-1.86-4.726c0-1.921,0.773-3.657,2.023-4.887c1.262-1.262,2.997-2.044,4.894-2.044
	c0.705,0,1.393,0.115,2.044,0.326C11.872,8.763,15.544,5.628,19.823,5.628L19.823,5.628z M19.823,35.102L19.823,35.102h3.922
	c0-1.912,0-3.836,0-5.75c0-0.414,0.325-0.75,0.75-0.75c0.427,0,0.769,0.336,0.769,0.75v3.363h3.271
	c0.053-0.098,0.072-0.195,0.072-0.309V29.71c0-3.632-2.422-5.317-4.771-7.688c-1.211,0.639-2.574,0.994-4.013,0.994
	c-1.444,0-2.817-0.355-4.01-0.994c-2.366,2.371-4.772,4.059-4.772,7.688v2.696c0,0.113,0.02,0.211,0.057,0.309h3.27v-3.363
	c0-0.414,0.342-0.75,0.778-0.75c0.416,0,0.749,0.336,0.749,0.75c0,1.914,0.008,3.838,0.008,5.75H19.823L19.823,35.102z
	 M19.823,20.475L19.823,20.475c3.364,0,6.165-2.704,6.165-6.165c0-3.396-2.776-6.166-6.165-6.166c-3.396,0-6.168,2.77-6.168,6.166
	C13.655,17.771,16.473,20.475,19.823,20.475L19.823,20.475z M6.525,35.102L6.525,35.102h3.677c-0.459-0.17-0.859-0.486-1.127-0.879
	c-0.383-0.521-0.578-1.188-0.578-1.814V29.71c0-1.132,0.179-2.198,0.541-3.208c-1.022-0.018-1.987-0.261-2.854-0.676
	c-1.05,1.059-2.443,2.142-3.017,3.541l0,0l0,0c-0.236,0.586-0.362,1.229-0.362,1.931v1.972H5v-2.24c0-0.413,0.354-0.764,0.77-0.764
	s0.757,0.351,0.757,0.764v4.072H6.525z M11.24,15.702L11.24,15.702c-0.236-0.113-0.489-0.237-0.741-0.301
	c-0.415-0.13-0.847-0.204-1.319-0.204c-1.209,0-2.292,0.489-3.098,1.286c-0.787,0.798-1.283,1.905-1.283,3.103
	c0,1.223,0.497,2.305,1.283,3.087c0.806,0.806,1.889,1.278,3.098,1.278c0.505,0,0.957-0.049,1.409-0.212
	c0.941-1.147,2.098-2.175,3.147-3.2C12.417,19.204,11.55,17.519,11.24,15.702L11.24,15.702z M33.123,35.102L33.123,35.102V31.03
	c0-0.415,0.325-0.765,0.75-0.765c0.427,0,0.77,0.35,0.77,0.765v2.239h2.207v-1.973c0-0.699-0.131-1.345-0.373-1.931
	c-0.232-0.585-0.604-1.134-1.107-1.621l-1.919-1.92c-0.858,0.415-1.824,0.657-2.847,0.676c0.369,1.01,0.556,2.076,0.556,3.208v2.696
	c0,0.626-0.201,1.294-0.578,1.815c-0.289,0.391-0.672,0.707-1.142,0.879h3.684V35.102z M28.408,15.702L28.408,15.702
	c-0.325,1.938-1.119,3.454-2.514,4.838c1.061,1.024,2.225,2.053,3.155,3.2c0.134,0.05,0.407,0.146,0.529,0.146
	c0.271,0.058,0.563,0.064,0.887,0.064c1.193,0,2.3-0.474,3.093-1.278c0.795-0.781,1.281-1.863,1.281-3.087
	c0-1.198-0.486-2.305-1.281-3.103c-0.793-0.797-1.897-1.286-3.093-1.286c-0.478,0-0.92,0.074-1.334,0.204
	C28.88,15.465,28.635,15.589,28.408,15.702L28.408,15.702z"/>
<path fill="#8DC21F" d="M10.252,12.417c0,0.505,0.421,0.912,0.926,0.912c0.505,0,0.921-0.407,0.921-0.912v-0.761h0.768
	c0.52,0,0.946-0.438,0.946-0.942c0-0.514-0.426-0.911-0.946-0.911h-1.615l-0.074-0.02c-0.332,0-0.648,0.177-0.792,0.465l-0.024,0.02
	v0.021l0,0l-0.02,0.02v0.03v0.019l-0.025,0.011l-0.02,0.019v0.02v0.03v0.021l-0.02,0.019l-0.015,0.03l0,0v0.03l-0.01,0.019v0.02
	v0.021v0.019v0.03v0.02v0.01v0.009v0.01v0.02v0.03V12.417L10.252,12.417z M23.385,7.99L23.385,7.99
	c-0.361-0.356-0.361-0.941,0-1.317c0.361-0.336,0.955-0.336,1.307,0l3.384,3.396c0.36,0.337,0.36,0.932,0,1.317l-3.384,3.388
	c-0.352,0.337-0.944,0.337-1.307,0c-0.361-0.386-0.361-0.98,0-1.317l1.793-1.802h-2.619c-0.516,0-0.922-0.438-0.922-0.942
	c0-0.514,0.406-0.911,0.922-0.911h2.619L23.385,7.99L23.385,7.99z M22.955,21.242L22.955,21.242c0-0.813,0.352-1.535,0.936-2.061
	l0.078-0.06c0.545-0.476,1.283-0.753,2.086-0.753h4.516c0.101-0.405,0.472-0.723,0.912-0.723c0.441,0,0.793,0.318,0.892,0.723h4.524
	c0.822,0,1.597,0.287,2.164,0.813C39.633,19.707,40,20.43,40,21.242v8.417v0.021v0.029v1.387c0,0.822-0.367,1.545-0.938,2.069
	c-0.568,0.506-1.342,0.813-2.164,0.813H26.055c-0.848,0-1.604-0.308-2.164-0.813c-0.584-0.524-0.936-1.247-0.936-2.069
	C22.955,29.729,22.955,26.907,22.955,21.242L22.955,21.242z M24.801,28.77L24.801,28.77h13.352v-7.526
	c0-0.259-0.118-0.505-0.315-0.664c-0.244-0.227-0.573-0.347-0.938-0.347h-5.393h-0.023h-0.021h-5.405
	c-0.353,0-0.658,0.12-0.877,0.297l-0.046,0.05c-0.196,0.159-0.332,0.405-0.332,0.664L24.801,28.77L24.801,28.77z M38.152,30.621
	L38.152,30.621H24.801v0.477c0,0.286,0.135,0.504,0.332,0.691c0.242,0.197,0.549,0.316,0.922,0.316h10.844
	c0.363,0,0.693-0.119,0.938-0.316c0.197-0.188,0.315-0.405,0.315-0.691V30.621L38.152,30.621z M16.264,33.979L16.264,33.979
	c-5.536,0-4.388,0-9.814,0c-4.888,0-7.423-5.902-4.061-9.43c0.401-0.465,0.896-0.851,1.471-1.138
	c0.396-0.198,0.833-0.378,1.297-0.506C5.4,22.52,5.662,22.152,5.97,21.816l0.044-0.041c0.396-0.436,0.857-0.82,1.337-1.139
	c0.575-0.396,1.208-0.693,1.872-0.881c0.352-0.09,0.679-0.169,1.03-0.218v-0.951c0-0.526,0.421-0.942,0.926-0.942
	c0.505,0,0.921,0.416,0.921,0.942v0.93c0.659,0.07,1.288,0.22,1.867,0.467l0.069,0.02c0.857,0.376,1.625,0.901,2.238,1.523
	c0.575,0.584,1.065,1.279,1.431,2.031v0.01v-0.008c0.263,0.564,0.451,1.168,0.55,1.832c0.193,0.078,0.371,0.197,0.55,0.297
	C22.35,28.125,20.746,33.959,16.264,33.979L16.264,33.979z M17.77,27.232L17.77,27.232c-0.198-0.139-0.406-0.236-0.614-0.307
	c-0.361-0.119-0.64-0.427-0.659-0.813c-0.069-0.623-0.233-1.219-0.485-1.772c-0.252-0.534-0.595-1.051-1.045-1.496
	c-0.47-0.465-1.044-0.851-1.659-1.118l-0.044-0.021c-0.614-0.247-1.297-0.405-2.011-0.405c-0.515,0-1.03,0.109-1.486,0.227
	c-0.504,0.17-0.985,0.389-1.391,0.654c-0.361,0.237-0.693,0.524-0.98,0.832L7.34,23.063c-0.287,0.328-0.55,0.694-0.733,1.063
	c-0.134,0.286-0.386,0.503-0.728,0.544c-0.417,0.06-0.812,0.198-1.164,0.386c-0.352,0.188-0.703,0.456-0.99,0.752
	c-2.253,2.368-0.55,6.301,2.724,6.301l9.814,0.029C18.914,32.105,19.855,28.65,17.77,27.232L17.77,27.232z M32.393,16.092
	L32.393,16.092c0,0.524-0.406,0.932-0.91,0.932c-0.506,0-0.936-0.407-0.936-0.932v-1.189c0-0.514,0.43-0.921,0.936-0.921
	c0.504,0,0.91,0.407,0.91,0.921V16.092L32.393,16.092z M10.252,16.092L10.252,16.092c0,0.524,0.421,0.932,0.926,0.932
	c0.505,0,0.921-0.407,0.921-0.932v-1.189c0-0.514-0.416-0.921-0.921-0.921c-0.505,0-0.926,0.407-0.926,0.921V16.092L10.252,16.092z
	 M32.393,12.417L32.393,12.417c0,0.505-0.406,0.912-0.91,0.912c-0.506,0-0.936-0.407-0.936-0.912v-0.761h-0.77
	c-0.494,0-0.93-0.438-0.93-0.942c0-0.514,0.436-0.911,0.93-0.911h1.639l0.066-0.02c0.342,0,0.647,0.177,0.793,0.465l0.018,0.02
	v0.021l0,0l0.027,0.02v0.03l0.018,0.019v0.011l0.014,0.019v0.02l0.012,0.03l0.011,0.021v0.019v0.03h0.01v0.03l0.011,0.019v0.02
	v0.021v0.019v0.03v0.02v0.01v0.009v0.01v0.02v0.03v1.671H32.393z M20.097,11.655L20.097,11.655c0.504,0,0.926-0.438,0.926-0.942
	c0-0.514-0.422-0.911-0.926-0.911h-1.184c-0.52,0-0.926,0.396-0.926,0.911c0,0.505,0.406,0.942,0.926,0.942H20.097L20.097,11.655z
	 M16.472,11.655L16.472,11.655c0.53,0,0.926-0.438,0.926-0.942c0-0.514-0.396-0.911-0.926-0.911h-1.184
	c-0.509,0-0.925,0.396-0.925,0.911c0,0.505,0.416,0.942,0.925,0.942H16.472L16.472,11.655z"/>
<line fill="none" stroke="#8DC21F" stroke-miterlimit="10" x1="26.454" y1="22.5" x2="36.5" y2="22.5"/>
<line fill="none" stroke="#8DC21F" stroke-miterlimit="10" x1="26.454" y1="24.625" x2="36.5" y2="24.625"/>
<line fill="none" stroke="#8DC21F" stroke-miterlimit="10" x1="26.454" y1="26.625" x2="36.5" y2="26.625"/>
</svg>
