<?xml version="1.0" encoding="utf-8"?>
<!-- Generator: Adobe Illustrator 16.0.0, SVG Export Plug-In . SVG Version: 6.00 Build 0)  -->
<!DOCTYPE svg PUBLIC "-//W3C//DTD SVG 1.1//EN" "http://www.w3.org/Graphics/SVG/1.1/DTD/svg11.dtd">
<svg version="1.1" id="图层_1" xmlns="http://www.w3.org/2000/svg" xmlns:xlink="http://www.w3.org/1999/xlink" x="0px" y="0px"
	 width="40px" height="40px" viewBox="0 0 40 40" enable-background="new 0 0 40 40" xml:space="preserve">
<path display="none" fill="#00A0E9" d="M19.823,5.628c4.269,0,7.944,3.135,8.593,7.354c0.645-0.211,1.332-0.326,2.052-0.326
	c1.898,0,3.634,0.782,4.892,2.044c1.254,1.23,2.031,2.965,2.031,4.887c0,1.84-0.725,3.486-1.883,4.726l1.664,1.65
	c0.725,0.717,1.273,1.549,1.637,2.436c0.391,0.904,0.569,1.867,0.569,2.899v2.069c0,0.521-0.163,1.107-0.487,1.538
	c-0.328,0.48-0.832,0.831-1.483,0.896c-0.044,0.01-0.099,0.01-0.142,0.01h-1.592v0.578c0,0.684-0.559,1.244-1.268,1.244H19.823
	H5.267c-0.712,0-1.299-0.535-1.299-1.244v-0.578H2.376c-0.045,0-0.098,0-0.151-0.01c-0.644-0.064-1.141-0.415-1.482-0.896
	c-0.31-0.431-0.48-1.019-0.48-1.538v-2.069c0-1.032,0.191-1.995,0.57-2.899l0,0c0.684-1.668,2.04-2.832,3.29-4.086
	c-1.157-1.238-1.86-2.886-1.86-4.726c0-1.921,0.773-3.657,2.023-4.887c1.262-1.262,2.997-2.044,4.894-2.044
	c0.705,0,1.393,0.115,2.044,0.326C11.872,8.763,15.544,5.628,19.823,5.628L19.823,5.628z M19.823,35.102L19.823,35.102h3.922
	c0-1.912,0-3.836,0-5.75c0-0.414,0.325-0.75,0.75-0.75c0.427,0,0.769,0.336,0.769,0.75v3.363h3.271
	c0.053-0.098,0.072-0.195,0.072-0.309V29.71c0-3.632-2.422-5.317-4.771-7.688c-1.211,0.638-2.574,0.994-4.013,0.994
	c-1.444,0-2.817-0.356-4.01-0.994c-2.366,2.371-4.772,4.058-4.772,7.688v2.696c0,0.113,0.02,0.211,0.057,0.309h3.27v-3.363
	c0-0.414,0.342-0.75,0.778-0.75c0.416,0,0.749,0.336,0.749,0.75c0,1.914,0.008,3.838,0.008,5.75H19.823L19.823,35.102z
	 M19.823,20.475L19.823,20.475c3.364,0,6.165-2.704,6.165-6.165c0-3.396-2.776-6.166-6.165-6.166c-3.396,0-6.168,2.77-6.168,6.166
	C13.655,17.771,16.473,20.475,19.823,20.475L19.823,20.475z M6.525,35.102L6.525,35.102h3.677c-0.459-0.17-0.859-0.487-1.127-0.879
	c-0.383-0.521-0.578-1.189-0.578-1.815V29.71c0-1.132,0.179-2.198,0.541-3.208c-1.022-0.018-1.987-0.261-2.854-0.676
	c-1.05,1.059-2.443,2.142-3.017,3.541l0,0l0,0c-0.236,0.586-0.362,1.229-0.362,1.931v1.972H5v-2.24c0-0.414,0.354-0.764,0.77-0.764
	s0.757,0.35,0.757,0.764v4.072H6.525z M11.24,15.702L11.24,15.702c-0.236-0.113-0.489-0.237-0.741-0.301
	c-0.415-0.13-0.847-0.204-1.319-0.204c-1.209,0-2.292,0.489-3.098,1.286c-0.787,0.798-1.283,1.905-1.283,3.103
	c0,1.223,0.497,2.305,1.283,3.087c0.806,0.806,1.889,1.278,3.098,1.278c0.505,0,0.957-0.049,1.409-0.212
	c0.941-1.147,2.098-2.175,3.147-3.2C12.417,19.204,11.55,17.519,11.24,15.702L11.24,15.702z M33.123,35.102L33.123,35.102V31.03
	c0-0.415,0.325-0.765,0.75-0.765c0.427,0,0.77,0.35,0.77,0.765v2.239h2.207v-1.972c0-0.7-0.131-1.345-0.373-1.931
	c-0.233-0.585-0.604-1.133-1.108-1.621l-1.919-1.92c-0.858,0.415-1.824,0.658-2.846,0.676c0.369,1.01,0.555,2.076,0.555,3.208v2.696
	c0,0.626-0.201,1.294-0.578,1.816c-0.289,0.391-0.672,0.707-1.141,0.879H33.123L33.123,35.102z M28.408,15.702L28.408,15.702
	c-0.325,1.938-1.119,3.454-2.514,4.838c1.061,1.024,2.225,2.053,3.156,3.2c0.133,0.05,0.407,0.146,0.529,0.146
	c0.271,0.057,0.563,0.064,0.887,0.064c1.193,0,2.299-0.473,3.092-1.278c0.795-0.782,1.282-1.864,1.282-3.087
	c0-1.198-0.487-2.305-1.282-3.103c-0.793-0.797-1.897-1.286-3.092-1.286c-0.477,0-0.92,0.074-1.334,0.204
	C28.88,15.465,28.635,15.589,28.408,15.702L28.408,15.702z"/>
<path fill="#E6454A" d="M1.589,6.119h0.044h36.754c0.848,0,1.544,0.687,1.544,1.529v0.039v28.002c0,0.873-0.696,1.549-1.544,1.549
	h-0.044H1.589c-0.824,0-1.52-0.676-1.52-1.549V35.66V7.648C0.069,6.806,0.765,6.119,1.589,6.119L1.589,6.119z M36.853,10.521
	L36.853,10.521l-16.21,16.21c-0.349,0.353-0.937,0.353-1.285,0L3.132,10.521v23.65h33.721V10.521L36.853,10.521z M35.594,9.177
	L35.594,9.177H4.396L20.01,24.801L35.594,9.177L35.594,9.177z"/>
</svg>
