<?xml version="1.0" encoding="utf-8"?>
<!-- Generator: Adobe Illustrator 16.0.0, SVG Export Plug-In . SVG Version: 6.00 Build 0)  -->
<!DOCTYPE svg PUBLIC "-//W3C//DTD SVG 1.1//EN" "http://www.w3.org/Graphics/SVG/1.1/DTD/svg11.dtd">
<svg version="1.1" id="图层_1" xmlns="http://www.w3.org/2000/svg" xmlns:xlink="http://www.w3.org/1999/xlink" x="0px" y="0px"
	 width="81.507px" height="51.333px" viewBox="0 0 81.507 51.333" enable-background="new 0 0 81.507 51.333" xml:space="preserve">
<path fill="#EA8B4B" d="M79.64,45.166c0,1.656-1.342,3-3,3H5.504c-1.657,0-3-1.344-3-3V6.169c0-1.657,1.343-3,3-3H76.64
	c1.658,0,3,1.343,3,3V45.166z"/>
<circle fill="#F8B62D" cx="13.81" cy="13.671" r="6.319"/>
<g>
	<defs>
		<path id="SVGID_1_" d="M79.64,45.166c0,1.656-1.342,3-3,3H5.504c-1.657,0-3-1.344-3-3V6.169c0-1.657,1.343-3,3-3H76.64
			c1.658,0,3,1.343,3,3V45.166z"/>
	</defs>
	<clipPath id="SVGID_2_">
		<use xlink:href="#SVGID_1_"  overflow="visible"/>
	</clipPath>
	<g clip-path="url(#SVGID_2_)">
		<path fill="#C9CACA" d="M79.631,51.549c0,0-4.572-11.211-7.41-11c-2.838,0.212-3.941,2.222-5.203,4.232
			c-1.262,2.01-2.838,3.914-4.1,3.809c-1.261-0.105-12.981-16.623-18.36-16.704s-10.754,7.615-12.673,9.832
			c0,0-9.487,10.786-8.698,12.268C23.975,55.467,80.464,51.994,79.631,51.549z"/>
		<path fill="#FFFFFF" d="M78.212,51.549c0,0-4.572-11.211-7.41-11c-2.838,0.212-3.941,2.222-5.203,4.232
			c-1.262,2.01-2.838,3.914-4.1,3.809c-1.261-0.105-12.981-16.623-18.36-16.704c-5.379-0.081-10.754,7.615-12.673,9.832
			c0,0-9.486,10.786-8.698,12.268C22.556,55.467,79.045,51.994,78.212,51.549z"/>
	</g>
</g>
<g>
	<path fill="#999999" d="M6.844,3.358H5.376V2.723h1.468V3.358 M9.78,3.358H8.312V2.723H9.78V3.358 M12.716,3.358h-1.468V2.723
		h1.468V3.358 M15.653,3.358h-1.467V2.723h1.467V3.358 M18.589,3.358h-1.467V2.723h1.467V3.358 M21.526,3.358h-1.468V2.723h1.468
		V3.358 M24.463,3.358h-1.469V2.723h1.469V3.358 M27.399,3.358h-1.467V2.723h1.467V3.358 M30.336,3.358h-1.468V2.723h1.468V3.358
		 M33.272,3.358h-1.468V2.723h1.468V3.358 M36.209,3.358H34.74V2.723h1.469V3.358 M39.146,3.358h-1.468V2.723h1.468V3.358
		 M42.082,3.358h-1.468V2.723h1.468V3.358 M45.019,3.358H43.55V2.723h1.469V3.358 M47.954,3.358h-1.469V2.723h1.469V3.358
		 M50.892,3.358h-1.469V2.723h1.469V3.358 M53.827,3.358H52.36V2.723h1.467V3.358 M56.765,3.358h-1.469V2.723h1.469V3.358
		 M59.702,3.358h-1.471V2.723h1.471V3.358 M62.638,3.358h-1.469V2.723h1.469V3.358 M65.573,3.358h-1.469V2.723h1.469V3.358
		 M68.511,3.358h-1.469V2.723h1.469V3.358 M71.446,3.358h-1.469V2.723h1.469V3.358 M74.384,3.358h-1.469V2.723h1.469V3.358
		 M77.245,3.516c-0.248-0.104-0.504-0.157-0.764-0.157h-0.631V2.723h0.631c0.303,0,0.604,0.062,0.889,0.181L77.245,3.516
		 M2.934,4.762L2.589,4.355c0.337-0.578,0.773-1.033,1.262-1.311l0.167,0.591C3.597,3.875,3.223,4.264,2.934,4.762 M79.085,6.132
		c-0.127-0.618-0.365-1.185-0.686-1.643l0.316-0.45c0.373,0.533,0.65,1.193,0.797,1.913L79.085,6.132 M2.312,8.512H1.866V7.219
		c0-0.286,0.02-0.571,0.057-0.851l0.438,0.12C2.33,6.727,2.312,6.974,2.312,7.219V8.512 M79.64,10.201h-0.447V8.112h0.447V10.201
		 M2.312,12.688H1.866v-2.086h0.446V12.688 M79.64,14.377h-0.447v-2.086h0.447V14.377 M2.312,16.868H1.866v-2.09h0.446V16.868
		 M79.64,18.556h-0.447v-2.089h0.447V18.556 M2.312,21.043H1.866v-2.089h0.446V21.043 M79.64,22.734h-0.447v-2.091h0.447V22.734
		 M2.312,25.221H1.866v-2.09h0.446V25.221 M79.64,26.909h-0.447v-2.089h0.447V26.909 M2.312,29.396H1.866v-2.09h0.446V29.396
		 M79.64,31.087h-0.447v-2.09h0.447V31.087 M2.312,33.574H1.866v-2.088h0.446V33.574 M79.64,35.265h-0.447v-2.088h0.447V35.265
		 M2.312,37.75H1.866v-2.086h0.446V37.75 M79.64,39.441h-0.447v-2.088h0.447V39.441 M2.312,41.925H1.866v-2.084h0.446V41.925
		 M79.64,43.619h-0.447v-2.088h0.447V43.619 M2.217,46.175c-0.231-0.639-0.351-1.332-0.351-2.061v-0.098h0.446v0.098
		c0,0.625,0.102,1.219,0.302,1.771L2.217,46.175 M79.255,46.271l-0.393-0.303c0.217-0.564,0.33-1.205,0.33-1.854h0.447
		C79.64,44.869,79.509,45.615,79.255,46.271 M4.725,48.589c-0.526-0.068-1.034-0.328-1.471-0.75l0.253-0.525
		c0.373,0.361,0.81,0.582,1.262,0.643L4.725,48.589 M76.706,48.599l-0.031-0.635c0.453-0.043,0.893-0.254,1.271-0.6l0.242,0.531
		C77.745,48.304,77.233,48.546,76.706,48.599 M7.684,48.611H6.215v-0.637h1.469V48.611 M10.62,48.611H9.151v-0.637h1.469V48.611
		 M13.555,48.611h-1.468v-0.637h1.468V48.611 M16.493,48.611h-1.469v-0.637h1.469V48.611 M19.429,48.611h-1.467v-0.637h1.467V48.611
		 M22.366,48.611h-1.468v-0.637h1.468V48.611 M25.302,48.611h-1.469v-0.637h1.469V48.611 M28.238,48.611H26.77v-0.637h1.468V48.611
		 M31.175,48.611h-1.468v-0.637h1.468V48.611 M34.11,48.611h-1.468v-0.637h1.468V48.611 M37.048,48.611H35.58v-0.637h1.468V48.611
		 M39.985,48.611h-1.469v-0.637h1.469V48.611 M42.921,48.611h-1.468v-0.637h1.468V48.611 M45.856,48.611H44.39v-0.637h1.467V48.611
		 M48.794,48.611h-1.469v-0.637h1.469V48.611 M51.731,48.611h-1.469v-0.637h1.469V48.611 M54.667,48.611h-1.469v-0.637h1.469V48.611
		 M57.604,48.611h-1.469v-0.637h1.469V48.611 M60.54,48.611h-1.469v-0.637h1.469V48.611 M63.476,48.611h-1.467v-0.637h1.467V48.611
		 M66.413,48.611h-1.469v-0.637h1.469V48.611 M69.349,48.611H67.88v-0.637h1.469V48.611 M72.284,48.611h-1.467v-0.637h1.467V48.611
		 M75.224,48.611h-1.469v-0.637h1.469V48.611"/>
</g>
<g>
	<path fill="#FFFFFF" d="M30.763,22.591h3.742c0.205-0.328,0.391-0.663,0.559-1.007h-3.492v-0.785h3.847
		c0.135-0.319,0.256-0.645,0.362-0.976c-1.453,0.049-2.867,0.088-4.245,0.117c-0.05-0.262-0.106-0.54-0.172-0.834
		c3.901-0.058,7.341-0.18,10.319-0.368l0.146,0.834c-1.717,0.082-3.39,0.154-5.018,0.215c-0.11,0.338-0.233,0.676-0.368,1.012h5.335
		v0.785h-5.685c-0.163,0.341-0.34,0.675-0.528,1.007h7.146v0.784h-7.637c-0.204,0.312-0.423,0.618-0.656,0.921h6.773v6.158h-0.884
		v-0.475h-6.147v0.475h-0.883v-4.808c-0.643,0.682-1.358,1.34-2.147,1.975c-0.164-0.253-0.361-0.53-0.589-0.834
		c1.395-1.014,2.542-2.151,3.441-3.412h-3.22V22.591z M40.308,25.081h-6.147v0.858h6.147V25.081z M34.161,27.56h6.147v-0.859h-6.147
		V27.56z M34.161,29.191h6.147V28.32h-6.147V29.191z"/>
	<g>
		<path fill="#FFFFFF" d="M18.432,19.708h5.239v-1.313h0.871v1.313h5.313v0.822h-4.546c1.292,0.986,2.926,1.729,4.902,2.233
			c-0.212,0.319-0.4,0.609-0.564,0.872c-0.441-0.152-0.867-0.315-1.276-0.491v5.326h-0.933v-0.553h-6.612v0.564h-0.933v-5.276
			c-0.417,0.192-0.854,0.376-1.313,0.552c-0.171-0.253-0.364-0.515-0.577-0.785c2.111-0.667,3.729-1.48,4.853-2.441h-4.424V19.708z
			 M18.137,29.13h11.951v0.882H18.137V29.13z M23.671,22.836v-2.104c-0.94,0.908-2.155,1.711-3.644,2.411h8.337
			c-1.51-0.641-2.783-1.438-3.823-2.386v2.08H23.671z M27.438,23.989h-6.612v1.117h6.612V23.989z M20.825,27.07h6.612v-1.131h-6.612
			V27.07z"/>
		<path fill="#FFFFFF" d="M43.168,29.682c1.495-0.249,2.702-0.633,3.617-1.153c-0.697-0.483-1.332-1.117-1.9-1.902l0.644-0.49
			h-0.951v-5.141h4.307c0.004-0.352,0.008-0.728,0.014-1.129h-5.289v-0.859h11.263v0.859h-5.03c0,0.405-0.002,0.781-0.006,1.129
			h4.067v5.741h-0.934v-0.601h-3.435c-0.212,0.97-0.551,1.716-1.012,2.24c1.641,0.601,3.923,0.896,6.852,0.89
			c-0.204,0.358-0.373,0.687-0.503,0.98c-3.246-0.091-5.634-0.487-7.158-1.195c-0.941,0.619-2.268,1.121-3.982,1.5
			C43.567,30.267,43.379,29.979,43.168,29.682z M45.51,23.154h3.35c0.008-0.392,0.015-0.834,0.019-1.325H45.51V23.154z
			 M48.848,23.977H45.51v1.325h3.233C48.796,24.9,48.831,24.459,48.848,23.977z M47.608,27.964c0.44-0.38,0.766-0.989,0.975-1.828
			h-3.006C46.142,26.921,46.818,27.532,47.608,27.964z M49.676,25.302h3.293v-1.325h-3.177
			C49.771,24.452,49.732,24.893,49.676,25.302z M52.969,21.83h-3.141c-0.004,0.495-0.009,0.937-0.017,1.325h3.157V21.83z"/>
		<path fill="#FFFFFF" d="M60.969,18.419h1.238c-0.417,0.45-0.841,0.872-1.275,1.264h5.78v0.834
			c-2.814,2.266-6.229,3.955-10.246,5.068c-0.173-0.329-0.36-0.614-0.563-0.859c1.686-0.442,3.197-0.944,4.538-1.509
			c-0.294-0.327-0.683-0.729-1.164-1.203l0.688-0.54c0.48,0.466,0.928,0.92,1.335,1.362c1.498-0.679,2.812-1.443,3.939-2.294H59.95
			c-0.851,0.728-1.861,1.423-3.03,2.085c-0.181-0.245-0.405-0.502-0.676-0.772C58.119,20.856,59.693,19.711,60.969,18.419z
			 M62.821,23.352h1.214c-0.375,0.368-0.763,0.715-1.164,1.042h4.466v0.896c-2.635,2.854-6.146,4.624-10.539,5.313
			c-0.146-0.297-0.332-0.604-0.554-0.921c1.997-0.287,3.784-0.772,5.363-1.46c-0.238-0.311-0.577-0.69-1.019-1.142l0.735-0.54
			c0.418,0.435,0.799,0.863,1.14,1.289c1.377-0.703,2.557-1.563,3.547-2.577h-4.207c-1.441,1.08-2.958,1.963-4.552,2.649
			c-0.149-0.235-0.345-0.513-0.59-0.832C58.938,26.153,60.989,24.914,62.821,23.352z"/>
	</g>
</g>
</svg>
