<?xml version="1.0" encoding="utf-8"?>
<!-- Generator: Adobe Illustrator 16.0.0, SVG Export Plug-In . SVG Version: 6.00 Build 0)  -->
<!DOCTYPE svg PUBLIC "-//W3C//DTD SVG 1.1//EN" "http://www.w3.org/Graphics/SVG/1.1/DTD/svg11.dtd">
<svg version="1.1" id="图层_1" xmlns="http://www.w3.org/2000/svg" xmlns:xlink="http://www.w3.org/1999/xlink" x="0px" y="0px"
	 width="13px" height="17px" viewBox="4.59 2.891 13 17" enable-background="new 4.59 2.891 13 17" xml:space="preserve">
<g id="图层_1_1_">
	<g>
		<g>
			<defs>
				<path id="SVGID_1_" d="M20.521,26.133H2.666c-1.325,0-2.402-1.018-2.402-2.272V13.714c0-1.248,1.065-2.264,2.381-2.274V8.641
					c0-4.673,4.015-8.474,8.949-8.474c4.933,0,8.95,3.801,8.95,8.474v2.799c1.315,0.011,2.38,1.027,2.38,2.274V23.86
					C22.924,25.116,21.848,26.133,20.521,26.133L20.521,26.133z M2.666,12.607c-0.646,0-1.17,0.497-1.17,1.107V23.86
					c0,0.607,0.524,1.105,1.17,1.105h17.855c0.646,0,1.17-0.498,1.17-1.105V13.714c0-0.611-0.524-1.107-1.17-1.107h-1.209V8.641
					c0-4.029-3.465-7.307-7.718-7.307c-4.256,0-7.718,3.278-7.718,7.307v3.966H2.666L2.666,12.607z M16.973,12.607H6.216V8.641
					c0-2.808,2.412-5.092,5.378-5.092s5.378,2.285,5.378,5.092V12.607L16.973,12.607z M7.447,11.44h8.294V8.641
					c0-2.165-1.861-3.926-4.147-3.926c-2.287,0-4.147,1.761-4.147,3.926V11.44L7.447,11.44z"/>
			</defs>
			<clipPath id="SVGID_2_">
				<use xlink:href="#SVGID_1_"  overflow="visible"/>
			</clipPath>
		</g>
	</g>
</g>
<g id="图层_1_x5F_复制">
</g>
<path fill="#999999" d="M17.074,10.157c-0.325-0.336-0.764-0.538-1.248-0.538h-0.125V7.658c0-1.303-0.516-2.501-1.361-3.365
	c-0.834-0.861-1.988-1.402-3.256-1.402c-1.235,0-2.38,0.523-3.205,1.366L7.828,4.293C6.992,5.157,6.471,6.355,6.471,7.658v1.961
	H6.343c-0.486,0-0.917,0.201-1.238,0.538l0,0v0.005c-0.318,0.331-0.516,0.777-0.516,1.274v6.64c0,0.5,0.198,0.958,0.516,1.285
	c0.32,0.333,0.752,0.529,1.238,0.529h9.483c0.453,0,0.876-0.175,1.193-0.484l0.055-0.045c0.309-0.327,0.516-0.785,0.516-1.285v-6.64
	C17.59,10.939,17.383,10.493,17.074,10.157L17.074,10.157z M7.925,7.658L7.925,7.658c0-0.893,0.365-1.714,0.934-2.299l0.031-0.038
	c0.566-0.569,1.349-0.927,2.194-0.927c0.878,0,1.661,0.367,2.237,0.965c0.566,0.585,0.922,1.406,0.922,2.299v1.961H7.925V7.658
	L7.925,7.658z M16.129,18.076L16.129,18.076c0,0.085-0.035,0.166-0.087,0.224l-0.021,0.022c-0.058,0.04-0.125,0.062-0.195,0.062
	H6.343c-0.074,0-0.155-0.025-0.207-0.084c-0.063-0.058-0.092-0.139-0.092-0.224v-6.64c0-0.091,0.03-0.166,0.092-0.219
	c0.052-0.055,0.133-0.096,0.207-0.096h9.483c0.081,0,0.159,0.041,0.216,0.096c0.052,0.065,0.087,0.137,0.087,0.219V18.076
	L16.129,18.076z M11.083,12.292L11.083,12.292c-0.473,0-0.917,0.197-1.235,0.526c-0.32,0.326-0.516,0.78-0.516,1.279
	c0,0.506,0.195,0.953,0.516,1.279c0.216,0.229,0.495,0.394,0.804,0.473v0.927c0,0.245,0.195,0.448,0.432,0.448
	c0.249,0,0.439-0.203,0.439-0.448V15.85c0.313-0.079,0.583-0.244,0.809-0.473c0.309-0.326,0.516-0.773,0.516-1.279
	c0-0.499-0.207-0.953-0.516-1.279C12.006,12.49,11.569,12.292,11.083,12.292L11.083,12.292z M11.713,14.743L11.713,14.743
	c-0.16,0.158-0.371,0.26-0.608,0.267h-0.021h-0.021c-0.225-0.007-0.443-0.108-0.597-0.267c-0.16-0.161-0.258-0.396-0.258-0.646
	c0-0.25,0.098-0.478,0.258-0.643c0.153-0.161,0.381-0.266,0.618-0.266c0.249,0,0.464,0.105,0.629,0.266
	c0.154,0.166,0.259,0.393,0.259,0.643C11.972,14.347,11.867,14.582,11.713,14.743L11.713,14.743z"/>
</svg>
