<?xml version="1.0" encoding="utf-8"?>
<!-- Generator: Adobe Illustrator 16.0.0, SVG Export Plug-In . SVG Version: 6.00 Build 0)  -->
<!DOCTYPE svg PUBLIC "-//W3C//DTD SVG 1.1//EN" "http://www.w3.org/Graphics/SVG/1.1/DTD/svg11.dtd">
<svg version="1.1" id="图层_1" xmlns="http://www.w3.org/2000/svg" xmlns:xlink="http://www.w3.org/1999/xlink" x="0px" y="0px"
	 width="24px" height="24px" viewBox="0 0 24 24" enable-background="new 0 0 24 24" xml:space="preserve">
<g>
	<polygon fill-rule="evenodd" clip-rule="evenodd" fill="#231815" points="3.707,10.822 3.669,10.683 3.628,10.507 3.608,10.409 
		3.608,10.291 3.608,10.146 3.608,10.015 3.648,9.852 3.691,9.692 3.747,9.517 3.829,9.315 3.928,9.119 4.066,8.92 4.066,8.78 
		4.086,8.645 4.106,8.466 4.165,8.265 4.224,8.048 4.265,7.948 4.322,7.851 4.383,7.752 4.463,7.672 4.463,7.533 4.463,7.376 
		4.463,7.175 4.5,6.92 4.541,6.62 4.619,6.263 4.721,5.892 4.797,5.69 4.877,5.47 4.957,5.258 5.055,5.037 5.158,4.799 5.275,4.563 
		5.414,4.323 5.572,4.085 5.651,3.943 5.731,3.826 5.909,3.571 6.091,3.313 6.304,3.055 6.524,2.798 6.764,2.539 7.018,2.281 
		7.318,2.001 7.514,1.825 7.751,1.647 7.99,1.487 8.247,1.333 8.507,1.191 8.783,1.073 9.079,0.937 9.376,0.833 9.675,0.733 
		9.993,0.638 10.312,0.558 10.647,0.497 10.981,0.439 11.319,0.398 11.657,0.356 12.014,0.334 12.352,0.334 12.709,0.334 
		13.064,0.334 13.42,0.38 13.775,0.416 14.135,0.454 14.471,0.538 14.828,0.614 15.166,0.694 15.521,0.797 15.861,0.914 
		16.176,1.051 16.514,1.191 16.83,1.348 17.129,1.525 17.424,1.708 17.684,1.886 17.801,1.985 17.918,2.065 18.156,2.261 
		18.357,2.455 18.557,2.656 18.754,2.877 18.91,3.089 19.092,3.313 19.23,3.549 19.369,3.769 19.504,4.005 19.623,4.226 
		19.824,4.681 19.922,4.915 20.002,5.137 20.08,5.372 20.143,5.591 20.199,5.788 20.26,6.006 20.359,6.404 20.439,6.757 
		20.479,7.098 20.516,7.376 20.578,7.79 20.596,7.851 20.635,7.93 20.773,8.146 20.854,8.286 20.932,8.441 21.031,8.606 21.111,8.8 
		21.172,9 21.23,9.218 21.27,9.44 21.289,9.554 21.309,9.692 21.309,9.813 21.289,9.931 21.289,10.071 21.25,10.211 21.195,10.485 
		21.133,10.625 21.072,10.785 21.072,10.822 21.092,10.865 21.172,10.981 21.486,11.442 21.727,11.792 21.844,12.016 22.002,12.272 
		22.143,12.547 22.303,12.846 22.459,13.185 22.637,13.56 22.738,13.796 22.838,14.017 22.914,14.254 22.998,14.475 23.055,14.69 
		23.115,14.908 23.195,15.321 23.254,15.738 23.295,16.114 23.295,16.315 23.295,16.491 23.295,16.651 23.271,16.829 23.23,17.148 
		23.174,17.44 23.092,17.702 23.055,17.816 22.998,17.937 22.938,18.035 22.873,18.139 22.814,18.214 22.738,18.299 22.678,18.374 
		22.6,18.435 22.52,18.473 22.441,18.515 22.381,18.532 22.322,18.532 22.281,18.532 22.219,18.515 22.104,18.458 22.045,18.416 
		21.988,18.374 21.926,18.316 21.863,18.256 21.764,18.139 21.646,17.979 21.547,17.816 21.449,17.683 21.35,17.523 21.213,17.243 
		21.072,16.965 21.053,16.949 21.031,16.949 20.971,16.985 20.932,17.069 20.871,17.165 20.773,17.44 20.617,17.838 20.42,18.316 
		20.279,18.557 20.119,18.812 19.941,19.092 19.744,19.364 19.645,19.482 19.523,19.623 19.248,19.899 19.27,19.923 19.309,19.96 
		19.447,20.041 20.021,20.318 20.279,20.459 20.516,20.599 20.754,20.772 20.971,20.951 21.072,21.031 21.15,21.13 21.23,21.232 
		21.289,21.351 21.328,21.449 21.369,21.563 21.389,21.665 21.408,21.782 21.389,21.862 21.389,21.941 21.369,22.021 21.328,22.102 
		21.309,22.158 21.27,22.237 21.172,22.378 21.072,22.497 20.994,22.575 20.932,22.637 20.773,22.759 20.596,22.854 20.396,22.952 
		20.199,23.051 19.965,23.131 19.844,23.173 19.727,23.21 19.467,23.271 19.189,23.332 18.91,23.39 18.613,23.43 18.297,23.45 
		17.98,23.488 17.664,23.488 17.326,23.488 16.988,23.488 16.633,23.472 16.297,23.43 15.938,23.39 15.582,23.352 15.205,23.294 
		14.848,23.21 14.492,23.131 14.135,23.032 13.775,22.914 13.42,22.796 13.24,22.736 13.064,22.676 12.963,22.637 12.864,22.618 
		12.727,22.618 12.567,22.618 12.231,22.596 12.056,22.575 11.834,22.559 11.693,22.676 11.497,22.796 11.239,22.934 10.943,23.092 
		10.765,23.173 10.584,23.248 10.173,23.407 9.952,23.472 9.714,23.528 9.397,23.591 9.201,23.608 8.979,23.628 8.763,23.648 
		8.507,23.666 8.247,23.666 7.99,23.666 7.436,23.666 6.842,23.648 6.266,23.591 5.966,23.549 5.689,23.506 5.414,23.472 
		5.134,23.407 4.877,23.332 4.619,23.271 4.383,23.173 4.165,23.092 3.965,22.989 3.787,22.876 3.608,22.759 3.55,22.698 
		3.473,22.618 3.412,22.559 3.354,22.479 3.309,22.397 3.271,22.322 3.214,22.158 3.193,22.083 3.175,21.984 3.175,21.904 
		3.193,21.807 3.193,21.704 3.214,21.604 3.214,21.548 3.214,21.407 3.233,21.309 3.271,21.19 3.309,21.072 3.373,20.933 
		3.431,20.872 3.473,20.814 3.587,20.675 3.669,20.613 3.747,20.558 3.829,20.496 3.948,20.459 4.046,20.397 4.165,20.337 
		4.303,20.298 4.442,20.257 4.603,20.222 4.759,20.199 4.939,20.177 5.134,20.158 5.177,20.143 5.196,20.143 5.214,20.121 
		5.214,20.101 5.177,20.06 5.074,20.002 4.818,19.782 4.639,19.643 4.442,19.464 4.243,19.265 4.026,19.009 3.787,18.731 
		3.691,18.575 3.569,18.416 3.473,18.233 3.373,18.035 3.255,17.838 3.175,17.622 3.073,17.403 2.975,17.165 2.896,16.928 
		2.835,16.651 2.815,16.63 2.795,16.63 2.777,16.612 2.758,16.612 2.718,16.63 2.697,16.651 2.675,16.688 2.66,16.749 2.637,16.806 
		2.6,16.889 2.481,17.105 2.42,17.229 2.321,17.342 2.223,17.481 2.105,17.622 1.984,17.759 1.843,17.881 1.707,17.997 
		1.568,18.102 1.407,18.198 1.249,18.256 1.071,18.299 0.894,18.316 0.875,18.316 0.856,18.316 0.815,18.299 0.775,18.233 
		0.735,18.198 0.659,18.035 0.618,17.937 0.575,17.816 0.538,17.683 0.519,17.543 0.458,17.243 0.436,17.069 0.436,16.889 
		0.436,16.491 0.458,16.058 0.498,15.833 0.538,15.604 0.575,15.362 0.637,15.124 0.716,14.865 0.794,14.607 0.894,14.353 
		0.993,14.096 1.13,13.836 1.249,13.56 1.407,13.301 1.588,13.021 1.767,12.767 1.961,12.49 2.121,12.292 2.321,12.072 
		2.534,11.837 2.637,11.734 2.758,11.615 2.934,11.457 3.116,11.302 3.412,11.039 3.628,10.88 3.707,10.822 	"/>
	
		<polyline fill-rule="evenodd" clip-rule="evenodd" fill="none" stroke="#231815" stroke-width="0.0736" stroke-miterlimit="2.4142" points="
		1.961,12.49 2.321,12.072 2.519,11.837 2.735,11.615 3.412,11.039 3.707,10.822 	"/>
	<path fill-rule="evenodd" clip-rule="evenodd" fill="#FFFFFF" d="M11.936,5.729c0,1.146-0.596,2.084-1.329,2.084
		c-0.752,0-1.348-0.938-1.348-2.084c0-1.165,0.596-2.101,1.348-2.101C11.34,3.628,11.936,4.563,11.936,5.729L11.936,5.729z"/>
	<path fill-rule="evenodd" clip-rule="evenodd" fill="#FFFFFF" d="M15.861,5.751c0,1.146-0.598,2.08-1.334,2.08
		c-0.752,0-1.348-0.934-1.348-2.08c0-1.172,0.596-2.104,1.348-2.104C15.264,3.647,15.861,4.579,15.861,5.751L15.861,5.751z"/>
	<path fill-rule="evenodd" clip-rule="evenodd" fill="#231815" d="M11.737,5.751c0,0.433-0.221,0.789-0.477,0.789
		c-0.261,0-0.475-0.356-0.475-0.789c0-0.46,0.214-0.813,0.475-0.813C11.517,4.938,11.737,5.291,11.737,5.751L11.737,5.751z"/>
	<polygon fill-rule="evenodd" clip-rule="evenodd" fill="#231815" points="13.879,6.104 13.836,6.089 13.816,6.089 13.799,6.065 
		13.775,6.006 13.775,5.99 13.762,5.949 13.762,5.868 13.762,5.788 13.799,5.61 13.816,5.512 13.857,5.432 13.898,5.349 
		13.938,5.314 13.953,5.273 14.035,5.216 14.115,5.154 14.191,5.117 14.293,5.095 14.396,5.117 14.434,5.117 14.492,5.137 
		14.527,5.154 14.57,5.174 14.633,5.23 14.689,5.314 14.752,5.395 14.787,5.493 14.809,5.572 14.828,5.671 14.848,5.77 
		14.848,5.926 14.828,5.99 14.809,6.043 14.787,6.089 14.752,6.089 14.709,6.089 14.668,6.065 14.633,6.043 14.611,6.006 
		14.551,5.907 14.512,5.788 14.471,5.671 14.434,5.572 14.396,5.534 14.373,5.512 14.332,5.493 14.293,5.493 14.234,5.512 
		14.191,5.534 14.156,5.572 14.135,5.61 14.072,5.709 14.035,5.813 13.979,6.024 13.938,6.089 13.918,6.104 13.879,6.104 	"/>
	<polygon fill-rule="evenodd" clip-rule="evenodd" fill="#E8A916" points="8.94,10.605 8.681,10.542 8.427,10.466 8.108,10.367 
		7.952,10.306 7.812,10.25 7.651,10.189 7.534,10.132 7.436,10.048 7.396,10.033 7.356,9.991 7.318,9.95 7.294,9.916 7.294,9.852 
		7.294,9.813 7.318,9.791 7.375,9.71 7.494,9.615 7.651,9.517 7.849,9.396 7.952,9.338 8.091,9.258 8.345,9.142 8.663,9 
		9.021,8.883 9.397,8.766 9.815,8.645 10.27,8.546 10.765,8.466 11.261,8.408 11.537,8.366 11.813,8.348 12.389,8.325 12.709,8.325 
		13.004,8.325 13.303,8.348 13.602,8.366 13.879,8.408 14.156,8.428 14.412,8.466 14.668,8.506 15.146,8.606 15.602,8.724 
		16.002,8.842 16.373,8.981 16.691,9.119 16.988,9.258 17.227,9.377 17.424,9.494 17.586,9.615 17.684,9.71 17.764,9.775 
		17.764,9.813 17.781,9.832 17.764,9.852 17.764,9.874 17.721,9.931 17.586,10.048 17.482,10.11 17.385,10.171 17.148,10.306 
		17.01,10.367 16.869,10.432 16.594,10.526 16.436,10.564 16.297,10.588 16.156,10.605 16.016,10.605 16.336,10.33 16.455,10.211 
		16.555,10.11 16.611,10.015 16.633,9.931 16.611,9.931 16.555,9.95 16.336,10.11 16.156,10.211 15.957,10.349 15.721,10.485 
		15.443,10.645 15.123,10.785 14.967,10.865 14.787,10.921 14.412,11.063 14.016,11.18 13.816,11.219 13.602,11.282 13.381,11.302 
		13.146,11.339 12.905,11.357 12.667,11.382 12.409,11.382 12.151,11.357 11.972,11.357 11.798,11.339 11.438,11.282 11.103,11.198 
		10.765,11.123 10.465,11.005 10.173,10.88 9.911,10.767 9.653,10.645 9.438,10.507 9.22,10.387 9.042,10.269 8.882,10.171 
		8.544,9.916 8.524,9.916 8.565,9.991 8.704,10.23 8.94,10.605 	"/>
	<polygon fill-rule="evenodd" clip-rule="evenodd" fill="#CB352A" points="4.421,8.606 4.442,8.645 4.52,8.766 4.619,8.92 
		4.797,9.16 4.897,9.274 5.037,9.418 5.177,9.573 5.333,9.71 5.689,10.048 5.909,10.211 6.126,10.367 6.384,10.542 6.644,10.705 
		6.94,10.88 7.233,11.039 7.572,11.198 7.929,11.339 8.309,11.479 8.704,11.615 9.14,11.734 9.595,11.856 10.07,11.954 
		10.567,12.053 11.103,12.113 11.657,12.17 12.249,12.208 12.864,12.231 13.285,12.231 13.701,12.208 14.096,12.188 14.492,12.151 
		14.689,12.113 14.871,12.09 15.246,12.016 15.602,11.932 15.938,11.856 16.273,11.758 16.594,11.636 16.908,11.54 17.205,11.419 
		17.482,11.282 17.764,11.161 18.02,11.021 18.256,10.899 18.715,10.625 19.092,10.367 19.27,10.25 19.447,10.11 19.727,9.889 
		19.941,9.672 20.119,9.517 20.219,9.377 20.26,9.315 20.219,9.554 20.102,9.889 20.021,10.089 19.922,10.306 19.803,10.542 
		19.645,10.785 19.467,11.039 19.248,11.302 19.111,11.442 18.992,11.559 18.693,11.837 18.514,11.954 18.338,12.09 18.156,12.231 
		17.959,12.35 17.523,12.606 17.287,12.729 17.025,12.846 17.148,12.827 17.287,12.806 17.467,12.744 17.664,12.667 17.918,12.547 
		18.195,12.409 18.338,12.33 18.473,12.231 18.791,12.016 18.932,11.874 19.092,11.734 19.248,11.578 19.408,11.419 19.727,11.039 
		19.883,10.822 20.041,10.588 20.182,10.349 20.316,10.089 20.457,9.813 20.596,9.517 20.717,9.197 20.836,8.859 20.854,8.883 
		20.871,8.92 20.912,9.038 20.955,9.197 20.994,9.377 21.012,9.615 21.012,9.852 21.012,9.991 20.994,10.132 20.971,10.291 
		20.932,10.432 20.895,10.588 20.854,10.744 20.773,10.899 20.717,11.063 20.617,11.219 20.516,11.382 20.396,11.54 20.279,11.696 
		20.119,11.856 19.965,11.991 19.783,12.151 19.588,12.292 19.369,12.433 19.131,12.565 18.436,12.965 18.156,13.104 17.861,13.264 
		17.523,13.419 17.166,13.579 16.771,13.758 16.336,13.913 15.898,14.076 15.424,14.232 15.188,14.293 14.926,14.353 14.434,14.475 
		14.156,14.53 13.898,14.566 13.621,14.607 13.342,14.65 12.905,14.69 12.45,14.69 11.972,14.69 11.517,14.668 11.04,14.631 
		10.567,14.548 10.111,14.475 9.636,14.392 9.177,14.274 8.722,14.152 8.267,14.017 7.83,13.856 7.415,13.697 6.997,13.518 
		6.604,13.34 6.225,13.143 5.87,12.944 5.53,12.744 5.234,12.531 4.939,12.307 4.797,12.188 4.68,12.072 4.561,11.973 4.442,11.856 
		4.243,11.615 4.143,11.499 4.066,11.382 4.007,11.259 3.928,11.137 3.886,11.021 3.829,10.899 3.787,10.785 3.769,10.667 
		3.747,10.542 3.747,10.432 3.769,10.189 3.787,10.071 3.829,9.95 3.928,9.733 4.007,9.615 4.086,9.494 4.086,9.554 4.106,9.692 
		4.165,9.931 4.205,10.071 4.265,10.211 4.343,10.387 4.442,10.564 4.561,10.744 4.699,10.939 4.858,11.137 5.055,11.357 
		5.275,11.559 5.511,11.775 5.552,11.792 5.53,11.775 5.473,11.655 5.134,11.137 4.939,10.822 4.742,10.507 4.661,10.349 
		4.581,10.189 4.52,10.048 4.5,9.916 4.442,9.757 4.421,9.615 4.383,9.338 4.365,9.119 4.365,8.92 4.383,8.78 4.402,8.681 
		4.421,8.606 	"/>
	<polygon fill-rule="evenodd" clip-rule="evenodd" fill="#CB352A" points="6.9,13.66 6.802,14.034 6.722,14.434 6.681,14.65 
		6.624,14.908 6.581,15.161 6.563,15.439 6.544,15.698 6.544,15.975 6.544,16.233 6.563,16.355 6.581,16.472 6.624,16.688 
		6.66,16.806 6.702,16.909 6.737,16.985 6.802,17.048 6.858,17.105 6.921,17.165 6.997,17.229 7.103,17.284 7.276,17.363 
		7.375,17.383 7.494,17.425 7.712,17.463 7.83,17.481 7.952,17.5 8.168,17.523 8.403,17.523 8.624,17.523 8.821,17.523 8.999,17.5 
		9.276,17.481 9.417,17.463 9.455,17.44 9.474,17.403 9.517,17.363 9.571,17.263 9.653,17.105 9.692,16.909 9.731,16.651 
		9.755,16.491 9.755,16.335 9.714,15.956 9.614,15.223 9.571,14.865 9.558,14.729 9.558,14.65 9.276,14.566 9.079,14.509 
		8.999,14.509 8.962,14.49 8.925,14.509 8.9,14.566 8.882,14.65 8.882,14.745 8.861,14.984 8.861,15.283 8.882,15.561 8.9,15.833 
		8.94,16.199 8.94,16.217 8.925,16.199 8.882,16.176 8.821,16.039 8.743,15.815 8.704,15.683 8.663,15.542 8.604,15.203 
		8.565,15.006 8.565,14.789 8.544,14.566 8.565,14.331 8.188,14.232 7.87,14.113 7.593,13.992 7.356,13.894 7.159,13.796 
		7.018,13.734 6.9,13.66 	"/>
	<polygon fill-rule="evenodd" clip-rule="evenodd" fill="#FFFFFF" points="5.354,12.846 5.294,12.866 5.252,12.923 5.134,13.082 
		5.017,13.301 4.897,13.579 4.778,13.913 4.721,14.096 4.661,14.293 4.619,14.49 4.581,14.706 4.52,15.161 4.5,15.383 4.482,15.64 
		4.482,15.88 4.482,16.134 4.541,16.63 4.581,16.889 4.619,17.165 4.699,17.425 4.778,17.683 4.877,17.937 4.996,18.198 
		5.116,18.458 5.196,18.575 5.275,18.689 5.434,18.95 5.629,19.187 5.966,19.581 6.188,19.824 6.442,20.06 6.722,20.298 
		7.038,20.558 7.396,20.797 7.593,20.914 7.812,21.031 8.028,21.148 8.267,21.271 8.507,21.389 8.763,21.487 9.042,21.604 
		9.34,21.704 9.636,21.782 9.972,21.882 10.312,21.961 10.666,22.021 11.024,22.102 11.418,22.158 11.834,22.2 12.249,22.237 
		12.467,22.258 12.688,22.28 13.16,22.299 13.48,22.299 13.816,22.28 14.174,22.22 14.527,22.141 14.887,22.045 15.066,21.984 
		15.264,21.924 15.621,21.782 16.002,21.604 16.195,21.523 16.373,21.427 16.732,21.232 17.088,20.992 17.447,20.755 17.781,20.496 
		18.119,20.199 18.256,20.06 18.416,19.899 18.715,19.604 18.969,19.265 19.23,18.929 19.447,18.575 19.645,18.198 19.727,17.997 
		19.803,17.801 19.883,17.622 19.941,17.403 19.98,17.208 20.041,17.007 20.061,16.79 20.102,16.59 20.102,16.373 20.119,16.156 
		20.102,15.936 20.102,15.717 20.061,15.504 20.021,15.265 19.98,15.044 19.922,14.805 19.844,14.566 19.764,14.353 19.664,14.113 
		19.547,13.875 19.426,13.639 19.289,13.4 19.131,13.161 18.969,12.907 18.773,13.043 18.557,13.185 18.24,13.362 17.861,13.579 
		17.404,13.796 16.893,14.034 16.594,14.152 16.297,14.274 15.979,14.392 15.641,14.49 15.303,14.589 14.949,14.69 14.57,14.768 
		14.191,14.828 13.996,14.865 13.799,14.908 13.404,14.944 12.983,14.984 12.567,14.984 12.133,14.984 11.693,14.966 11.475,14.966 
		11.261,14.944 10.804,14.884 10.567,14.847 10.328,14.789 9.872,14.69 9.911,15.542 9.937,16.335 9.937,16.749 9.937,17.125 
		9.911,17.208 9.872,17.307 9.815,17.403 9.731,17.523 9.636,17.642 9.517,17.739 9.455,17.781 9.397,17.816 9.356,17.838 
		9.3,17.838 8.979,17.881 8.681,17.898 8.403,17.898 8.149,17.898 7.929,17.881 7.712,17.838 7.514,17.781 7.337,17.721 
		7.178,17.66 7.018,17.562 6.9,17.481 6.778,17.363 6.722,17.322 6.66,17.263 6.581,17.148 6.505,17.007 6.426,16.866 6.384,16.749 
		6.365,16.531 6.345,16.199 6.327,15.78 6.327,15.283 6.365,14.745 6.384,14.449 6.426,14.152 6.442,13.836 6.505,13.518 
		6.165,13.321 5.853,13.143 5.552,12.986 5.454,12.907 5.354,12.846 	"/>
	<polygon fill-rule="evenodd" clip-rule="evenodd" fill="#E8A916" points="5.294,20.257 5.158,20.238 5.017,20.257 4.877,20.279 
		4.721,20.318 4.561,20.378 4.402,20.436 4.243,20.515 4.086,20.599 3.948,20.675 3.829,20.755 3.727,20.853 3.648,20.951 
		3.608,20.992 3.587,21.031 3.569,21.108 3.569,21.168 3.569,21.21 3.587,21.232 3.608,21.271 3.628,21.286 3.691,21.286 
		3.829,21.232 3.928,21.21 4.046,21.19 4.165,21.19 4.224,21.19 4.303,21.21 4.026,21.369 3.886,21.472 3.829,21.523 3.769,21.582 
		3.628,21.704 3.587,21.764 3.529,21.824 3.494,21.904 3.473,21.984 3.431,22.045 3.431,22.124 3.431,22.2 3.449,22.237 
		3.473,22.28 3.529,22.356 3.608,22.458 3.727,22.575 3.867,22.676 4.046,22.796 4.265,22.899 4.5,22.989 4.759,23.092 
		4.917,23.153 5.074,23.19 5.414,23.271 5.812,23.332 6.225,23.39 6.442,23.407 6.681,23.43 6.921,23.45 7.178,23.45 7.478,23.45 
		7.675,23.43 7.91,23.43 8.188,23.39 8.483,23.37 8.783,23.332 9.103,23.294 9.417,23.233 9.731,23.173 10.028,23.092 
		10.312,22.989 10.567,22.899 10.666,22.835 10.786,22.759 10.863,22.698 10.962,22.618 11.024,22.559 11.079,22.479 11.062,22.458 
		11.024,22.458 10.825,22.417 10.091,22.299 9.614,22.2 9.103,22.083 8.821,21.999 8.565,21.924 8.288,21.844 8.009,21.745 
		7.712,21.624 7.436,21.506 7.178,21.389 6.921,21.271 6.681,21.148 6.442,21.031 6.245,20.914 6.069,20.797 5.731,20.576 
		5.495,20.416 5.294,20.257 	"/>
	<polygon fill-rule="evenodd" clip-rule="evenodd" fill="#E8A916" points="13.918,22.52 14.191,22.479 14.471,22.437 14.732,22.378 
		14.986,22.322 15.482,22.182 15.721,22.102 15.957,21.999 16.396,21.824 16.809,21.624 17.205,21.427 17.563,21.232 17.881,21.031 
		18.156,20.834 18.396,20.637 18.613,20.478 18.91,20.222 19.027,20.121 19.049,20.101 19.111,20.101 19.23,20.101 19.387,20.143 
		19.588,20.222 19.803,20.318 19.902,20.378 20.021,20.436 20.119,20.515 20.219,20.576 20.316,20.675 20.396,20.755 20.26,20.772 
		20.119,20.797 19.941,20.814 19.783,20.872 19.664,20.933 19.607,20.951 19.564,21.01 19.564,21.054 19.564,21.093 19.588,21.108 
		19.645,21.108 19.824,21.093 20.061,21.093 20.34,21.093 20.5,21.093 20.635,21.108 20.773,21.148 20.895,21.21 20.994,21.271 
		21.031,21.309 21.072,21.369 21.111,21.407 21.133,21.472 21.15,21.523 21.172,21.604 21.172,21.745 21.15,21.882 21.092,22.021 
		21.031,22.158 20.994,22.22 20.932,22.28 20.836,22.397 20.697,22.52 20.535,22.618 20.359,22.736 20.162,22.815 19.941,22.914 
		19.707,22.989 19.447,23.073 19.166,23.131 18.871,23.19 18.557,23.233 18.316,23.271 18.039,23.294 17.744,23.31 17.404,23.31 
		17.066,23.294 16.711,23.271 16.354,23.233 16.002,23.19 15.662,23.131 15.32,23.073 15.008,22.989 14.732,22.914 14.453,22.815 
		14.234,22.713 14.057,22.618 13.979,22.559 13.918,22.52 	"/>
</g>
</svg>
