<?xml version="1.0" encoding="utf-8"?>
<!-- Generator: Adobe Illustrator 16.0.0, SVG Export Plug-In . SVG Version: 6.00 Build 0)  -->
<!DOCTYPE svg PUBLIC "-//W3C//DTD SVG 1.1//EN" "http://www.w3.org/Graphics/SVG/1.1/DTD/svg11.dtd">
<svg version="1.1" id="图层_1" xmlns="http://www.w3.org/2000/svg" xmlns:xlink="http://www.w3.org/1999/xlink" x="0px" y="0px"
	 width="13px" height="13px" viewBox="0 0 13 13" enable-background="new 0 0 13 13" xml:space="preserve">
<path fill="#D94649" d="M12.588,10.926c-0.008-0.008-0.017-0.018-0.027-0.023c-1.393-1.213-2.357-2.094-2.839-2.541
	c-0.061-0.043-0.113-0.094-0.16-0.15c-0.12-0.145-0.189-0.326-0.189-0.527c0-0.035,0.001-0.072,0.005-0.105
	c0.01-0.072,0.026-0.139,0.053-0.201C9.45,7.326,9.474,7.279,9.501,7.236c0.319-0.65,0.5-1.378,0.507-2.15
	c0.017-2.738-2.188-4.971-4.925-4.987C5.072,0.097,5.061,0.097,5.051,0.097C2.327,0.099,0.113,2.296,0.094,5.023
	c-0.017,2.738,2.189,4.971,4.925,4.988c0.011,0,0.02,0,0.033,0c0.787,0,1.533-0.186,2.193-0.514C7.262,9.49,7.282,9.48,7.3,9.471
	c0.095-0.043,0.199-0.068,0.31-0.072c0.013-0.002,0.024-0.002,0.035-0.002c0.2,0,0.383,0.068,0.526,0.188
	c0.043,0.035,0.085,0.078,0.121,0.125c0.461,0.465,1.422,1.459,2.64,2.846c0.01,0.012,0.021,0.023,0.03,0.033
	c0.429,0.449,1.17,0.404,1.612-0.043C13.018,12.096,13.011,11.324,12.588,10.926 M7.652,7.674C7.251,8.072,6.775,8.369,6.253,8.547
	C5.873,8.68,5.466,8.746,5.052,8.746H5.027C2.992,8.734,1.345,7.068,1.359,5.032c0.013-2.025,1.669-3.67,3.692-3.67h0.025
	c0.984,0.006,1.91,0.396,2.602,1.099C8.371,3.162,8.75,4.091,8.744,5.08C8.74,5.515,8.662,5.939,8.517,6.338
	C8.33,6.834,8.04,7.291,7.652,7.674"/>
</svg>
