<?xml version="1.0" encoding="utf-8"?>
<!-- Generator: Adobe Illustrator 16.0.0, SVG Export Plug-In . SVG Version: 6.00 Build 0)  -->
<!DOCTYPE svg PUBLIC "-//W3C//DTD SVG 1.1//EN" "http://www.w3.org/Graphics/SVG/1.1/DTD/svg11.dtd">
<svg version="1.1" id="图层_1" xmlns="http://www.w3.org/2000/svg" xmlns:xlink="http://www.w3.org/1999/xlink" x="0px" y="0px"
	 width="14px" height="17.25px" viewBox="8 6.25 14 17.25" enable-background="new 8 6.25 14 17.25" xml:space="preserve">
<path fill="#999999" d="M17.39,18.239h-4.775c-0.443,0-0.87,0.091-1.27,0.259c-1.244,0.529-2.06,1.777-2.06,3.146v0.548h11.437
	v-0.548c0-1.133-0.555-2.198-1.488-2.829c-0.175-0.126-0.364-0.233-0.573-0.316c-0.2-0.084-0.403-0.148-0.616-0.194
	C17.826,18.262,17.607,18.239,17.39,18.239L17.39,18.239z M17.785,16.948L17.785,16.948c0.168,0.02,0.336,0.047,0.504,0.073
	c0.29,0.057,0.581,0.149,0.863,0.27C20.857,18.015,22,19.76,22,21.644v1.202c0,0.357-0.283,0.654-0.634,0.654h-0.02H8.641
	C8.287,23.5,8,23.203,8,22.846v-0.013v-1.189c0-1.893,1.129-3.617,2.85-4.353c0.432-0.175,0.895-0.296,1.366-0.343
	c-1.661-0.993-2.705-2.857-2.705-4.834c0-3.09,2.496-5.614,5.492-5.614c3.016,0,5.491,2.551,5.491,5.614
	C20.495,14.091,19.46,15.945,17.785,16.948L17.785,16.948z M15.004,7.807L15.004,7.807c-1.689,0-3.242,1.06-3.894,2.655
	c-0.209,0.519-0.317,1.077-0.317,1.652c0,1.721,1.016,3.304,2.569,3.972c1.043,0.455,2.232,0.444,3.275,0
	c1.563-0.678,2.578-2.251,2.578-3.972C19.214,9.767,17.335,7.807,15.004,7.807L15.004,7.807z"/>
</svg>
