<?xml version="1.0" encoding="utf-8"?>
<!-- Generator: Adobe Illustrator 16.0.0, SVG Export Plug-In . SVG Version: 6.00 Build 0)  -->
<!DOCTYPE svg PUBLIC "-//W3C//DTD SVG 1.1//EN" "http://www.w3.org/Graphics/SVG/1.1/DTD/svg11.dtd">
<svg version="1.1" id="图层_1" xmlns="http://www.w3.org/2000/svg" xmlns:xlink="http://www.w3.org/1999/xlink" x="0px" y="0px"
	 width="24px" height="24px" viewBox="0 0 24 24" enable-background="new 0 0 24 24" xml:space="preserve">
<g>
	
		<ellipse transform="matrix(0.9955 -0.0953 0.0953 0.9955 -1.542 0.9766)" fill-rule="evenodd" clip-rule="evenodd" fill="#FFFFFF" cx="9.457" cy="16.638" rx="8.478" ry="5.421"/>
	<path fill-rule="evenodd" clip-rule="evenodd" fill="#DE8D1E" d="M17.163,1.097c-0.456-0.044-0.879,0.23-0.941,0.67
		c-0.061,0.428,0.245,0.854,0.671,0.941c1.585,0.35,4.582,0.811,5.375,5.272c0.071,0.452,0.443,0.935,1.007,0.812
		c0.412-0.09,0.779-0.319,0.593-1.367C23.08,3.03,19.585,1.265,17.163,1.097z"/>
	<path fill-rule="evenodd" clip-rule="evenodd" fill="#DE8D1E" d="M18.767,8.08c-0.161-0.836-0.991-1.731-1.947-1.881
		c-0.293-0.047-0.558,0.126-0.642,0.407c-0.094,0.307,0.078,0.658,0.39,0.724c0.662,0.138,0.987,0.595,1.083,1.082
		c0,0,0.085,0.33,0.402,0.422C18.365,8.922,18.929,8.692,18.767,8.08z"/>
	<path fill-rule="evenodd" clip-rule="evenodd" fill="#DE8D1E" d="M21.117,7.97c-0.265-2.069-1.813-3.769-3.894-4.128
		c-0.695-0.12-1.015,0.379-1.015,0.777s0.283,0.685,0.808,0.831c1.393,0.387,2.287,0.998,2.531,2.608
		c0.071,0.468,0.499,0.718,0.809,0.718c0.42,0,0.759-0.34,0.759-0.759c0-0.016-0.002-0.03-0.002-0.045L21.117,7.97z"/>
	<path fill-rule="evenodd" clip-rule="evenodd" fill="#CA2929" d="M17.081,16.386c-0.277,2.897-4.41,5.219-8.889,5.104
		c-4.152-0.104-6.919-2.289-6.461-4.825c0.447-2.464,3.84-4.592,7.832-4.829C13.85,11.583,17.355,13.578,17.081,16.386
		L17.081,16.386z M16.429,11.742c-0.165,0.005-0.235,0.025-0.26-0.034c-0.02-0.049,0.003-0.102,0.093-0.327
		c0.249-0.627,0.645-1.917-0.168-2.636c-0.535-0.476-2.807-0.837-5.2,0.823c-0.117,0.083-0.312,0.259-0.409,0.226
		c-0.108-0.037-0.131-0.153-0.145-0.372c-0.08-1.182,0.915-4.467-1.649-4.194C5.966,5.689,2.288,9.996,1.238,12.08
		c-3.73,7.39,1.664,10.403,6.94,10.561c5.723,0.168,11.521-3.082,12.284-7.43C20.971,12.31,17.553,11.717,16.429,11.742z"/>
	<path fill-rule="evenodd" clip-rule="evenodd" fill="#060001" d="M9.255,16.789c-0.024,0.217-0.213,0.396-0.42,0.4
		c-0.204,0.003-0.34-0.167-0.315-0.38c0.026-0.213,0.207-0.389,0.409-0.395C9.129,16.402,9.278,16.571,9.255,16.789L9.255,16.789z
		 M8.564,17.822c0.07-0.674-0.382-1.191-1.014-1.165c-0.622,0.029-1.187,0.572-1.269,1.228c-0.084,0.66,0.354,1.188,0.981,1.178
		C7.9,19.052,8.486,18.494,8.564,17.822L8.564,17.822z M8.808,13.779c-1.896,0.103-3.601,1.606-3.871,3.393
		c-0.274,1.822,1.033,3.332,2.986,3.34c2.022,0.009,3.896-1.586,4.106-3.526C12.243,15.087,10.773,13.669,8.808,13.779z"/>
</g>
</svg>
