<?xml version="1.0" encoding="utf-8"?>
<!-- Generator: Adobe Illustrator 16.0.0, SVG Export Plug-In . SVG Version: 6.00 Build 0)  -->
<!DOCTYPE svg PUBLIC "-//W3C//DTD SVG 1.1//EN" "http://www.w3.org/Graphics/SVG/1.1/DTD/svg11.dtd">
<svg version="1.1" id="图层_1" xmlns="http://www.w3.org/2000/svg" xmlns:xlink="http://www.w3.org/1999/xlink" x="0px" y="0px"
	 width="24.322px" height="24.324px" viewBox="0 0 24.322 24.324" enable-background="new 0 0 24.322 24.324" xml:space="preserve">
<g>
	<defs>
		<path id="SVGID_1_" d="M20.62,0H3.703C1.657,0,0,1.658,0,3.702v16.917c0,2.047,1.657,3.705,3.703,3.705H20.62
			c2.045,0,3.703-1.658,3.703-3.705V3.702C24.322,1.658,22.665,0,20.62,0z"/>
	</defs>
	<clipPath id="SVGID_2_">
		<use xlink:href="#SVGID_1_"  overflow="visible"/>
	</clipPath>
	<g clip-path="url(#SVGID_2_)">
		<linearGradient id="SVGID_3_" gradientUnits="userSpaceOnUse" x1="12.833" y1="10.3569" x2="21.2021" y2="20.4879">
			<stop  offset="0" style="stop-color:#FFFFFF"/>
			<stop  offset="1" style="stop-color:#AFD4EC"/>
		</linearGradient>
		<path fill="url(#SVGID_3_)" d="M16.294,9.264c-3.44,0-6.149,2.356-6.149,5.248c0,2.896,2.709,5.248,6.149,5.248
			c0.72,0,1.447-0.182,2.169-0.363l1.984,1.086l-0.543-1.807c1.451-1.088,2.533-2.533,2.533-4.164
			C22.437,11.62,19.544,9.264,16.294,9.264z M14.301,13.607c-0.36,0-0.724-0.357-0.724-0.722c0-0.36,0.363-0.724,0.724-0.724
			c0.547,0,0.905,0.363,0.905,0.724C15.206,13.25,14.848,13.607,14.301,13.607z M18.278,13.607c-0.357,0-0.718-0.357-0.718-0.722
			c0-0.36,0.36-0.724,0.718-0.724c0.542,0,0.905,0.363,0.905,0.724C19.183,13.25,18.82,13.607,18.278,13.607z"/>
		<linearGradient id="SVGID_4_" gradientUnits="userSpaceOnUse" x1="11.2905" y1="4.5073" x2="5.5646" y2="16.84">
			<stop  offset="0" style="stop-color:#E4ECF6"/>
			<stop  offset="1" style="stop-color:#6D8ABF"/>
		</linearGradient>
		<path fill="url(#SVGID_4_)" d="M15.837,8.876c0.234,0,0.466,0.017,0.696,0.044c-0.626-2.914-3.74-5.079-7.295-5.079
			c-3.976,0-7.231,2.709-7.231,6.148c0,1.987,1.083,3.618,2.894,4.883l-0.723,2.174l2.527-1.268
			c0.905,0.178,1.631,0.363,2.534,0.363c0.226,0,0.451-0.01,0.674-0.029c-0.141-0.482-0.223-0.988-0.223-1.514
			C9.689,11.44,12.402,8.876,15.837,8.876z M11.949,6.915c0.544,0,0.905,0.358,0.905,0.902c0,0.543-0.361,0.904-0.905,0.904
			c-0.542,0-1.086-0.361-1.086-0.904C10.863,7.273,11.407,6.915,11.949,6.915z M6.889,8.722C6.347,8.722,5.8,8.36,5.8,7.817
			c0-0.544,0.547-0.902,1.088-0.902c0.542,0,0.903,0.358,0.903,0.902C7.792,8.36,7.431,8.722,6.889,8.722z"/>
		<path fill="#4E4D4D" d="M6.889,6.915C6.347,6.915,5.8,7.273,5.8,7.817c0,0.543,0.547,0.904,1.088,0.904
			c0.542,0,0.903-0.361,0.903-0.904C7.792,7.273,7.431,6.915,6.889,6.915z"/>
		<path fill="#4E4D4D" d="M14.301,12.161c-0.36,0-0.724,0.363-0.724,0.724c0,0.365,0.363,0.722,0.724,0.722
			c0.547,0,0.905-0.357,0.905-0.722C15.206,12.524,14.848,12.161,14.301,12.161z"/>
		<linearGradient id="SVGID_5_" gradientUnits="userSpaceOnUse" x1="12.1611" y1="0.103" x2="12.1611" y2="24.3512">
			<stop  offset="0" style="stop-color:#13833B"/>
			<stop  offset="0.5" style="stop-color:#015B31"/>
			<stop  offset="1" style="stop-color:#6DB131"/>
		</linearGradient>
		<path fill="url(#SVGID_5_)" d="M20.62,0H3.703C1.657,0,0,1.658,0,3.702v16.917c0,2.047,1.657,3.705,3.703,3.705H20.62
			c2.045,0,3.703-1.658,3.703-3.705V3.702C24.322,1.658,22.665,0,20.62,0z M9.238,16.142c-0.903,0-1.629-0.186-2.534-0.363
			l-2.527,1.268L4.9,14.873c-1.811-1.266-2.894-2.896-2.894-4.883c0-3.439,3.256-6.148,7.231-6.148c3.555,0,6.669,2.165,7.295,5.079
			c-0.23-0.027-0.461-0.044-0.696-0.044c-3.435,0-6.148,2.564-6.148,5.723c0,0.525,0.082,1.031,0.223,1.514
			C9.689,16.132,9.464,16.142,9.238,16.142z M19.904,18.675l0.543,1.807l-1.984-1.086c-0.723,0.182-1.449,0.363-2.169,0.363
			c-3.44,0-6.149-2.352-6.149-5.248c0-2.891,2.709-5.248,6.149-5.248c3.25,0,6.143,2.356,6.143,5.248
			C22.437,16.142,21.355,17.587,19.904,18.675z"/>
		<path fill="#4E4D4D" d="M18.278,12.161c-0.357,0-0.718,0.363-0.718,0.724c0,0.365,0.36,0.722,0.718,0.722
			c0.542,0,0.905-0.357,0.905-0.722C19.183,12.524,18.82,12.161,18.278,12.161z"/>
		<path fill="#4E4D4D" d="M11.949,8.722c0.544,0,0.905-0.361,0.905-0.904c0-0.544-0.361-0.902-0.905-0.902
			c-0.542,0-1.086,0.358-1.086,0.902C10.863,8.36,11.407,8.722,11.949,8.722z"/>
		<ellipse opacity="0.3" fill="#FFFFFF" cx="12.161" cy="-3.331" rx="19.986" ry="16.938"/>
	</g>
</g>
</svg>
